G04 (created by PCBNEW (2013-jul-07)-stable) date tis  3 feb 2015 18:16:58*
%MOIN*%
G04 Gerber Fmt 3.4, Leading zero omitted, Abs format*
%FSLAX34Y34*%
G01*
G70*
G90*
G04 APERTURE LIST*
%ADD10C,0.00590551*%
%ADD11R,0.0315X0.0098*%
%ADD12R,0.0315X0.0099*%
%ADD13R,0.0098X0.0315*%
%ADD14R,0.0099X0.0315*%
%ADD15R,0.0579X0.0165*%
%ADD16R,0.045X0.02*%
%ADD17R,0.035X0.055*%
%ADD18R,0.055X0.035*%
%ADD19R,0.06X0.08*%
%ADD20R,0.106299X0.0393701*%
%ADD21R,0.11811X0.0787402*%
%ADD22R,0.08X0.06*%
%ADD23R,0.12X0.065*%
%ADD24R,0.24X0.24*%
%ADD25R,0.06X0.06*%
%ADD26C,0.06*%
G04 APERTURE END LIST*
G54D10*
G54D11*
X81737Y-62543D03*
G54D12*
X81737Y-62740D03*
X81737Y-62937D03*
X81737Y-63134D03*
G54D11*
X81737Y-63330D03*
X81737Y-63527D03*
X81737Y-63723D03*
X81737Y-63920D03*
G54D12*
X81737Y-64116D03*
X81737Y-64313D03*
X81737Y-64510D03*
G54D11*
X81737Y-64707D03*
G54D13*
X82268Y-65238D03*
G54D14*
X82465Y-65238D03*
X82662Y-65238D03*
X82859Y-65238D03*
G54D13*
X83055Y-65238D03*
X83252Y-65238D03*
X83448Y-65238D03*
X83645Y-65238D03*
G54D14*
X83841Y-65238D03*
X84038Y-65238D03*
X84235Y-65238D03*
G54D13*
X84432Y-65238D03*
G54D11*
X84963Y-62543D03*
G54D12*
X84963Y-62740D03*
X84963Y-62937D03*
X84963Y-63134D03*
G54D11*
X84963Y-63330D03*
X84963Y-63527D03*
X84963Y-63723D03*
X84963Y-63920D03*
G54D12*
X84963Y-64116D03*
X84963Y-64313D03*
X84963Y-64510D03*
G54D11*
X84963Y-64707D03*
G54D13*
X82268Y-62012D03*
G54D14*
X82465Y-62012D03*
X82662Y-62012D03*
X82859Y-62012D03*
G54D13*
X83055Y-62012D03*
X83252Y-62012D03*
X83448Y-62012D03*
X83645Y-62012D03*
G54D14*
X83841Y-62012D03*
X84038Y-62012D03*
X84235Y-62012D03*
G54D13*
X84432Y-62012D03*
G54D15*
X81223Y-59278D03*
X81223Y-59022D03*
X81223Y-58766D03*
X81223Y-58510D03*
X83425Y-60042D03*
X81223Y-60046D03*
X81223Y-59790D03*
X81223Y-59534D03*
X83427Y-58254D03*
X83427Y-58510D03*
X83427Y-58766D03*
X83427Y-59022D03*
X83427Y-59278D03*
X83427Y-59534D03*
X81223Y-58254D03*
X83425Y-59790D03*
X81223Y-60302D03*
X81223Y-57998D03*
X83427Y-57998D03*
X83427Y-60302D03*
X81223Y-60557D03*
X81223Y-57743D03*
X83427Y-57743D03*
X83427Y-60557D03*
X81223Y-60813D03*
X81223Y-57487D03*
X83427Y-57487D03*
X83427Y-60813D03*
G54D16*
X80900Y-63150D03*
X80900Y-63650D03*
X80900Y-64150D03*
X80900Y-64650D03*
X80900Y-65150D03*
X80900Y-65650D03*
X80900Y-66150D03*
X80900Y-66650D03*
X78900Y-66650D03*
X78900Y-66150D03*
X78900Y-65650D03*
X78900Y-65150D03*
X78900Y-64650D03*
X78900Y-64150D03*
X78900Y-63650D03*
X78900Y-63150D03*
X72450Y-56050D03*
X72450Y-55550D03*
X72450Y-55050D03*
X72450Y-54550D03*
X72450Y-54050D03*
X72450Y-53550D03*
X72450Y-53050D03*
X72450Y-52550D03*
X74450Y-52550D03*
X74450Y-53050D03*
X74450Y-53550D03*
X74450Y-54050D03*
X74450Y-54550D03*
X74450Y-55050D03*
X74450Y-55550D03*
X74450Y-56050D03*
X85225Y-52850D03*
X85225Y-53350D03*
X85225Y-53850D03*
X85225Y-54350D03*
X85225Y-54850D03*
X85225Y-55350D03*
X85225Y-55850D03*
X85225Y-56350D03*
X83225Y-56350D03*
X83225Y-55850D03*
X83225Y-55350D03*
X83225Y-54850D03*
X83225Y-54350D03*
X83225Y-53850D03*
X83225Y-53350D03*
X83225Y-52850D03*
G54D17*
X80825Y-67400D03*
X81575Y-67400D03*
X80075Y-67750D03*
X79325Y-67750D03*
X78175Y-67600D03*
X77425Y-67600D03*
X78375Y-64600D03*
X77625Y-64600D03*
X78375Y-65300D03*
X77625Y-65300D03*
X85250Y-60075D03*
X84500Y-60075D03*
X85250Y-60800D03*
X84500Y-60800D03*
X85475Y-61500D03*
X86225Y-61500D03*
X85275Y-59350D03*
X86025Y-59350D03*
X75775Y-51200D03*
X76525Y-51200D03*
X75775Y-51900D03*
X76525Y-51900D03*
G54D18*
X75350Y-55025D03*
X75350Y-55775D03*
G54D17*
X76075Y-54550D03*
X76825Y-54550D03*
X76075Y-53800D03*
X76825Y-53800D03*
X82500Y-52050D03*
X81750Y-52050D03*
X82500Y-52800D03*
X81750Y-52800D03*
X82500Y-53550D03*
X81750Y-53550D03*
X82500Y-54300D03*
X81750Y-54300D03*
X82500Y-55075D03*
X81750Y-55075D03*
G54D19*
X71700Y-62200D03*
X73000Y-62200D03*
X70850Y-57200D03*
X72150Y-57200D03*
G54D17*
X81275Y-61350D03*
X82025Y-61350D03*
X72075Y-63100D03*
X72825Y-63100D03*
G54D18*
X71700Y-54275D03*
X71700Y-53525D03*
X81200Y-56175D03*
X81200Y-56925D03*
G54D17*
X86575Y-55350D03*
X85825Y-55350D03*
G54D20*
X77000Y-57700D03*
X77000Y-60455D03*
G54D21*
X77000Y-56912D03*
X77000Y-61243D03*
G54D22*
X75900Y-59750D03*
X75900Y-58450D03*
G54D23*
X74600Y-58100D03*
G54D24*
X72100Y-59000D03*
G54D23*
X74600Y-59900D03*
G54D25*
X86900Y-61600D03*
G54D26*
X86900Y-60600D03*
X86900Y-59600D03*
X86900Y-58600D03*
X86900Y-57600D03*
X86900Y-56600D03*
M02*
