G04 (created by PCBNEW (2013-jul-07)-stable) date tis  3 feb 2015 18:16:58*
%MOIN*%
G04 Gerber Fmt 3.4, Leading zero omitted, Abs format*
%FSLAX34Y34*%
G01*
G70*
G90*
G04 APERTURE LIST*
%ADD10C,0.00590551*%
%ADD11C,0.00984252*%
%ADD12C,0.0039*%
%ADD13C,0.005*%
%ADD14C,0.008*%
%ADD15C,0.012*%
%ADD16C,0.0001*%
%ADD17C,0.004*%
%ADD18C,0.0043*%
%ADD19C,0.00492126*%
G04 APERTURE END LIST*
G54D10*
X81320Y-49922D02*
X81303Y-49905D01*
X81270Y-49889D01*
X81185Y-49889D01*
X81151Y-49905D01*
X81135Y-49922D01*
X81118Y-49956D01*
X81118Y-49990D01*
X81135Y-50040D01*
X81337Y-50243D01*
X81118Y-50243D01*
X80898Y-49889D02*
X80865Y-49889D01*
X80831Y-49905D01*
X80814Y-49922D01*
X80797Y-49956D01*
X80780Y-50024D01*
X80780Y-50108D01*
X80797Y-50175D01*
X80814Y-50209D01*
X80831Y-50226D01*
X80865Y-50243D01*
X80898Y-50243D01*
X80932Y-50226D01*
X80949Y-50209D01*
X80966Y-50175D01*
X80983Y-50108D01*
X80983Y-50024D01*
X80966Y-49956D01*
X80949Y-49922D01*
X80932Y-49905D01*
X80898Y-49889D01*
X80443Y-50243D02*
X80645Y-50243D01*
X80544Y-50243D02*
X80544Y-49889D01*
X80578Y-49939D01*
X80611Y-49973D01*
X80645Y-49990D01*
X80122Y-49889D02*
X80291Y-49889D01*
X80308Y-50057D01*
X80291Y-50040D01*
X80257Y-50024D01*
X80173Y-50024D01*
X80139Y-50040D01*
X80122Y-50057D01*
X80105Y-50091D01*
X80105Y-50175D01*
X80122Y-50209D01*
X80139Y-50226D01*
X80173Y-50243D01*
X80257Y-50243D01*
X80291Y-50226D01*
X80308Y-50209D01*
X79937Y-50226D02*
X79937Y-50243D01*
X79953Y-50277D01*
X79970Y-50294D01*
X79515Y-50243D02*
X79515Y-49889D01*
X79397Y-50142D01*
X79279Y-49889D01*
X79279Y-50243D01*
X79110Y-50243D02*
X79110Y-49889D01*
X78992Y-49889D02*
X78789Y-49889D01*
X78890Y-50243D02*
X78890Y-49889D01*
X78232Y-50243D02*
X78401Y-50243D01*
X78401Y-49889D01*
X78114Y-50243D02*
X78114Y-50007D01*
X78114Y-49889D02*
X78131Y-49905D01*
X78114Y-49922D01*
X78097Y-49905D01*
X78114Y-49889D01*
X78114Y-49922D01*
X77794Y-50226D02*
X77827Y-50243D01*
X77895Y-50243D01*
X77929Y-50226D01*
X77946Y-50209D01*
X77962Y-50175D01*
X77962Y-50074D01*
X77946Y-50040D01*
X77929Y-50024D01*
X77895Y-50007D01*
X77827Y-50007D01*
X77794Y-50024D01*
X77507Y-50226D02*
X77541Y-50243D01*
X77608Y-50243D01*
X77642Y-50226D01*
X77659Y-50192D01*
X77659Y-50057D01*
X77642Y-50024D01*
X77608Y-50007D01*
X77541Y-50007D01*
X77507Y-50024D01*
X77490Y-50057D01*
X77490Y-50091D01*
X77659Y-50125D01*
X77338Y-50007D02*
X77338Y-50243D01*
X77338Y-50040D02*
X77321Y-50024D01*
X77288Y-50007D01*
X77237Y-50007D01*
X77203Y-50024D01*
X77186Y-50057D01*
X77186Y-50243D01*
X77034Y-50226D02*
X77001Y-50243D01*
X76933Y-50243D01*
X76899Y-50226D01*
X76883Y-50192D01*
X76883Y-50175D01*
X76899Y-50142D01*
X76933Y-50125D01*
X76984Y-50125D01*
X77018Y-50108D01*
X77034Y-50074D01*
X77034Y-50057D01*
X77018Y-50024D01*
X76984Y-50007D01*
X76933Y-50007D01*
X76899Y-50024D01*
X76596Y-50226D02*
X76629Y-50243D01*
X76697Y-50243D01*
X76731Y-50226D01*
X76748Y-50192D01*
X76748Y-50057D01*
X76731Y-50024D01*
X76697Y-50007D01*
X76629Y-50007D01*
X76596Y-50024D01*
X76579Y-50057D01*
X76579Y-50091D01*
X76748Y-50125D01*
X80940Y-53493D02*
X81058Y-53324D01*
X81142Y-53493D02*
X81142Y-53139D01*
X81007Y-53139D01*
X80974Y-53155D01*
X80957Y-53172D01*
X80940Y-53206D01*
X80940Y-53257D01*
X80957Y-53290D01*
X80974Y-53307D01*
X81007Y-53324D01*
X81142Y-53324D01*
X80788Y-53493D02*
X80788Y-53257D01*
X80788Y-53139D02*
X80805Y-53155D01*
X80788Y-53172D01*
X80771Y-53155D01*
X80788Y-53139D01*
X80788Y-53172D01*
X80467Y-53476D02*
X80501Y-53493D01*
X80569Y-53493D01*
X80602Y-53476D01*
X80619Y-53459D01*
X80636Y-53425D01*
X80636Y-53324D01*
X80619Y-53290D01*
X80602Y-53274D01*
X80569Y-53257D01*
X80501Y-53257D01*
X80467Y-53274D01*
X80316Y-53493D02*
X80316Y-53139D01*
X80282Y-53358D02*
X80181Y-53493D01*
X80181Y-53257D02*
X80316Y-53392D01*
X79877Y-53493D02*
X79877Y-53307D01*
X79894Y-53274D01*
X79928Y-53257D01*
X79995Y-53257D01*
X80029Y-53274D01*
X79877Y-53476D02*
X79911Y-53493D01*
X79995Y-53493D01*
X80029Y-53476D01*
X80046Y-53442D01*
X80046Y-53409D01*
X80029Y-53375D01*
X79995Y-53358D01*
X79911Y-53358D01*
X79877Y-53341D01*
X79708Y-53493D02*
X79708Y-53257D01*
X79708Y-53324D02*
X79691Y-53290D01*
X79674Y-53274D01*
X79641Y-53257D01*
X79607Y-53257D01*
X79337Y-53493D02*
X79337Y-53139D01*
X79337Y-53476D02*
X79371Y-53493D01*
X79438Y-53493D01*
X79472Y-53476D01*
X79489Y-53459D01*
X79506Y-53425D01*
X79506Y-53324D01*
X79489Y-53290D01*
X79472Y-53274D01*
X79438Y-53257D01*
X79371Y-53257D01*
X79337Y-53274D01*
X78898Y-53307D02*
X78780Y-53307D01*
X78730Y-53493D02*
X78898Y-53493D01*
X78898Y-53139D01*
X78730Y-53139D01*
X78578Y-53493D02*
X78578Y-53257D01*
X78578Y-53324D02*
X78561Y-53290D01*
X78544Y-53274D01*
X78510Y-53257D01*
X78476Y-53257D01*
X78358Y-53493D02*
X78358Y-53257D01*
X78358Y-53139D02*
X78375Y-53155D01*
X78358Y-53172D01*
X78341Y-53155D01*
X78358Y-53139D01*
X78358Y-53172D01*
X78190Y-53493D02*
X78190Y-53139D01*
X78156Y-53358D02*
X78055Y-53493D01*
X78055Y-53257D02*
X78190Y-53392D01*
X77920Y-53476D02*
X77886Y-53493D01*
X77818Y-53493D01*
X77785Y-53476D01*
X77768Y-53442D01*
X77768Y-53425D01*
X77785Y-53392D01*
X77818Y-53375D01*
X77869Y-53375D01*
X77903Y-53358D01*
X77920Y-53324D01*
X77920Y-53307D01*
X77903Y-53274D01*
X77869Y-53257D01*
X77818Y-53257D01*
X77785Y-53274D01*
X77633Y-53476D02*
X77599Y-53493D01*
X77532Y-53493D01*
X77498Y-53476D01*
X77481Y-53442D01*
X77481Y-53425D01*
X77498Y-53392D01*
X77532Y-53375D01*
X77582Y-53375D01*
X77616Y-53358D01*
X77633Y-53324D01*
X77633Y-53307D01*
X77616Y-53274D01*
X77582Y-53257D01*
X77532Y-53257D01*
X77498Y-53274D01*
X77278Y-53493D02*
X77312Y-53476D01*
X77329Y-53459D01*
X77346Y-53425D01*
X77346Y-53324D01*
X77329Y-53290D01*
X77312Y-53274D01*
X77278Y-53257D01*
X77228Y-53257D01*
X77194Y-53274D01*
X77177Y-53290D01*
X77160Y-53324D01*
X77160Y-53425D01*
X77177Y-53459D01*
X77194Y-53476D01*
X77228Y-53493D01*
X77278Y-53493D01*
X77008Y-53257D02*
X77008Y-53493D01*
X77008Y-53290D02*
X76992Y-53274D01*
X76958Y-53257D01*
X76907Y-53257D01*
X76874Y-53274D01*
X76857Y-53307D01*
X76857Y-53493D01*
X81251Y-52876D02*
X81201Y-52893D01*
X81116Y-52893D01*
X81083Y-52876D01*
X81066Y-52859D01*
X81049Y-52825D01*
X81049Y-52792D01*
X81066Y-52758D01*
X81083Y-52741D01*
X81116Y-52724D01*
X81184Y-52707D01*
X81218Y-52690D01*
X81235Y-52674D01*
X81251Y-52640D01*
X81251Y-52606D01*
X81235Y-52572D01*
X81218Y-52555D01*
X81184Y-52539D01*
X81100Y-52539D01*
X81049Y-52555D01*
X80745Y-52893D02*
X80745Y-52707D01*
X80762Y-52674D01*
X80796Y-52657D01*
X80863Y-52657D01*
X80897Y-52674D01*
X80745Y-52876D02*
X80779Y-52893D01*
X80863Y-52893D01*
X80897Y-52876D01*
X80914Y-52842D01*
X80914Y-52809D01*
X80897Y-52775D01*
X80863Y-52758D01*
X80779Y-52758D01*
X80745Y-52741D01*
X80576Y-52657D02*
X80576Y-52960D01*
X80593Y-52994D01*
X80627Y-53011D01*
X80644Y-53011D01*
X80576Y-52539D02*
X80593Y-52555D01*
X80576Y-52572D01*
X80560Y-52555D01*
X80576Y-52539D01*
X80576Y-52572D01*
X80408Y-52657D02*
X80408Y-52960D01*
X80425Y-52994D01*
X80458Y-53011D01*
X80475Y-53011D01*
X80408Y-52539D02*
X80425Y-52555D01*
X80408Y-52572D01*
X80391Y-52555D01*
X80408Y-52539D01*
X80408Y-52572D01*
X80087Y-52893D02*
X80087Y-52707D01*
X80104Y-52674D01*
X80138Y-52657D01*
X80205Y-52657D01*
X80239Y-52674D01*
X80087Y-52876D02*
X80121Y-52893D01*
X80205Y-52893D01*
X80239Y-52876D01*
X80256Y-52842D01*
X80256Y-52809D01*
X80239Y-52775D01*
X80205Y-52758D01*
X80121Y-52758D01*
X80087Y-52741D01*
X79767Y-52893D02*
X79767Y-52539D01*
X79767Y-52876D02*
X79800Y-52893D01*
X79868Y-52893D01*
X79902Y-52876D01*
X79918Y-52859D01*
X79935Y-52825D01*
X79935Y-52724D01*
X79918Y-52690D01*
X79902Y-52674D01*
X79868Y-52657D01*
X79800Y-52657D01*
X79767Y-52674D01*
X79446Y-52893D02*
X79446Y-52707D01*
X79463Y-52674D01*
X79497Y-52657D01*
X79564Y-52657D01*
X79598Y-52674D01*
X79446Y-52876D02*
X79480Y-52893D01*
X79564Y-52893D01*
X79598Y-52876D01*
X79615Y-52842D01*
X79615Y-52809D01*
X79598Y-52775D01*
X79564Y-52758D01*
X79480Y-52758D01*
X79446Y-52741D01*
X79227Y-52893D02*
X79260Y-52876D01*
X79277Y-52842D01*
X79277Y-52539D01*
X79092Y-52893D02*
X79092Y-52657D01*
X79092Y-52539D02*
X79109Y-52555D01*
X79092Y-52572D01*
X79075Y-52555D01*
X79092Y-52539D01*
X79092Y-52572D01*
X78653Y-52893D02*
X78653Y-52539D01*
X78653Y-52707D02*
X78451Y-52707D01*
X78451Y-52893D02*
X78451Y-52539D01*
X78147Y-52876D02*
X78181Y-52893D01*
X78248Y-52893D01*
X78282Y-52876D01*
X78299Y-52842D01*
X78299Y-52707D01*
X78282Y-52674D01*
X78248Y-52657D01*
X78181Y-52657D01*
X78147Y-52674D01*
X78130Y-52707D01*
X78130Y-52741D01*
X78299Y-52775D01*
X77978Y-52893D02*
X77978Y-52657D01*
X77978Y-52690D02*
X77961Y-52674D01*
X77927Y-52657D01*
X77877Y-52657D01*
X77843Y-52674D01*
X77826Y-52707D01*
X77826Y-52893D01*
X77826Y-52707D02*
X77809Y-52674D01*
X77776Y-52657D01*
X77725Y-52657D01*
X77691Y-52674D01*
X77674Y-52707D01*
X77674Y-52893D01*
X77354Y-52893D02*
X77354Y-52707D01*
X77371Y-52674D01*
X77404Y-52657D01*
X77472Y-52657D01*
X77506Y-52674D01*
X77354Y-52876D02*
X77388Y-52893D01*
X77472Y-52893D01*
X77506Y-52876D01*
X77523Y-52842D01*
X77523Y-52809D01*
X77506Y-52775D01*
X77472Y-52758D01*
X77388Y-52758D01*
X77354Y-52741D01*
X77185Y-52657D02*
X77185Y-52893D01*
X77185Y-52690D02*
X77168Y-52674D01*
X77134Y-52657D01*
X77084Y-52657D01*
X77050Y-52674D01*
X77033Y-52707D01*
X77033Y-52893D01*
X76864Y-52893D02*
X76864Y-52657D01*
X76864Y-52539D02*
X76881Y-52555D01*
X76864Y-52572D01*
X76848Y-52555D01*
X76864Y-52539D01*
X76864Y-52572D01*
X80864Y-51492D02*
X80695Y-51492D01*
X80898Y-51593D02*
X80780Y-51239D01*
X80661Y-51593D01*
X80493Y-51593D02*
X80526Y-51576D01*
X80543Y-51542D01*
X80543Y-51239D01*
X80223Y-51576D02*
X80257Y-51593D01*
X80324Y-51593D01*
X80358Y-51576D01*
X80375Y-51542D01*
X80375Y-51407D01*
X80358Y-51374D01*
X80324Y-51357D01*
X80257Y-51357D01*
X80223Y-51374D01*
X80206Y-51407D01*
X80206Y-51441D01*
X80375Y-51475D01*
X80088Y-51593D02*
X79902Y-51357D01*
X80088Y-51357D02*
X79902Y-51593D01*
X79531Y-51239D02*
X79447Y-51593D01*
X79379Y-51340D01*
X79312Y-51593D01*
X79227Y-51239D01*
X78957Y-51576D02*
X78991Y-51593D01*
X79059Y-51593D01*
X79092Y-51576D01*
X79109Y-51542D01*
X79109Y-51407D01*
X79092Y-51374D01*
X79059Y-51357D01*
X78991Y-51357D01*
X78957Y-51374D01*
X78940Y-51407D01*
X78940Y-51441D01*
X79109Y-51475D01*
X78789Y-51357D02*
X78789Y-51593D01*
X78789Y-51390D02*
X78772Y-51374D01*
X78738Y-51357D01*
X78687Y-51357D01*
X78654Y-51374D01*
X78637Y-51407D01*
X78637Y-51593D01*
X78468Y-51357D02*
X78468Y-51593D01*
X78468Y-51390D02*
X78451Y-51374D01*
X78417Y-51357D01*
X78367Y-51357D01*
X78333Y-51374D01*
X78316Y-51407D01*
X78316Y-51593D01*
X78147Y-51593D02*
X78147Y-51239D01*
X78147Y-51374D02*
X78114Y-51357D01*
X78046Y-51357D01*
X78012Y-51374D01*
X77996Y-51390D01*
X77979Y-51424D01*
X77979Y-51525D01*
X77996Y-51559D01*
X78012Y-51576D01*
X78046Y-51593D01*
X78114Y-51593D01*
X78147Y-51576D01*
X77692Y-51576D02*
X77726Y-51593D01*
X77793Y-51593D01*
X77827Y-51576D01*
X77844Y-51542D01*
X77844Y-51407D01*
X77827Y-51374D01*
X77793Y-51357D01*
X77726Y-51357D01*
X77692Y-51374D01*
X77675Y-51407D01*
X77675Y-51441D01*
X77844Y-51475D01*
X77523Y-51593D02*
X77523Y-51357D01*
X77523Y-51424D02*
X77506Y-51390D01*
X77489Y-51374D01*
X77456Y-51357D01*
X77422Y-51357D01*
X77152Y-51357D02*
X77152Y-51644D01*
X77169Y-51677D01*
X77186Y-51694D01*
X77219Y-51711D01*
X77270Y-51711D01*
X77304Y-51694D01*
X77152Y-51576D02*
X77186Y-51593D01*
X77253Y-51593D01*
X77287Y-51576D01*
X77304Y-51559D01*
X77321Y-51525D01*
X77321Y-51424D01*
X77304Y-51390D01*
X77287Y-51374D01*
X77253Y-51357D01*
X77186Y-51357D01*
X77152Y-51374D01*
X80704Y-51126D02*
X80653Y-51143D01*
X80569Y-51143D01*
X80535Y-51126D01*
X80518Y-51109D01*
X80501Y-51075D01*
X80501Y-51042D01*
X80518Y-51008D01*
X80535Y-50991D01*
X80569Y-50974D01*
X80636Y-50957D01*
X80670Y-50940D01*
X80687Y-50924D01*
X80704Y-50890D01*
X80704Y-50856D01*
X80687Y-50822D01*
X80670Y-50805D01*
X80636Y-50789D01*
X80552Y-50789D01*
X80501Y-50805D01*
X80400Y-50907D02*
X80265Y-50907D01*
X80349Y-50789D02*
X80349Y-51092D01*
X80332Y-51126D01*
X80299Y-51143D01*
X80265Y-51143D01*
X80012Y-51126D02*
X80046Y-51143D01*
X80113Y-51143D01*
X80147Y-51126D01*
X80164Y-51092D01*
X80164Y-50957D01*
X80147Y-50924D01*
X80113Y-50907D01*
X80046Y-50907D01*
X80012Y-50924D01*
X79995Y-50957D01*
X79995Y-50991D01*
X80164Y-51025D01*
X79877Y-50907D02*
X79793Y-51143D01*
X79708Y-50907D01*
X79438Y-51126D02*
X79472Y-51143D01*
X79539Y-51143D01*
X79573Y-51126D01*
X79590Y-51092D01*
X79590Y-50957D01*
X79573Y-50924D01*
X79539Y-50907D01*
X79472Y-50907D01*
X79438Y-50924D01*
X79421Y-50957D01*
X79421Y-50991D01*
X79590Y-51025D01*
X79269Y-50907D02*
X79269Y-51143D01*
X79269Y-50940D02*
X79253Y-50924D01*
X79219Y-50907D01*
X79168Y-50907D01*
X79134Y-50924D01*
X79118Y-50957D01*
X79118Y-51143D01*
X78696Y-51042D02*
X78527Y-51042D01*
X78730Y-51143D02*
X78611Y-50789D01*
X78493Y-51143D01*
X78375Y-51143D02*
X78375Y-50907D01*
X78375Y-50974D02*
X78358Y-50940D01*
X78341Y-50924D01*
X78308Y-50907D01*
X78274Y-50907D01*
X78156Y-50907D02*
X78156Y-51143D01*
X78156Y-50940D02*
X78139Y-50924D01*
X78105Y-50907D01*
X78055Y-50907D01*
X78021Y-50924D01*
X78004Y-50957D01*
X78004Y-51143D01*
X77785Y-51143D02*
X77818Y-51126D01*
X77835Y-51109D01*
X77852Y-51075D01*
X77852Y-50974D01*
X77835Y-50940D01*
X77818Y-50924D01*
X77785Y-50907D01*
X77734Y-50907D01*
X77700Y-50924D01*
X77683Y-50940D01*
X77667Y-50974D01*
X77667Y-51075D01*
X77683Y-51109D01*
X77700Y-51126D01*
X77734Y-51143D01*
X77785Y-51143D01*
X77548Y-50907D02*
X77481Y-51143D01*
X77413Y-50974D01*
X77346Y-51143D01*
X77278Y-50907D01*
X80696Y-50592D02*
X80527Y-50592D01*
X80730Y-50693D02*
X80611Y-50339D01*
X80493Y-50693D01*
X80409Y-50693D02*
X80223Y-50457D01*
X80409Y-50457D02*
X80223Y-50693D01*
X79953Y-50676D02*
X79987Y-50693D01*
X80055Y-50693D01*
X80088Y-50676D01*
X80105Y-50642D01*
X80105Y-50507D01*
X80088Y-50474D01*
X80055Y-50457D01*
X79987Y-50457D01*
X79953Y-50474D01*
X79937Y-50507D01*
X79937Y-50541D01*
X80105Y-50575D01*
X79734Y-50693D02*
X79768Y-50676D01*
X79785Y-50642D01*
X79785Y-50339D01*
X79329Y-50693D02*
X79329Y-50339D01*
X79177Y-50676D02*
X79144Y-50693D01*
X79076Y-50693D01*
X79042Y-50676D01*
X79025Y-50642D01*
X79025Y-50625D01*
X79042Y-50592D01*
X79076Y-50575D01*
X79127Y-50575D01*
X79160Y-50558D01*
X79177Y-50524D01*
X79177Y-50507D01*
X79160Y-50474D01*
X79127Y-50457D01*
X79076Y-50457D01*
X79042Y-50474D01*
X78722Y-50693D02*
X78722Y-50507D01*
X78739Y-50474D01*
X78772Y-50457D01*
X78840Y-50457D01*
X78874Y-50474D01*
X78722Y-50676D02*
X78755Y-50693D01*
X78840Y-50693D01*
X78874Y-50676D01*
X78890Y-50642D01*
X78890Y-50609D01*
X78874Y-50575D01*
X78840Y-50558D01*
X78755Y-50558D01*
X78722Y-50541D01*
X78553Y-50693D02*
X78553Y-50339D01*
X78519Y-50558D02*
X78418Y-50693D01*
X78418Y-50457D02*
X78553Y-50592D01*
X78283Y-50676D02*
X78249Y-50693D01*
X78182Y-50693D01*
X78148Y-50676D01*
X78131Y-50642D01*
X78131Y-50625D01*
X78148Y-50592D01*
X78182Y-50575D01*
X78232Y-50575D01*
X78266Y-50558D01*
X78283Y-50524D01*
X78283Y-50507D01*
X78266Y-50474D01*
X78232Y-50457D01*
X78182Y-50457D01*
X78148Y-50474D01*
X77996Y-50676D02*
X77962Y-50693D01*
X77895Y-50693D01*
X77861Y-50676D01*
X77844Y-50642D01*
X77844Y-50625D01*
X77861Y-50592D01*
X77895Y-50575D01*
X77946Y-50575D01*
X77979Y-50558D01*
X77996Y-50524D01*
X77996Y-50507D01*
X77979Y-50474D01*
X77946Y-50457D01*
X77895Y-50457D01*
X77861Y-50474D01*
X77642Y-50693D02*
X77676Y-50676D01*
X77692Y-50659D01*
X77709Y-50625D01*
X77709Y-50524D01*
X77692Y-50490D01*
X77676Y-50474D01*
X77642Y-50457D01*
X77591Y-50457D01*
X77557Y-50474D01*
X77541Y-50490D01*
X77524Y-50524D01*
X77524Y-50625D01*
X77541Y-50659D01*
X77557Y-50676D01*
X77591Y-50693D01*
X77642Y-50693D01*
X77372Y-50457D02*
X77372Y-50693D01*
X77372Y-50490D02*
X77355Y-50474D01*
X77321Y-50457D01*
X77271Y-50457D01*
X77237Y-50474D01*
X77220Y-50507D01*
X77220Y-50693D01*
G54D11*
X76359Y-63287D02*
X75965Y-63287D01*
X76359Y-63512D02*
X76134Y-63343D01*
X75965Y-63512D02*
X76190Y-63287D01*
X76359Y-63850D02*
X76153Y-63850D01*
X76115Y-63831D01*
X76096Y-63793D01*
X76096Y-63718D01*
X76115Y-63681D01*
X76340Y-63850D02*
X76359Y-63812D01*
X76359Y-63718D01*
X76340Y-63681D01*
X76303Y-63662D01*
X76265Y-63662D01*
X76228Y-63681D01*
X76209Y-63718D01*
X76209Y-63812D01*
X76190Y-63850D01*
X76096Y-64037D02*
X76359Y-64037D01*
X76134Y-64037D02*
X76115Y-64056D01*
X76096Y-64093D01*
X76096Y-64150D01*
X76115Y-64187D01*
X76153Y-64206D01*
X76359Y-64206D01*
X76340Y-64543D02*
X76359Y-64506D01*
X76359Y-64431D01*
X76340Y-64393D01*
X76303Y-64375D01*
X76153Y-64375D01*
X76115Y-64393D01*
X76096Y-64431D01*
X76096Y-64506D01*
X76115Y-64543D01*
X76153Y-64562D01*
X76190Y-64562D01*
X76228Y-64375D01*
X76359Y-64787D02*
X76340Y-64749D01*
X76303Y-64731D01*
X75965Y-64731D01*
X76359Y-64937D02*
X75965Y-64937D01*
X76115Y-64937D02*
X76096Y-64974D01*
X76096Y-65049D01*
X76115Y-65087D01*
X76134Y-65106D01*
X76171Y-65124D01*
X76284Y-65124D01*
X76321Y-65106D01*
X76340Y-65087D01*
X76359Y-65049D01*
X76359Y-64974D01*
X76340Y-64937D01*
X76096Y-65462D02*
X76359Y-65462D01*
X76096Y-65293D02*
X76303Y-65293D01*
X76340Y-65312D01*
X76359Y-65349D01*
X76359Y-65406D01*
X76340Y-65443D01*
X76321Y-65462D01*
X76359Y-65706D02*
X76340Y-65668D01*
X76303Y-65649D01*
X75965Y-65649D01*
X76359Y-65912D02*
X76340Y-65874D01*
X76303Y-65856D01*
X75965Y-65856D01*
X76340Y-66212D02*
X76359Y-66174D01*
X76359Y-66099D01*
X76340Y-66062D01*
X76303Y-66043D01*
X76153Y-66043D01*
X76115Y-66062D01*
X76096Y-66099D01*
X76096Y-66174D01*
X76115Y-66212D01*
X76153Y-66231D01*
X76190Y-66231D01*
X76228Y-66043D01*
G54D12*
X81855Y-65199D02*
G75*
G03X81855Y-65199I-79J0D01*
G74*
G01*
X81973Y-65002D02*
X81973Y-62248D01*
X81973Y-62248D02*
X84727Y-62248D01*
X84727Y-62248D02*
X84727Y-65002D01*
X84727Y-65002D02*
X81973Y-65002D01*
G54D13*
X83225Y-57200D02*
X83225Y-61100D01*
X83225Y-61100D02*
X81425Y-61100D01*
X81425Y-61100D02*
X81425Y-57200D01*
X81425Y-57200D02*
X83225Y-57200D01*
X81836Y-60750D02*
G75*
G03X81836Y-60750I-111J0D01*
G74*
G01*
G54D14*
X79200Y-62750D02*
X79200Y-67050D01*
X79200Y-67050D02*
X80600Y-67050D01*
X80600Y-67050D02*
X80600Y-62750D01*
X80600Y-62750D02*
X79200Y-62750D01*
X79700Y-62750D02*
X79700Y-63050D01*
X79700Y-63050D02*
X80100Y-63050D01*
X80100Y-63050D02*
X80100Y-62750D01*
X74150Y-56450D02*
X74150Y-52150D01*
X74150Y-52150D02*
X72750Y-52150D01*
X72750Y-52150D02*
X72750Y-56450D01*
X72750Y-56450D02*
X74150Y-56450D01*
X73650Y-56450D02*
X73650Y-56150D01*
X73650Y-56150D02*
X73250Y-56150D01*
X73250Y-56150D02*
X73250Y-56450D01*
X83525Y-52450D02*
X83525Y-56750D01*
X83525Y-56750D02*
X84925Y-56750D01*
X84925Y-56750D02*
X84925Y-52450D01*
X84925Y-52450D02*
X83525Y-52450D01*
X84025Y-52450D02*
X84025Y-52750D01*
X84025Y-52750D02*
X84425Y-52750D01*
X84425Y-52750D02*
X84425Y-52450D01*
G54D12*
X80600Y-67100D02*
G75*
G03X80600Y-67100I-50J0D01*
G74*
G01*
X81000Y-67100D02*
X80600Y-67100D01*
X80600Y-67100D02*
X80600Y-67700D01*
X80600Y-67700D02*
X81000Y-67700D01*
X81400Y-67700D02*
X81800Y-67700D01*
X81800Y-67700D02*
X81800Y-67100D01*
X81800Y-67100D02*
X81400Y-67100D01*
X80400Y-68050D02*
G75*
G03X80400Y-68050I-50J0D01*
G74*
G01*
X79900Y-68050D02*
X80300Y-68050D01*
X80300Y-68050D02*
X80300Y-67450D01*
X80300Y-67450D02*
X79900Y-67450D01*
X79500Y-67450D02*
X79100Y-67450D01*
X79100Y-67450D02*
X79100Y-68050D01*
X79100Y-68050D02*
X79500Y-68050D01*
X78500Y-67900D02*
G75*
G03X78500Y-67900I-50J0D01*
G74*
G01*
X78000Y-67900D02*
X78400Y-67900D01*
X78400Y-67900D02*
X78400Y-67300D01*
X78400Y-67300D02*
X78000Y-67300D01*
X77600Y-67300D02*
X77200Y-67300D01*
X77200Y-67300D02*
X77200Y-67900D01*
X77200Y-67900D02*
X77600Y-67900D01*
X78700Y-64900D02*
G75*
G03X78700Y-64900I-50J0D01*
G74*
G01*
X78200Y-64900D02*
X78600Y-64900D01*
X78600Y-64900D02*
X78600Y-64300D01*
X78600Y-64300D02*
X78200Y-64300D01*
X77800Y-64300D02*
X77400Y-64300D01*
X77400Y-64300D02*
X77400Y-64900D01*
X77400Y-64900D02*
X77800Y-64900D01*
X78700Y-65600D02*
G75*
G03X78700Y-65600I-50J0D01*
G74*
G01*
X78200Y-65600D02*
X78600Y-65600D01*
X78600Y-65600D02*
X78600Y-65000D01*
X78600Y-65000D02*
X78200Y-65000D01*
X77800Y-65000D02*
X77400Y-65000D01*
X77400Y-65000D02*
X77400Y-65600D01*
X77400Y-65600D02*
X77800Y-65600D01*
X85575Y-60375D02*
G75*
G03X85575Y-60375I-50J0D01*
G74*
G01*
X85075Y-60375D02*
X85475Y-60375D01*
X85475Y-60375D02*
X85475Y-59775D01*
X85475Y-59775D02*
X85075Y-59775D01*
X84675Y-59775D02*
X84275Y-59775D01*
X84275Y-59775D02*
X84275Y-60375D01*
X84275Y-60375D02*
X84675Y-60375D01*
X85575Y-61100D02*
G75*
G03X85575Y-61100I-50J0D01*
G74*
G01*
X85075Y-61100D02*
X85475Y-61100D01*
X85475Y-61100D02*
X85475Y-60500D01*
X85475Y-60500D02*
X85075Y-60500D01*
X84675Y-60500D02*
X84275Y-60500D01*
X84275Y-60500D02*
X84275Y-61100D01*
X84275Y-61100D02*
X84675Y-61100D01*
X85250Y-61200D02*
G75*
G03X85250Y-61200I-50J0D01*
G74*
G01*
X85650Y-61200D02*
X85250Y-61200D01*
X85250Y-61200D02*
X85250Y-61800D01*
X85250Y-61800D02*
X85650Y-61800D01*
X86050Y-61800D02*
X86450Y-61800D01*
X86450Y-61800D02*
X86450Y-61200D01*
X86450Y-61200D02*
X86050Y-61200D01*
X85050Y-59050D02*
G75*
G03X85050Y-59050I-50J0D01*
G74*
G01*
X85450Y-59050D02*
X85050Y-59050D01*
X85050Y-59050D02*
X85050Y-59650D01*
X85050Y-59650D02*
X85450Y-59650D01*
X85850Y-59650D02*
X86250Y-59650D01*
X86250Y-59650D02*
X86250Y-59050D01*
X86250Y-59050D02*
X85850Y-59050D01*
X75550Y-50900D02*
G75*
G03X75550Y-50900I-50J0D01*
G74*
G01*
X75950Y-50900D02*
X75550Y-50900D01*
X75550Y-50900D02*
X75550Y-51500D01*
X75550Y-51500D02*
X75950Y-51500D01*
X76350Y-51500D02*
X76750Y-51500D01*
X76750Y-51500D02*
X76750Y-50900D01*
X76750Y-50900D02*
X76350Y-50900D01*
X75550Y-51600D02*
G75*
G03X75550Y-51600I-50J0D01*
G74*
G01*
X75950Y-51600D02*
X75550Y-51600D01*
X75550Y-51600D02*
X75550Y-52200D01*
X75550Y-52200D02*
X75950Y-52200D01*
X76350Y-52200D02*
X76750Y-52200D01*
X76750Y-52200D02*
X76750Y-51600D01*
X76750Y-51600D02*
X76350Y-51600D01*
X75700Y-54750D02*
G75*
G03X75700Y-54750I-50J0D01*
G74*
G01*
X75650Y-55200D02*
X75650Y-54800D01*
X75650Y-54800D02*
X75050Y-54800D01*
X75050Y-54800D02*
X75050Y-55200D01*
X75050Y-55600D02*
X75050Y-56000D01*
X75050Y-56000D02*
X75650Y-56000D01*
X75650Y-56000D02*
X75650Y-55600D01*
X75850Y-54250D02*
G75*
G03X75850Y-54250I-50J0D01*
G74*
G01*
X76250Y-54250D02*
X75850Y-54250D01*
X75850Y-54250D02*
X75850Y-54850D01*
X75850Y-54850D02*
X76250Y-54850D01*
X76650Y-54850D02*
X77050Y-54850D01*
X77050Y-54850D02*
X77050Y-54250D01*
X77050Y-54250D02*
X76650Y-54250D01*
X75850Y-53500D02*
G75*
G03X75850Y-53500I-50J0D01*
G74*
G01*
X76250Y-53500D02*
X75850Y-53500D01*
X75850Y-53500D02*
X75850Y-54100D01*
X75850Y-54100D02*
X76250Y-54100D01*
X76650Y-54100D02*
X77050Y-54100D01*
X77050Y-54100D02*
X77050Y-53500D01*
X77050Y-53500D02*
X76650Y-53500D01*
X82825Y-52350D02*
G75*
G03X82825Y-52350I-50J0D01*
G74*
G01*
X82325Y-52350D02*
X82725Y-52350D01*
X82725Y-52350D02*
X82725Y-51750D01*
X82725Y-51750D02*
X82325Y-51750D01*
X81925Y-51750D02*
X81525Y-51750D01*
X81525Y-51750D02*
X81525Y-52350D01*
X81525Y-52350D02*
X81925Y-52350D01*
X82825Y-53100D02*
G75*
G03X82825Y-53100I-50J0D01*
G74*
G01*
X82325Y-53100D02*
X82725Y-53100D01*
X82725Y-53100D02*
X82725Y-52500D01*
X82725Y-52500D02*
X82325Y-52500D01*
X81925Y-52500D02*
X81525Y-52500D01*
X81525Y-52500D02*
X81525Y-53100D01*
X81525Y-53100D02*
X81925Y-53100D01*
X82825Y-53850D02*
G75*
G03X82825Y-53850I-50J0D01*
G74*
G01*
X82325Y-53850D02*
X82725Y-53850D01*
X82725Y-53850D02*
X82725Y-53250D01*
X82725Y-53250D02*
X82325Y-53250D01*
X81925Y-53250D02*
X81525Y-53250D01*
X81525Y-53250D02*
X81525Y-53850D01*
X81525Y-53850D02*
X81925Y-53850D01*
X82825Y-54600D02*
G75*
G03X82825Y-54600I-50J0D01*
G74*
G01*
X82325Y-54600D02*
X82725Y-54600D01*
X82725Y-54600D02*
X82725Y-54000D01*
X82725Y-54000D02*
X82325Y-54000D01*
X81925Y-54000D02*
X81525Y-54000D01*
X81525Y-54000D02*
X81525Y-54600D01*
X81525Y-54600D02*
X81925Y-54600D01*
X82825Y-55375D02*
G75*
G03X82825Y-55375I-50J0D01*
G74*
G01*
X82325Y-55375D02*
X82725Y-55375D01*
X82725Y-55375D02*
X82725Y-54775D01*
X82725Y-54775D02*
X82325Y-54775D01*
X81925Y-54775D02*
X81525Y-54775D01*
X81525Y-54775D02*
X81525Y-55375D01*
X81525Y-55375D02*
X81925Y-55375D01*
G54D13*
X71350Y-62650D02*
X71350Y-61750D01*
X71350Y-61750D02*
X72000Y-61750D01*
X72700Y-62650D02*
X73350Y-62650D01*
X73350Y-62650D02*
X73350Y-61750D01*
X73350Y-61750D02*
X72700Y-61750D01*
X72000Y-62650D02*
X71350Y-62650D01*
X70500Y-57650D02*
X70500Y-56750D01*
X70500Y-56750D02*
X71150Y-56750D01*
X71850Y-57650D02*
X72500Y-57650D01*
X72500Y-57650D02*
X72500Y-56750D01*
X72500Y-56750D02*
X71850Y-56750D01*
X71150Y-57650D02*
X70500Y-57650D01*
G54D12*
X81050Y-61050D02*
G75*
G03X81050Y-61050I-50J0D01*
G74*
G01*
X81450Y-61050D02*
X81050Y-61050D01*
X81050Y-61050D02*
X81050Y-61650D01*
X81050Y-61650D02*
X81450Y-61650D01*
X81850Y-61650D02*
X82250Y-61650D01*
X82250Y-61650D02*
X82250Y-61050D01*
X82250Y-61050D02*
X81850Y-61050D01*
X71850Y-62800D02*
G75*
G03X71850Y-62800I-50J0D01*
G74*
G01*
X72250Y-62800D02*
X71850Y-62800D01*
X71850Y-62800D02*
X71850Y-63400D01*
X71850Y-63400D02*
X72250Y-63400D01*
X72650Y-63400D02*
X73050Y-63400D01*
X73050Y-63400D02*
X73050Y-62800D01*
X73050Y-62800D02*
X72650Y-62800D01*
X71450Y-54550D02*
G75*
G03X71450Y-54550I-50J0D01*
G74*
G01*
X71400Y-54100D02*
X71400Y-54500D01*
X71400Y-54500D02*
X72000Y-54500D01*
X72000Y-54500D02*
X72000Y-54100D01*
X72000Y-53700D02*
X72000Y-53300D01*
X72000Y-53300D02*
X71400Y-53300D01*
X71400Y-53300D02*
X71400Y-53700D01*
X81550Y-55900D02*
G75*
G03X81550Y-55900I-50J0D01*
G74*
G01*
X81500Y-56350D02*
X81500Y-55950D01*
X81500Y-55950D02*
X80900Y-55950D01*
X80900Y-55950D02*
X80900Y-56350D01*
X80900Y-56750D02*
X80900Y-57150D01*
X80900Y-57150D02*
X81500Y-57150D01*
X81500Y-57150D02*
X81500Y-56750D01*
X86900Y-55650D02*
G75*
G03X86900Y-55650I-50J0D01*
G74*
G01*
X86400Y-55650D02*
X86800Y-55650D01*
X86800Y-55650D02*
X86800Y-55050D01*
X86800Y-55050D02*
X86400Y-55050D01*
X86000Y-55050D02*
X85600Y-55050D01*
X85600Y-55050D02*
X85600Y-55650D01*
X85600Y-55650D02*
X86000Y-55650D01*
G54D13*
X76350Y-60100D02*
X75450Y-60100D01*
X75450Y-60100D02*
X75450Y-59450D01*
X76350Y-58750D02*
X76350Y-58100D01*
X76350Y-58100D02*
X75450Y-58100D01*
X75450Y-58100D02*
X75450Y-58750D01*
X76350Y-59450D02*
X76350Y-60100D01*
X74000Y-59550D02*
X75250Y-59550D01*
X75250Y-59550D02*
X75250Y-60250D01*
X75250Y-60250D02*
X74000Y-60250D01*
X74000Y-57750D02*
X75250Y-57750D01*
X75250Y-57750D02*
X75250Y-58450D01*
X75250Y-58450D02*
X74000Y-58450D01*
X71600Y-60350D02*
X74000Y-60350D01*
X74000Y-60350D02*
X74000Y-57650D01*
X74000Y-57650D02*
X70900Y-57650D01*
X70850Y-57650D02*
X70850Y-60350D01*
X70900Y-60350D02*
X71600Y-60350D01*
G54D15*
X86400Y-62100D02*
X87400Y-62100D01*
X87400Y-62100D02*
X87400Y-56100D01*
X87400Y-56100D02*
X86400Y-56100D01*
X86400Y-56100D02*
X86400Y-62100D01*
X86400Y-61100D02*
X87400Y-61100D01*
G54D16*
G36*
X74532Y-62535D02*
X74879Y-62566D01*
X75116Y-62603D01*
X75284Y-62633D01*
X75397Y-62656D01*
X75464Y-62676D01*
X75496Y-62694D01*
X75503Y-62715D01*
X75501Y-62727D01*
X75484Y-62788D01*
X75470Y-62853D01*
X75451Y-62939D01*
X75159Y-62883D01*
X74866Y-62827D01*
X74838Y-62905D01*
X74782Y-62984D01*
X74696Y-63017D01*
X74603Y-63004D01*
X74520Y-62948D01*
X74483Y-62892D01*
X74450Y-62829D01*
X74412Y-62800D01*
X74349Y-62796D01*
X74266Y-62805D01*
X73991Y-62866D01*
X73754Y-62976D01*
X73551Y-63140D01*
X73380Y-63359D01*
X73237Y-63637D01*
X73199Y-63731D01*
X73141Y-63904D01*
X73079Y-64117D01*
X73017Y-64353D01*
X72960Y-64595D01*
X72913Y-64824D01*
X72878Y-65022D01*
X72862Y-65149D01*
X72841Y-65404D01*
X72954Y-65391D01*
X73064Y-65403D01*
X73139Y-65457D01*
X73173Y-65537D01*
X73162Y-65626D01*
X73101Y-65707D01*
X73051Y-65739D01*
X72970Y-65779D01*
X73091Y-65889D01*
X73253Y-66020D01*
X73445Y-66149D01*
X73653Y-66268D01*
X73863Y-66372D01*
X74061Y-66452D01*
X74233Y-66502D01*
X74341Y-66516D01*
X74416Y-66509D01*
X74446Y-66477D01*
X74450Y-66435D01*
X74479Y-66352D01*
X74551Y-66283D01*
X74643Y-66250D01*
X74657Y-66250D01*
X74723Y-66272D01*
X74783Y-66316D01*
X74840Y-66365D01*
X74877Y-66383D01*
X74933Y-66353D01*
X75002Y-66272D01*
X75079Y-66151D01*
X75155Y-66001D01*
X75223Y-65835D01*
X75246Y-65768D01*
X75302Y-65600D01*
X75210Y-65511D01*
X75150Y-65457D01*
X75120Y-65446D01*
X75102Y-65476D01*
X75097Y-65490D01*
X75048Y-65579D01*
X74960Y-65684D01*
X74851Y-65787D01*
X74740Y-65869D01*
X74703Y-65890D01*
X74590Y-65932D01*
X74446Y-65964D01*
X74350Y-65976D01*
X74214Y-65993D01*
X74130Y-66020D01*
X74089Y-66055D01*
X73999Y-66141D01*
X73899Y-66163D01*
X73835Y-66145D01*
X73750Y-66076D01*
X73721Y-65979D01*
X73731Y-65922D01*
X73725Y-65863D01*
X73671Y-65825D01*
X73547Y-65746D01*
X73420Y-65630D01*
X73315Y-65502D01*
X73279Y-65442D01*
X73210Y-65240D01*
X73190Y-65011D01*
X73213Y-64819D01*
X73232Y-64716D01*
X73232Y-64655D01*
X73208Y-64614D01*
X73167Y-64577D01*
X73097Y-64493D01*
X73093Y-64403D01*
X73153Y-64313D01*
X73234Y-64261D01*
X73319Y-64262D01*
X73367Y-64267D01*
X73409Y-64254D01*
X73454Y-64212D01*
X73515Y-64132D01*
X73586Y-64029D01*
X73776Y-63777D01*
X73979Y-63561D01*
X74186Y-63391D01*
X74336Y-63300D01*
X74441Y-63250D01*
X74533Y-63220D01*
X74634Y-63206D01*
X74770Y-63201D01*
X74833Y-63200D01*
X74992Y-63203D01*
X75106Y-63215D01*
X75196Y-63239D01*
X75275Y-63276D01*
X75430Y-63393D01*
X75477Y-63453D01*
X74745Y-63453D01*
X74589Y-63486D01*
X74519Y-63515D01*
X74503Y-63548D01*
X74529Y-63609D01*
X74531Y-63613D01*
X74555Y-63714D01*
X74527Y-63800D01*
X74463Y-63860D01*
X74377Y-63884D01*
X74285Y-63864D01*
X74224Y-63817D01*
X74158Y-63747D01*
X74002Y-63921D01*
X73849Y-64112D01*
X73712Y-64326D01*
X73596Y-64547D01*
X73510Y-64761D01*
X73460Y-64953D01*
X73450Y-65061D01*
X73477Y-65209D01*
X73546Y-65359D01*
X73642Y-65482D01*
X73682Y-65516D01*
X73806Y-65584D01*
X73968Y-65646D01*
X74139Y-65693D01*
X74290Y-65716D01*
X74317Y-65716D01*
X74411Y-65707D01*
X74466Y-65682D01*
X74469Y-65650D01*
X74450Y-65634D01*
X74418Y-65579D01*
X74419Y-65498D01*
X74449Y-65415D01*
X74490Y-65368D01*
X74578Y-65323D01*
X74651Y-65332D01*
X74732Y-65396D01*
X74812Y-65476D01*
X74871Y-65355D01*
X74905Y-65252D01*
X74932Y-65111D01*
X74944Y-64989D01*
X74939Y-64767D01*
X74894Y-64586D01*
X74804Y-64431D01*
X74718Y-64335D01*
X74608Y-64249D01*
X74517Y-64225D01*
X74440Y-64264D01*
X74373Y-64368D01*
X74370Y-64374D01*
X74341Y-64467D01*
X74320Y-64582D01*
X74309Y-64697D01*
X74312Y-64791D01*
X74328Y-64839D01*
X74366Y-64837D01*
X74432Y-64804D01*
X74436Y-64801D01*
X74497Y-64766D01*
X74540Y-64768D01*
X74592Y-64812D01*
X74612Y-64832D01*
X74700Y-64920D01*
X74606Y-65001D01*
X74470Y-65087D01*
X74335Y-65111D01*
X74210Y-65073D01*
X74107Y-64979D01*
X74068Y-64905D01*
X74048Y-64806D01*
X74043Y-64670D01*
X74065Y-64458D01*
X74125Y-64272D01*
X74216Y-64120D01*
X74332Y-64011D01*
X74467Y-63955D01*
X74526Y-63950D01*
X74673Y-63981D01*
X74821Y-64066D01*
X74960Y-64196D01*
X75079Y-64360D01*
X75165Y-64547D01*
X75168Y-64554D01*
X75202Y-64703D01*
X75214Y-64885D01*
X75211Y-65000D01*
X75209Y-65141D01*
X75214Y-65226D01*
X75228Y-65250D01*
X75231Y-65248D01*
X75288Y-65222D01*
X75336Y-65216D01*
X75375Y-65210D01*
X75401Y-65181D01*
X75421Y-65116D01*
X75439Y-65001D01*
X75442Y-64975D01*
X75458Y-64821D01*
X75468Y-64637D01*
X75471Y-64459D01*
X75471Y-64433D01*
X75467Y-64291D01*
X75461Y-64203D01*
X75448Y-64158D01*
X75427Y-64143D01*
X75403Y-64144D01*
X75285Y-64140D01*
X75194Y-64094D01*
X75142Y-64018D01*
X75138Y-63924D01*
X75166Y-63862D01*
X75242Y-63797D01*
X75302Y-63783D01*
X75387Y-63783D01*
X75326Y-63679D01*
X75231Y-63574D01*
X75090Y-63499D01*
X74923Y-63457D01*
X74745Y-63453D01*
X75477Y-63453D01*
X75562Y-63561D01*
X75658Y-63763D01*
X75670Y-63797D01*
X75700Y-63936D01*
X75721Y-64123D01*
X75733Y-64339D01*
X75736Y-64567D01*
X75729Y-64787D01*
X75711Y-64982D01*
X75703Y-65033D01*
X75636Y-65375D01*
X75552Y-65690D01*
X75456Y-65971D01*
X75349Y-66209D01*
X75236Y-66396D01*
X75132Y-66513D01*
X74980Y-66629D01*
X74828Y-66705D01*
X74657Y-66748D01*
X74445Y-66763D01*
X74383Y-66764D01*
X74198Y-66757D01*
X74036Y-66733D01*
X73881Y-66689D01*
X73718Y-66616D01*
X73530Y-66512D01*
X73387Y-66424D01*
X73169Y-66281D01*
X73002Y-66159D01*
X72875Y-66047D01*
X72781Y-65939D01*
X72708Y-65826D01*
X72706Y-65823D01*
X72644Y-65685D01*
X72605Y-65534D01*
X72588Y-65363D01*
X72594Y-65163D01*
X72623Y-64926D01*
X72676Y-64646D01*
X72753Y-64315D01*
X72785Y-64189D01*
X72880Y-63852D01*
X72980Y-63572D01*
X73088Y-63339D01*
X73210Y-63142D01*
X73343Y-62978D01*
X73531Y-62805D01*
X73737Y-62676D01*
X73968Y-62588D01*
X74230Y-62542D01*
X74532Y-62535D01*
X74532Y-62535D01*
X74532Y-62535D01*
G37*
G36*
X73578Y-63386D02*
X73661Y-63411D01*
X73676Y-63423D01*
X73712Y-63500D01*
X73708Y-63597D01*
X73668Y-63682D01*
X73655Y-63695D01*
X73572Y-63744D01*
X73485Y-63733D01*
X73424Y-63698D01*
X73363Y-63620D01*
X73355Y-63524D01*
X73401Y-63436D01*
X73402Y-63436D01*
X73480Y-63394D01*
X73578Y-63386D01*
X73578Y-63386D01*
X73578Y-63386D01*
G37*
G36*
X73823Y-64850D02*
X73912Y-64871D01*
X73961Y-64911D01*
X74010Y-65007D01*
X74001Y-65107D01*
X73962Y-65166D01*
X73878Y-65209D01*
X73779Y-65206D01*
X73693Y-65161D01*
X73661Y-65119D01*
X73641Y-65020D01*
X73672Y-64936D01*
X73737Y-64876D01*
X73823Y-64850D01*
X73823Y-64850D01*
X73823Y-64850D01*
G37*
G54D17*
X83502Y-63655D02*
X83502Y-63817D01*
X83492Y-63836D01*
X83483Y-63846D01*
X83464Y-63855D01*
X83426Y-63855D01*
X83407Y-63846D01*
X83397Y-63836D01*
X83388Y-63817D01*
X83388Y-63655D01*
X83188Y-63855D02*
X83302Y-63855D01*
X83245Y-63855D02*
X83245Y-63655D01*
X83264Y-63684D01*
X83283Y-63703D01*
X83302Y-63713D01*
G54D12*
X82007Y-58999D02*
X82167Y-58999D01*
X82185Y-59009D01*
X82195Y-59018D01*
X82204Y-59037D01*
X82204Y-59074D01*
X82195Y-59093D01*
X82185Y-59103D01*
X82167Y-59112D01*
X82007Y-59112D01*
X82026Y-59196D02*
X82017Y-59206D01*
X82007Y-59225D01*
X82007Y-59271D01*
X82017Y-59290D01*
X82026Y-59300D01*
X82045Y-59309D01*
X82064Y-59309D01*
X82092Y-59300D01*
X82204Y-59187D01*
X82204Y-59309D01*
X82854Y-58540D02*
X82657Y-58540D01*
X82657Y-58615D01*
X82667Y-58634D01*
X82676Y-58643D01*
X82695Y-58652D01*
X82723Y-58652D01*
X82742Y-58643D01*
X82751Y-58634D01*
X82760Y-58615D01*
X82760Y-58540D01*
X82835Y-58849D02*
X82845Y-58840D01*
X82854Y-58812D01*
X82854Y-58793D01*
X82845Y-58765D01*
X82826Y-58746D01*
X82807Y-58737D01*
X82770Y-58727D01*
X82742Y-58727D01*
X82704Y-58737D01*
X82685Y-58746D01*
X82667Y-58765D01*
X82657Y-58793D01*
X82657Y-58812D01*
X82667Y-58840D01*
X82676Y-58849D01*
X82798Y-58924D02*
X82798Y-59018D01*
X82854Y-58906D02*
X82657Y-58971D01*
X82854Y-59037D01*
X82854Y-59112D02*
X82854Y-59150D01*
X82845Y-59168D01*
X82835Y-59178D01*
X82807Y-59196D01*
X82770Y-59206D01*
X82695Y-59206D01*
X82676Y-59196D01*
X82667Y-59187D01*
X82657Y-59168D01*
X82657Y-59131D01*
X82667Y-59112D01*
X82676Y-59103D01*
X82695Y-59093D01*
X82742Y-59093D01*
X82760Y-59103D01*
X82770Y-59112D01*
X82779Y-59131D01*
X82779Y-59168D01*
X82770Y-59187D01*
X82760Y-59196D01*
X82742Y-59206D01*
X82657Y-59375D02*
X82657Y-59337D01*
X82667Y-59318D01*
X82676Y-59309D01*
X82704Y-59290D01*
X82742Y-59281D01*
X82817Y-59281D01*
X82835Y-59290D01*
X82845Y-59300D01*
X82854Y-59318D01*
X82854Y-59356D01*
X82845Y-59375D01*
X82835Y-59384D01*
X82817Y-59393D01*
X82770Y-59393D01*
X82751Y-59384D01*
X82742Y-59375D01*
X82732Y-59356D01*
X82732Y-59318D01*
X82742Y-59300D01*
X82751Y-59290D01*
X82770Y-59281D01*
X82742Y-59506D02*
X82732Y-59487D01*
X82723Y-59478D01*
X82704Y-59468D01*
X82695Y-59468D01*
X82676Y-59478D01*
X82667Y-59487D01*
X82657Y-59506D01*
X82657Y-59544D01*
X82667Y-59562D01*
X82676Y-59572D01*
X82695Y-59581D01*
X82704Y-59581D01*
X82723Y-59572D01*
X82732Y-59562D01*
X82742Y-59544D01*
X82742Y-59506D01*
X82751Y-59487D01*
X82760Y-59478D01*
X82779Y-59468D01*
X82817Y-59468D01*
X82835Y-59478D01*
X82845Y-59487D01*
X82854Y-59506D01*
X82854Y-59544D01*
X82845Y-59562D01*
X82835Y-59572D01*
X82817Y-59581D01*
X82779Y-59581D01*
X82760Y-59572D01*
X82751Y-59562D01*
X82742Y-59544D01*
X82657Y-59759D02*
X82657Y-59665D01*
X82751Y-59656D01*
X82742Y-59665D01*
X82732Y-59684D01*
X82732Y-59731D01*
X82742Y-59750D01*
X82751Y-59759D01*
X82770Y-59769D01*
X82817Y-59769D01*
X82835Y-59759D01*
X82845Y-59750D01*
X82854Y-59731D01*
X82854Y-59684D01*
X82845Y-59665D01*
X82835Y-59656D01*
G54D13*
X79361Y-64557D02*
X79685Y-64557D01*
X79723Y-64578D01*
X79742Y-64600D01*
X79761Y-64642D01*
X79761Y-64728D01*
X79742Y-64771D01*
X79723Y-64792D01*
X79685Y-64814D01*
X79361Y-64814D01*
X79361Y-64985D02*
X79361Y-65264D01*
X79514Y-65114D01*
X79514Y-65178D01*
X79533Y-65221D01*
X79552Y-65242D01*
X79590Y-65264D01*
X79685Y-65264D01*
X79723Y-65242D01*
X79742Y-65221D01*
X79761Y-65178D01*
X79761Y-65050D01*
X79742Y-65007D01*
X79723Y-64985D01*
X79961Y-63303D02*
X80285Y-63303D01*
X80323Y-63325D01*
X80342Y-63346D01*
X80361Y-63389D01*
X80361Y-63475D01*
X80342Y-63517D01*
X80323Y-63539D01*
X80285Y-63560D01*
X79961Y-63560D01*
X80361Y-63989D02*
X80361Y-63775D01*
X79961Y-63775D01*
X80361Y-64139D02*
X79961Y-64139D01*
X80361Y-64396D01*
X79961Y-64396D01*
X80000Y-64589D02*
X79980Y-64610D01*
X79961Y-64653D01*
X79961Y-64760D01*
X79980Y-64803D01*
X80000Y-64825D01*
X80038Y-64846D01*
X80076Y-64846D01*
X80133Y-64825D01*
X80361Y-64567D01*
X80361Y-64846D01*
X79961Y-65125D02*
X79961Y-65167D01*
X79980Y-65210D01*
X80000Y-65232D01*
X80038Y-65253D01*
X80114Y-65275D01*
X80209Y-65275D01*
X80285Y-65253D01*
X80323Y-65232D01*
X80342Y-65210D01*
X80361Y-65167D01*
X80361Y-65125D01*
X80342Y-65082D01*
X80323Y-65060D01*
X80285Y-65039D01*
X80209Y-65017D01*
X80114Y-65017D01*
X80038Y-65039D01*
X80000Y-65060D01*
X79980Y-65082D01*
X79961Y-65125D01*
X79961Y-65553D02*
X79961Y-65596D01*
X79980Y-65639D01*
X80000Y-65660D01*
X80038Y-65682D01*
X80114Y-65703D01*
X80209Y-65703D01*
X80285Y-65682D01*
X80323Y-65660D01*
X80342Y-65639D01*
X80361Y-65596D01*
X80361Y-65553D01*
X80342Y-65510D01*
X80323Y-65489D01*
X80285Y-65467D01*
X80209Y-65446D01*
X80114Y-65446D01*
X80038Y-65467D01*
X80000Y-65489D01*
X79980Y-65510D01*
X79961Y-65553D01*
X79961Y-65853D02*
X79961Y-66132D01*
X80114Y-65982D01*
X80114Y-66046D01*
X80133Y-66089D01*
X80152Y-66110D01*
X80190Y-66132D01*
X80285Y-66132D01*
X80323Y-66110D01*
X80342Y-66089D01*
X80361Y-66046D01*
X80361Y-65917D01*
X80342Y-65875D01*
X80323Y-65853D01*
X80247Y-66303D02*
X80247Y-66517D01*
X80361Y-66260D02*
X79961Y-66410D01*
X80361Y-66560D01*
X73511Y-53957D02*
X73835Y-53957D01*
X73873Y-53978D01*
X73892Y-54000D01*
X73911Y-54042D01*
X73911Y-54128D01*
X73892Y-54171D01*
X73873Y-54192D01*
X73835Y-54214D01*
X73511Y-54214D01*
X73645Y-54621D02*
X73911Y-54621D01*
X73492Y-54514D02*
X73778Y-54407D01*
X73778Y-54685D01*
X72911Y-52703D02*
X73235Y-52703D01*
X73273Y-52725D01*
X73292Y-52746D01*
X73311Y-52789D01*
X73311Y-52875D01*
X73292Y-52917D01*
X73273Y-52939D01*
X73235Y-52960D01*
X72911Y-52960D01*
X73311Y-53389D02*
X73311Y-53175D01*
X72911Y-53175D01*
X73311Y-53539D02*
X72911Y-53539D01*
X73311Y-53796D01*
X72911Y-53796D01*
X72950Y-53989D02*
X72930Y-54010D01*
X72911Y-54053D01*
X72911Y-54160D01*
X72930Y-54203D01*
X72950Y-54225D01*
X72988Y-54246D01*
X73026Y-54246D01*
X73083Y-54225D01*
X73311Y-53967D01*
X73311Y-54246D01*
X72911Y-54525D02*
X72911Y-54567D01*
X72930Y-54610D01*
X72950Y-54632D01*
X72988Y-54653D01*
X73064Y-54675D01*
X73159Y-54675D01*
X73235Y-54653D01*
X73273Y-54632D01*
X73292Y-54610D01*
X73311Y-54567D01*
X73311Y-54525D01*
X73292Y-54482D01*
X73273Y-54460D01*
X73235Y-54439D01*
X73159Y-54417D01*
X73064Y-54417D01*
X72988Y-54439D01*
X72950Y-54460D01*
X72930Y-54482D01*
X72911Y-54525D01*
X72911Y-54953D02*
X72911Y-54996D01*
X72930Y-55039D01*
X72950Y-55060D01*
X72988Y-55082D01*
X73064Y-55103D01*
X73159Y-55103D01*
X73235Y-55082D01*
X73273Y-55060D01*
X73292Y-55039D01*
X73311Y-54996D01*
X73311Y-54953D01*
X73292Y-54910D01*
X73273Y-54889D01*
X73235Y-54867D01*
X73159Y-54846D01*
X73064Y-54846D01*
X72988Y-54867D01*
X72950Y-54889D01*
X72930Y-54910D01*
X72911Y-54953D01*
X72911Y-55253D02*
X72911Y-55532D01*
X73064Y-55382D01*
X73064Y-55446D01*
X73083Y-55489D01*
X73102Y-55510D01*
X73140Y-55532D01*
X73235Y-55532D01*
X73273Y-55510D01*
X73292Y-55489D01*
X73311Y-55446D01*
X73311Y-55317D01*
X73292Y-55275D01*
X73273Y-55253D01*
X73197Y-55703D02*
X73197Y-55917D01*
X73311Y-55660D02*
X72911Y-55810D01*
X73311Y-55960D01*
X83686Y-54257D02*
X84010Y-54257D01*
X84048Y-54278D01*
X84067Y-54300D01*
X84086Y-54342D01*
X84086Y-54428D01*
X84067Y-54471D01*
X84048Y-54492D01*
X84010Y-54514D01*
X83686Y-54514D01*
X83686Y-54942D02*
X83686Y-54728D01*
X83877Y-54707D01*
X83858Y-54728D01*
X83839Y-54771D01*
X83839Y-54878D01*
X83858Y-54921D01*
X83877Y-54942D01*
X83915Y-54964D01*
X84010Y-54964D01*
X84048Y-54942D01*
X84067Y-54921D01*
X84086Y-54878D01*
X84086Y-54771D01*
X84067Y-54728D01*
X84048Y-54707D01*
X84286Y-53003D02*
X84610Y-53003D01*
X84648Y-53025D01*
X84667Y-53046D01*
X84686Y-53089D01*
X84686Y-53175D01*
X84667Y-53217D01*
X84648Y-53239D01*
X84610Y-53260D01*
X84286Y-53260D01*
X84686Y-53689D02*
X84686Y-53475D01*
X84286Y-53475D01*
X84686Y-53839D02*
X84286Y-53839D01*
X84686Y-54096D01*
X84286Y-54096D01*
X84325Y-54289D02*
X84305Y-54310D01*
X84286Y-54353D01*
X84286Y-54460D01*
X84305Y-54503D01*
X84325Y-54525D01*
X84363Y-54546D01*
X84401Y-54546D01*
X84458Y-54525D01*
X84686Y-54267D01*
X84686Y-54546D01*
X84286Y-54825D02*
X84286Y-54867D01*
X84305Y-54910D01*
X84325Y-54932D01*
X84363Y-54953D01*
X84439Y-54975D01*
X84534Y-54975D01*
X84610Y-54953D01*
X84648Y-54932D01*
X84667Y-54910D01*
X84686Y-54867D01*
X84686Y-54825D01*
X84667Y-54782D01*
X84648Y-54760D01*
X84610Y-54739D01*
X84534Y-54717D01*
X84439Y-54717D01*
X84363Y-54739D01*
X84325Y-54760D01*
X84305Y-54782D01*
X84286Y-54825D01*
X84286Y-55253D02*
X84286Y-55296D01*
X84305Y-55339D01*
X84325Y-55360D01*
X84363Y-55382D01*
X84439Y-55403D01*
X84534Y-55403D01*
X84610Y-55382D01*
X84648Y-55360D01*
X84667Y-55339D01*
X84686Y-55296D01*
X84686Y-55253D01*
X84667Y-55210D01*
X84648Y-55189D01*
X84610Y-55167D01*
X84534Y-55146D01*
X84439Y-55146D01*
X84363Y-55167D01*
X84325Y-55189D01*
X84305Y-55210D01*
X84286Y-55253D01*
X84286Y-55553D02*
X84286Y-55832D01*
X84439Y-55682D01*
X84439Y-55746D01*
X84458Y-55789D01*
X84477Y-55810D01*
X84515Y-55832D01*
X84610Y-55832D01*
X84648Y-55810D01*
X84667Y-55789D01*
X84686Y-55746D01*
X84686Y-55617D01*
X84667Y-55575D01*
X84648Y-55553D01*
X84572Y-56003D02*
X84572Y-56217D01*
X84686Y-55960D02*
X84286Y-56110D01*
X84686Y-56260D01*
G54D18*
X81232Y-67604D02*
X81298Y-67510D01*
X81345Y-67604D02*
X81345Y-67407D01*
X81270Y-67407D01*
X81251Y-67417D01*
X81242Y-67426D01*
X81232Y-67445D01*
X81232Y-67473D01*
X81242Y-67492D01*
X81251Y-67501D01*
X81270Y-67510D01*
X81345Y-67510D01*
X81054Y-67407D02*
X81148Y-67407D01*
X81157Y-67501D01*
X81148Y-67492D01*
X81129Y-67482D01*
X81082Y-67482D01*
X81063Y-67492D01*
X81054Y-67501D01*
X81045Y-67520D01*
X81045Y-67567D01*
X81054Y-67585D01*
X81063Y-67595D01*
X81082Y-67604D01*
X81129Y-67604D01*
X81148Y-67595D01*
X81157Y-67585D01*
X81139Y-67329D02*
X81204Y-67235D01*
X81251Y-67329D02*
X81251Y-67132D01*
X81176Y-67132D01*
X81157Y-67142D01*
X81148Y-67151D01*
X81139Y-67170D01*
X81139Y-67198D01*
X81148Y-67217D01*
X81157Y-67226D01*
X81176Y-67235D01*
X81251Y-67235D01*
X79732Y-67704D02*
X79798Y-67610D01*
X79845Y-67704D02*
X79845Y-67507D01*
X79770Y-67507D01*
X79751Y-67517D01*
X79742Y-67526D01*
X79732Y-67545D01*
X79732Y-67573D01*
X79742Y-67592D01*
X79751Y-67601D01*
X79770Y-67610D01*
X79845Y-67610D01*
X79563Y-67507D02*
X79601Y-67507D01*
X79620Y-67517D01*
X79629Y-67526D01*
X79648Y-67554D01*
X79657Y-67592D01*
X79657Y-67667D01*
X79648Y-67685D01*
X79639Y-67695D01*
X79620Y-67704D01*
X79582Y-67704D01*
X79563Y-67695D01*
X79554Y-67685D01*
X79545Y-67667D01*
X79545Y-67620D01*
X79554Y-67601D01*
X79563Y-67592D01*
X79582Y-67582D01*
X79620Y-67582D01*
X79639Y-67592D01*
X79648Y-67601D01*
X79657Y-67620D01*
X79639Y-67979D02*
X79704Y-67885D01*
X79751Y-67979D02*
X79751Y-67782D01*
X79676Y-67782D01*
X79657Y-67792D01*
X79648Y-67801D01*
X79639Y-67820D01*
X79639Y-67848D01*
X79648Y-67867D01*
X79657Y-67876D01*
X79676Y-67885D01*
X79751Y-67885D01*
X77832Y-67554D02*
X77898Y-67460D01*
X77945Y-67554D02*
X77945Y-67357D01*
X77870Y-67357D01*
X77851Y-67367D01*
X77842Y-67376D01*
X77832Y-67395D01*
X77832Y-67423D01*
X77842Y-67442D01*
X77851Y-67451D01*
X77870Y-67460D01*
X77945Y-67460D01*
X77767Y-67357D02*
X77635Y-67357D01*
X77720Y-67554D01*
X77739Y-67829D02*
X77804Y-67735D01*
X77851Y-67829D02*
X77851Y-67632D01*
X77776Y-67632D01*
X77757Y-67642D01*
X77748Y-67651D01*
X77739Y-67670D01*
X77739Y-67698D01*
X77748Y-67717D01*
X77757Y-67726D01*
X77776Y-67735D01*
X77851Y-67735D01*
X78032Y-64554D02*
X78098Y-64460D01*
X78145Y-64554D02*
X78145Y-64357D01*
X78070Y-64357D01*
X78051Y-64367D01*
X78042Y-64376D01*
X78032Y-64395D01*
X78032Y-64423D01*
X78042Y-64442D01*
X78051Y-64451D01*
X78070Y-64460D01*
X78145Y-64460D01*
X77920Y-64442D02*
X77939Y-64432D01*
X77948Y-64423D01*
X77957Y-64404D01*
X77957Y-64395D01*
X77948Y-64376D01*
X77939Y-64367D01*
X77920Y-64357D01*
X77882Y-64357D01*
X77863Y-64367D01*
X77854Y-64376D01*
X77845Y-64395D01*
X77845Y-64404D01*
X77854Y-64423D01*
X77863Y-64432D01*
X77882Y-64442D01*
X77920Y-64442D01*
X77939Y-64451D01*
X77948Y-64460D01*
X77957Y-64479D01*
X77957Y-64517D01*
X77948Y-64535D01*
X77939Y-64545D01*
X77920Y-64554D01*
X77882Y-64554D01*
X77863Y-64545D01*
X77854Y-64535D01*
X77845Y-64517D01*
X77845Y-64479D01*
X77854Y-64460D01*
X77863Y-64451D01*
X77882Y-64442D01*
X77939Y-64829D02*
X78004Y-64735D01*
X78051Y-64829D02*
X78051Y-64632D01*
X77976Y-64632D01*
X77957Y-64642D01*
X77948Y-64651D01*
X77939Y-64670D01*
X77939Y-64698D01*
X77948Y-64717D01*
X77957Y-64726D01*
X77976Y-64735D01*
X78051Y-64735D01*
X78032Y-65254D02*
X78098Y-65160D01*
X78145Y-65254D02*
X78145Y-65057D01*
X78070Y-65057D01*
X78051Y-65067D01*
X78042Y-65076D01*
X78032Y-65095D01*
X78032Y-65123D01*
X78042Y-65142D01*
X78051Y-65151D01*
X78070Y-65160D01*
X78145Y-65160D01*
X77939Y-65254D02*
X77901Y-65254D01*
X77882Y-65245D01*
X77873Y-65235D01*
X77854Y-65207D01*
X77845Y-65170D01*
X77845Y-65095D01*
X77854Y-65076D01*
X77863Y-65067D01*
X77882Y-65057D01*
X77920Y-65057D01*
X77939Y-65067D01*
X77948Y-65076D01*
X77957Y-65095D01*
X77957Y-65142D01*
X77948Y-65160D01*
X77939Y-65170D01*
X77920Y-65179D01*
X77882Y-65179D01*
X77863Y-65170D01*
X77854Y-65160D01*
X77845Y-65142D01*
X77939Y-65529D02*
X78004Y-65435D01*
X78051Y-65529D02*
X78051Y-65332D01*
X77976Y-65332D01*
X77957Y-65342D01*
X77948Y-65351D01*
X77939Y-65370D01*
X77939Y-65398D01*
X77948Y-65417D01*
X77957Y-65426D01*
X77976Y-65435D01*
X78051Y-65435D01*
X84907Y-60029D02*
X84973Y-59935D01*
X85020Y-60029D02*
X85020Y-59832D01*
X84945Y-59832D01*
X84926Y-59842D01*
X84917Y-59851D01*
X84907Y-59870D01*
X84907Y-59898D01*
X84917Y-59917D01*
X84926Y-59926D01*
X84945Y-59935D01*
X85020Y-59935D01*
X84738Y-59898D02*
X84738Y-60029D01*
X84785Y-59823D02*
X84832Y-59964D01*
X84710Y-59964D01*
X84814Y-60304D02*
X84879Y-60210D01*
X84926Y-60304D02*
X84926Y-60107D01*
X84851Y-60107D01*
X84832Y-60117D01*
X84823Y-60126D01*
X84814Y-60145D01*
X84814Y-60173D01*
X84823Y-60192D01*
X84832Y-60201D01*
X84851Y-60210D01*
X84926Y-60210D01*
X84907Y-60754D02*
X84973Y-60660D01*
X85020Y-60754D02*
X85020Y-60557D01*
X84945Y-60557D01*
X84926Y-60567D01*
X84917Y-60576D01*
X84907Y-60595D01*
X84907Y-60623D01*
X84917Y-60642D01*
X84926Y-60651D01*
X84945Y-60660D01*
X85020Y-60660D01*
X84842Y-60557D02*
X84720Y-60557D01*
X84785Y-60632D01*
X84757Y-60632D01*
X84738Y-60642D01*
X84729Y-60651D01*
X84720Y-60670D01*
X84720Y-60717D01*
X84729Y-60735D01*
X84738Y-60745D01*
X84757Y-60754D01*
X84814Y-60754D01*
X84832Y-60745D01*
X84842Y-60735D01*
X84814Y-61029D02*
X84879Y-60935D01*
X84926Y-61029D02*
X84926Y-60832D01*
X84851Y-60832D01*
X84832Y-60842D01*
X84823Y-60851D01*
X84814Y-60870D01*
X84814Y-60898D01*
X84823Y-60917D01*
X84832Y-60926D01*
X84851Y-60935D01*
X84926Y-60935D01*
X85882Y-61704D02*
X85948Y-61610D01*
X85995Y-61704D02*
X85995Y-61507D01*
X85920Y-61507D01*
X85901Y-61517D01*
X85892Y-61526D01*
X85882Y-61545D01*
X85882Y-61573D01*
X85892Y-61592D01*
X85901Y-61601D01*
X85920Y-61610D01*
X85995Y-61610D01*
X85807Y-61526D02*
X85798Y-61517D01*
X85779Y-61507D01*
X85732Y-61507D01*
X85713Y-61517D01*
X85704Y-61526D01*
X85695Y-61545D01*
X85695Y-61564D01*
X85704Y-61592D01*
X85817Y-61704D01*
X85695Y-61704D01*
X85789Y-61429D02*
X85854Y-61335D01*
X85901Y-61429D02*
X85901Y-61232D01*
X85826Y-61232D01*
X85807Y-61242D01*
X85798Y-61251D01*
X85789Y-61270D01*
X85789Y-61298D01*
X85798Y-61317D01*
X85807Y-61326D01*
X85826Y-61335D01*
X85901Y-61335D01*
X85682Y-59554D02*
X85748Y-59460D01*
X85795Y-59554D02*
X85795Y-59357D01*
X85720Y-59357D01*
X85701Y-59367D01*
X85692Y-59376D01*
X85682Y-59395D01*
X85682Y-59423D01*
X85692Y-59442D01*
X85701Y-59451D01*
X85720Y-59460D01*
X85795Y-59460D01*
X85495Y-59554D02*
X85607Y-59554D01*
X85551Y-59554D02*
X85551Y-59357D01*
X85570Y-59385D01*
X85589Y-59404D01*
X85607Y-59414D01*
X85589Y-59279D02*
X85654Y-59185D01*
X85701Y-59279D02*
X85701Y-59082D01*
X85626Y-59082D01*
X85607Y-59092D01*
X85598Y-59101D01*
X85589Y-59120D01*
X85589Y-59148D01*
X85598Y-59167D01*
X85607Y-59176D01*
X85626Y-59185D01*
X85701Y-59185D01*
X76276Y-51404D02*
X76342Y-51310D01*
X76389Y-51404D02*
X76389Y-51207D01*
X76314Y-51207D01*
X76295Y-51217D01*
X76286Y-51226D01*
X76276Y-51245D01*
X76276Y-51273D01*
X76286Y-51292D01*
X76295Y-51301D01*
X76314Y-51310D01*
X76389Y-51310D01*
X76089Y-51404D02*
X76201Y-51404D01*
X76145Y-51404D02*
X76145Y-51207D01*
X76164Y-51235D01*
X76182Y-51254D01*
X76201Y-51264D01*
X75967Y-51207D02*
X75948Y-51207D01*
X75929Y-51217D01*
X75920Y-51226D01*
X75910Y-51245D01*
X75901Y-51282D01*
X75901Y-51329D01*
X75910Y-51367D01*
X75920Y-51385D01*
X75929Y-51395D01*
X75948Y-51404D01*
X75967Y-51404D01*
X75985Y-51395D01*
X75995Y-51385D01*
X76004Y-51367D01*
X76013Y-51329D01*
X76013Y-51282D01*
X76004Y-51245D01*
X75995Y-51226D01*
X75985Y-51217D01*
X75967Y-51207D01*
X76089Y-51129D02*
X76154Y-51035D01*
X76201Y-51129D02*
X76201Y-50932D01*
X76126Y-50932D01*
X76107Y-50942D01*
X76098Y-50951D01*
X76089Y-50970D01*
X76089Y-50998D01*
X76098Y-51017D01*
X76107Y-51026D01*
X76126Y-51035D01*
X76201Y-51035D01*
X76276Y-52104D02*
X76342Y-52010D01*
X76389Y-52104D02*
X76389Y-51907D01*
X76314Y-51907D01*
X76295Y-51917D01*
X76286Y-51926D01*
X76276Y-51945D01*
X76276Y-51973D01*
X76286Y-51992D01*
X76295Y-52001D01*
X76314Y-52010D01*
X76389Y-52010D01*
X76089Y-52104D02*
X76201Y-52104D01*
X76145Y-52104D02*
X76145Y-51907D01*
X76164Y-51935D01*
X76182Y-51954D01*
X76201Y-51964D01*
X75901Y-52104D02*
X76013Y-52104D01*
X75957Y-52104D02*
X75957Y-51907D01*
X75976Y-51935D01*
X75995Y-51954D01*
X76013Y-51964D01*
X76089Y-51829D02*
X76154Y-51735D01*
X76201Y-51829D02*
X76201Y-51632D01*
X76126Y-51632D01*
X76107Y-51642D01*
X76098Y-51651D01*
X76089Y-51670D01*
X76089Y-51698D01*
X76098Y-51717D01*
X76107Y-51726D01*
X76126Y-51735D01*
X76201Y-51735D01*
X75304Y-55273D02*
X75210Y-55207D01*
X75304Y-55160D02*
X75107Y-55160D01*
X75107Y-55235D01*
X75117Y-55254D01*
X75126Y-55263D01*
X75145Y-55273D01*
X75173Y-55273D01*
X75192Y-55263D01*
X75201Y-55254D01*
X75210Y-55235D01*
X75210Y-55160D01*
X75304Y-55460D02*
X75304Y-55348D01*
X75304Y-55404D02*
X75107Y-55404D01*
X75135Y-55385D01*
X75154Y-55367D01*
X75164Y-55348D01*
X75126Y-55536D02*
X75117Y-55545D01*
X75107Y-55564D01*
X75107Y-55611D01*
X75117Y-55629D01*
X75126Y-55639D01*
X75145Y-55648D01*
X75164Y-55648D01*
X75192Y-55639D01*
X75304Y-55526D01*
X75304Y-55648D01*
X75579Y-55460D02*
X75485Y-55395D01*
X75579Y-55348D02*
X75382Y-55348D01*
X75382Y-55423D01*
X75392Y-55442D01*
X75401Y-55451D01*
X75420Y-55460D01*
X75448Y-55460D01*
X75467Y-55451D01*
X75476Y-55442D01*
X75485Y-55423D01*
X75485Y-55348D01*
X76576Y-54754D02*
X76642Y-54660D01*
X76689Y-54754D02*
X76689Y-54557D01*
X76614Y-54557D01*
X76595Y-54567D01*
X76586Y-54576D01*
X76576Y-54595D01*
X76576Y-54623D01*
X76586Y-54642D01*
X76595Y-54651D01*
X76614Y-54660D01*
X76689Y-54660D01*
X76389Y-54754D02*
X76501Y-54754D01*
X76445Y-54754D02*
X76445Y-54557D01*
X76464Y-54585D01*
X76482Y-54604D01*
X76501Y-54614D01*
X76323Y-54557D02*
X76201Y-54557D01*
X76267Y-54632D01*
X76238Y-54632D01*
X76220Y-54642D01*
X76210Y-54651D01*
X76201Y-54670D01*
X76201Y-54717D01*
X76210Y-54735D01*
X76220Y-54745D01*
X76238Y-54754D01*
X76295Y-54754D01*
X76313Y-54745D01*
X76323Y-54735D01*
X76389Y-54479D02*
X76454Y-54385D01*
X76501Y-54479D02*
X76501Y-54282D01*
X76426Y-54282D01*
X76407Y-54292D01*
X76398Y-54301D01*
X76389Y-54320D01*
X76389Y-54348D01*
X76398Y-54367D01*
X76407Y-54376D01*
X76426Y-54385D01*
X76501Y-54385D01*
X76576Y-54004D02*
X76642Y-53910D01*
X76689Y-54004D02*
X76689Y-53807D01*
X76614Y-53807D01*
X76595Y-53817D01*
X76586Y-53826D01*
X76576Y-53845D01*
X76576Y-53873D01*
X76586Y-53892D01*
X76595Y-53901D01*
X76614Y-53910D01*
X76689Y-53910D01*
X76389Y-54004D02*
X76501Y-54004D01*
X76445Y-54004D02*
X76445Y-53807D01*
X76464Y-53835D01*
X76482Y-53854D01*
X76501Y-53864D01*
X76220Y-53873D02*
X76220Y-54004D01*
X76267Y-53798D02*
X76313Y-53939D01*
X76192Y-53939D01*
X76389Y-53729D02*
X76454Y-53635D01*
X76501Y-53729D02*
X76501Y-53532D01*
X76426Y-53532D01*
X76407Y-53542D01*
X76398Y-53551D01*
X76389Y-53570D01*
X76389Y-53598D01*
X76398Y-53617D01*
X76407Y-53626D01*
X76426Y-53635D01*
X76501Y-53635D01*
X82251Y-52004D02*
X82317Y-51910D01*
X82364Y-52004D02*
X82364Y-51807D01*
X82289Y-51807D01*
X82270Y-51817D01*
X82261Y-51826D01*
X82251Y-51845D01*
X82251Y-51873D01*
X82261Y-51892D01*
X82270Y-51901D01*
X82289Y-51910D01*
X82364Y-51910D01*
X82064Y-52004D02*
X82176Y-52004D01*
X82120Y-52004D02*
X82120Y-51807D01*
X82139Y-51835D01*
X82157Y-51854D01*
X82176Y-51864D01*
X81885Y-51807D02*
X81979Y-51807D01*
X81988Y-51901D01*
X81979Y-51892D01*
X81960Y-51882D01*
X81913Y-51882D01*
X81895Y-51892D01*
X81885Y-51901D01*
X81876Y-51920D01*
X81876Y-51967D01*
X81885Y-51985D01*
X81895Y-51995D01*
X81913Y-52004D01*
X81960Y-52004D01*
X81979Y-51995D01*
X81988Y-51985D01*
X82064Y-52279D02*
X82129Y-52185D01*
X82176Y-52279D02*
X82176Y-52082D01*
X82101Y-52082D01*
X82082Y-52092D01*
X82073Y-52101D01*
X82064Y-52120D01*
X82064Y-52148D01*
X82073Y-52167D01*
X82082Y-52176D01*
X82101Y-52185D01*
X82176Y-52185D01*
X82251Y-52754D02*
X82317Y-52660D01*
X82364Y-52754D02*
X82364Y-52557D01*
X82289Y-52557D01*
X82270Y-52567D01*
X82261Y-52576D01*
X82251Y-52595D01*
X82251Y-52623D01*
X82261Y-52642D01*
X82270Y-52651D01*
X82289Y-52660D01*
X82364Y-52660D01*
X82064Y-52754D02*
X82176Y-52754D01*
X82120Y-52754D02*
X82120Y-52557D01*
X82139Y-52585D01*
X82157Y-52604D01*
X82176Y-52614D01*
X81895Y-52557D02*
X81932Y-52557D01*
X81951Y-52567D01*
X81960Y-52576D01*
X81979Y-52604D01*
X81988Y-52642D01*
X81988Y-52717D01*
X81979Y-52735D01*
X81970Y-52745D01*
X81951Y-52754D01*
X81913Y-52754D01*
X81895Y-52745D01*
X81885Y-52735D01*
X81876Y-52717D01*
X81876Y-52670D01*
X81885Y-52651D01*
X81895Y-52642D01*
X81913Y-52632D01*
X81951Y-52632D01*
X81970Y-52642D01*
X81979Y-52651D01*
X81988Y-52670D01*
X82064Y-53029D02*
X82129Y-52935D01*
X82176Y-53029D02*
X82176Y-52832D01*
X82101Y-52832D01*
X82082Y-52842D01*
X82073Y-52851D01*
X82064Y-52870D01*
X82064Y-52898D01*
X82073Y-52917D01*
X82082Y-52926D01*
X82101Y-52935D01*
X82176Y-52935D01*
X82251Y-53504D02*
X82317Y-53410D01*
X82364Y-53504D02*
X82364Y-53307D01*
X82289Y-53307D01*
X82270Y-53317D01*
X82261Y-53326D01*
X82251Y-53345D01*
X82251Y-53373D01*
X82261Y-53392D01*
X82270Y-53401D01*
X82289Y-53410D01*
X82364Y-53410D01*
X82064Y-53504D02*
X82176Y-53504D01*
X82120Y-53504D02*
X82120Y-53307D01*
X82139Y-53335D01*
X82157Y-53354D01*
X82176Y-53364D01*
X81998Y-53307D02*
X81867Y-53307D01*
X81951Y-53504D01*
X82064Y-53779D02*
X82129Y-53685D01*
X82176Y-53779D02*
X82176Y-53582D01*
X82101Y-53582D01*
X82082Y-53592D01*
X82073Y-53601D01*
X82064Y-53620D01*
X82064Y-53648D01*
X82073Y-53667D01*
X82082Y-53676D01*
X82101Y-53685D01*
X82176Y-53685D01*
X82251Y-54254D02*
X82317Y-54160D01*
X82364Y-54254D02*
X82364Y-54057D01*
X82289Y-54057D01*
X82270Y-54067D01*
X82261Y-54076D01*
X82251Y-54095D01*
X82251Y-54123D01*
X82261Y-54142D01*
X82270Y-54151D01*
X82289Y-54160D01*
X82364Y-54160D01*
X82064Y-54254D02*
X82176Y-54254D01*
X82120Y-54254D02*
X82120Y-54057D01*
X82139Y-54085D01*
X82157Y-54104D01*
X82176Y-54114D01*
X81951Y-54142D02*
X81970Y-54132D01*
X81979Y-54123D01*
X81988Y-54104D01*
X81988Y-54095D01*
X81979Y-54076D01*
X81970Y-54067D01*
X81951Y-54057D01*
X81913Y-54057D01*
X81895Y-54067D01*
X81885Y-54076D01*
X81876Y-54095D01*
X81876Y-54104D01*
X81885Y-54123D01*
X81895Y-54132D01*
X81913Y-54142D01*
X81951Y-54142D01*
X81970Y-54151D01*
X81979Y-54160D01*
X81988Y-54179D01*
X81988Y-54217D01*
X81979Y-54235D01*
X81970Y-54245D01*
X81951Y-54254D01*
X81913Y-54254D01*
X81895Y-54245D01*
X81885Y-54235D01*
X81876Y-54217D01*
X81876Y-54179D01*
X81885Y-54160D01*
X81895Y-54151D01*
X81913Y-54142D01*
X82064Y-54529D02*
X82129Y-54435D01*
X82176Y-54529D02*
X82176Y-54332D01*
X82101Y-54332D01*
X82082Y-54342D01*
X82073Y-54351D01*
X82064Y-54370D01*
X82064Y-54398D01*
X82073Y-54417D01*
X82082Y-54426D01*
X82101Y-54435D01*
X82176Y-54435D01*
X82251Y-55029D02*
X82317Y-54935D01*
X82364Y-55029D02*
X82364Y-54832D01*
X82289Y-54832D01*
X82270Y-54842D01*
X82261Y-54851D01*
X82251Y-54870D01*
X82251Y-54898D01*
X82261Y-54917D01*
X82270Y-54926D01*
X82289Y-54935D01*
X82364Y-54935D01*
X82064Y-55029D02*
X82176Y-55029D01*
X82120Y-55029D02*
X82120Y-54832D01*
X82139Y-54860D01*
X82157Y-54879D01*
X82176Y-54889D01*
X81970Y-55029D02*
X81932Y-55029D01*
X81913Y-55020D01*
X81904Y-55010D01*
X81885Y-54982D01*
X81876Y-54945D01*
X81876Y-54870D01*
X81885Y-54851D01*
X81895Y-54842D01*
X81913Y-54832D01*
X81951Y-54832D01*
X81970Y-54842D01*
X81979Y-54851D01*
X81988Y-54870D01*
X81988Y-54917D01*
X81979Y-54935D01*
X81970Y-54945D01*
X81951Y-54954D01*
X81913Y-54954D01*
X81895Y-54945D01*
X81885Y-54935D01*
X81876Y-54917D01*
X82064Y-55304D02*
X82129Y-55210D01*
X82176Y-55304D02*
X82176Y-55107D01*
X82101Y-55107D01*
X82082Y-55117D01*
X82073Y-55126D01*
X82064Y-55145D01*
X82064Y-55173D01*
X82073Y-55192D01*
X82082Y-55201D01*
X82101Y-55210D01*
X82176Y-55210D01*
G54D13*
X72400Y-62292D02*
X72414Y-62307D01*
X72457Y-62321D01*
X72485Y-62321D01*
X72528Y-62307D01*
X72557Y-62278D01*
X72571Y-62250D01*
X72585Y-62192D01*
X72585Y-62150D01*
X72571Y-62092D01*
X72557Y-62064D01*
X72528Y-62035D01*
X72485Y-62021D01*
X72457Y-62021D01*
X72414Y-62035D01*
X72400Y-62050D01*
X72285Y-62050D02*
X72271Y-62035D01*
X72242Y-62021D01*
X72171Y-62021D01*
X72142Y-62035D01*
X72128Y-62050D01*
X72114Y-62078D01*
X72114Y-62107D01*
X72128Y-62150D01*
X72300Y-62321D01*
X72114Y-62321D01*
X71550Y-57292D02*
X71564Y-57307D01*
X71607Y-57321D01*
X71635Y-57321D01*
X71678Y-57307D01*
X71707Y-57278D01*
X71721Y-57250D01*
X71735Y-57192D01*
X71735Y-57150D01*
X71721Y-57092D01*
X71707Y-57064D01*
X71678Y-57035D01*
X71635Y-57021D01*
X71607Y-57021D01*
X71564Y-57035D01*
X71550Y-57050D01*
X71264Y-57321D02*
X71435Y-57321D01*
X71350Y-57321D02*
X71350Y-57021D01*
X71378Y-57064D01*
X71407Y-57092D01*
X71435Y-57107D01*
G54D18*
X81682Y-61535D02*
X81692Y-61545D01*
X81720Y-61554D01*
X81739Y-61554D01*
X81767Y-61545D01*
X81786Y-61526D01*
X81795Y-61507D01*
X81804Y-61470D01*
X81804Y-61442D01*
X81795Y-61404D01*
X81786Y-61385D01*
X81767Y-61367D01*
X81739Y-61357D01*
X81720Y-61357D01*
X81692Y-61367D01*
X81682Y-61376D01*
X81617Y-61357D02*
X81495Y-61357D01*
X81560Y-61432D01*
X81532Y-61432D01*
X81513Y-61442D01*
X81504Y-61451D01*
X81495Y-61470D01*
X81495Y-61517D01*
X81504Y-61535D01*
X81513Y-61545D01*
X81532Y-61554D01*
X81589Y-61554D01*
X81607Y-61545D01*
X81617Y-61535D01*
X81589Y-61260D02*
X81598Y-61270D01*
X81626Y-61279D01*
X81645Y-61279D01*
X81673Y-61270D01*
X81692Y-61251D01*
X81701Y-61232D01*
X81710Y-61195D01*
X81710Y-61167D01*
X81701Y-61129D01*
X81692Y-61110D01*
X81673Y-61092D01*
X81645Y-61082D01*
X81626Y-61082D01*
X81598Y-61092D01*
X81589Y-61101D01*
X72482Y-63285D02*
X72492Y-63295D01*
X72520Y-63304D01*
X72539Y-63304D01*
X72567Y-63295D01*
X72586Y-63276D01*
X72595Y-63257D01*
X72604Y-63220D01*
X72604Y-63192D01*
X72595Y-63154D01*
X72586Y-63135D01*
X72567Y-63117D01*
X72539Y-63107D01*
X72520Y-63107D01*
X72492Y-63117D01*
X72482Y-63126D01*
X72313Y-63173D02*
X72313Y-63304D01*
X72360Y-63098D02*
X72407Y-63239D01*
X72285Y-63239D01*
X72389Y-63010D02*
X72398Y-63020D01*
X72426Y-63029D01*
X72445Y-63029D01*
X72473Y-63020D01*
X72492Y-63001D01*
X72501Y-62982D01*
X72510Y-62945D01*
X72510Y-62917D01*
X72501Y-62879D01*
X72492Y-62860D01*
X72473Y-62842D01*
X72445Y-62832D01*
X72426Y-62832D01*
X72398Y-62842D01*
X72389Y-62851D01*
X71885Y-53867D02*
X71895Y-53857D01*
X71904Y-53829D01*
X71904Y-53810D01*
X71895Y-53782D01*
X71876Y-53763D01*
X71857Y-53754D01*
X71820Y-53745D01*
X71792Y-53745D01*
X71754Y-53754D01*
X71735Y-53763D01*
X71717Y-53782D01*
X71707Y-53810D01*
X71707Y-53829D01*
X71717Y-53857D01*
X71726Y-53867D01*
X71707Y-54045D02*
X71707Y-53951D01*
X71801Y-53942D01*
X71792Y-53951D01*
X71782Y-53970D01*
X71782Y-54017D01*
X71792Y-54036D01*
X71801Y-54045D01*
X71820Y-54054D01*
X71867Y-54054D01*
X71885Y-54045D01*
X71895Y-54036D01*
X71904Y-54017D01*
X71904Y-53970D01*
X71895Y-53951D01*
X71885Y-53942D01*
X71610Y-53960D02*
X71620Y-53951D01*
X71629Y-53923D01*
X71629Y-53904D01*
X71620Y-53876D01*
X71601Y-53857D01*
X71582Y-53848D01*
X71545Y-53839D01*
X71517Y-53839D01*
X71479Y-53848D01*
X71460Y-53857D01*
X71442Y-53876D01*
X71432Y-53904D01*
X71432Y-53923D01*
X71442Y-53951D01*
X71451Y-53960D01*
X81135Y-56517D02*
X81145Y-56507D01*
X81154Y-56479D01*
X81154Y-56460D01*
X81145Y-56432D01*
X81126Y-56413D01*
X81107Y-56404D01*
X81070Y-56395D01*
X81042Y-56395D01*
X81004Y-56404D01*
X80985Y-56413D01*
X80967Y-56432D01*
X80957Y-56460D01*
X80957Y-56479D01*
X80967Y-56507D01*
X80976Y-56517D01*
X80957Y-56686D02*
X80957Y-56648D01*
X80967Y-56629D01*
X80976Y-56620D01*
X81004Y-56601D01*
X81042Y-56592D01*
X81117Y-56592D01*
X81135Y-56601D01*
X81145Y-56610D01*
X81154Y-56629D01*
X81154Y-56667D01*
X81145Y-56686D01*
X81135Y-56695D01*
X81117Y-56704D01*
X81070Y-56704D01*
X81051Y-56695D01*
X81042Y-56686D01*
X81032Y-56667D01*
X81032Y-56629D01*
X81042Y-56610D01*
X81051Y-56601D01*
X81070Y-56592D01*
X81410Y-56610D02*
X81420Y-56601D01*
X81429Y-56573D01*
X81429Y-56554D01*
X81420Y-56526D01*
X81401Y-56507D01*
X81382Y-56498D01*
X81345Y-56489D01*
X81317Y-56489D01*
X81279Y-56498D01*
X81260Y-56507D01*
X81242Y-56526D01*
X81232Y-56554D01*
X81232Y-56573D01*
X81242Y-56601D01*
X81251Y-56610D01*
X86232Y-55285D02*
X86242Y-55295D01*
X86270Y-55304D01*
X86289Y-55304D01*
X86317Y-55295D01*
X86336Y-55276D01*
X86345Y-55257D01*
X86354Y-55220D01*
X86354Y-55192D01*
X86345Y-55154D01*
X86336Y-55135D01*
X86317Y-55117D01*
X86289Y-55107D01*
X86270Y-55107D01*
X86242Y-55117D01*
X86232Y-55126D01*
X86167Y-55107D02*
X86035Y-55107D01*
X86120Y-55304D01*
X86139Y-55560D02*
X86148Y-55570D01*
X86176Y-55579D01*
X86195Y-55579D01*
X86223Y-55570D01*
X86242Y-55551D01*
X86251Y-55532D01*
X86260Y-55495D01*
X86260Y-55467D01*
X86251Y-55429D01*
X86242Y-55410D01*
X86223Y-55392D01*
X86195Y-55382D01*
X86176Y-55382D01*
X86148Y-55392D01*
X86139Y-55401D01*
G54D19*
X76685Y-58932D02*
X76489Y-58932D01*
X76489Y-59007D01*
X76498Y-59026D01*
X76507Y-59035D01*
X76526Y-59045D01*
X76554Y-59045D01*
X76573Y-59035D01*
X76582Y-59026D01*
X76592Y-59007D01*
X76592Y-58932D01*
X76685Y-59232D02*
X76685Y-59120D01*
X76685Y-59176D02*
X76489Y-59176D01*
X76517Y-59157D01*
X76535Y-59138D01*
X76545Y-59120D01*
X77276Y-58829D02*
X77435Y-58829D01*
X77454Y-58838D01*
X77464Y-58848D01*
X77473Y-58867D01*
X77473Y-58904D01*
X77464Y-58923D01*
X77454Y-58932D01*
X77435Y-58942D01*
X77276Y-58942D01*
X77464Y-59026D02*
X77473Y-59054D01*
X77473Y-59101D01*
X77464Y-59120D01*
X77454Y-59129D01*
X77435Y-59138D01*
X77417Y-59138D01*
X77398Y-59129D01*
X77389Y-59120D01*
X77379Y-59101D01*
X77370Y-59063D01*
X77360Y-59045D01*
X77351Y-59035D01*
X77332Y-59026D01*
X77314Y-59026D01*
X77295Y-59035D01*
X77285Y-59045D01*
X77276Y-59063D01*
X77276Y-59110D01*
X77285Y-59138D01*
X77370Y-59288D02*
X77379Y-59316D01*
X77389Y-59326D01*
X77407Y-59335D01*
X77435Y-59335D01*
X77454Y-59326D01*
X77464Y-59316D01*
X77473Y-59298D01*
X77473Y-59223D01*
X77276Y-59223D01*
X77276Y-59288D01*
X77285Y-59307D01*
X77295Y-59316D01*
X77314Y-59326D01*
X77332Y-59326D01*
X77351Y-59316D01*
X77360Y-59307D01*
X77370Y-59288D01*
X77370Y-59223D01*
G54D13*
X75992Y-59050D02*
X76007Y-59035D01*
X76021Y-58992D01*
X76021Y-58964D01*
X76007Y-58921D01*
X75978Y-58892D01*
X75950Y-58878D01*
X75892Y-58864D01*
X75850Y-58864D01*
X75792Y-58878D01*
X75764Y-58892D01*
X75735Y-58921D01*
X75721Y-58964D01*
X75721Y-58992D01*
X75735Y-59035D01*
X75750Y-59050D01*
X75850Y-59221D02*
X75835Y-59192D01*
X75821Y-59178D01*
X75792Y-59164D01*
X75778Y-59164D01*
X75750Y-59178D01*
X75735Y-59192D01*
X75721Y-59221D01*
X75721Y-59278D01*
X75735Y-59307D01*
X75750Y-59321D01*
X75778Y-59335D01*
X75792Y-59335D01*
X75821Y-59321D01*
X75835Y-59307D01*
X75850Y-59278D01*
X75850Y-59221D01*
X75864Y-59192D01*
X75878Y-59178D01*
X75907Y-59164D01*
X75964Y-59164D01*
X75992Y-59178D01*
X76007Y-59192D01*
X76021Y-59221D01*
X76021Y-59278D01*
X76007Y-59307D01*
X75992Y-59321D01*
X75964Y-59335D01*
X75907Y-59335D01*
X75878Y-59321D01*
X75864Y-59307D01*
X75850Y-59278D01*
G54D14*
X70202Y-58695D02*
X70607Y-58695D01*
X70654Y-58714D01*
X70678Y-58733D01*
X70702Y-58771D01*
X70702Y-58847D01*
X70678Y-58885D01*
X70654Y-58904D01*
X70607Y-58923D01*
X70202Y-58923D01*
X70202Y-59285D02*
X70202Y-59209D01*
X70226Y-59171D01*
X70250Y-59152D01*
X70321Y-59114D01*
X70416Y-59095D01*
X70607Y-59095D01*
X70654Y-59114D01*
X70678Y-59133D01*
X70702Y-59171D01*
X70702Y-59247D01*
X70678Y-59285D01*
X70654Y-59304D01*
X70607Y-59323D01*
X70488Y-59323D01*
X70440Y-59304D01*
X70416Y-59285D01*
X70392Y-59247D01*
X70392Y-59171D01*
X70416Y-59133D01*
X70440Y-59114D01*
X70488Y-59095D01*
X73811Y-56457D02*
X73411Y-56457D01*
X73811Y-56685D01*
X73411Y-56685D01*
X73773Y-57104D02*
X73792Y-57085D01*
X73811Y-57028D01*
X73811Y-56990D01*
X73792Y-56933D01*
X73754Y-56895D01*
X73716Y-56876D01*
X73640Y-56857D01*
X73583Y-56857D01*
X73507Y-56876D01*
X73469Y-56895D01*
X73430Y-56933D01*
X73411Y-56990D01*
X73411Y-57028D01*
X73430Y-57085D01*
X73450Y-57104D01*
X73811Y-57276D02*
X73411Y-57276D01*
X73411Y-57428D01*
X73430Y-57466D01*
X73450Y-57485D01*
X73488Y-57504D01*
X73545Y-57504D01*
X73583Y-57485D01*
X73602Y-57466D01*
X73621Y-57428D01*
X73621Y-57276D01*
X73811Y-57885D02*
X73811Y-57657D01*
X73811Y-57771D02*
X73411Y-57771D01*
X73469Y-57733D01*
X73507Y-57695D01*
X73526Y-57657D01*
X73811Y-58266D02*
X73811Y-58038D01*
X73811Y-58152D02*
X73411Y-58152D01*
X73469Y-58114D01*
X73507Y-58076D01*
X73526Y-58038D01*
X73811Y-58647D02*
X73811Y-58419D01*
X73811Y-58533D02*
X73411Y-58533D01*
X73469Y-58495D01*
X73507Y-58457D01*
X73526Y-58419D01*
X73411Y-58780D02*
X73411Y-59047D01*
X73811Y-58876D01*
X73792Y-59180D02*
X73811Y-59238D01*
X73811Y-59333D01*
X73792Y-59371D01*
X73773Y-59390D01*
X73735Y-59409D01*
X73697Y-59409D01*
X73659Y-59390D01*
X73640Y-59371D01*
X73621Y-59333D01*
X73602Y-59257D01*
X73583Y-59219D01*
X73564Y-59200D01*
X73526Y-59180D01*
X73488Y-59180D01*
X73450Y-59200D01*
X73430Y-59219D01*
X73411Y-59257D01*
X73411Y-59352D01*
X73430Y-59409D01*
X73411Y-59523D02*
X73411Y-59752D01*
X73811Y-59638D02*
X73411Y-59638D01*
X73411Y-59847D02*
X73411Y-60095D01*
X73564Y-59961D01*
X73564Y-60019D01*
X73583Y-60057D01*
X73602Y-60076D01*
X73640Y-60095D01*
X73735Y-60095D01*
X73773Y-60076D01*
X73792Y-60057D01*
X73811Y-60019D01*
X73811Y-59904D01*
X73792Y-59866D01*
X73773Y-59847D01*
X73411Y-60228D02*
X73411Y-60476D01*
X73564Y-60342D01*
X73564Y-60400D01*
X73583Y-60438D01*
X73602Y-60457D01*
X73640Y-60476D01*
X73735Y-60476D01*
X73773Y-60457D01*
X73792Y-60438D01*
X73811Y-60400D01*
X73811Y-60285D01*
X73792Y-60247D01*
X73773Y-60228D01*
X73411Y-60590D02*
X73411Y-60819D01*
X73811Y-60704D02*
X73411Y-60704D01*
X73411Y-60914D02*
X73411Y-61161D01*
X73564Y-61028D01*
X73564Y-61085D01*
X73583Y-61123D01*
X73602Y-61142D01*
X73640Y-61161D01*
X73735Y-61161D01*
X73773Y-61142D01*
X73792Y-61123D01*
X73811Y-61085D01*
X73811Y-60971D01*
X73792Y-60933D01*
X73773Y-60914D01*
X73430Y-61542D02*
X73411Y-61504D01*
X73411Y-61447D01*
X73430Y-61390D01*
X73469Y-61352D01*
X73507Y-61333D01*
X73583Y-61314D01*
X73640Y-61314D01*
X73716Y-61333D01*
X73754Y-61352D01*
X73792Y-61390D01*
X73811Y-61447D01*
X73811Y-61485D01*
X73792Y-61542D01*
X73773Y-61561D01*
X73640Y-61561D01*
X73640Y-61485D01*
M02*
