G04 (created by PCBNEW (2013-jul-07)-stable) date tis  3 feb 2015 18:16:58*
%MOIN*%
G04 Gerber Fmt 3.4, Leading zero omitted, Abs format*
%FSLAX34Y34*%
G01*
G70*
G90*
G04 APERTURE LIST*
%ADD10C,0.00590551*%
%ADD11R,0.0314961X0.0314961*%
%ADD12C,0.0374016*%
%ADD13C,0.035*%
%ADD14C,0.015748*%
%ADD15C,0.01*%
G04 APERTURE END LIST*
G54D10*
G36*
X77124Y-55563D02*
X77027Y-55263D01*
X77326Y-55166D01*
X77424Y-55466D01*
X77124Y-55563D01*
X77124Y-55563D01*
G37*
G36*
X77695Y-55378D02*
X77597Y-55078D01*
X77897Y-54981D01*
X77994Y-55280D01*
X77695Y-55378D01*
X77695Y-55378D01*
G37*
G36*
X77355Y-54331D02*
X77257Y-54032D01*
X77557Y-53934D01*
X77654Y-54234D01*
X77355Y-54331D01*
X77355Y-54331D01*
G37*
G36*
X76784Y-54517D02*
X76687Y-54217D01*
X76986Y-54120D01*
X77084Y-54419D01*
X76784Y-54517D01*
X76784Y-54517D01*
G37*
G36*
X73788Y-56022D02*
X73533Y-55837D01*
X73718Y-55583D01*
X73973Y-55768D01*
X73788Y-56022D01*
X73788Y-56022D01*
G37*
G36*
X74140Y-55537D02*
X73885Y-55352D01*
X74071Y-55097D01*
X74325Y-55282D01*
X74140Y-55537D01*
X74140Y-55537D01*
G37*
G36*
X73250Y-54890D02*
X72996Y-54705D01*
X73181Y-54451D01*
X73435Y-54636D01*
X73250Y-54890D01*
X73250Y-54890D01*
G37*
G36*
X72898Y-55376D02*
X72643Y-55191D01*
X72828Y-54936D01*
X73083Y-55121D01*
X72898Y-55376D01*
X72898Y-55376D01*
G37*
G36*
X72983Y-58298D02*
X72675Y-58233D01*
X72740Y-57925D01*
X73048Y-57990D01*
X72983Y-58298D01*
X72983Y-58298D01*
G37*
G36*
X73107Y-57712D02*
X72799Y-57646D01*
X72865Y-57338D01*
X73173Y-57403D01*
X73107Y-57712D01*
X73107Y-57712D01*
G37*
G36*
X72031Y-57483D02*
X71723Y-57417D01*
X71789Y-57109D01*
X72097Y-57175D01*
X72031Y-57483D01*
X72031Y-57483D01*
G37*
G36*
X71907Y-58070D02*
X71599Y-58004D01*
X71664Y-57696D01*
X71972Y-57762D01*
X71907Y-58070D01*
X71907Y-58070D01*
G37*
G36*
X73173Y-60706D02*
X72865Y-60771D01*
X72799Y-60463D01*
X73107Y-60398D01*
X73173Y-60706D01*
X73173Y-60706D01*
G37*
G36*
X73048Y-60119D02*
X72740Y-60184D01*
X72675Y-59876D01*
X72983Y-59811D01*
X73048Y-60119D01*
X73048Y-60119D01*
G37*
G36*
X71972Y-60348D02*
X71664Y-60413D01*
X71599Y-60105D01*
X71907Y-60040D01*
X71972Y-60348D01*
X71972Y-60348D01*
G37*
G36*
X72097Y-60934D02*
X71789Y-61000D01*
X71723Y-60692D01*
X72031Y-60626D01*
X72097Y-60934D01*
X72097Y-60934D01*
G37*
G36*
X74325Y-62827D02*
X74071Y-63012D01*
X73885Y-62757D01*
X74140Y-62572D01*
X74325Y-62827D01*
X74325Y-62827D01*
G37*
G36*
X73973Y-62342D02*
X73718Y-62527D01*
X73533Y-62272D01*
X73788Y-62087D01*
X73973Y-62342D01*
X73973Y-62342D01*
G37*
G36*
X73083Y-62988D02*
X72828Y-63173D01*
X72643Y-62918D01*
X72898Y-62733D01*
X73083Y-62988D01*
X73083Y-62988D01*
G37*
G36*
X73435Y-63474D02*
X73181Y-63659D01*
X72996Y-63404D01*
X73250Y-63219D01*
X73435Y-63474D01*
X73435Y-63474D01*
G37*
G36*
X76242Y-64296D02*
X76084Y-64569D01*
X75811Y-64412D01*
X75969Y-64139D01*
X76242Y-64296D01*
X76242Y-64296D01*
G37*
G36*
X75722Y-63996D02*
X75564Y-64269D01*
X75292Y-64112D01*
X75449Y-63839D01*
X75722Y-63996D01*
X75722Y-63996D01*
G37*
G36*
X75172Y-64949D02*
X75014Y-65222D01*
X74742Y-65064D01*
X74899Y-64791D01*
X75172Y-64949D01*
X75172Y-64949D01*
G37*
G36*
X75692Y-65249D02*
X75534Y-65522D01*
X75261Y-65364D01*
X75419Y-65091D01*
X75692Y-65249D01*
X75692Y-65249D01*
G37*
G36*
X78589Y-64859D02*
X78557Y-65173D01*
X78243Y-65140D01*
X78276Y-64827D01*
X78589Y-64859D01*
X78589Y-64859D01*
G37*
G36*
X77993Y-64797D02*
X77960Y-65110D01*
X77647Y-65077D01*
X77680Y-64764D01*
X77993Y-64797D01*
X77993Y-64797D01*
G37*
G36*
X77878Y-65891D02*
X77845Y-66204D01*
X77532Y-66171D01*
X77565Y-65858D01*
X77878Y-65891D01*
X77878Y-65891D01*
G37*
G36*
X78474Y-65953D02*
X78442Y-66267D01*
X78128Y-66234D01*
X78161Y-65921D01*
X78474Y-65953D01*
X78474Y-65953D01*
G37*
G36*
X80964Y-64418D02*
X81061Y-64718D01*
X80761Y-64815D01*
X80664Y-64516D01*
X80964Y-64418D01*
X80964Y-64418D01*
G37*
G36*
X80393Y-64604D02*
X80490Y-64903D01*
X80191Y-65001D01*
X80093Y-64701D01*
X80393Y-64604D01*
X80393Y-64604D01*
G37*
G36*
X80733Y-65650D02*
X80830Y-65949D01*
X80531Y-66047D01*
X80433Y-65747D01*
X80733Y-65650D01*
X80733Y-65650D01*
G37*
G36*
X81304Y-65465D02*
X81401Y-65764D01*
X81101Y-65861D01*
X81004Y-65562D01*
X81304Y-65465D01*
X81304Y-65465D01*
G37*
G36*
X82953Y-63050D02*
X83164Y-63284D01*
X82930Y-63495D01*
X82719Y-63261D01*
X82953Y-63050D01*
X82953Y-63050D01*
G37*
G36*
X82507Y-63452D02*
X82718Y-63686D01*
X82484Y-63897D01*
X82273Y-63663D01*
X82507Y-63452D01*
X82507Y-63452D01*
G37*
G36*
X83243Y-64269D02*
X83454Y-64503D01*
X83220Y-64714D01*
X83009Y-64480D01*
X83243Y-64269D01*
X83243Y-64269D01*
G37*
G36*
X83689Y-63868D02*
X83900Y-64102D01*
X83666Y-64313D01*
X83455Y-64079D01*
X83689Y-63868D01*
X83689Y-63868D01*
G37*
G36*
X84214Y-60991D02*
X84502Y-61119D01*
X84374Y-61407D01*
X84086Y-61279D01*
X84214Y-60991D01*
X84214Y-60991D01*
G37*
G36*
X83970Y-61539D02*
X84258Y-61667D01*
X84130Y-61955D01*
X83842Y-61827D01*
X83970Y-61539D01*
X83970Y-61539D01*
G37*
G36*
X84975Y-61987D02*
X85263Y-62115D01*
X85135Y-62402D01*
X84847Y-62274D01*
X84975Y-61987D01*
X84975Y-61987D01*
G37*
G36*
X85219Y-61438D02*
X85507Y-61567D01*
X85379Y-61854D01*
X85091Y-61726D01*
X85219Y-61438D01*
X85219Y-61438D01*
G37*
G54D11*
X82717Y-58755D03*
X82717Y-59355D03*
X83817Y-59355D03*
X83817Y-58755D03*
G54D10*
G36*
X81561Y-56439D02*
X81816Y-56254D01*
X82001Y-56509D01*
X81747Y-56694D01*
X81561Y-56439D01*
X81561Y-56439D01*
G37*
G36*
X81914Y-56924D02*
X82169Y-56739D01*
X82354Y-56994D01*
X82099Y-57179D01*
X81914Y-56924D01*
X81914Y-56924D01*
G37*
G36*
X82804Y-56278D02*
X83059Y-56093D01*
X83244Y-56347D01*
X82989Y-56533D01*
X82804Y-56278D01*
X82804Y-56278D01*
G37*
G36*
X82451Y-55792D02*
X82706Y-55607D01*
X82891Y-55862D01*
X82636Y-56047D01*
X82451Y-55792D01*
X82451Y-55792D01*
G37*
G36*
X79485Y-55280D02*
X79582Y-54981D01*
X79882Y-55078D01*
X79785Y-55378D01*
X79485Y-55280D01*
X79485Y-55280D01*
G37*
G36*
X80056Y-55466D02*
X80153Y-55166D01*
X80453Y-55263D01*
X80355Y-55563D01*
X80056Y-55466D01*
X80056Y-55466D01*
G37*
G36*
X80396Y-54419D02*
X80493Y-54120D01*
X80793Y-54217D01*
X80695Y-54517D01*
X80396Y-54419D01*
X80396Y-54419D01*
G37*
G36*
X79825Y-54234D02*
X79922Y-53934D01*
X80222Y-54032D01*
X80125Y-54331D01*
X79825Y-54234D01*
X79825Y-54234D01*
G37*
G36*
X75449Y-54270D02*
X75292Y-53998D01*
X75564Y-53840D01*
X75722Y-54113D01*
X75449Y-54270D01*
X75449Y-54270D01*
G37*
G36*
X75969Y-53970D02*
X75811Y-53698D01*
X76084Y-53540D01*
X76242Y-53813D01*
X75969Y-53970D01*
X75969Y-53970D01*
G37*
G36*
X75419Y-53018D02*
X75261Y-52745D01*
X75534Y-52588D01*
X75692Y-52860D01*
X75419Y-53018D01*
X75419Y-53018D01*
G37*
G36*
X74899Y-53318D02*
X74742Y-53045D01*
X75014Y-52888D01*
X75172Y-53160D01*
X74899Y-53318D01*
X74899Y-53318D01*
G37*
G36*
X75380Y-57179D02*
X75125Y-56994D01*
X75310Y-56739D01*
X75565Y-56924D01*
X75380Y-57179D01*
X75380Y-57179D01*
G37*
G36*
X75733Y-56694D02*
X75478Y-56509D01*
X75663Y-56254D01*
X75918Y-56439D01*
X75733Y-56694D01*
X75733Y-56694D01*
G37*
G36*
X74843Y-56047D02*
X74588Y-55862D01*
X74773Y-55607D01*
X75028Y-55792D01*
X74843Y-56047D01*
X74843Y-56047D01*
G37*
G36*
X74490Y-56533D02*
X74235Y-56347D01*
X74421Y-56093D01*
X74675Y-56278D01*
X74490Y-56533D01*
X74490Y-56533D01*
G37*
G54D11*
X74762Y-59355D03*
X74762Y-58755D03*
X73662Y-58755D03*
X73662Y-59355D03*
G54D10*
G36*
X75918Y-61670D02*
X75663Y-61855D01*
X75478Y-61601D01*
X75733Y-61415D01*
X75918Y-61670D01*
X75918Y-61670D01*
G37*
G36*
X75565Y-61185D02*
X75310Y-61370D01*
X75125Y-61115D01*
X75380Y-60930D01*
X75565Y-61185D01*
X75565Y-61185D01*
G37*
G36*
X74675Y-61831D02*
X74421Y-62017D01*
X74235Y-61762D01*
X74490Y-61577D01*
X74675Y-61831D01*
X74675Y-61831D01*
G37*
G36*
X75028Y-62317D02*
X74773Y-62502D01*
X74588Y-62247D01*
X74843Y-62062D01*
X75028Y-62317D01*
X75028Y-62317D01*
G37*
G36*
X77994Y-62829D02*
X77897Y-63129D01*
X77597Y-63031D01*
X77695Y-62732D01*
X77994Y-62829D01*
X77994Y-62829D01*
G37*
G36*
X77424Y-62644D02*
X77326Y-62943D01*
X77027Y-62846D01*
X77124Y-62546D01*
X77424Y-62644D01*
X77424Y-62644D01*
G37*
G36*
X77084Y-63690D02*
X76986Y-63989D01*
X76687Y-63892D01*
X76784Y-63592D01*
X77084Y-63690D01*
X77084Y-63690D01*
G37*
G36*
X77654Y-63875D02*
X77557Y-64175D01*
X77257Y-64077D01*
X77355Y-63778D01*
X77654Y-63875D01*
X77654Y-63875D01*
G37*
G36*
X80355Y-62546D02*
X80453Y-62846D01*
X80153Y-62943D01*
X80056Y-62644D01*
X80355Y-62546D01*
X80355Y-62546D01*
G37*
G36*
X79785Y-62732D02*
X79882Y-63031D01*
X79582Y-63129D01*
X79485Y-62829D01*
X79785Y-62732D01*
X79785Y-62732D01*
G37*
G36*
X80125Y-63778D02*
X80222Y-64077D01*
X79922Y-64175D01*
X79825Y-63875D01*
X80125Y-63778D01*
X80125Y-63778D01*
G37*
G36*
X80695Y-63592D02*
X80793Y-63892D01*
X80493Y-63989D01*
X80396Y-63690D01*
X80695Y-63592D01*
X80695Y-63592D01*
G37*
G36*
X82099Y-60930D02*
X82354Y-61115D01*
X82169Y-61370D01*
X81914Y-61185D01*
X82099Y-60930D01*
X82099Y-60930D01*
G37*
G36*
X81747Y-61415D02*
X82001Y-61601D01*
X81816Y-61855D01*
X81561Y-61670D01*
X81747Y-61415D01*
X81747Y-61415D01*
G37*
G36*
X82636Y-62062D02*
X82891Y-62247D01*
X82706Y-62502D01*
X82451Y-62317D01*
X82636Y-62062D01*
X82636Y-62062D01*
G37*
G36*
X82989Y-61577D02*
X83244Y-61762D01*
X83059Y-62017D01*
X82804Y-61831D01*
X82989Y-61577D01*
X82989Y-61577D01*
G37*
G54D11*
X80453Y-58755D03*
X80453Y-59355D03*
X81553Y-59355D03*
X81553Y-58755D03*
G54D10*
G36*
X78786Y-57433D02*
X78883Y-57133D01*
X79182Y-57231D01*
X79085Y-57530D01*
X78786Y-57433D01*
X78786Y-57433D01*
G37*
G36*
X79356Y-57618D02*
X79454Y-57319D01*
X79753Y-57416D01*
X79656Y-57716D01*
X79356Y-57618D01*
X79356Y-57618D01*
G37*
G36*
X79696Y-56572D02*
X79793Y-56273D01*
X80093Y-56370D01*
X79996Y-56670D01*
X79696Y-56572D01*
X79696Y-56572D01*
G37*
G36*
X79125Y-56387D02*
X79223Y-56087D01*
X79522Y-56185D01*
X79425Y-56484D01*
X79125Y-56387D01*
X79125Y-56387D01*
G37*
G36*
X77212Y-58510D02*
X76957Y-58325D01*
X77142Y-58070D01*
X77397Y-58255D01*
X77212Y-58510D01*
X77212Y-58510D01*
G37*
G36*
X77564Y-58024D02*
X77309Y-57839D01*
X77495Y-57585D01*
X77749Y-57770D01*
X77564Y-58024D01*
X77564Y-58024D01*
G37*
G36*
X76674Y-57378D02*
X76420Y-57193D01*
X76605Y-56938D01*
X76860Y-57123D01*
X76674Y-57378D01*
X76674Y-57378D01*
G37*
G36*
X76322Y-57863D02*
X76067Y-57678D01*
X76252Y-57423D01*
X76507Y-57608D01*
X76322Y-57863D01*
X76322Y-57863D01*
G37*
G36*
X77749Y-60340D02*
X77495Y-60525D01*
X77309Y-60270D01*
X77564Y-60085D01*
X77749Y-60340D01*
X77749Y-60340D01*
G37*
G36*
X77397Y-59854D02*
X77142Y-60039D01*
X76957Y-59785D01*
X77212Y-59599D01*
X77397Y-59854D01*
X77397Y-59854D01*
G37*
G36*
X76507Y-60501D02*
X76252Y-60686D01*
X76067Y-60431D01*
X76322Y-60246D01*
X76507Y-60501D01*
X76507Y-60501D01*
G37*
G36*
X76860Y-60986D02*
X76605Y-61171D01*
X76420Y-60916D01*
X76674Y-60731D01*
X76860Y-60986D01*
X76860Y-60986D01*
G37*
G36*
X79656Y-60394D02*
X79753Y-60693D01*
X79454Y-60790D01*
X79356Y-60491D01*
X79656Y-60394D01*
X79656Y-60394D01*
G37*
G36*
X79085Y-60579D02*
X79182Y-60879D01*
X78883Y-60976D01*
X78786Y-60676D01*
X79085Y-60579D01*
X79085Y-60579D01*
G37*
G36*
X79425Y-61625D02*
X79522Y-61925D01*
X79223Y-62022D01*
X79125Y-61722D01*
X79425Y-61625D01*
X79425Y-61625D01*
G37*
G36*
X79996Y-61440D02*
X80093Y-61739D01*
X79793Y-61837D01*
X79696Y-61537D01*
X79996Y-61440D01*
X79996Y-61440D01*
G37*
G36*
X78086Y-59586D02*
X78183Y-59287D01*
X78483Y-59384D01*
X78385Y-59683D01*
X78086Y-59586D01*
X78086Y-59586D01*
G37*
G36*
X78657Y-59772D02*
X78754Y-59472D01*
X79053Y-59569D01*
X78956Y-59869D01*
X78657Y-59772D01*
X78657Y-59772D01*
G37*
G36*
X78996Y-58725D02*
X79094Y-58426D01*
X79393Y-58523D01*
X79296Y-58823D01*
X78996Y-58725D01*
X78996Y-58725D01*
G37*
G36*
X78426Y-58540D02*
X78523Y-58240D01*
X78823Y-58338D01*
X78725Y-58637D01*
X78426Y-58540D01*
X78426Y-58540D01*
G37*
G36*
X74550Y-65599D02*
X74365Y-65854D01*
X74110Y-65669D01*
X74296Y-65414D01*
X74550Y-65599D01*
X74550Y-65599D01*
G37*
G36*
X74065Y-65247D02*
X73880Y-65501D01*
X73625Y-65316D01*
X73810Y-65061D01*
X74065Y-65247D01*
X74065Y-65247D01*
G37*
G36*
X73418Y-66136D02*
X73233Y-66391D01*
X72979Y-66206D01*
X73164Y-65951D01*
X73418Y-66136D01*
X73418Y-66136D01*
G37*
G36*
X73904Y-66489D02*
X73719Y-66744D01*
X73464Y-66559D01*
X73649Y-66304D01*
X73904Y-66489D01*
X73904Y-66489D01*
G37*
G36*
X85976Y-56222D02*
X86275Y-56125D01*
X86373Y-56425D01*
X86073Y-56522D01*
X85976Y-56222D01*
X85976Y-56222D01*
G37*
G36*
X86161Y-56793D02*
X86461Y-56696D01*
X86558Y-56995D01*
X86259Y-57093D01*
X86161Y-56793D01*
X86161Y-56793D01*
G37*
G36*
X87207Y-56453D02*
X87507Y-56356D01*
X87604Y-56655D01*
X87305Y-56753D01*
X87207Y-56453D01*
X87207Y-56453D01*
G37*
G36*
X87022Y-55882D02*
X87322Y-55785D01*
X87419Y-56085D01*
X87119Y-56182D01*
X87022Y-55882D01*
X87022Y-55882D01*
G37*
G36*
X84746Y-54125D02*
X85001Y-53940D01*
X85186Y-54195D01*
X84932Y-54380D01*
X84746Y-54125D01*
X84746Y-54125D01*
G37*
G36*
X85099Y-54611D02*
X85354Y-54425D01*
X85539Y-54680D01*
X85284Y-54865D01*
X85099Y-54611D01*
X85099Y-54611D01*
G37*
G36*
X85989Y-53964D02*
X86244Y-53779D01*
X86429Y-54034D01*
X86174Y-54219D01*
X85989Y-53964D01*
X85989Y-53964D01*
G37*
G36*
X85636Y-53479D02*
X85891Y-53293D01*
X86076Y-53548D01*
X85821Y-53733D01*
X85636Y-53479D01*
X85636Y-53479D01*
G37*
G36*
X82929Y-52510D02*
X83114Y-52255D01*
X83369Y-52440D01*
X83184Y-52695D01*
X82929Y-52510D01*
X82929Y-52510D01*
G37*
G36*
X83414Y-52863D02*
X83599Y-52608D01*
X83854Y-52793D01*
X83669Y-53048D01*
X83414Y-52863D01*
X83414Y-52863D01*
G37*
G36*
X84061Y-51973D02*
X84246Y-51718D01*
X84501Y-51903D01*
X84316Y-52158D01*
X84061Y-51973D01*
X84061Y-51973D01*
G37*
G36*
X83575Y-51620D02*
X83761Y-51365D01*
X84015Y-51550D01*
X83830Y-51805D01*
X83575Y-51620D01*
X83575Y-51620D01*
G37*
G36*
X80702Y-51536D02*
X80799Y-51236D01*
X81099Y-51333D01*
X81001Y-51633D01*
X80702Y-51536D01*
X80702Y-51536D01*
G37*
G36*
X81272Y-51721D02*
X81370Y-51422D01*
X81669Y-51519D01*
X81572Y-51818D01*
X81272Y-51721D01*
X81272Y-51721D01*
G37*
G36*
X81612Y-50675D02*
X81710Y-50375D01*
X82009Y-50473D01*
X81912Y-50772D01*
X81612Y-50675D01*
X81612Y-50675D01*
G37*
G36*
X81042Y-50490D02*
X81139Y-50190D01*
X81438Y-50287D01*
X81341Y-50587D01*
X81042Y-50490D01*
X81042Y-50490D01*
G37*
G54D11*
X78440Y-51140D03*
X79040Y-51140D03*
X79040Y-50040D03*
X78440Y-50040D03*
G54D10*
G36*
X75907Y-51818D02*
X75810Y-51519D01*
X76110Y-51422D01*
X76207Y-51721D01*
X75907Y-51818D01*
X75907Y-51818D01*
G37*
G36*
X76478Y-51633D02*
X76381Y-51333D01*
X76680Y-51236D01*
X76778Y-51536D01*
X76478Y-51633D01*
X76478Y-51633D01*
G37*
G36*
X76138Y-50587D02*
X76041Y-50287D01*
X76340Y-50190D01*
X76438Y-50490D01*
X76138Y-50587D01*
X76138Y-50587D01*
G37*
G36*
X75568Y-50772D02*
X75470Y-50473D01*
X75770Y-50375D01*
X75867Y-50675D01*
X75568Y-50772D01*
X75568Y-50772D01*
G37*
G36*
X73810Y-53048D02*
X73625Y-52793D01*
X73880Y-52608D01*
X74065Y-52863D01*
X73810Y-53048D01*
X73810Y-53048D01*
G37*
G36*
X74296Y-52695D02*
X74110Y-52440D01*
X74365Y-52255D01*
X74550Y-52510D01*
X74296Y-52695D01*
X74296Y-52695D01*
G37*
G36*
X73649Y-51805D02*
X73464Y-51550D01*
X73719Y-51365D01*
X73904Y-51620D01*
X73649Y-51805D01*
X73649Y-51805D01*
G37*
G36*
X73164Y-52158D02*
X72979Y-51903D01*
X73233Y-51718D01*
X73418Y-51973D01*
X73164Y-52158D01*
X73164Y-52158D01*
G37*
G36*
X72195Y-54865D02*
X71940Y-54680D01*
X72125Y-54425D01*
X72380Y-54611D01*
X72195Y-54865D01*
X72195Y-54865D01*
G37*
G36*
X72548Y-54380D02*
X72293Y-54195D01*
X72478Y-53940D01*
X72733Y-54125D01*
X72548Y-54380D01*
X72548Y-54380D01*
G37*
G36*
X71658Y-53733D02*
X71403Y-53548D01*
X71588Y-53293D01*
X71843Y-53479D01*
X71658Y-53733D01*
X71658Y-53733D01*
G37*
G36*
X71305Y-54219D02*
X71050Y-54034D01*
X71235Y-53779D01*
X71490Y-53964D01*
X71305Y-54219D01*
X71305Y-54219D01*
G37*
G36*
X71221Y-57093D02*
X70921Y-56995D01*
X71019Y-56696D01*
X71318Y-56793D01*
X71221Y-57093D01*
X71221Y-57093D01*
G37*
G36*
X71406Y-56522D02*
X71107Y-56425D01*
X71204Y-56125D01*
X71503Y-56222D01*
X71406Y-56522D01*
X71406Y-56522D01*
G37*
G36*
X70360Y-56182D02*
X70060Y-56085D01*
X70158Y-55785D01*
X70457Y-55882D01*
X70360Y-56182D01*
X70360Y-56182D01*
G37*
G36*
X70175Y-56753D02*
X69875Y-56655D01*
X69972Y-56356D01*
X70272Y-56453D01*
X70175Y-56753D01*
X70175Y-56753D01*
G37*
G54D11*
X70825Y-59355D03*
X70825Y-58755D03*
X69725Y-58755D03*
X69725Y-59355D03*
G54D10*
G36*
X71510Y-61861D02*
X71214Y-61968D01*
X71107Y-61671D01*
X71403Y-61565D01*
X71510Y-61861D01*
X71510Y-61861D01*
G37*
G36*
X71307Y-61297D02*
X71010Y-61403D01*
X70904Y-61107D01*
X71200Y-61000D01*
X71307Y-61297D01*
X71307Y-61297D01*
G37*
G36*
X70272Y-61669D02*
X69975Y-61776D01*
X69869Y-61480D01*
X70165Y-61373D01*
X70272Y-61669D01*
X70272Y-61669D01*
G37*
G36*
X70475Y-62234D02*
X70179Y-62340D01*
X70072Y-62044D01*
X70368Y-61937D01*
X70475Y-62234D01*
X70475Y-62234D01*
G37*
G36*
X72733Y-63984D02*
X72478Y-64169D01*
X72293Y-63914D01*
X72548Y-63729D01*
X72733Y-63984D01*
X72733Y-63984D01*
G37*
G36*
X72380Y-63499D02*
X72125Y-63684D01*
X71940Y-63429D01*
X72195Y-63244D01*
X72380Y-63499D01*
X72380Y-63499D01*
G37*
G36*
X71490Y-64145D02*
X71235Y-64330D01*
X71050Y-64076D01*
X71305Y-63890D01*
X71490Y-64145D01*
X71490Y-64145D01*
G37*
G36*
X71843Y-64631D02*
X71588Y-64816D01*
X71403Y-64561D01*
X71658Y-64376D01*
X71843Y-64631D01*
X71843Y-64631D01*
G37*
G54D11*
X86654Y-58755D03*
X86654Y-59355D03*
X87754Y-59355D03*
X87754Y-58755D03*
G54D10*
G36*
X76778Y-66574D02*
X76680Y-66873D01*
X76381Y-66776D01*
X76478Y-66476D01*
X76778Y-66574D01*
X76778Y-66574D01*
G37*
G36*
X76207Y-66388D02*
X76110Y-66688D01*
X75810Y-66590D01*
X75907Y-66291D01*
X76207Y-66388D01*
X76207Y-66388D01*
G37*
G36*
X75867Y-67434D02*
X75770Y-67734D01*
X75470Y-67636D01*
X75568Y-67337D01*
X75867Y-67434D01*
X75867Y-67434D01*
G37*
G36*
X76438Y-67620D02*
X76340Y-67919D01*
X76041Y-67822D01*
X76138Y-67522D01*
X76438Y-67620D01*
X76438Y-67620D01*
G37*
G54D11*
X79040Y-66969D03*
X78440Y-66969D03*
X78440Y-68069D03*
X79040Y-68069D03*
G54D10*
G36*
X81572Y-66291D02*
X81669Y-66590D01*
X81370Y-66688D01*
X81272Y-66388D01*
X81572Y-66291D01*
X81572Y-66291D01*
G37*
G36*
X81001Y-66476D02*
X81099Y-66776D01*
X80799Y-66873D01*
X80702Y-66574D01*
X81001Y-66476D01*
X81001Y-66476D01*
G37*
G36*
X81341Y-67522D02*
X81438Y-67822D01*
X81139Y-67919D01*
X81042Y-67620D01*
X81341Y-67522D01*
X81341Y-67522D01*
G37*
G36*
X81912Y-67337D02*
X82009Y-67636D01*
X81710Y-67734D01*
X81612Y-67434D01*
X81912Y-67337D01*
X81912Y-67337D01*
G37*
G36*
X83669Y-65061D02*
X83854Y-65316D01*
X83599Y-65501D01*
X83414Y-65247D01*
X83669Y-65061D01*
X83669Y-65061D01*
G37*
G36*
X83184Y-65414D02*
X83369Y-65669D01*
X83114Y-65854D01*
X82929Y-65599D01*
X83184Y-65414D01*
X83184Y-65414D01*
G37*
G36*
X83830Y-66304D02*
X84015Y-66559D01*
X83761Y-66744D01*
X83575Y-66489D01*
X83830Y-66304D01*
X83830Y-66304D01*
G37*
G36*
X84316Y-65951D02*
X84501Y-66206D01*
X84246Y-66391D01*
X84061Y-66136D01*
X84316Y-65951D01*
X84316Y-65951D01*
G37*
G36*
X85284Y-63244D02*
X85539Y-63429D01*
X85354Y-63684D01*
X85099Y-63499D01*
X85284Y-63244D01*
X85284Y-63244D01*
G37*
G36*
X84932Y-63729D02*
X85186Y-63914D01*
X85001Y-64169D01*
X84746Y-63984D01*
X84932Y-63729D01*
X84932Y-63729D01*
G37*
G36*
X85821Y-64376D02*
X86076Y-64561D01*
X85891Y-64816D01*
X85636Y-64631D01*
X85821Y-64376D01*
X85821Y-64376D01*
G37*
G36*
X86174Y-63890D02*
X86429Y-64076D01*
X86244Y-64330D01*
X85989Y-64145D01*
X86174Y-63890D01*
X86174Y-63890D01*
G37*
G36*
X86259Y-61017D02*
X86558Y-61114D01*
X86461Y-61414D01*
X86161Y-61316D01*
X86259Y-61017D01*
X86259Y-61017D01*
G37*
G36*
X86073Y-61587D02*
X86373Y-61685D01*
X86275Y-61984D01*
X85976Y-61887D01*
X86073Y-61587D01*
X86073Y-61587D01*
G37*
G36*
X87119Y-61927D02*
X87419Y-62025D01*
X87322Y-62324D01*
X87022Y-62227D01*
X87119Y-61927D01*
X87119Y-61927D01*
G37*
G36*
X87305Y-61357D02*
X87604Y-61454D01*
X87507Y-61753D01*
X87207Y-61656D01*
X87305Y-61357D01*
X87305Y-61357D01*
G37*
G54D11*
X84686Y-58755D03*
X84686Y-59355D03*
X85786Y-59355D03*
X85786Y-58755D03*
G54D10*
G36*
X83842Y-56282D02*
X84130Y-56154D01*
X84258Y-56442D01*
X83970Y-56570D01*
X83842Y-56282D01*
X83842Y-56282D01*
G37*
G36*
X84086Y-56830D02*
X84374Y-56702D01*
X84502Y-56990D01*
X84214Y-57118D01*
X84086Y-56830D01*
X84086Y-56830D01*
G37*
G36*
X85091Y-56383D02*
X85379Y-56255D01*
X85507Y-56543D01*
X85219Y-56671D01*
X85091Y-56383D01*
X85091Y-56383D01*
G37*
G36*
X84847Y-55835D02*
X85135Y-55707D01*
X85263Y-55995D01*
X84975Y-56123D01*
X84847Y-55835D01*
X84847Y-55835D01*
G37*
G36*
X82273Y-54447D02*
X82484Y-54213D01*
X82718Y-54423D01*
X82507Y-54657D01*
X82273Y-54447D01*
X82273Y-54447D01*
G37*
G36*
X82719Y-54848D02*
X82930Y-54614D01*
X83164Y-54825D01*
X82953Y-55059D01*
X82719Y-54848D01*
X82719Y-54848D01*
G37*
G36*
X83455Y-54031D02*
X83666Y-53797D01*
X83900Y-54007D01*
X83689Y-54241D01*
X83455Y-54031D01*
X83455Y-54031D01*
G37*
G36*
X83009Y-53629D02*
X83220Y-53395D01*
X83454Y-53606D01*
X83243Y-53840D01*
X83009Y-53629D01*
X83009Y-53629D01*
G37*
G36*
X80093Y-53408D02*
X80191Y-53109D01*
X80490Y-53206D01*
X80393Y-53505D01*
X80093Y-53408D01*
X80093Y-53408D01*
G37*
G36*
X80664Y-53594D02*
X80761Y-53294D01*
X81061Y-53391D01*
X80964Y-53691D01*
X80664Y-53594D01*
X80664Y-53594D01*
G37*
G36*
X81004Y-52547D02*
X81101Y-52248D01*
X81401Y-52345D01*
X81304Y-52645D01*
X81004Y-52547D01*
X81004Y-52547D01*
G37*
G36*
X80433Y-52362D02*
X80531Y-52062D01*
X80830Y-52160D01*
X80733Y-52459D01*
X80433Y-52362D01*
X80433Y-52362D01*
G37*
G36*
X77680Y-53345D02*
X77647Y-53032D01*
X77960Y-52999D01*
X77993Y-53312D01*
X77680Y-53345D01*
X77680Y-53345D01*
G37*
G36*
X78276Y-53283D02*
X78243Y-52969D01*
X78557Y-52937D01*
X78589Y-53250D01*
X78276Y-53283D01*
X78276Y-53283D01*
G37*
G36*
X78161Y-52189D02*
X78128Y-51875D01*
X78442Y-51843D01*
X78474Y-52156D01*
X78161Y-52189D01*
X78161Y-52189D01*
G37*
G36*
X77565Y-52251D02*
X77532Y-51938D01*
X77845Y-51905D01*
X77878Y-52219D01*
X77565Y-52251D01*
X77565Y-52251D01*
G37*
G54D12*
X82400Y-51200D03*
X80200Y-52300D03*
X79900Y-54450D03*
X79250Y-56650D03*
X78700Y-58800D03*
X77000Y-51100D03*
X78700Y-51800D03*
X75050Y-56050D03*
X76700Y-55600D03*
X78500Y-57700D03*
X82050Y-66500D03*
X76600Y-65100D03*
X76800Y-62400D03*
X78900Y-60300D03*
X78400Y-60100D03*
G54D13*
X84150Y-64600D03*
X82650Y-63150D03*
G54D12*
X80950Y-55900D03*
X71600Y-55750D03*
X71450Y-62050D03*
X71100Y-60500D03*
X73200Y-61050D03*
X86050Y-56050D03*
X84050Y-61150D03*
X81750Y-60300D03*
X81950Y-57950D03*
X81300Y-61900D03*
G54D14*
X82315Y-51115D02*
X82093Y-51115D01*
X82400Y-51200D02*
X82315Y-51115D01*
X81240Y-50388D02*
X81125Y-50675D01*
X83795Y-51585D02*
X83622Y-51821D01*
X85856Y-53513D02*
X85623Y-53716D01*
X87220Y-55984D02*
X86952Y-56087D01*
X86952Y-56087D02*
X86952Y-56087D01*
X87754Y-58755D02*
X87450Y-58775D01*
X87406Y-61555D02*
X87122Y-61479D01*
X87122Y-61479D02*
X87122Y-61479D01*
X85949Y-63950D02*
X86209Y-64110D01*
X84100Y-65925D02*
X84281Y-66171D01*
X81725Y-67250D02*
X81811Y-67535D01*
X79050Y-67775D02*
X79040Y-68069D01*
X76304Y-67440D02*
X76239Y-67721D01*
X73837Y-66288D02*
X73684Y-66524D01*
X71850Y-64425D02*
X71623Y-64596D01*
X70575Y-62075D02*
X70273Y-62139D01*
X70030Y-59353D02*
X69725Y-59355D01*
X70350Y-56650D02*
X70073Y-56554D01*
X71525Y-54174D02*
X71270Y-53999D01*
X73198Y-51938D02*
X73400Y-52175D01*
X78440Y-50040D02*
X78775Y-50375D01*
X75775Y-50850D02*
X75669Y-50574D01*
X73400Y-52175D02*
X75775Y-50850D01*
X71525Y-54175D02*
X71525Y-54174D01*
X71525Y-54174D02*
X73400Y-52175D01*
X70350Y-56650D02*
X71525Y-54175D01*
X70025Y-59400D02*
X70030Y-59353D01*
X70030Y-59353D02*
X70350Y-56650D01*
X70575Y-62075D02*
X70025Y-59400D01*
X71850Y-64425D02*
X70575Y-62075D01*
X73850Y-66300D02*
X73837Y-66288D01*
X73837Y-66288D02*
X71850Y-64425D01*
X76325Y-67450D02*
X76304Y-67440D01*
X76304Y-67440D02*
X73850Y-66300D01*
X79050Y-67775D02*
X76325Y-67450D01*
X81725Y-67250D02*
X79050Y-67775D01*
X84100Y-65925D02*
X81725Y-67250D01*
X85950Y-63950D02*
X85949Y-63950D01*
X85949Y-63950D02*
X84100Y-65925D01*
X87125Y-61475D02*
X87122Y-61479D01*
X87122Y-61479D02*
X85950Y-63950D01*
X87450Y-58775D02*
X87125Y-61475D01*
X86950Y-56075D02*
X86952Y-56087D01*
X86952Y-56087D02*
X87450Y-58775D01*
X85600Y-53675D02*
X85623Y-53716D01*
X85623Y-53716D02*
X86950Y-56075D01*
X83600Y-51800D02*
X83622Y-51821D01*
X82093Y-51115D02*
X83600Y-51800D01*
X83622Y-51821D02*
X85600Y-53675D01*
X81125Y-50675D02*
X82093Y-51115D01*
X78775Y-50375D02*
X81125Y-50675D01*
X80238Y-52261D02*
X80632Y-52261D01*
X80200Y-52300D02*
X80238Y-52261D01*
X72863Y-55156D02*
X73475Y-55000D01*
X73475Y-55000D02*
X74957Y-53103D01*
X71785Y-57883D02*
X72200Y-57575D01*
X72200Y-57575D02*
X72863Y-55156D01*
X71910Y-60813D02*
X72175Y-60350D01*
X72175Y-60350D02*
X71785Y-57883D01*
X73216Y-63439D02*
X73250Y-62925D01*
X73250Y-62925D02*
X71910Y-60813D01*
X75476Y-65307D02*
X75325Y-64850D01*
X75325Y-64850D02*
X73216Y-63439D01*
X78301Y-66094D02*
X77950Y-65725D01*
X77950Y-65725D02*
X75476Y-65307D01*
X81202Y-65663D02*
X80725Y-65450D01*
X80725Y-65450D02*
X78301Y-66094D01*
X83677Y-64090D02*
X83175Y-64100D01*
X83175Y-64100D02*
X81202Y-65663D01*
X85299Y-61646D02*
X84825Y-61875D01*
X84825Y-61875D02*
X83677Y-64090D01*
X85786Y-58755D02*
X85425Y-59175D01*
X85425Y-59175D02*
X85299Y-61646D01*
X85055Y-55915D02*
X84900Y-56375D01*
X84900Y-56375D02*
X85786Y-58755D01*
X83232Y-53618D02*
X83300Y-54125D01*
X83300Y-54125D02*
X85055Y-55915D01*
X80632Y-52261D02*
X80875Y-52675D01*
X80875Y-52675D02*
X83232Y-53618D01*
X77705Y-52078D02*
X78100Y-52375D01*
X78100Y-52375D02*
X80632Y-52261D01*
X80024Y-54325D02*
X80024Y-54133D01*
X79900Y-54450D02*
X80024Y-54325D01*
X74808Y-62282D02*
X74875Y-61775D01*
X74875Y-61775D02*
X73662Y-59355D01*
X73662Y-59355D02*
X74050Y-58925D01*
X74050Y-58925D02*
X74455Y-56313D01*
X77456Y-63976D02*
X77175Y-63500D01*
X77175Y-63500D02*
X74808Y-62282D01*
X80594Y-63791D02*
X80150Y-63575D01*
X80150Y-63575D02*
X77456Y-63976D01*
X83024Y-61797D02*
X82525Y-61900D01*
X82525Y-61900D02*
X80594Y-63791D01*
X83024Y-61797D02*
X83525Y-59050D01*
X83525Y-59050D02*
X83817Y-58755D01*
X82671Y-55827D02*
X82625Y-56325D01*
X82625Y-56325D02*
X83817Y-58755D01*
X80024Y-54133D02*
X80250Y-54525D01*
X80250Y-54525D02*
X82671Y-55827D01*
X76885Y-54318D02*
X77325Y-54500D01*
X77325Y-54500D02*
X80024Y-54133D01*
X79332Y-56567D02*
X79501Y-56567D01*
X79250Y-56650D02*
X79332Y-56567D01*
X76640Y-60951D02*
X76675Y-60400D01*
X76675Y-60400D02*
X76287Y-57643D01*
X79895Y-61638D02*
X79350Y-61400D01*
X79350Y-61400D02*
X76640Y-60951D01*
X81553Y-58755D02*
X81200Y-59175D01*
X81200Y-59175D02*
X79895Y-61638D01*
X79324Y-56286D02*
X79501Y-56567D01*
X79501Y-56567D02*
X79600Y-56725D01*
X79600Y-56725D02*
X81553Y-58755D01*
X78624Y-58724D02*
X78624Y-58439D01*
X78700Y-58800D02*
X78624Y-58724D01*
X76288Y-50388D02*
X76239Y-50388D01*
X77000Y-51100D02*
X76288Y-50388D01*
X79040Y-50040D02*
X79344Y-49696D01*
X73684Y-51585D02*
X73413Y-51313D01*
X71623Y-53513D02*
X71345Y-53319D01*
X71345Y-53319D02*
X71345Y-53319D01*
X70259Y-55984D02*
X69897Y-55845D01*
X69725Y-58755D02*
X69366Y-58770D01*
X69366Y-58770D02*
X69366Y-58770D01*
X70070Y-61574D02*
X69703Y-61676D01*
X69703Y-61676D02*
X69703Y-61676D01*
X71270Y-64110D02*
X70961Y-64270D01*
X73198Y-66171D02*
X72913Y-66430D01*
X75669Y-67535D02*
X75486Y-67870D01*
X78440Y-68069D02*
X78354Y-68438D01*
X81240Y-67721D02*
X81322Y-68104D01*
X83795Y-66524D02*
X84004Y-66829D01*
X85856Y-64596D02*
X86143Y-64831D01*
X87220Y-62126D02*
X87576Y-62240D01*
X87576Y-62240D02*
X87576Y-62240D01*
X87754Y-59355D02*
X88143Y-59348D01*
X88143Y-59348D02*
X88143Y-59348D01*
X87406Y-56554D02*
X87767Y-56510D01*
X87767Y-56510D02*
X87767Y-56510D01*
X86209Y-53999D02*
X86564Y-53832D01*
X84281Y-51938D02*
X84575Y-51718D01*
X84575Y-51718D02*
X84575Y-51718D01*
X81811Y-50574D02*
X81986Y-50246D01*
X75800Y-50075D02*
X76239Y-50388D01*
X73150Y-51450D02*
X73413Y-51313D01*
X73413Y-51313D02*
X75800Y-50075D01*
X71075Y-53600D02*
X71345Y-53319D01*
X71345Y-53319D02*
X73150Y-51450D01*
X69725Y-56175D02*
X69897Y-55845D01*
X69897Y-55845D02*
X71075Y-53600D01*
X69325Y-59075D02*
X69366Y-58770D01*
X69366Y-58770D02*
X69725Y-56175D01*
X69750Y-62000D02*
X69703Y-61676D01*
X69703Y-61676D02*
X69325Y-59075D01*
X71150Y-64625D02*
X70961Y-64270D01*
X70961Y-64270D02*
X69750Y-62000D01*
X73225Y-66750D02*
X72913Y-66430D01*
X72913Y-66430D02*
X71150Y-64625D01*
X75850Y-68050D02*
X75486Y-67870D01*
X75486Y-67870D02*
X73225Y-66750D01*
X78750Y-68500D02*
X78354Y-68438D01*
X78354Y-68438D02*
X75850Y-68050D01*
X81675Y-68050D02*
X81322Y-68104D01*
X81322Y-68104D02*
X78750Y-68500D01*
X84300Y-66675D02*
X84004Y-66829D01*
X84004Y-66829D02*
X81675Y-68050D01*
X86375Y-64600D02*
X86143Y-64831D01*
X86143Y-64831D02*
X84300Y-66675D01*
X87725Y-61950D02*
X87576Y-62240D01*
X87576Y-62240D02*
X86375Y-64600D01*
X88200Y-59000D02*
X88143Y-59348D01*
X88143Y-59348D02*
X87725Y-61950D01*
X87700Y-56125D02*
X87767Y-56510D01*
X87767Y-56510D02*
X88200Y-59000D01*
X86400Y-53500D02*
X86564Y-53832D01*
X86564Y-53832D02*
X87700Y-56125D01*
X84250Y-51400D02*
X84575Y-51718D01*
X84575Y-51718D02*
X86400Y-53500D01*
X81600Y-50050D02*
X81986Y-50246D01*
X81986Y-50246D02*
X84250Y-51400D01*
X79344Y-49696D02*
X81600Y-50050D01*
X78483Y-52016D02*
X78301Y-52016D01*
X78700Y-51800D02*
X78483Y-52016D01*
X75325Y-52525D02*
X75476Y-52803D01*
X72925Y-54525D02*
X74625Y-52900D01*
X74625Y-52900D02*
X75325Y-52525D01*
X71642Y-57229D02*
X72500Y-55075D01*
X72925Y-54525D02*
X73216Y-54671D01*
X72500Y-55075D02*
X72925Y-54525D01*
X71475Y-60375D02*
X71425Y-57900D01*
X71625Y-57225D02*
X71642Y-57229D01*
X71642Y-57229D02*
X71910Y-57296D01*
X71425Y-57900D02*
X71625Y-57225D01*
X72585Y-63118D02*
X71650Y-61100D01*
X71475Y-60375D02*
X71785Y-60226D01*
X71650Y-61100D02*
X71475Y-60375D01*
X74775Y-65275D02*
X73050Y-63775D01*
X72575Y-63125D02*
X72585Y-63118D01*
X72585Y-63118D02*
X72863Y-62953D01*
X73050Y-63775D02*
X72575Y-63125D01*
X77650Y-66375D02*
X75350Y-65650D01*
X74775Y-65275D02*
X74957Y-65007D01*
X75350Y-65650D02*
X74775Y-65275D01*
X80725Y-66150D02*
X78400Y-66450D01*
X77650Y-66375D02*
X77705Y-66031D01*
X78400Y-66450D02*
X77650Y-66375D01*
X83450Y-64725D02*
X81400Y-65950D01*
X80725Y-66150D02*
X80632Y-65848D01*
X81400Y-65950D02*
X80725Y-66150D01*
X85350Y-62300D02*
X83975Y-64275D01*
X83450Y-64725D02*
X83232Y-64492D01*
X83975Y-64275D02*
X83450Y-64725D01*
X86125Y-59350D02*
X85650Y-61675D01*
X85350Y-62300D02*
X85055Y-62195D01*
X85650Y-61675D02*
X85350Y-62300D01*
X85625Y-56350D02*
X86125Y-58675D01*
X86125Y-59350D02*
X85786Y-59355D01*
X86125Y-58675D02*
X86125Y-59350D01*
X83925Y-53775D02*
X85375Y-55750D01*
X85625Y-56350D02*
X85299Y-56463D01*
X85375Y-55750D02*
X85625Y-56350D01*
X81300Y-52150D02*
X83425Y-53325D01*
X83925Y-53775D02*
X83677Y-54019D01*
X83425Y-53325D02*
X83925Y-53775D01*
X78301Y-52016D02*
X80625Y-51900D01*
X81300Y-52150D02*
X81202Y-52446D01*
X80625Y-51900D02*
X81300Y-52150D01*
X74827Y-55827D02*
X74808Y-55827D01*
X75050Y-56050D02*
X74827Y-55827D01*
X73325Y-58775D02*
X74100Y-56225D01*
X74550Y-55650D02*
X74808Y-55827D01*
X74100Y-56225D02*
X74550Y-55650D01*
X74175Y-61950D02*
X73325Y-59500D01*
X73325Y-58775D02*
X73662Y-58755D01*
X73325Y-59500D02*
X73325Y-58775D01*
X76775Y-64100D02*
X74625Y-62600D01*
X74175Y-61950D02*
X74455Y-61797D01*
X74625Y-62600D02*
X74175Y-61950D01*
X80125Y-64275D02*
X77525Y-64350D01*
X76775Y-64100D02*
X76885Y-63791D01*
X77525Y-64350D02*
X76775Y-64100D01*
X82925Y-62475D02*
X80875Y-64050D01*
X80125Y-64275D02*
X80024Y-63976D01*
X80875Y-64050D02*
X80125Y-64275D01*
X84150Y-59375D02*
X83375Y-61925D01*
X82925Y-62475D02*
X82671Y-62282D01*
X83375Y-61925D02*
X82925Y-62475D01*
X83300Y-56100D02*
X84150Y-58600D01*
X84150Y-59375D02*
X83817Y-59355D01*
X84150Y-58600D02*
X84150Y-59375D01*
X80725Y-53975D02*
X82900Y-55550D01*
X83300Y-56100D02*
X83024Y-56313D01*
X82900Y-55550D02*
X83300Y-56100D01*
X77456Y-54133D02*
X80000Y-53750D01*
X80000Y-53750D02*
X80725Y-53975D01*
X80725Y-53975D02*
X80594Y-54318D01*
X76640Y-55659D02*
X76640Y-57158D01*
X76700Y-55600D02*
X76640Y-55659D01*
X76350Y-57000D02*
X76640Y-57158D01*
X76000Y-60650D02*
X75875Y-57625D01*
X75875Y-57625D02*
X76350Y-57000D01*
X79450Y-62150D02*
X76500Y-61350D01*
X76000Y-60650D02*
X76287Y-60466D01*
X76500Y-61350D02*
X76000Y-60650D01*
X81950Y-59350D02*
X80175Y-61925D01*
X79450Y-62150D02*
X79324Y-61824D01*
X80175Y-61925D02*
X79450Y-62150D01*
X79895Y-56471D02*
X80275Y-56275D01*
X81950Y-59350D02*
X81553Y-59355D01*
X81950Y-58600D02*
X81950Y-59350D01*
X80275Y-56275D02*
X81950Y-58600D01*
X79195Y-58395D02*
X79195Y-58624D01*
X78500Y-57700D02*
X79195Y-58395D01*
X82051Y-66501D02*
X82300Y-66501D01*
X82050Y-66500D02*
X82051Y-66501D01*
X81471Y-51620D02*
X81694Y-51251D01*
X83634Y-52828D02*
X83925Y-52475D01*
X85319Y-54645D02*
X85700Y-54375D01*
X86360Y-56894D02*
X86800Y-56750D01*
X86654Y-59355D02*
X87075Y-59325D01*
X86174Y-61786D02*
X86575Y-61925D01*
X84966Y-63949D02*
X85322Y-64201D01*
X83149Y-65634D02*
X83450Y-65975D01*
X80900Y-66675D02*
X81050Y-67075D01*
X78440Y-66969D02*
X78425Y-67400D01*
X76009Y-66489D02*
X75850Y-66875D01*
X73845Y-65281D02*
X73550Y-65573D01*
X73550Y-65573D02*
X73550Y-65573D01*
X72160Y-63464D02*
X71770Y-63665D01*
X71770Y-63665D02*
X71770Y-63665D01*
X71105Y-61202D02*
X70700Y-61325D01*
X70825Y-58755D02*
X70378Y-58780D01*
X70378Y-58780D02*
X70378Y-58780D01*
X71305Y-56324D02*
X70903Y-56193D01*
X70903Y-56193D02*
X70903Y-56193D01*
X72513Y-54160D02*
X72175Y-53925D01*
X74330Y-52475D02*
X74075Y-52125D01*
X86800Y-56750D02*
X87075Y-59325D01*
X79325Y-50775D02*
X81600Y-51200D01*
X81600Y-51200D02*
X81694Y-51251D01*
X81694Y-51251D02*
X83925Y-52475D01*
X83925Y-52475D02*
X85700Y-54375D01*
X85700Y-54375D02*
X86800Y-56750D01*
X79040Y-51140D02*
X79325Y-50775D01*
X76400Y-51000D02*
X76579Y-51435D01*
X74075Y-52125D02*
X76400Y-51000D01*
X72175Y-53925D02*
X74075Y-52125D01*
X70900Y-56200D02*
X70903Y-56193D01*
X70903Y-56193D02*
X72175Y-53925D01*
X70375Y-58800D02*
X70378Y-58780D01*
X70378Y-58780D02*
X70900Y-56200D01*
X70700Y-61325D02*
X70375Y-58800D01*
X71775Y-63675D02*
X71770Y-63665D01*
X71770Y-63665D02*
X70700Y-61325D01*
X73575Y-65600D02*
X73550Y-65573D01*
X73550Y-65573D02*
X71775Y-63675D01*
X75850Y-66875D02*
X73575Y-65600D01*
X78425Y-67400D02*
X75850Y-66875D01*
X81050Y-67075D02*
X78425Y-67400D01*
X83450Y-65975D02*
X82707Y-66315D01*
X82707Y-66315D02*
X82300Y-66501D01*
X82300Y-66501D02*
X81050Y-67075D01*
X85350Y-64175D02*
X85322Y-64201D01*
X85322Y-64201D02*
X83450Y-65975D01*
X86575Y-61925D02*
X85350Y-64175D01*
X87075Y-59325D02*
X86575Y-61925D01*
X76509Y-65009D02*
X76509Y-64866D01*
X76600Y-65100D02*
X76509Y-65009D01*
X73850Y-55125D02*
X75225Y-53825D01*
X75875Y-53475D02*
X76026Y-53755D01*
X75225Y-53825D02*
X75875Y-53475D01*
X72650Y-57525D02*
X73425Y-55675D01*
X73850Y-55125D02*
X74105Y-55317D01*
X73425Y-55675D02*
X73850Y-55125D01*
X72550Y-60100D02*
X72500Y-58200D01*
X72650Y-57525D02*
X72986Y-57525D01*
X72500Y-58200D02*
X72650Y-57525D01*
X73475Y-62475D02*
X72675Y-60775D01*
X72550Y-60100D02*
X72861Y-59998D01*
X72675Y-60775D02*
X72550Y-60100D01*
X75425Y-64375D02*
X73850Y-63075D01*
X73475Y-62475D02*
X73753Y-62307D01*
X73850Y-63075D02*
X73475Y-62475D01*
X77800Y-65250D02*
X76509Y-64866D01*
X76509Y-64866D02*
X75950Y-64700D01*
X75425Y-64375D02*
X75507Y-64054D01*
X75950Y-64700D02*
X75425Y-64375D01*
X80425Y-65100D02*
X78500Y-65350D01*
X77800Y-65250D02*
X77820Y-64937D01*
X78500Y-65350D02*
X77800Y-65250D01*
X82700Y-63900D02*
X81100Y-64900D01*
X80425Y-65100D02*
X80292Y-64802D01*
X81100Y-64900D02*
X80425Y-65100D01*
X84300Y-61875D02*
X83275Y-63425D01*
X82700Y-63900D02*
X82496Y-63674D01*
X83275Y-63425D02*
X82700Y-63900D01*
X85023Y-59374D02*
X84650Y-61250D01*
X84300Y-61875D02*
X84050Y-61747D01*
X84650Y-61250D02*
X84300Y-61875D01*
X84650Y-56750D02*
X85050Y-58650D01*
X85025Y-59375D02*
X85023Y-59374D01*
X85023Y-59374D02*
X84686Y-59355D01*
X85050Y-58650D02*
X85025Y-59375D01*
X83175Y-54600D02*
X84325Y-56125D01*
X84650Y-56750D02*
X84294Y-56910D01*
X84325Y-56125D02*
X84650Y-56750D01*
X80975Y-53125D02*
X82700Y-54150D01*
X83175Y-54600D02*
X82941Y-54837D01*
X82700Y-54150D02*
X83175Y-54600D01*
X78416Y-53110D02*
X80275Y-52925D01*
X80975Y-53125D02*
X80862Y-53492D01*
X80275Y-52925D02*
X80975Y-53125D01*
X76786Y-62413D02*
X76786Y-62820D01*
X76800Y-62400D02*
X76786Y-62413D01*
X74425Y-58900D02*
X74975Y-56925D01*
X75300Y-56475D02*
X75698Y-56474D01*
X74975Y-56925D02*
X75300Y-56475D01*
X74400Y-59550D02*
X74425Y-58900D01*
X74425Y-58900D02*
X74762Y-58755D01*
X75100Y-61375D02*
X74400Y-59550D01*
X77125Y-63050D02*
X76786Y-62820D01*
X76786Y-62820D02*
X75500Y-61950D01*
X75100Y-61375D02*
X75345Y-61150D01*
X75500Y-61950D02*
X75100Y-61375D01*
X79800Y-63225D02*
X77825Y-63300D01*
X77125Y-63050D02*
X77225Y-62745D01*
X77825Y-63300D02*
X77125Y-63050D01*
X82050Y-61800D02*
X80550Y-63000D01*
X79800Y-63225D02*
X79684Y-62930D01*
X80550Y-63000D02*
X79800Y-63225D01*
X83050Y-59375D02*
X82500Y-61225D01*
X82050Y-61800D02*
X81781Y-61635D01*
X82500Y-61225D02*
X82050Y-61800D01*
X82400Y-56800D02*
X83075Y-58625D01*
X83050Y-59375D02*
X82717Y-59355D01*
X83075Y-58625D02*
X83050Y-59375D01*
X80350Y-55075D02*
X82000Y-56175D01*
X82400Y-56800D02*
X82134Y-56959D01*
X82000Y-56175D02*
X82400Y-56800D01*
X77796Y-55179D02*
X79700Y-54775D01*
X80350Y-55075D02*
X80254Y-55364D01*
X79700Y-54775D02*
X80350Y-55075D01*
X78984Y-60384D02*
X78984Y-60777D01*
X78900Y-60300D02*
X78984Y-60384D01*
X77177Y-59819D02*
X76725Y-58325D01*
X77025Y-57900D02*
X77529Y-57804D01*
X76725Y-58325D02*
X77025Y-57900D01*
X78984Y-60777D02*
X77200Y-60725D01*
X77025Y-60125D02*
X77177Y-59819D01*
X77200Y-60725D02*
X77025Y-60125D01*
X80453Y-59355D02*
X79950Y-60925D01*
X79200Y-61075D02*
X78984Y-60777D01*
X79950Y-60925D02*
X79200Y-61075D01*
X79555Y-57517D02*
X80800Y-58525D01*
X80775Y-59300D02*
X80453Y-59355D01*
X80800Y-58525D02*
X80775Y-59300D01*
X78400Y-60100D02*
X78829Y-59670D01*
X78829Y-59670D02*
X78855Y-59670D01*
G54D15*
X84000Y-64750D02*
X84000Y-64800D01*
X84150Y-64600D02*
X84000Y-64750D01*
X82773Y-63273D02*
X82941Y-63273D01*
X82650Y-63150D02*
X82773Y-63273D01*
G54D14*
X81524Y-56474D02*
X81781Y-56474D01*
X80950Y-55900D02*
X81524Y-56474D01*
X71850Y-55500D02*
X71850Y-55350D01*
X71600Y-55750D02*
X71850Y-55500D01*
X71350Y-61750D02*
X71308Y-61766D01*
X71350Y-61950D02*
X71350Y-61750D01*
X71450Y-62050D02*
X71350Y-61950D01*
X70950Y-60350D02*
X70950Y-60000D01*
X71100Y-60500D02*
X70950Y-60350D01*
X72986Y-60836D02*
X72986Y-60584D01*
X73200Y-61050D02*
X72986Y-60836D01*
X86174Y-56174D02*
X86174Y-56324D01*
X86050Y-56050D02*
X86174Y-56174D01*
X84099Y-61199D02*
X84294Y-61199D01*
X84050Y-61150D02*
X84099Y-61199D01*
X82000Y-60050D02*
X82100Y-60050D01*
X81750Y-60300D02*
X82000Y-60050D01*
X82000Y-57900D02*
X82000Y-57600D01*
X81950Y-57950D02*
X82000Y-57900D01*
X81300Y-61900D02*
X81100Y-61900D01*
G54D10*
G36*
X86837Y-59067D02*
X86786Y-59067D01*
X86471Y-59067D01*
X86423Y-59087D01*
X86387Y-59123D01*
X86367Y-59171D01*
X86367Y-59223D01*
X86367Y-59538D01*
X86386Y-59586D01*
X86423Y-59622D01*
X86471Y-59642D01*
X86522Y-59642D01*
X86801Y-59642D01*
X86431Y-61567D01*
X86388Y-61553D01*
X86333Y-61535D01*
X86333Y-59350D01*
X86333Y-58675D01*
X86327Y-58645D01*
X86327Y-58631D01*
X85829Y-56306D01*
X85823Y-56294D01*
X85822Y-56281D01*
X85818Y-56275D01*
X85817Y-56269D01*
X85567Y-55669D01*
X85556Y-55652D01*
X85543Y-55626D01*
X84093Y-53651D01*
X84081Y-53641D01*
X84073Y-53628D01*
X84067Y-53624D01*
X84064Y-53619D01*
X83564Y-53169D01*
X83552Y-53162D01*
X83526Y-53140D01*
X81400Y-51967D01*
X81386Y-51962D01*
X81372Y-51953D01*
X80701Y-51705D01*
X80694Y-51701D01*
X80614Y-51689D01*
X79017Y-51770D01*
X79017Y-51737D01*
X78968Y-51620D01*
X78879Y-51531D01*
X78763Y-51483D01*
X78637Y-51482D01*
X78520Y-51531D01*
X78431Y-51620D01*
X78390Y-51717D01*
X78089Y-51749D01*
X78044Y-51774D01*
X78011Y-51814D01*
X77996Y-51863D01*
X78002Y-51915D01*
X78016Y-52051D01*
X77989Y-52031D01*
X77971Y-51866D01*
X77947Y-51821D01*
X77907Y-51788D01*
X77857Y-51773D01*
X77806Y-51779D01*
X77492Y-51812D01*
X77447Y-51836D01*
X77414Y-51876D01*
X77400Y-51926D01*
X77405Y-51977D01*
X77438Y-52291D01*
X77463Y-52336D01*
X77503Y-52369D01*
X77552Y-52383D01*
X77604Y-52378D01*
X77737Y-52364D01*
X77974Y-52542D01*
X78004Y-52556D01*
X78028Y-52571D01*
X78038Y-52572D01*
X78047Y-52577D01*
X78081Y-52579D01*
X78109Y-52583D01*
X79951Y-52499D01*
X80020Y-52568D01*
X80136Y-52616D01*
X80262Y-52617D01*
X80379Y-52568D01*
X80445Y-52502D01*
X80552Y-52537D01*
X80694Y-52780D01*
X80713Y-52801D01*
X80729Y-52824D01*
X80740Y-52831D01*
X80749Y-52841D01*
X80756Y-52845D01*
X80336Y-52725D01*
X80335Y-52724D01*
X80333Y-52724D01*
X80332Y-52724D01*
X80314Y-52722D01*
X80254Y-52716D01*
X78671Y-52874D01*
X78659Y-52852D01*
X78618Y-52819D01*
X78569Y-52805D01*
X78517Y-52810D01*
X78204Y-52843D01*
X78159Y-52867D01*
X78126Y-52908D01*
X78111Y-52957D01*
X78117Y-53009D01*
X78150Y-53322D01*
X78174Y-53367D01*
X78214Y-53400D01*
X78264Y-53415D01*
X78315Y-53409D01*
X78629Y-53376D01*
X78674Y-53352D01*
X78707Y-53312D01*
X78713Y-53290D01*
X80255Y-53136D01*
X80640Y-53246D01*
X80630Y-53278D01*
X80532Y-53578D01*
X80536Y-53629D01*
X80560Y-53676D01*
X80599Y-53709D01*
X80648Y-53725D01*
X80948Y-53823D01*
X80999Y-53818D01*
X81046Y-53795D01*
X81079Y-53756D01*
X81095Y-53707D01*
X81168Y-53482D01*
X82571Y-54315D01*
X82815Y-54547D01*
X82605Y-54780D01*
X82588Y-54829D01*
X82591Y-54881D01*
X82613Y-54927D01*
X82651Y-54962D01*
X82885Y-55173D01*
X82934Y-55190D01*
X82986Y-55187D01*
X83032Y-55165D01*
X83067Y-55127D01*
X83200Y-54980D01*
X84149Y-56240D01*
X84327Y-56581D01*
X84297Y-56594D01*
X84010Y-56722D01*
X83974Y-56760D01*
X83955Y-56808D01*
X83957Y-56860D01*
X83978Y-56907D01*
X84106Y-57195D01*
X84143Y-57230D01*
X84192Y-57249D01*
X84243Y-57247D01*
X84290Y-57226D01*
X84516Y-57126D01*
X84840Y-58667D01*
X84826Y-59067D01*
X84817Y-59067D01*
X84502Y-59067D01*
X84455Y-59087D01*
X84418Y-59123D01*
X84398Y-59171D01*
X84398Y-59223D01*
X84398Y-59538D01*
X84418Y-59586D01*
X84455Y-59622D01*
X84502Y-59642D01*
X84554Y-59642D01*
X84758Y-59642D01*
X84452Y-61174D01*
X84359Y-61341D01*
X84359Y-58613D01*
X84358Y-58609D01*
X84358Y-58600D01*
X84355Y-58581D01*
X84348Y-58532D01*
X83497Y-56032D01*
X83480Y-56003D01*
X83479Y-56001D01*
X83468Y-55977D01*
X83465Y-55973D01*
X83465Y-55972D01*
X83464Y-55971D01*
X83068Y-55427D01*
X83049Y-55408D01*
X83022Y-55380D01*
X80858Y-53814D01*
X80858Y-53813D01*
X80858Y-53813D01*
X80847Y-53805D01*
X80823Y-53795D01*
X80821Y-53793D01*
X80799Y-53779D01*
X80794Y-53779D01*
X80786Y-53775D01*
X80061Y-53550D01*
X80058Y-53550D01*
X80049Y-53546D01*
X79994Y-53543D01*
X79980Y-53542D01*
X79978Y-53542D01*
X79968Y-53542D01*
X77679Y-53888D01*
X77673Y-53870D01*
X77639Y-53830D01*
X77593Y-53807D01*
X77541Y-53803D01*
X77492Y-53819D01*
X77193Y-53916D01*
X77153Y-53950D01*
X77130Y-53996D01*
X77126Y-54047D01*
X77142Y-54096D01*
X77180Y-54214D01*
X77150Y-54202D01*
X77102Y-54055D01*
X77068Y-54016D01*
X77022Y-53992D01*
X76971Y-53988D01*
X76922Y-54004D01*
X76622Y-54102D01*
X76583Y-54135D01*
X76559Y-54181D01*
X76555Y-54233D01*
X76571Y-54282D01*
X76668Y-54581D01*
X76702Y-54621D01*
X76748Y-54644D01*
X76800Y-54648D01*
X76849Y-54632D01*
X76989Y-54587D01*
X77245Y-54692D01*
X77258Y-54695D01*
X77271Y-54701D01*
X77299Y-54703D01*
X77325Y-54708D01*
X77338Y-54705D01*
X77352Y-54706D01*
X79583Y-54405D01*
X79582Y-54512D01*
X79610Y-54580D01*
X78014Y-54919D01*
X78013Y-54916D01*
X77979Y-54877D01*
X77933Y-54853D01*
X77881Y-54849D01*
X77832Y-54865D01*
X77533Y-54962D01*
X77493Y-54996D01*
X77470Y-55042D01*
X77466Y-55093D01*
X77482Y-55143D01*
X77579Y-55442D01*
X77612Y-55482D01*
X77659Y-55505D01*
X77710Y-55509D01*
X77759Y-55493D01*
X78059Y-55396D01*
X78098Y-55362D01*
X78118Y-55324D01*
X79675Y-54993D01*
X80021Y-55153D01*
X79924Y-55450D01*
X79928Y-55501D01*
X79952Y-55548D01*
X79991Y-55581D01*
X80040Y-55597D01*
X80340Y-55695D01*
X80391Y-55691D01*
X80437Y-55667D01*
X80471Y-55628D01*
X80487Y-55579D01*
X80530Y-55446D01*
X81848Y-56325D01*
X82060Y-56657D01*
X81817Y-56834D01*
X81790Y-56878D01*
X81782Y-56929D01*
X81794Y-56980D01*
X81824Y-57022D01*
X82009Y-57276D01*
X82053Y-57303D01*
X82104Y-57312D01*
X82155Y-57300D01*
X82196Y-57269D01*
X82318Y-57181D01*
X82864Y-58658D01*
X82851Y-59067D01*
X82849Y-59067D01*
X82534Y-59067D01*
X82486Y-59087D01*
X82450Y-59123D01*
X82430Y-59171D01*
X82430Y-59223D01*
X82430Y-59538D01*
X82449Y-59586D01*
X82486Y-59622D01*
X82534Y-59642D01*
X82585Y-59642D01*
X82753Y-59642D01*
X82311Y-61125D01*
X82158Y-61321D01*
X82158Y-59350D01*
X82158Y-58600D01*
X82155Y-58583D01*
X82154Y-58551D01*
X82144Y-58530D01*
X82142Y-58520D01*
X82134Y-58507D01*
X82120Y-58477D01*
X80444Y-56152D01*
X80425Y-56135D01*
X80409Y-56115D01*
X80395Y-56107D01*
X80384Y-56097D01*
X80361Y-56088D01*
X80337Y-56075D01*
X80321Y-56073D01*
X80308Y-56068D01*
X80284Y-56069D01*
X80257Y-56066D01*
X80241Y-56071D01*
X80226Y-56071D01*
X80205Y-56081D01*
X80178Y-56089D01*
X79974Y-56195D01*
X79809Y-56141D01*
X79758Y-56145D01*
X79711Y-56168D01*
X79678Y-56208D01*
X79662Y-56257D01*
X79624Y-56372D01*
X79607Y-56344D01*
X79654Y-56200D01*
X79650Y-56149D01*
X79627Y-56103D01*
X79587Y-56069D01*
X79538Y-56053D01*
X79238Y-55956D01*
X79187Y-55960D01*
X79141Y-55983D01*
X79107Y-56022D01*
X79091Y-56072D01*
X78994Y-56371D01*
X78998Y-56423D01*
X79008Y-56443D01*
X78981Y-56470D01*
X78933Y-56586D01*
X78932Y-56712D01*
X78981Y-56829D01*
X79070Y-56918D01*
X79186Y-56966D01*
X79312Y-56967D01*
X79429Y-56918D01*
X79463Y-56884D01*
X80731Y-58201D01*
X79863Y-57498D01*
X79885Y-57432D01*
X79881Y-57380D01*
X79857Y-57334D01*
X79818Y-57301D01*
X79769Y-57285D01*
X79469Y-57187D01*
X79418Y-57191D01*
X79372Y-57215D01*
X79338Y-57254D01*
X79322Y-57303D01*
X79225Y-57603D01*
X79229Y-57654D01*
X79252Y-57700D01*
X79291Y-57734D01*
X79340Y-57750D01*
X79624Y-57842D01*
X80587Y-58622D01*
X80573Y-59067D01*
X80270Y-59067D01*
X80222Y-59087D01*
X80186Y-59123D01*
X80166Y-59171D01*
X80166Y-59223D01*
X80166Y-59538D01*
X80171Y-59551D01*
X79788Y-60744D01*
X79525Y-60797D01*
X79525Y-58539D01*
X79521Y-58487D01*
X79498Y-58441D01*
X79458Y-58408D01*
X79409Y-58392D01*
X79403Y-58389D01*
X79388Y-58315D01*
X79343Y-58247D01*
X78816Y-57721D01*
X78817Y-57637D01*
X78768Y-57520D01*
X78679Y-57431D01*
X78563Y-57383D01*
X78437Y-57382D01*
X78320Y-57431D01*
X78231Y-57520D01*
X78183Y-57636D01*
X78182Y-57762D01*
X78231Y-57879D01*
X78320Y-57968D01*
X78436Y-58016D01*
X78521Y-58017D01*
X78650Y-58145D01*
X78539Y-58109D01*
X78487Y-58113D01*
X78441Y-58136D01*
X78408Y-58176D01*
X78392Y-58225D01*
X78294Y-58524D01*
X78298Y-58576D01*
X78322Y-58622D01*
X78361Y-58656D01*
X78409Y-58671D01*
X78383Y-58736D01*
X78382Y-58862D01*
X78431Y-58979D01*
X78520Y-59068D01*
X78636Y-59116D01*
X78762Y-59117D01*
X78879Y-59068D01*
X78968Y-58979D01*
X79014Y-58868D01*
X79280Y-58954D01*
X79332Y-58950D01*
X79378Y-58927D01*
X79412Y-58888D01*
X79428Y-58838D01*
X79525Y-58539D01*
X79525Y-60797D01*
X79307Y-60840D01*
X79298Y-60814D01*
X79201Y-60514D01*
X79193Y-60505D01*
X79193Y-60420D01*
X79216Y-60363D01*
X79217Y-60237D01*
X79168Y-60120D01*
X79079Y-60031D01*
X78994Y-59995D01*
X79038Y-59973D01*
X79072Y-59934D01*
X79088Y-59885D01*
X79185Y-59585D01*
X79181Y-59533D01*
X79158Y-59487D01*
X79118Y-59454D01*
X79069Y-59438D01*
X78770Y-59340D01*
X78718Y-59344D01*
X78672Y-59368D01*
X78638Y-59407D01*
X78622Y-59456D01*
X78562Y-59642D01*
X78421Y-59783D01*
X78337Y-59782D01*
X78220Y-59831D01*
X78131Y-59920D01*
X78083Y-60036D01*
X78082Y-60162D01*
X78131Y-60279D01*
X78220Y-60368D01*
X78336Y-60416D01*
X78462Y-60417D01*
X78579Y-60368D01*
X78583Y-60364D01*
X78631Y-60479D01*
X78712Y-60561D01*
X77358Y-60520D01*
X77248Y-60144D01*
X77264Y-60111D01*
X77494Y-59944D01*
X77521Y-59900D01*
X77529Y-59849D01*
X77517Y-59799D01*
X77487Y-59757D01*
X77302Y-59502D01*
X77297Y-59499D01*
X76954Y-58362D01*
X77146Y-58089D01*
X77373Y-58046D01*
X77509Y-58145D01*
X77559Y-58157D01*
X77610Y-58149D01*
X77654Y-58122D01*
X77685Y-58080D01*
X77870Y-57825D01*
X77882Y-57775D01*
X77874Y-57724D01*
X77847Y-57680D01*
X77805Y-57649D01*
X77550Y-57464D01*
X77500Y-57452D01*
X77449Y-57460D01*
X77405Y-57487D01*
X77374Y-57529D01*
X77297Y-57636D01*
X76989Y-57694D01*
X76989Y-57694D01*
X76988Y-57694D01*
X76986Y-57694D01*
X76957Y-57706D01*
X76913Y-57723D01*
X76911Y-57724D01*
X76910Y-57725D01*
X76889Y-57745D01*
X76854Y-57779D01*
X76573Y-58178D01*
X76521Y-57810D01*
X76627Y-57664D01*
X76639Y-57614D01*
X76631Y-57563D01*
X76604Y-57519D01*
X76562Y-57488D01*
X76355Y-57337D01*
X76370Y-57317D01*
X76619Y-57498D01*
X76669Y-57510D01*
X76720Y-57502D01*
X76764Y-57475D01*
X76795Y-57433D01*
X76980Y-57179D01*
X76992Y-57128D01*
X76984Y-57077D01*
X76957Y-57033D01*
X76915Y-57003D01*
X76848Y-56954D01*
X76848Y-55881D01*
X76879Y-55868D01*
X76968Y-55779D01*
X77016Y-55663D01*
X77017Y-55537D01*
X76968Y-55420D01*
X76879Y-55331D01*
X76763Y-55283D01*
X76637Y-55282D01*
X76520Y-55331D01*
X76431Y-55420D01*
X76383Y-55536D01*
X76382Y-55662D01*
X76431Y-55779D01*
X76431Y-55779D01*
X76431Y-56810D01*
X76426Y-56809D01*
X76402Y-56797D01*
X76386Y-56796D01*
X76372Y-56792D01*
X76348Y-56794D01*
X76321Y-56792D01*
X76305Y-56798D01*
X76291Y-56799D01*
X76270Y-56810D01*
X76244Y-56819D01*
X76231Y-56831D01*
X76218Y-56837D01*
X76204Y-56854D01*
X76183Y-56873D01*
X75708Y-57498D01*
X75695Y-57526D01*
X75678Y-57553D01*
X75677Y-57563D01*
X75673Y-57572D01*
X75671Y-57603D01*
X75666Y-57633D01*
X75793Y-60658D01*
X75794Y-60665D01*
X75794Y-60686D01*
X75796Y-60691D01*
X75796Y-60696D01*
X75809Y-60725D01*
X75812Y-60737D01*
X75816Y-60743D01*
X75824Y-60762D01*
X75827Y-60766D01*
X75830Y-60771D01*
X76329Y-61471D01*
X76355Y-61496D01*
X76372Y-61515D01*
X76380Y-61518D01*
X76388Y-61527D01*
X76422Y-61539D01*
X76445Y-61551D01*
X79394Y-62352D01*
X79419Y-62354D01*
X79430Y-62357D01*
X79438Y-62357D01*
X79445Y-62358D01*
X79454Y-62356D01*
X79476Y-62358D01*
X79499Y-62350D01*
X79511Y-62349D01*
X80236Y-62124D01*
X80266Y-62109D01*
X80288Y-62100D01*
X80295Y-62092D01*
X80308Y-62086D01*
X80329Y-62060D01*
X80346Y-62043D01*
X82122Y-59469D01*
X82133Y-59443D01*
X82142Y-59429D01*
X82143Y-59429D01*
X82143Y-59427D01*
X82146Y-59414D01*
X82155Y-59394D01*
X82155Y-59366D01*
X82158Y-59350D01*
X82158Y-61321D01*
X82042Y-61470D01*
X81802Y-61295D01*
X81752Y-61283D01*
X81701Y-61291D01*
X81657Y-61318D01*
X81626Y-61360D01*
X81441Y-61615D01*
X81429Y-61665D01*
X81437Y-61716D01*
X81464Y-61760D01*
X81506Y-61791D01*
X81621Y-61874D01*
X80451Y-62811D01*
X79992Y-62949D01*
X79900Y-62667D01*
X79867Y-62628D01*
X79821Y-62604D01*
X79769Y-62600D01*
X79720Y-62616D01*
X79420Y-62713D01*
X79381Y-62747D01*
X79358Y-62793D01*
X79354Y-62845D01*
X79369Y-62894D01*
X79414Y-63030D01*
X77855Y-63089D01*
X77461Y-62948D01*
X77555Y-62659D01*
X77551Y-62608D01*
X77528Y-62562D01*
X77488Y-62528D01*
X77439Y-62512D01*
X77140Y-62415D01*
X77116Y-62416D01*
X77117Y-62337D01*
X77068Y-62220D01*
X76979Y-62131D01*
X76863Y-62083D01*
X76737Y-62082D01*
X76620Y-62131D01*
X76531Y-62220D01*
X76483Y-62336D01*
X76483Y-62363D01*
X75648Y-61798D01*
X75411Y-61457D01*
X75663Y-61275D01*
X75690Y-61231D01*
X75698Y-61180D01*
X75686Y-61130D01*
X75655Y-61088D01*
X75470Y-60833D01*
X75426Y-60806D01*
X75375Y-60798D01*
X75325Y-60810D01*
X75283Y-60840D01*
X75154Y-60933D01*
X74610Y-59515D01*
X74628Y-59042D01*
X74630Y-59042D01*
X74945Y-59042D01*
X74993Y-59022D01*
X75030Y-58986D01*
X75050Y-58938D01*
X75050Y-58886D01*
X75050Y-58571D01*
X75030Y-58524D01*
X74993Y-58487D01*
X74946Y-58467D01*
X74894Y-58467D01*
X74762Y-58467D01*
X75168Y-57013D01*
X75406Y-56683D01*
X75497Y-56683D01*
X75677Y-56814D01*
X75727Y-56826D01*
X75779Y-56818D01*
X75823Y-56791D01*
X75853Y-56749D01*
X76038Y-56495D01*
X76050Y-56444D01*
X76042Y-56393D01*
X76015Y-56349D01*
X75974Y-56319D01*
X75719Y-56133D01*
X75668Y-56121D01*
X75617Y-56129D01*
X75573Y-56156D01*
X75543Y-56198D01*
X75494Y-56265D01*
X75299Y-56266D01*
X75284Y-56269D01*
X75279Y-56269D01*
X75318Y-56229D01*
X75366Y-56113D01*
X75367Y-55987D01*
X75318Y-55870D01*
X75229Y-55781D01*
X75153Y-55749D01*
X75152Y-55747D01*
X75125Y-55702D01*
X75084Y-55672D01*
X74829Y-55487D01*
X74779Y-55475D01*
X74727Y-55483D01*
X74700Y-55500D01*
X74668Y-55477D01*
X74638Y-55465D01*
X74605Y-55448D01*
X74598Y-55447D01*
X74593Y-55445D01*
X74564Y-55445D01*
X74524Y-55442D01*
X74516Y-55444D01*
X74511Y-55444D01*
X74487Y-55454D01*
X74446Y-55467D01*
X74440Y-55473D01*
X74436Y-55474D01*
X74418Y-55492D01*
X74385Y-55521D01*
X73939Y-56091D01*
X73938Y-56092D01*
X73938Y-56093D01*
X73935Y-56096D01*
X73922Y-56122D01*
X73900Y-56164D01*
X73125Y-58714D01*
X73122Y-58744D01*
X73116Y-58775D01*
X73116Y-59500D01*
X73123Y-59533D01*
X73127Y-59568D01*
X73976Y-62018D01*
X73988Y-62039D01*
X73991Y-62049D01*
X73998Y-62058D01*
X74003Y-62068D01*
X74453Y-62718D01*
X74478Y-62743D01*
X74505Y-62771D01*
X76655Y-64271D01*
X76680Y-64281D01*
X76704Y-64296D01*
X76707Y-64296D01*
X76709Y-64298D01*
X77449Y-64544D01*
X77450Y-64545D01*
X77452Y-64545D01*
X77459Y-64547D01*
X77484Y-64550D01*
X77531Y-64558D01*
X80102Y-64482D01*
X80103Y-64482D01*
X80107Y-64482D01*
X80111Y-64483D01*
X80123Y-64481D01*
X80131Y-64481D01*
X80139Y-64479D01*
X80148Y-64478D01*
X80184Y-64474D01*
X80934Y-64249D01*
X80967Y-64232D01*
X81002Y-64215D01*
X83053Y-62641D01*
X83075Y-62616D01*
X83086Y-62607D01*
X83536Y-62057D01*
X83574Y-61985D01*
X83574Y-61984D01*
X84349Y-59435D01*
X84351Y-59412D01*
X84358Y-59387D01*
X84357Y-59381D01*
X84358Y-59375D01*
X84358Y-58615D01*
X84359Y-58613D01*
X84359Y-61341D01*
X84256Y-61524D01*
X83999Y-61410D01*
X83948Y-61409D01*
X83899Y-61427D01*
X83862Y-61463D01*
X83841Y-61510D01*
X83713Y-61798D01*
X83711Y-61849D01*
X83730Y-61898D01*
X83765Y-61935D01*
X83813Y-61956D01*
X83954Y-62019D01*
X83119Y-63282D01*
X82781Y-63561D01*
X82587Y-63346D01*
X82540Y-63323D01*
X82488Y-63321D01*
X82440Y-63338D01*
X82401Y-63372D01*
X82167Y-63583D01*
X82145Y-63630D01*
X82142Y-63681D01*
X82159Y-63730D01*
X82194Y-63769D01*
X82310Y-63897D01*
X81013Y-64708D01*
X80603Y-64829D01*
X80509Y-64539D01*
X80475Y-64500D01*
X80429Y-64476D01*
X80378Y-64472D01*
X80328Y-64488D01*
X80029Y-64585D01*
X79989Y-64619D01*
X79966Y-64665D01*
X79962Y-64717D01*
X79978Y-64766D01*
X80034Y-64940D01*
X78502Y-65139D01*
X78094Y-65081D01*
X78125Y-64785D01*
X78110Y-64735D01*
X78078Y-64695D01*
X78032Y-64670D01*
X77981Y-64665D01*
X77667Y-64632D01*
X77618Y-64646D01*
X77578Y-64679D01*
X77553Y-64724D01*
X77548Y-64776D01*
X77529Y-64952D01*
X76569Y-64666D01*
X76567Y-64666D01*
X76034Y-64507D01*
X75698Y-64298D01*
X75847Y-64039D01*
X75854Y-63988D01*
X75841Y-63938D01*
X75809Y-63897D01*
X75765Y-63871D01*
X75492Y-63713D01*
X75441Y-63707D01*
X75391Y-63720D01*
X75350Y-63751D01*
X75324Y-63796D01*
X75236Y-63947D01*
X74008Y-62935D01*
X73811Y-62620D01*
X73815Y-62617D01*
X74070Y-62432D01*
X74097Y-62388D01*
X74105Y-62336D01*
X74093Y-62286D01*
X74063Y-62244D01*
X73878Y-61990D01*
X73834Y-61962D01*
X73783Y-61954D01*
X73732Y-61966D01*
X73690Y-61997D01*
X73534Y-62110D01*
X72875Y-60710D01*
X72800Y-60305D01*
X73100Y-60241D01*
X73143Y-60211D01*
X73171Y-60168D01*
X73181Y-60117D01*
X73170Y-60067D01*
X73104Y-59759D01*
X73075Y-59716D01*
X73032Y-59688D01*
X72981Y-59678D01*
X72930Y-59689D01*
X72748Y-59728D01*
X72709Y-58220D01*
X72806Y-57780D01*
X73106Y-57844D01*
X73156Y-57835D01*
X73200Y-57807D01*
X73229Y-57764D01*
X73240Y-57713D01*
X73305Y-57405D01*
X73296Y-57354D01*
X73268Y-57311D01*
X73225Y-57282D01*
X73175Y-57271D01*
X72998Y-57233D01*
X73604Y-55784D01*
X73839Y-55479D01*
X74085Y-55657D01*
X74135Y-55669D01*
X74186Y-55661D01*
X74230Y-55634D01*
X74261Y-55593D01*
X74446Y-55338D01*
X74458Y-55288D01*
X74450Y-55236D01*
X74423Y-55192D01*
X74381Y-55162D01*
X74230Y-55052D01*
X75347Y-53996D01*
X75718Y-53796D01*
X75869Y-54058D01*
X75910Y-54089D01*
X75960Y-54103D01*
X76011Y-54096D01*
X76056Y-54070D01*
X76329Y-53913D01*
X76360Y-53872D01*
X76374Y-53822D01*
X76367Y-53770D01*
X76341Y-53726D01*
X76184Y-53453D01*
X76143Y-53421D01*
X76093Y-53408D01*
X76077Y-53410D01*
X76058Y-53375D01*
X76031Y-53343D01*
X76006Y-53313D01*
X76006Y-53313D01*
X76006Y-53313D01*
X75967Y-53292D01*
X75934Y-53275D01*
X75934Y-53275D01*
X75934Y-53274D01*
X75889Y-53270D01*
X75853Y-53267D01*
X75853Y-53267D01*
X75853Y-53267D01*
X75809Y-53280D01*
X75776Y-53291D01*
X75775Y-53291D01*
X75775Y-53291D01*
X75775Y-53291D01*
X75126Y-53641D01*
X75106Y-53657D01*
X75081Y-53673D01*
X73913Y-54777D01*
X74966Y-53429D01*
X74986Y-53418D01*
X75259Y-53260D01*
X75291Y-53219D01*
X75304Y-53169D01*
X75297Y-53118D01*
X75272Y-53073D01*
X75147Y-52856D01*
X75169Y-52845D01*
X75319Y-53105D01*
X75360Y-53137D01*
X75410Y-53150D01*
X75461Y-53143D01*
X75506Y-53118D01*
X75779Y-52960D01*
X75810Y-52919D01*
X75824Y-52869D01*
X75817Y-52818D01*
X75791Y-52773D01*
X75634Y-52500D01*
X75593Y-52469D01*
X75543Y-52455D01*
X75526Y-52458D01*
X75508Y-52425D01*
X75487Y-52400D01*
X75457Y-52363D01*
X75456Y-52362D01*
X75456Y-52362D01*
X75441Y-52354D01*
X75385Y-52324D01*
X75384Y-52324D01*
X75383Y-52324D01*
X75379Y-52324D01*
X75304Y-52317D01*
X75226Y-52340D01*
X74526Y-52716D01*
X74502Y-52735D01*
X74481Y-52749D01*
X72780Y-54374D01*
X72771Y-54387D01*
X72759Y-54397D01*
X72334Y-54947D01*
X72321Y-54973D01*
X72306Y-54997D01*
X71476Y-57082D01*
X71462Y-57093D01*
X71460Y-57097D01*
X71457Y-57100D01*
X71442Y-57132D01*
X71424Y-57165D01*
X71224Y-57840D01*
X71221Y-57872D01*
X71216Y-57904D01*
X71268Y-60375D01*
X71266Y-60385D01*
X71271Y-60404D01*
X71272Y-60424D01*
X71447Y-61148D01*
X71455Y-61165D01*
X71460Y-61187D01*
X72368Y-63144D01*
X72368Y-63154D01*
X72371Y-63164D01*
X72372Y-63174D01*
X72385Y-63202D01*
X72395Y-63231D01*
X72402Y-63239D01*
X72406Y-63248D01*
X72882Y-63897D01*
X72896Y-63911D01*
X72913Y-63932D01*
X74638Y-65432D01*
X74647Y-65437D01*
X74657Y-65447D01*
X74659Y-65448D01*
X74661Y-65449D01*
X75236Y-65824D01*
X75261Y-65834D01*
X75287Y-65849D01*
X77587Y-66574D01*
X77603Y-66576D01*
X77616Y-66581D01*
X77623Y-66580D01*
X77629Y-66582D01*
X78379Y-66657D01*
X78402Y-66655D01*
X78426Y-66657D01*
X80751Y-66355D01*
X80759Y-66352D01*
X80784Y-66350D01*
X81459Y-66150D01*
X81482Y-66137D01*
X81507Y-66129D01*
X83556Y-64902D01*
X83564Y-64895D01*
X83585Y-64883D01*
X84110Y-64433D01*
X84127Y-64412D01*
X84146Y-64394D01*
X85504Y-62440D01*
X85504Y-62439D01*
X85506Y-62437D01*
X85519Y-62418D01*
X85523Y-62410D01*
X85538Y-62390D01*
X85837Y-61764D01*
X85843Y-61743D01*
X85854Y-61716D01*
X86327Y-59391D01*
X86327Y-59380D01*
X86333Y-59350D01*
X86333Y-61535D01*
X86089Y-61456D01*
X86037Y-61460D01*
X85991Y-61483D01*
X85958Y-61522D01*
X85942Y-61572D01*
X85844Y-61871D01*
X85848Y-61923D01*
X85872Y-61969D01*
X85911Y-62002D01*
X85960Y-62018D01*
X86238Y-62109D01*
X85294Y-63841D01*
X85284Y-63825D01*
X85242Y-63794D01*
X84987Y-63609D01*
X84937Y-63597D01*
X84886Y-63605D01*
X84842Y-63632D01*
X84811Y-63674D01*
X84626Y-63928D01*
X84614Y-63979D01*
X84622Y-64030D01*
X84649Y-64074D01*
X84691Y-64104D01*
X84932Y-64280D01*
X83496Y-65642D01*
X83489Y-65613D01*
X83459Y-65572D01*
X83274Y-65317D01*
X83230Y-65290D01*
X83179Y-65282D01*
X83128Y-65294D01*
X83086Y-65324D01*
X82832Y-65509D01*
X82805Y-65553D01*
X82796Y-65604D01*
X82808Y-65655D01*
X82839Y-65696D01*
X83018Y-65943D01*
X82620Y-66125D01*
X82619Y-66126D01*
X82279Y-66281D01*
X82229Y-66231D01*
X82113Y-66183D01*
X81987Y-66182D01*
X81870Y-66231D01*
X81781Y-66320D01*
X81733Y-66436D01*
X81732Y-66532D01*
X81230Y-66762D01*
X81230Y-66760D01*
X81214Y-66711D01*
X81117Y-66412D01*
X81083Y-66372D01*
X81037Y-66349D01*
X80986Y-66345D01*
X80937Y-66360D01*
X80637Y-66458D01*
X80598Y-66491D01*
X80574Y-66537D01*
X80570Y-66589D01*
X80586Y-66638D01*
X80674Y-66909D01*
X78727Y-67151D01*
X78727Y-67101D01*
X78727Y-66786D01*
X78707Y-66738D01*
X78671Y-66702D01*
X78623Y-66682D01*
X78571Y-66682D01*
X78256Y-66682D01*
X78209Y-66701D01*
X78172Y-66738D01*
X78152Y-66786D01*
X78152Y-66837D01*
X78152Y-67130D01*
X76230Y-66739D01*
X76241Y-66703D01*
X76339Y-66404D01*
X76335Y-66352D01*
X76311Y-66306D01*
X76272Y-66273D01*
X76223Y-66257D01*
X75923Y-66159D01*
X75872Y-66163D01*
X75825Y-66187D01*
X75792Y-66226D01*
X75776Y-66275D01*
X75688Y-66546D01*
X73978Y-65587D01*
X74000Y-65557D01*
X74185Y-65302D01*
X74197Y-65252D01*
X74189Y-65201D01*
X74162Y-65157D01*
X74121Y-65126D01*
X73866Y-64941D01*
X73816Y-64929D01*
X73764Y-64937D01*
X73720Y-64964D01*
X73690Y-65006D01*
X73522Y-65237D01*
X72181Y-63804D01*
X72223Y-63774D01*
X72477Y-63589D01*
X72505Y-63545D01*
X72513Y-63494D01*
X72501Y-63443D01*
X72470Y-63401D01*
X72285Y-63147D01*
X72241Y-63120D01*
X72190Y-63111D01*
X72140Y-63123D01*
X72098Y-63154D01*
X71849Y-63334D01*
X71025Y-61534D01*
X71030Y-61534D01*
X71079Y-61517D01*
X71375Y-61410D01*
X71413Y-61375D01*
X71435Y-61329D01*
X71438Y-61277D01*
X71420Y-61228D01*
X71314Y-60932D01*
X71279Y-60894D01*
X71232Y-60872D01*
X71180Y-60869D01*
X71132Y-60887D01*
X70865Y-60983D01*
X70615Y-59031D01*
X70642Y-59042D01*
X70693Y-59042D01*
X71008Y-59042D01*
X71056Y-59022D01*
X71093Y-58986D01*
X71113Y-58938D01*
X71113Y-58886D01*
X71113Y-58571D01*
X71093Y-58524D01*
X71056Y-58487D01*
X71009Y-58467D01*
X70957Y-58467D01*
X70654Y-58467D01*
X71043Y-56541D01*
X71091Y-56556D01*
X71390Y-56654D01*
X71442Y-56650D01*
X71488Y-56626D01*
X71522Y-56587D01*
X71538Y-56538D01*
X71635Y-56238D01*
X71631Y-56187D01*
X71608Y-56140D01*
X71568Y-56107D01*
X71519Y-56091D01*
X71249Y-56003D01*
X72208Y-54294D01*
X72237Y-54315D01*
X72492Y-54500D01*
X72542Y-54512D01*
X72594Y-54504D01*
X72638Y-54477D01*
X72668Y-54436D01*
X72853Y-54181D01*
X72865Y-54130D01*
X72857Y-54079D01*
X72830Y-54035D01*
X72788Y-54005D01*
X72565Y-53842D01*
X73989Y-52491D01*
X73990Y-52496D01*
X74020Y-52538D01*
X74206Y-52792D01*
X74250Y-52819D01*
X74301Y-52828D01*
X74351Y-52816D01*
X74393Y-52785D01*
X74648Y-52600D01*
X74675Y-52556D01*
X74683Y-52505D01*
X74671Y-52455D01*
X74640Y-52413D01*
X74463Y-52169D01*
X76253Y-51303D01*
X76249Y-51349D01*
X76265Y-51398D01*
X76362Y-51698D01*
X76396Y-51737D01*
X76442Y-51761D01*
X76494Y-51765D01*
X76543Y-51749D01*
X76842Y-51651D01*
X76882Y-51618D01*
X76905Y-51572D01*
X76909Y-51520D01*
X76893Y-51471D01*
X76866Y-51387D01*
X76936Y-51416D01*
X77062Y-51417D01*
X77179Y-51368D01*
X77268Y-51279D01*
X77316Y-51163D01*
X77317Y-51037D01*
X77268Y-50920D01*
X77179Y-50831D01*
X77063Y-50783D01*
X76978Y-50782D01*
X76521Y-50326D01*
X76456Y-50125D01*
X76423Y-50086D01*
X76376Y-50062D01*
X76325Y-50058D01*
X76276Y-50074D01*
X76195Y-50100D01*
X75954Y-49928D01*
X77019Y-49715D01*
X79192Y-49465D01*
X79321Y-49491D01*
X79313Y-49493D01*
X79294Y-49494D01*
X79274Y-49503D01*
X79252Y-49509D01*
X79238Y-49520D01*
X79221Y-49528D01*
X79205Y-49545D01*
X79187Y-49558D01*
X79015Y-49753D01*
X78856Y-49753D01*
X78809Y-49772D01*
X78772Y-49809D01*
X78752Y-49857D01*
X78752Y-49908D01*
X78752Y-50057D01*
X78727Y-50032D01*
X78727Y-49857D01*
X78707Y-49809D01*
X78671Y-49772D01*
X78623Y-49753D01*
X78571Y-49753D01*
X78256Y-49753D01*
X78209Y-49772D01*
X78172Y-49809D01*
X78152Y-49857D01*
X78152Y-49908D01*
X78152Y-50223D01*
X78172Y-50271D01*
X78208Y-50308D01*
X78256Y-50328D01*
X78308Y-50328D01*
X78432Y-50328D01*
X78627Y-50522D01*
X78652Y-50539D01*
X78671Y-50556D01*
X78682Y-50560D01*
X78694Y-50568D01*
X78723Y-50573D01*
X78748Y-50582D01*
X79172Y-50636D01*
X79160Y-50646D01*
X78999Y-50853D01*
X78856Y-50853D01*
X78809Y-50872D01*
X78772Y-50909D01*
X78752Y-50957D01*
X78752Y-51008D01*
X78752Y-51323D01*
X78772Y-51371D01*
X78808Y-51408D01*
X78856Y-51428D01*
X78908Y-51428D01*
X79223Y-51428D01*
X79271Y-51408D01*
X79307Y-51371D01*
X79327Y-51324D01*
X79327Y-51272D01*
X79327Y-51111D01*
X79411Y-51003D01*
X81261Y-51349D01*
X81254Y-51357D01*
X81238Y-51406D01*
X81141Y-51705D01*
X81145Y-51757D01*
X81168Y-51803D01*
X81207Y-51837D01*
X81257Y-51853D01*
X81556Y-51950D01*
X81608Y-51946D01*
X81654Y-51923D01*
X81687Y-51883D01*
X81703Y-51834D01*
X81797Y-51546D01*
X83533Y-52496D01*
X83510Y-52511D01*
X83479Y-52552D01*
X83294Y-52807D01*
X83282Y-52857D01*
X83290Y-52908D01*
X83317Y-52953D01*
X83359Y-52983D01*
X83614Y-53168D01*
X83664Y-53180D01*
X83715Y-53172D01*
X83759Y-53145D01*
X83789Y-53103D01*
X83975Y-52849D01*
X83977Y-52837D01*
X85342Y-54295D01*
X85299Y-54305D01*
X85257Y-54335D01*
X85002Y-54521D01*
X84975Y-54565D01*
X84967Y-54616D01*
X84979Y-54666D01*
X85009Y-54708D01*
X85194Y-54963D01*
X85238Y-54990D01*
X85289Y-54998D01*
X85340Y-54986D01*
X85381Y-54955D01*
X85636Y-54770D01*
X85646Y-54755D01*
X86487Y-56567D01*
X86445Y-56564D01*
X86396Y-56580D01*
X86097Y-56677D01*
X86057Y-56711D01*
X86034Y-56757D01*
X86030Y-56809D01*
X86046Y-56858D01*
X86143Y-57157D01*
X86176Y-57197D01*
X86222Y-57220D01*
X86274Y-57224D01*
X86323Y-57208D01*
X86623Y-57111D01*
X86628Y-57107D01*
X86837Y-59067D01*
X86837Y-59067D01*
G37*
G54D15*
X86837Y-59067D02*
X86786Y-59067D01*
X86471Y-59067D01*
X86423Y-59087D01*
X86387Y-59123D01*
X86367Y-59171D01*
X86367Y-59223D01*
X86367Y-59538D01*
X86386Y-59586D01*
X86423Y-59622D01*
X86471Y-59642D01*
X86522Y-59642D01*
X86801Y-59642D01*
X86431Y-61567D01*
X86388Y-61553D01*
X86333Y-61535D01*
X86333Y-59350D01*
X86333Y-58675D01*
X86327Y-58645D01*
X86327Y-58631D01*
X85829Y-56306D01*
X85823Y-56294D01*
X85822Y-56281D01*
X85818Y-56275D01*
X85817Y-56269D01*
X85567Y-55669D01*
X85556Y-55652D01*
X85543Y-55626D01*
X84093Y-53651D01*
X84081Y-53641D01*
X84073Y-53628D01*
X84067Y-53624D01*
X84064Y-53619D01*
X83564Y-53169D01*
X83552Y-53162D01*
X83526Y-53140D01*
X81400Y-51967D01*
X81386Y-51962D01*
X81372Y-51953D01*
X80701Y-51705D01*
X80694Y-51701D01*
X80614Y-51689D01*
X79017Y-51770D01*
X79017Y-51737D01*
X78968Y-51620D01*
X78879Y-51531D01*
X78763Y-51483D01*
X78637Y-51482D01*
X78520Y-51531D01*
X78431Y-51620D01*
X78390Y-51717D01*
X78089Y-51749D01*
X78044Y-51774D01*
X78011Y-51814D01*
X77996Y-51863D01*
X78002Y-51915D01*
X78016Y-52051D01*
X77989Y-52031D01*
X77971Y-51866D01*
X77947Y-51821D01*
X77907Y-51788D01*
X77857Y-51773D01*
X77806Y-51779D01*
X77492Y-51812D01*
X77447Y-51836D01*
X77414Y-51876D01*
X77400Y-51926D01*
X77405Y-51977D01*
X77438Y-52291D01*
X77463Y-52336D01*
X77503Y-52369D01*
X77552Y-52383D01*
X77604Y-52378D01*
X77737Y-52364D01*
X77974Y-52542D01*
X78004Y-52556D01*
X78028Y-52571D01*
X78038Y-52572D01*
X78047Y-52577D01*
X78081Y-52579D01*
X78109Y-52583D01*
X79951Y-52499D01*
X80020Y-52568D01*
X80136Y-52616D01*
X80262Y-52617D01*
X80379Y-52568D01*
X80445Y-52502D01*
X80552Y-52537D01*
X80694Y-52780D01*
X80713Y-52801D01*
X80729Y-52824D01*
X80740Y-52831D01*
X80749Y-52841D01*
X80756Y-52845D01*
X80336Y-52725D01*
X80335Y-52724D01*
X80333Y-52724D01*
X80332Y-52724D01*
X80314Y-52722D01*
X80254Y-52716D01*
X78671Y-52874D01*
X78659Y-52852D01*
X78618Y-52819D01*
X78569Y-52805D01*
X78517Y-52810D01*
X78204Y-52843D01*
X78159Y-52867D01*
X78126Y-52908D01*
X78111Y-52957D01*
X78117Y-53009D01*
X78150Y-53322D01*
X78174Y-53367D01*
X78214Y-53400D01*
X78264Y-53415D01*
X78315Y-53409D01*
X78629Y-53376D01*
X78674Y-53352D01*
X78707Y-53312D01*
X78713Y-53290D01*
X80255Y-53136D01*
X80640Y-53246D01*
X80630Y-53278D01*
X80532Y-53578D01*
X80536Y-53629D01*
X80560Y-53676D01*
X80599Y-53709D01*
X80648Y-53725D01*
X80948Y-53823D01*
X80999Y-53818D01*
X81046Y-53795D01*
X81079Y-53756D01*
X81095Y-53707D01*
X81168Y-53482D01*
X82571Y-54315D01*
X82815Y-54547D01*
X82605Y-54780D01*
X82588Y-54829D01*
X82591Y-54881D01*
X82613Y-54927D01*
X82651Y-54962D01*
X82885Y-55173D01*
X82934Y-55190D01*
X82986Y-55187D01*
X83032Y-55165D01*
X83067Y-55127D01*
X83200Y-54980D01*
X84149Y-56240D01*
X84327Y-56581D01*
X84297Y-56594D01*
X84010Y-56722D01*
X83974Y-56760D01*
X83955Y-56808D01*
X83957Y-56860D01*
X83978Y-56907D01*
X84106Y-57195D01*
X84143Y-57230D01*
X84192Y-57249D01*
X84243Y-57247D01*
X84290Y-57226D01*
X84516Y-57126D01*
X84840Y-58667D01*
X84826Y-59067D01*
X84817Y-59067D01*
X84502Y-59067D01*
X84455Y-59087D01*
X84418Y-59123D01*
X84398Y-59171D01*
X84398Y-59223D01*
X84398Y-59538D01*
X84418Y-59586D01*
X84455Y-59622D01*
X84502Y-59642D01*
X84554Y-59642D01*
X84758Y-59642D01*
X84452Y-61174D01*
X84359Y-61341D01*
X84359Y-58613D01*
X84358Y-58609D01*
X84358Y-58600D01*
X84355Y-58581D01*
X84348Y-58532D01*
X83497Y-56032D01*
X83480Y-56003D01*
X83479Y-56001D01*
X83468Y-55977D01*
X83465Y-55973D01*
X83465Y-55972D01*
X83464Y-55971D01*
X83068Y-55427D01*
X83049Y-55408D01*
X83022Y-55380D01*
X80858Y-53814D01*
X80858Y-53813D01*
X80858Y-53813D01*
X80847Y-53805D01*
X80823Y-53795D01*
X80821Y-53793D01*
X80799Y-53779D01*
X80794Y-53779D01*
X80786Y-53775D01*
X80061Y-53550D01*
X80058Y-53550D01*
X80049Y-53546D01*
X79994Y-53543D01*
X79980Y-53542D01*
X79978Y-53542D01*
X79968Y-53542D01*
X77679Y-53888D01*
X77673Y-53870D01*
X77639Y-53830D01*
X77593Y-53807D01*
X77541Y-53803D01*
X77492Y-53819D01*
X77193Y-53916D01*
X77153Y-53950D01*
X77130Y-53996D01*
X77126Y-54047D01*
X77142Y-54096D01*
X77180Y-54214D01*
X77150Y-54202D01*
X77102Y-54055D01*
X77068Y-54016D01*
X77022Y-53992D01*
X76971Y-53988D01*
X76922Y-54004D01*
X76622Y-54102D01*
X76583Y-54135D01*
X76559Y-54181D01*
X76555Y-54233D01*
X76571Y-54282D01*
X76668Y-54581D01*
X76702Y-54621D01*
X76748Y-54644D01*
X76800Y-54648D01*
X76849Y-54632D01*
X76989Y-54587D01*
X77245Y-54692D01*
X77258Y-54695D01*
X77271Y-54701D01*
X77299Y-54703D01*
X77325Y-54708D01*
X77338Y-54705D01*
X77352Y-54706D01*
X79583Y-54405D01*
X79582Y-54512D01*
X79610Y-54580D01*
X78014Y-54919D01*
X78013Y-54916D01*
X77979Y-54877D01*
X77933Y-54853D01*
X77881Y-54849D01*
X77832Y-54865D01*
X77533Y-54962D01*
X77493Y-54996D01*
X77470Y-55042D01*
X77466Y-55093D01*
X77482Y-55143D01*
X77579Y-55442D01*
X77612Y-55482D01*
X77659Y-55505D01*
X77710Y-55509D01*
X77759Y-55493D01*
X78059Y-55396D01*
X78098Y-55362D01*
X78118Y-55324D01*
X79675Y-54993D01*
X80021Y-55153D01*
X79924Y-55450D01*
X79928Y-55501D01*
X79952Y-55548D01*
X79991Y-55581D01*
X80040Y-55597D01*
X80340Y-55695D01*
X80391Y-55691D01*
X80437Y-55667D01*
X80471Y-55628D01*
X80487Y-55579D01*
X80530Y-55446D01*
X81848Y-56325D01*
X82060Y-56657D01*
X81817Y-56834D01*
X81790Y-56878D01*
X81782Y-56929D01*
X81794Y-56980D01*
X81824Y-57022D01*
X82009Y-57276D01*
X82053Y-57303D01*
X82104Y-57312D01*
X82155Y-57300D01*
X82196Y-57269D01*
X82318Y-57181D01*
X82864Y-58658D01*
X82851Y-59067D01*
X82849Y-59067D01*
X82534Y-59067D01*
X82486Y-59087D01*
X82450Y-59123D01*
X82430Y-59171D01*
X82430Y-59223D01*
X82430Y-59538D01*
X82449Y-59586D01*
X82486Y-59622D01*
X82534Y-59642D01*
X82585Y-59642D01*
X82753Y-59642D01*
X82311Y-61125D01*
X82158Y-61321D01*
X82158Y-59350D01*
X82158Y-58600D01*
X82155Y-58583D01*
X82154Y-58551D01*
X82144Y-58530D01*
X82142Y-58520D01*
X82134Y-58507D01*
X82120Y-58477D01*
X80444Y-56152D01*
X80425Y-56135D01*
X80409Y-56115D01*
X80395Y-56107D01*
X80384Y-56097D01*
X80361Y-56088D01*
X80337Y-56075D01*
X80321Y-56073D01*
X80308Y-56068D01*
X80284Y-56069D01*
X80257Y-56066D01*
X80241Y-56071D01*
X80226Y-56071D01*
X80205Y-56081D01*
X80178Y-56089D01*
X79974Y-56195D01*
X79809Y-56141D01*
X79758Y-56145D01*
X79711Y-56168D01*
X79678Y-56208D01*
X79662Y-56257D01*
X79624Y-56372D01*
X79607Y-56344D01*
X79654Y-56200D01*
X79650Y-56149D01*
X79627Y-56103D01*
X79587Y-56069D01*
X79538Y-56053D01*
X79238Y-55956D01*
X79187Y-55960D01*
X79141Y-55983D01*
X79107Y-56022D01*
X79091Y-56072D01*
X78994Y-56371D01*
X78998Y-56423D01*
X79008Y-56443D01*
X78981Y-56470D01*
X78933Y-56586D01*
X78932Y-56712D01*
X78981Y-56829D01*
X79070Y-56918D01*
X79186Y-56966D01*
X79312Y-56967D01*
X79429Y-56918D01*
X79463Y-56884D01*
X80731Y-58201D01*
X79863Y-57498D01*
X79885Y-57432D01*
X79881Y-57380D01*
X79857Y-57334D01*
X79818Y-57301D01*
X79769Y-57285D01*
X79469Y-57187D01*
X79418Y-57191D01*
X79372Y-57215D01*
X79338Y-57254D01*
X79322Y-57303D01*
X79225Y-57603D01*
X79229Y-57654D01*
X79252Y-57700D01*
X79291Y-57734D01*
X79340Y-57750D01*
X79624Y-57842D01*
X80587Y-58622D01*
X80573Y-59067D01*
X80270Y-59067D01*
X80222Y-59087D01*
X80186Y-59123D01*
X80166Y-59171D01*
X80166Y-59223D01*
X80166Y-59538D01*
X80171Y-59551D01*
X79788Y-60744D01*
X79525Y-60797D01*
X79525Y-58539D01*
X79521Y-58487D01*
X79498Y-58441D01*
X79458Y-58408D01*
X79409Y-58392D01*
X79403Y-58389D01*
X79388Y-58315D01*
X79343Y-58247D01*
X78816Y-57721D01*
X78817Y-57637D01*
X78768Y-57520D01*
X78679Y-57431D01*
X78563Y-57383D01*
X78437Y-57382D01*
X78320Y-57431D01*
X78231Y-57520D01*
X78183Y-57636D01*
X78182Y-57762D01*
X78231Y-57879D01*
X78320Y-57968D01*
X78436Y-58016D01*
X78521Y-58017D01*
X78650Y-58145D01*
X78539Y-58109D01*
X78487Y-58113D01*
X78441Y-58136D01*
X78408Y-58176D01*
X78392Y-58225D01*
X78294Y-58524D01*
X78298Y-58576D01*
X78322Y-58622D01*
X78361Y-58656D01*
X78409Y-58671D01*
X78383Y-58736D01*
X78382Y-58862D01*
X78431Y-58979D01*
X78520Y-59068D01*
X78636Y-59116D01*
X78762Y-59117D01*
X78879Y-59068D01*
X78968Y-58979D01*
X79014Y-58868D01*
X79280Y-58954D01*
X79332Y-58950D01*
X79378Y-58927D01*
X79412Y-58888D01*
X79428Y-58838D01*
X79525Y-58539D01*
X79525Y-60797D01*
X79307Y-60840D01*
X79298Y-60814D01*
X79201Y-60514D01*
X79193Y-60505D01*
X79193Y-60420D01*
X79216Y-60363D01*
X79217Y-60237D01*
X79168Y-60120D01*
X79079Y-60031D01*
X78994Y-59995D01*
X79038Y-59973D01*
X79072Y-59934D01*
X79088Y-59885D01*
X79185Y-59585D01*
X79181Y-59533D01*
X79158Y-59487D01*
X79118Y-59454D01*
X79069Y-59438D01*
X78770Y-59340D01*
X78718Y-59344D01*
X78672Y-59368D01*
X78638Y-59407D01*
X78622Y-59456D01*
X78562Y-59642D01*
X78421Y-59783D01*
X78337Y-59782D01*
X78220Y-59831D01*
X78131Y-59920D01*
X78083Y-60036D01*
X78082Y-60162D01*
X78131Y-60279D01*
X78220Y-60368D01*
X78336Y-60416D01*
X78462Y-60417D01*
X78579Y-60368D01*
X78583Y-60364D01*
X78631Y-60479D01*
X78712Y-60561D01*
X77358Y-60520D01*
X77248Y-60144D01*
X77264Y-60111D01*
X77494Y-59944D01*
X77521Y-59900D01*
X77529Y-59849D01*
X77517Y-59799D01*
X77487Y-59757D01*
X77302Y-59502D01*
X77297Y-59499D01*
X76954Y-58362D01*
X77146Y-58089D01*
X77373Y-58046D01*
X77509Y-58145D01*
X77559Y-58157D01*
X77610Y-58149D01*
X77654Y-58122D01*
X77685Y-58080D01*
X77870Y-57825D01*
X77882Y-57775D01*
X77874Y-57724D01*
X77847Y-57680D01*
X77805Y-57649D01*
X77550Y-57464D01*
X77500Y-57452D01*
X77449Y-57460D01*
X77405Y-57487D01*
X77374Y-57529D01*
X77297Y-57636D01*
X76989Y-57694D01*
X76989Y-57694D01*
X76988Y-57694D01*
X76986Y-57694D01*
X76957Y-57706D01*
X76913Y-57723D01*
X76911Y-57724D01*
X76910Y-57725D01*
X76889Y-57745D01*
X76854Y-57779D01*
X76573Y-58178D01*
X76521Y-57810D01*
X76627Y-57664D01*
X76639Y-57614D01*
X76631Y-57563D01*
X76604Y-57519D01*
X76562Y-57488D01*
X76355Y-57337D01*
X76370Y-57317D01*
X76619Y-57498D01*
X76669Y-57510D01*
X76720Y-57502D01*
X76764Y-57475D01*
X76795Y-57433D01*
X76980Y-57179D01*
X76992Y-57128D01*
X76984Y-57077D01*
X76957Y-57033D01*
X76915Y-57003D01*
X76848Y-56954D01*
X76848Y-55881D01*
X76879Y-55868D01*
X76968Y-55779D01*
X77016Y-55663D01*
X77017Y-55537D01*
X76968Y-55420D01*
X76879Y-55331D01*
X76763Y-55283D01*
X76637Y-55282D01*
X76520Y-55331D01*
X76431Y-55420D01*
X76383Y-55536D01*
X76382Y-55662D01*
X76431Y-55779D01*
X76431Y-55779D01*
X76431Y-56810D01*
X76426Y-56809D01*
X76402Y-56797D01*
X76386Y-56796D01*
X76372Y-56792D01*
X76348Y-56794D01*
X76321Y-56792D01*
X76305Y-56798D01*
X76291Y-56799D01*
X76270Y-56810D01*
X76244Y-56819D01*
X76231Y-56831D01*
X76218Y-56837D01*
X76204Y-56854D01*
X76183Y-56873D01*
X75708Y-57498D01*
X75695Y-57526D01*
X75678Y-57553D01*
X75677Y-57563D01*
X75673Y-57572D01*
X75671Y-57603D01*
X75666Y-57633D01*
X75793Y-60658D01*
X75794Y-60665D01*
X75794Y-60686D01*
X75796Y-60691D01*
X75796Y-60696D01*
X75809Y-60725D01*
X75812Y-60737D01*
X75816Y-60743D01*
X75824Y-60762D01*
X75827Y-60766D01*
X75830Y-60771D01*
X76329Y-61471D01*
X76355Y-61496D01*
X76372Y-61515D01*
X76380Y-61518D01*
X76388Y-61527D01*
X76422Y-61539D01*
X76445Y-61551D01*
X79394Y-62352D01*
X79419Y-62354D01*
X79430Y-62357D01*
X79438Y-62357D01*
X79445Y-62358D01*
X79454Y-62356D01*
X79476Y-62358D01*
X79499Y-62350D01*
X79511Y-62349D01*
X80236Y-62124D01*
X80266Y-62109D01*
X80288Y-62100D01*
X80295Y-62092D01*
X80308Y-62086D01*
X80329Y-62060D01*
X80346Y-62043D01*
X82122Y-59469D01*
X82133Y-59443D01*
X82142Y-59429D01*
X82143Y-59429D01*
X82143Y-59427D01*
X82146Y-59414D01*
X82155Y-59394D01*
X82155Y-59366D01*
X82158Y-59350D01*
X82158Y-61321D01*
X82042Y-61470D01*
X81802Y-61295D01*
X81752Y-61283D01*
X81701Y-61291D01*
X81657Y-61318D01*
X81626Y-61360D01*
X81441Y-61615D01*
X81429Y-61665D01*
X81437Y-61716D01*
X81464Y-61760D01*
X81506Y-61791D01*
X81621Y-61874D01*
X80451Y-62811D01*
X79992Y-62949D01*
X79900Y-62667D01*
X79867Y-62628D01*
X79821Y-62604D01*
X79769Y-62600D01*
X79720Y-62616D01*
X79420Y-62713D01*
X79381Y-62747D01*
X79358Y-62793D01*
X79354Y-62845D01*
X79369Y-62894D01*
X79414Y-63030D01*
X77855Y-63089D01*
X77461Y-62948D01*
X77555Y-62659D01*
X77551Y-62608D01*
X77528Y-62562D01*
X77488Y-62528D01*
X77439Y-62512D01*
X77140Y-62415D01*
X77116Y-62416D01*
X77117Y-62337D01*
X77068Y-62220D01*
X76979Y-62131D01*
X76863Y-62083D01*
X76737Y-62082D01*
X76620Y-62131D01*
X76531Y-62220D01*
X76483Y-62336D01*
X76483Y-62363D01*
X75648Y-61798D01*
X75411Y-61457D01*
X75663Y-61275D01*
X75690Y-61231D01*
X75698Y-61180D01*
X75686Y-61130D01*
X75655Y-61088D01*
X75470Y-60833D01*
X75426Y-60806D01*
X75375Y-60798D01*
X75325Y-60810D01*
X75283Y-60840D01*
X75154Y-60933D01*
X74610Y-59515D01*
X74628Y-59042D01*
X74630Y-59042D01*
X74945Y-59042D01*
X74993Y-59022D01*
X75030Y-58986D01*
X75050Y-58938D01*
X75050Y-58886D01*
X75050Y-58571D01*
X75030Y-58524D01*
X74993Y-58487D01*
X74946Y-58467D01*
X74894Y-58467D01*
X74762Y-58467D01*
X75168Y-57013D01*
X75406Y-56683D01*
X75497Y-56683D01*
X75677Y-56814D01*
X75727Y-56826D01*
X75779Y-56818D01*
X75823Y-56791D01*
X75853Y-56749D01*
X76038Y-56495D01*
X76050Y-56444D01*
X76042Y-56393D01*
X76015Y-56349D01*
X75974Y-56319D01*
X75719Y-56133D01*
X75668Y-56121D01*
X75617Y-56129D01*
X75573Y-56156D01*
X75543Y-56198D01*
X75494Y-56265D01*
X75299Y-56266D01*
X75284Y-56269D01*
X75279Y-56269D01*
X75318Y-56229D01*
X75366Y-56113D01*
X75367Y-55987D01*
X75318Y-55870D01*
X75229Y-55781D01*
X75153Y-55749D01*
X75152Y-55747D01*
X75125Y-55702D01*
X75084Y-55672D01*
X74829Y-55487D01*
X74779Y-55475D01*
X74727Y-55483D01*
X74700Y-55500D01*
X74668Y-55477D01*
X74638Y-55465D01*
X74605Y-55448D01*
X74598Y-55447D01*
X74593Y-55445D01*
X74564Y-55445D01*
X74524Y-55442D01*
X74516Y-55444D01*
X74511Y-55444D01*
X74487Y-55454D01*
X74446Y-55467D01*
X74440Y-55473D01*
X74436Y-55474D01*
X74418Y-55492D01*
X74385Y-55521D01*
X73939Y-56091D01*
X73938Y-56092D01*
X73938Y-56093D01*
X73935Y-56096D01*
X73922Y-56122D01*
X73900Y-56164D01*
X73125Y-58714D01*
X73122Y-58744D01*
X73116Y-58775D01*
X73116Y-59500D01*
X73123Y-59533D01*
X73127Y-59568D01*
X73976Y-62018D01*
X73988Y-62039D01*
X73991Y-62049D01*
X73998Y-62058D01*
X74003Y-62068D01*
X74453Y-62718D01*
X74478Y-62743D01*
X74505Y-62771D01*
X76655Y-64271D01*
X76680Y-64281D01*
X76704Y-64296D01*
X76707Y-64296D01*
X76709Y-64298D01*
X77449Y-64544D01*
X77450Y-64545D01*
X77452Y-64545D01*
X77459Y-64547D01*
X77484Y-64550D01*
X77531Y-64558D01*
X80102Y-64482D01*
X80103Y-64482D01*
X80107Y-64482D01*
X80111Y-64483D01*
X80123Y-64481D01*
X80131Y-64481D01*
X80139Y-64479D01*
X80148Y-64478D01*
X80184Y-64474D01*
X80934Y-64249D01*
X80967Y-64232D01*
X81002Y-64215D01*
X83053Y-62641D01*
X83075Y-62616D01*
X83086Y-62607D01*
X83536Y-62057D01*
X83574Y-61985D01*
X83574Y-61984D01*
X84349Y-59435D01*
X84351Y-59412D01*
X84358Y-59387D01*
X84357Y-59381D01*
X84358Y-59375D01*
X84358Y-58615D01*
X84359Y-58613D01*
X84359Y-61341D01*
X84256Y-61524D01*
X83999Y-61410D01*
X83948Y-61409D01*
X83899Y-61427D01*
X83862Y-61463D01*
X83841Y-61510D01*
X83713Y-61798D01*
X83711Y-61849D01*
X83730Y-61898D01*
X83765Y-61935D01*
X83813Y-61956D01*
X83954Y-62019D01*
X83119Y-63282D01*
X82781Y-63561D01*
X82587Y-63346D01*
X82540Y-63323D01*
X82488Y-63321D01*
X82440Y-63338D01*
X82401Y-63372D01*
X82167Y-63583D01*
X82145Y-63630D01*
X82142Y-63681D01*
X82159Y-63730D01*
X82194Y-63769D01*
X82310Y-63897D01*
X81013Y-64708D01*
X80603Y-64829D01*
X80509Y-64539D01*
X80475Y-64500D01*
X80429Y-64476D01*
X80378Y-64472D01*
X80328Y-64488D01*
X80029Y-64585D01*
X79989Y-64619D01*
X79966Y-64665D01*
X79962Y-64717D01*
X79978Y-64766D01*
X80034Y-64940D01*
X78502Y-65139D01*
X78094Y-65081D01*
X78125Y-64785D01*
X78110Y-64735D01*
X78078Y-64695D01*
X78032Y-64670D01*
X77981Y-64665D01*
X77667Y-64632D01*
X77618Y-64646D01*
X77578Y-64679D01*
X77553Y-64724D01*
X77548Y-64776D01*
X77529Y-64952D01*
X76569Y-64666D01*
X76567Y-64666D01*
X76034Y-64507D01*
X75698Y-64298D01*
X75847Y-64039D01*
X75854Y-63988D01*
X75841Y-63938D01*
X75809Y-63897D01*
X75765Y-63871D01*
X75492Y-63713D01*
X75441Y-63707D01*
X75391Y-63720D01*
X75350Y-63751D01*
X75324Y-63796D01*
X75236Y-63947D01*
X74008Y-62935D01*
X73811Y-62620D01*
X73815Y-62617D01*
X74070Y-62432D01*
X74097Y-62388D01*
X74105Y-62336D01*
X74093Y-62286D01*
X74063Y-62244D01*
X73878Y-61990D01*
X73834Y-61962D01*
X73783Y-61954D01*
X73732Y-61966D01*
X73690Y-61997D01*
X73534Y-62110D01*
X72875Y-60710D01*
X72800Y-60305D01*
X73100Y-60241D01*
X73143Y-60211D01*
X73171Y-60168D01*
X73181Y-60117D01*
X73170Y-60067D01*
X73104Y-59759D01*
X73075Y-59716D01*
X73032Y-59688D01*
X72981Y-59678D01*
X72930Y-59689D01*
X72748Y-59728D01*
X72709Y-58220D01*
X72806Y-57780D01*
X73106Y-57844D01*
X73156Y-57835D01*
X73200Y-57807D01*
X73229Y-57764D01*
X73240Y-57713D01*
X73305Y-57405D01*
X73296Y-57354D01*
X73268Y-57311D01*
X73225Y-57282D01*
X73175Y-57271D01*
X72998Y-57233D01*
X73604Y-55784D01*
X73839Y-55479D01*
X74085Y-55657D01*
X74135Y-55669D01*
X74186Y-55661D01*
X74230Y-55634D01*
X74261Y-55593D01*
X74446Y-55338D01*
X74458Y-55288D01*
X74450Y-55236D01*
X74423Y-55192D01*
X74381Y-55162D01*
X74230Y-55052D01*
X75347Y-53996D01*
X75718Y-53796D01*
X75869Y-54058D01*
X75910Y-54089D01*
X75960Y-54103D01*
X76011Y-54096D01*
X76056Y-54070D01*
X76329Y-53913D01*
X76360Y-53872D01*
X76374Y-53822D01*
X76367Y-53770D01*
X76341Y-53726D01*
X76184Y-53453D01*
X76143Y-53421D01*
X76093Y-53408D01*
X76077Y-53410D01*
X76058Y-53375D01*
X76031Y-53343D01*
X76006Y-53313D01*
X76006Y-53313D01*
X76006Y-53313D01*
X75967Y-53292D01*
X75934Y-53275D01*
X75934Y-53275D01*
X75934Y-53274D01*
X75889Y-53270D01*
X75853Y-53267D01*
X75853Y-53267D01*
X75853Y-53267D01*
X75809Y-53280D01*
X75776Y-53291D01*
X75775Y-53291D01*
X75775Y-53291D01*
X75775Y-53291D01*
X75126Y-53641D01*
X75106Y-53657D01*
X75081Y-53673D01*
X73913Y-54777D01*
X74966Y-53429D01*
X74986Y-53418D01*
X75259Y-53260D01*
X75291Y-53219D01*
X75304Y-53169D01*
X75297Y-53118D01*
X75272Y-53073D01*
X75147Y-52856D01*
X75169Y-52845D01*
X75319Y-53105D01*
X75360Y-53137D01*
X75410Y-53150D01*
X75461Y-53143D01*
X75506Y-53118D01*
X75779Y-52960D01*
X75810Y-52919D01*
X75824Y-52869D01*
X75817Y-52818D01*
X75791Y-52773D01*
X75634Y-52500D01*
X75593Y-52469D01*
X75543Y-52455D01*
X75526Y-52458D01*
X75508Y-52425D01*
X75487Y-52400D01*
X75457Y-52363D01*
X75456Y-52362D01*
X75456Y-52362D01*
X75441Y-52354D01*
X75385Y-52324D01*
X75384Y-52324D01*
X75383Y-52324D01*
X75379Y-52324D01*
X75304Y-52317D01*
X75226Y-52340D01*
X74526Y-52716D01*
X74502Y-52735D01*
X74481Y-52749D01*
X72780Y-54374D01*
X72771Y-54387D01*
X72759Y-54397D01*
X72334Y-54947D01*
X72321Y-54973D01*
X72306Y-54997D01*
X71476Y-57082D01*
X71462Y-57093D01*
X71460Y-57097D01*
X71457Y-57100D01*
X71442Y-57132D01*
X71424Y-57165D01*
X71224Y-57840D01*
X71221Y-57872D01*
X71216Y-57904D01*
X71268Y-60375D01*
X71266Y-60385D01*
X71271Y-60404D01*
X71272Y-60424D01*
X71447Y-61148D01*
X71455Y-61165D01*
X71460Y-61187D01*
X72368Y-63144D01*
X72368Y-63154D01*
X72371Y-63164D01*
X72372Y-63174D01*
X72385Y-63202D01*
X72395Y-63231D01*
X72402Y-63239D01*
X72406Y-63248D01*
X72882Y-63897D01*
X72896Y-63911D01*
X72913Y-63932D01*
X74638Y-65432D01*
X74647Y-65437D01*
X74657Y-65447D01*
X74659Y-65448D01*
X74661Y-65449D01*
X75236Y-65824D01*
X75261Y-65834D01*
X75287Y-65849D01*
X77587Y-66574D01*
X77603Y-66576D01*
X77616Y-66581D01*
X77623Y-66580D01*
X77629Y-66582D01*
X78379Y-66657D01*
X78402Y-66655D01*
X78426Y-66657D01*
X80751Y-66355D01*
X80759Y-66352D01*
X80784Y-66350D01*
X81459Y-66150D01*
X81482Y-66137D01*
X81507Y-66129D01*
X83556Y-64902D01*
X83564Y-64895D01*
X83585Y-64883D01*
X84110Y-64433D01*
X84127Y-64412D01*
X84146Y-64394D01*
X85504Y-62440D01*
X85504Y-62439D01*
X85506Y-62437D01*
X85519Y-62418D01*
X85523Y-62410D01*
X85538Y-62390D01*
X85837Y-61764D01*
X85843Y-61743D01*
X85854Y-61716D01*
X86327Y-59391D01*
X86327Y-59380D01*
X86333Y-59350D01*
X86333Y-61535D01*
X86089Y-61456D01*
X86037Y-61460D01*
X85991Y-61483D01*
X85958Y-61522D01*
X85942Y-61572D01*
X85844Y-61871D01*
X85848Y-61923D01*
X85872Y-61969D01*
X85911Y-62002D01*
X85960Y-62018D01*
X86238Y-62109D01*
X85294Y-63841D01*
X85284Y-63825D01*
X85242Y-63794D01*
X84987Y-63609D01*
X84937Y-63597D01*
X84886Y-63605D01*
X84842Y-63632D01*
X84811Y-63674D01*
X84626Y-63928D01*
X84614Y-63979D01*
X84622Y-64030D01*
X84649Y-64074D01*
X84691Y-64104D01*
X84932Y-64280D01*
X83496Y-65642D01*
X83489Y-65613D01*
X83459Y-65572D01*
X83274Y-65317D01*
X83230Y-65290D01*
X83179Y-65282D01*
X83128Y-65294D01*
X83086Y-65324D01*
X82832Y-65509D01*
X82805Y-65553D01*
X82796Y-65604D01*
X82808Y-65655D01*
X82839Y-65696D01*
X83018Y-65943D01*
X82620Y-66125D01*
X82619Y-66126D01*
X82279Y-66281D01*
X82229Y-66231D01*
X82113Y-66183D01*
X81987Y-66182D01*
X81870Y-66231D01*
X81781Y-66320D01*
X81733Y-66436D01*
X81732Y-66532D01*
X81230Y-66762D01*
X81230Y-66760D01*
X81214Y-66711D01*
X81117Y-66412D01*
X81083Y-66372D01*
X81037Y-66349D01*
X80986Y-66345D01*
X80937Y-66360D01*
X80637Y-66458D01*
X80598Y-66491D01*
X80574Y-66537D01*
X80570Y-66589D01*
X80586Y-66638D01*
X80674Y-66909D01*
X78727Y-67151D01*
X78727Y-67101D01*
X78727Y-66786D01*
X78707Y-66738D01*
X78671Y-66702D01*
X78623Y-66682D01*
X78571Y-66682D01*
X78256Y-66682D01*
X78209Y-66701D01*
X78172Y-66738D01*
X78152Y-66786D01*
X78152Y-66837D01*
X78152Y-67130D01*
X76230Y-66739D01*
X76241Y-66703D01*
X76339Y-66404D01*
X76335Y-66352D01*
X76311Y-66306D01*
X76272Y-66273D01*
X76223Y-66257D01*
X75923Y-66159D01*
X75872Y-66163D01*
X75825Y-66187D01*
X75792Y-66226D01*
X75776Y-66275D01*
X75688Y-66546D01*
X73978Y-65587D01*
X74000Y-65557D01*
X74185Y-65302D01*
X74197Y-65252D01*
X74189Y-65201D01*
X74162Y-65157D01*
X74121Y-65126D01*
X73866Y-64941D01*
X73816Y-64929D01*
X73764Y-64937D01*
X73720Y-64964D01*
X73690Y-65006D01*
X73522Y-65237D01*
X72181Y-63804D01*
X72223Y-63774D01*
X72477Y-63589D01*
X72505Y-63545D01*
X72513Y-63494D01*
X72501Y-63443D01*
X72470Y-63401D01*
X72285Y-63147D01*
X72241Y-63120D01*
X72190Y-63111D01*
X72140Y-63123D01*
X72098Y-63154D01*
X71849Y-63334D01*
X71025Y-61534D01*
X71030Y-61534D01*
X71079Y-61517D01*
X71375Y-61410D01*
X71413Y-61375D01*
X71435Y-61329D01*
X71438Y-61277D01*
X71420Y-61228D01*
X71314Y-60932D01*
X71279Y-60894D01*
X71232Y-60872D01*
X71180Y-60869D01*
X71132Y-60887D01*
X70865Y-60983D01*
X70615Y-59031D01*
X70642Y-59042D01*
X70693Y-59042D01*
X71008Y-59042D01*
X71056Y-59022D01*
X71093Y-58986D01*
X71113Y-58938D01*
X71113Y-58886D01*
X71113Y-58571D01*
X71093Y-58524D01*
X71056Y-58487D01*
X71009Y-58467D01*
X70957Y-58467D01*
X70654Y-58467D01*
X71043Y-56541D01*
X71091Y-56556D01*
X71390Y-56654D01*
X71442Y-56650D01*
X71488Y-56626D01*
X71522Y-56587D01*
X71538Y-56538D01*
X71635Y-56238D01*
X71631Y-56187D01*
X71608Y-56140D01*
X71568Y-56107D01*
X71519Y-56091D01*
X71249Y-56003D01*
X72208Y-54294D01*
X72237Y-54315D01*
X72492Y-54500D01*
X72542Y-54512D01*
X72594Y-54504D01*
X72638Y-54477D01*
X72668Y-54436D01*
X72853Y-54181D01*
X72865Y-54130D01*
X72857Y-54079D01*
X72830Y-54035D01*
X72788Y-54005D01*
X72565Y-53842D01*
X73989Y-52491D01*
X73990Y-52496D01*
X74020Y-52538D01*
X74206Y-52792D01*
X74250Y-52819D01*
X74301Y-52828D01*
X74351Y-52816D01*
X74393Y-52785D01*
X74648Y-52600D01*
X74675Y-52556D01*
X74683Y-52505D01*
X74671Y-52455D01*
X74640Y-52413D01*
X74463Y-52169D01*
X76253Y-51303D01*
X76249Y-51349D01*
X76265Y-51398D01*
X76362Y-51698D01*
X76396Y-51737D01*
X76442Y-51761D01*
X76494Y-51765D01*
X76543Y-51749D01*
X76842Y-51651D01*
X76882Y-51618D01*
X76905Y-51572D01*
X76909Y-51520D01*
X76893Y-51471D01*
X76866Y-51387D01*
X76936Y-51416D01*
X77062Y-51417D01*
X77179Y-51368D01*
X77268Y-51279D01*
X77316Y-51163D01*
X77317Y-51037D01*
X77268Y-50920D01*
X77179Y-50831D01*
X77063Y-50783D01*
X76978Y-50782D01*
X76521Y-50326D01*
X76456Y-50125D01*
X76423Y-50086D01*
X76376Y-50062D01*
X76325Y-50058D01*
X76276Y-50074D01*
X76195Y-50100D01*
X75954Y-49928D01*
X77019Y-49715D01*
X79192Y-49465D01*
X79321Y-49491D01*
X79313Y-49493D01*
X79294Y-49494D01*
X79274Y-49503D01*
X79252Y-49509D01*
X79238Y-49520D01*
X79221Y-49528D01*
X79205Y-49545D01*
X79187Y-49558D01*
X79015Y-49753D01*
X78856Y-49753D01*
X78809Y-49772D01*
X78772Y-49809D01*
X78752Y-49857D01*
X78752Y-49908D01*
X78752Y-50057D01*
X78727Y-50032D01*
X78727Y-49857D01*
X78707Y-49809D01*
X78671Y-49772D01*
X78623Y-49753D01*
X78571Y-49753D01*
X78256Y-49753D01*
X78209Y-49772D01*
X78172Y-49809D01*
X78152Y-49857D01*
X78152Y-49908D01*
X78152Y-50223D01*
X78172Y-50271D01*
X78208Y-50308D01*
X78256Y-50328D01*
X78308Y-50328D01*
X78432Y-50328D01*
X78627Y-50522D01*
X78652Y-50539D01*
X78671Y-50556D01*
X78682Y-50560D01*
X78694Y-50568D01*
X78723Y-50573D01*
X78748Y-50582D01*
X79172Y-50636D01*
X79160Y-50646D01*
X78999Y-50853D01*
X78856Y-50853D01*
X78809Y-50872D01*
X78772Y-50909D01*
X78752Y-50957D01*
X78752Y-51008D01*
X78752Y-51323D01*
X78772Y-51371D01*
X78808Y-51408D01*
X78856Y-51428D01*
X78908Y-51428D01*
X79223Y-51428D01*
X79271Y-51408D01*
X79307Y-51371D01*
X79327Y-51324D01*
X79327Y-51272D01*
X79327Y-51111D01*
X79411Y-51003D01*
X81261Y-51349D01*
X81254Y-51357D01*
X81238Y-51406D01*
X81141Y-51705D01*
X81145Y-51757D01*
X81168Y-51803D01*
X81207Y-51837D01*
X81257Y-51853D01*
X81556Y-51950D01*
X81608Y-51946D01*
X81654Y-51923D01*
X81687Y-51883D01*
X81703Y-51834D01*
X81797Y-51546D01*
X83533Y-52496D01*
X83510Y-52511D01*
X83479Y-52552D01*
X83294Y-52807D01*
X83282Y-52857D01*
X83290Y-52908D01*
X83317Y-52953D01*
X83359Y-52983D01*
X83614Y-53168D01*
X83664Y-53180D01*
X83715Y-53172D01*
X83759Y-53145D01*
X83789Y-53103D01*
X83975Y-52849D01*
X83977Y-52837D01*
X85342Y-54295D01*
X85299Y-54305D01*
X85257Y-54335D01*
X85002Y-54521D01*
X84975Y-54565D01*
X84967Y-54616D01*
X84979Y-54666D01*
X85009Y-54708D01*
X85194Y-54963D01*
X85238Y-54990D01*
X85289Y-54998D01*
X85340Y-54986D01*
X85381Y-54955D01*
X85636Y-54770D01*
X85646Y-54755D01*
X86487Y-56567D01*
X86445Y-56564D01*
X86396Y-56580D01*
X86097Y-56677D01*
X86057Y-56711D01*
X86034Y-56757D01*
X86030Y-56809D01*
X86046Y-56858D01*
X86143Y-57157D01*
X86176Y-57197D01*
X86222Y-57220D01*
X86274Y-57224D01*
X86323Y-57208D01*
X86623Y-57111D01*
X86628Y-57107D01*
X86837Y-59067D01*
M02*
