G04 (created by PCBNEW (2013-jul-07)-stable) date tis  3 feb 2015 18:16:58*
%MOIN*%
G04 Gerber Fmt 3.4, Leading zero omitted, Abs format*
%FSLAX34Y34*%
G01*
G70*
G90*
G04 APERTURE LIST*
%ADD10C,0.00590551*%
%ADD11C,0.00295276*%
G04 APERTURE END LIST*
G54D10*
X77055Y-55173D02*
G75*
G03X77055Y-55173I-49J0D01*
G74*
G01*
X77701Y-54749D02*
G75*
G03X77701Y-54749I-360J0D01*
G74*
G01*
X77049Y-55632D02*
X78095Y-55292D01*
X78095Y-55292D02*
X77632Y-53865D01*
X77632Y-53865D02*
X76586Y-54205D01*
X76586Y-54205D02*
X77049Y-55632D01*
X73512Y-55777D02*
G75*
G03X73512Y-55777I-50J0D01*
G74*
G01*
X73845Y-55237D02*
G75*
G03X73845Y-55237I-360J0D01*
G74*
G01*
X73768Y-56122D02*
X74414Y-55232D01*
X74414Y-55232D02*
X73201Y-54351D01*
X73201Y-54351D02*
X72554Y-55241D01*
X72554Y-55241D02*
X73768Y-56122D01*
X72636Y-58206D02*
G75*
G03X72636Y-58206I-49J0D01*
G74*
G01*
X72746Y-57704D02*
G75*
G03X72746Y-57704I-360J0D01*
G74*
G01*
X73005Y-58398D02*
X73234Y-57322D01*
X73234Y-57322D02*
X71766Y-57010D01*
X71766Y-57010D02*
X71538Y-58086D01*
X71538Y-58086D02*
X73005Y-58398D01*
X72823Y-60783D02*
G75*
G03X72823Y-60783I-50J0D01*
G74*
G01*
X72746Y-60405D02*
G75*
G03X72746Y-60405I-360J0D01*
G74*
G01*
X73234Y-60787D02*
X73005Y-59711D01*
X73005Y-59711D02*
X71538Y-60023D01*
X71538Y-60023D02*
X71766Y-61099D01*
X71766Y-61099D02*
X73234Y-60787D01*
X74041Y-63060D02*
G75*
G03X74041Y-63060I-50J0D01*
G74*
G01*
X73845Y-62873D02*
G75*
G03X73845Y-62873I-360J0D01*
G74*
G01*
X74414Y-62877D02*
X73768Y-61987D01*
X73768Y-61987D02*
X72554Y-62869D01*
X72554Y-62869D02*
X73201Y-63759D01*
X73201Y-63759D02*
X74414Y-62877D01*
X76081Y-64645D02*
G75*
G03X76081Y-64645I-49J0D01*
G74*
G01*
X75852Y-64680D02*
G75*
G03X75852Y-64680I-360J0D01*
G74*
G01*
X76343Y-64306D02*
X75390Y-63756D01*
X75390Y-63756D02*
X74640Y-65055D01*
X74640Y-65055D02*
X75593Y-65605D01*
X75593Y-65605D02*
X76343Y-64306D01*
X78589Y-65264D02*
G75*
G03X78589Y-65264I-50J0D01*
G74*
G01*
X78421Y-65515D02*
G75*
G03X78421Y-65515I-360J0D01*
G74*
G01*
X78686Y-64827D02*
X77592Y-64712D01*
X77592Y-64712D02*
X77435Y-66204D01*
X77435Y-66204D02*
X78529Y-66319D01*
X78529Y-66319D02*
X78686Y-64827D01*
X81132Y-64808D02*
G75*
G03X81132Y-64808I-49J0D01*
G74*
G01*
X81108Y-65233D02*
G75*
G03X81108Y-65233I-360J0D01*
G74*
G01*
X81038Y-64349D02*
X79992Y-64689D01*
X79992Y-64689D02*
X80456Y-66116D01*
X80456Y-66116D02*
X81502Y-65776D01*
X81502Y-65776D02*
X81038Y-64349D01*
X83270Y-63358D02*
G75*
G03X83270Y-63358I-50J0D01*
G74*
G01*
X83447Y-63882D02*
G75*
G03X83447Y-63882I-360J0D01*
G74*
G01*
X82993Y-62957D02*
X82176Y-63693D01*
X82176Y-63693D02*
X83180Y-64808D01*
X83180Y-64808D02*
X83997Y-64072D01*
X83997Y-64072D02*
X82993Y-62957D01*
X84633Y-61164D02*
G75*
G03X84633Y-61164I-50J0D01*
G74*
G01*
X85035Y-61697D02*
G75*
G03X85035Y-61697I-360J0D01*
G74*
G01*
X84213Y-60889D02*
X83765Y-61894D01*
X83765Y-61894D02*
X85136Y-62504D01*
X85136Y-62504D02*
X85583Y-61499D01*
X85583Y-61499D02*
X84213Y-60889D01*
X83017Y-58605D02*
G75*
G03X83017Y-58605I-50J0D01*
G74*
G01*
X83628Y-59055D02*
G75*
G03X83628Y-59055I-360J0D01*
G74*
G01*
X82517Y-58505D02*
X82517Y-59605D01*
X82517Y-59605D02*
X84017Y-59605D01*
X84017Y-59605D02*
X84017Y-58505D01*
X84017Y-58505D02*
X82517Y-58505D01*
X81945Y-56205D02*
G75*
G03X81945Y-56205I-50J0D01*
G74*
G01*
X82763Y-56393D02*
G75*
G03X82763Y-56393I-360J0D01*
G74*
G01*
X81473Y-56389D02*
X82119Y-57279D01*
X82119Y-57279D02*
X83333Y-56397D01*
X83333Y-56397D02*
X82686Y-55507D01*
X82686Y-55507D02*
X81473Y-56389D01*
X79668Y-54895D02*
G75*
G03X79668Y-54895I-50J0D01*
G74*
G01*
X80499Y-54749D02*
G75*
G03X80499Y-54749I-360J0D01*
G74*
G01*
X79384Y-55292D02*
X80430Y-55632D01*
X80430Y-55632D02*
X80894Y-54205D01*
X80894Y-54205D02*
X79848Y-53865D01*
X79848Y-53865D02*
X79384Y-55292D01*
X75302Y-53914D02*
G75*
G03X75302Y-53914I-49J0D01*
G74*
G01*
X75852Y-53429D02*
G75*
G03X75852Y-53429I-360J0D01*
G74*
G01*
X75390Y-54354D02*
X76343Y-53804D01*
X76343Y-53804D02*
X75593Y-52505D01*
X75593Y-52505D02*
X74640Y-53055D01*
X74640Y-53055D02*
X75390Y-54354D01*
X75105Y-56934D02*
G75*
G03X75105Y-56934I-50J0D01*
G74*
G01*
X75437Y-56393D02*
G75*
G03X75437Y-56393I-360J0D01*
G74*
G01*
X75360Y-57279D02*
X76007Y-56389D01*
X76007Y-56389D02*
X74793Y-55507D01*
X74793Y-55507D02*
X74147Y-56397D01*
X74147Y-56397D02*
X75360Y-57279D01*
X74562Y-59505D02*
G75*
G03X74562Y-59505I-50J0D01*
G74*
G01*
X74573Y-59055D02*
G75*
G03X74573Y-59055I-360J0D01*
G74*
G01*
X74962Y-59605D02*
X74962Y-58505D01*
X74962Y-58505D02*
X73462Y-58505D01*
X73462Y-58505D02*
X73462Y-59605D01*
X73462Y-59605D02*
X74962Y-59605D01*
X75634Y-61904D02*
G75*
G03X75634Y-61904I-50J0D01*
G74*
G01*
X75437Y-61716D02*
G75*
G03X75437Y-61716I-360J0D01*
G74*
G01*
X76007Y-61720D02*
X75360Y-60830D01*
X75360Y-60830D02*
X74147Y-61712D01*
X74147Y-61712D02*
X74793Y-62602D01*
X74793Y-62602D02*
X76007Y-61720D01*
X77911Y-63214D02*
G75*
G03X77911Y-63214I-50J0D01*
G74*
G01*
X77701Y-63361D02*
G75*
G03X77701Y-63361I-360J0D01*
G74*
G01*
X78095Y-62817D02*
X77049Y-62477D01*
X77049Y-62477D02*
X76586Y-63904D01*
X76586Y-63904D02*
X77632Y-64244D01*
X77632Y-64244D02*
X78095Y-62817D01*
X80524Y-62936D02*
G75*
G03X80524Y-62936I-49J0D01*
G74*
G01*
X80499Y-63361D02*
G75*
G03X80499Y-63361I-360J0D01*
G74*
G01*
X80430Y-62477D02*
X79384Y-62817D01*
X79384Y-62817D02*
X79848Y-64244D01*
X79848Y-64244D02*
X80894Y-63904D01*
X80894Y-63904D02*
X80430Y-62477D01*
X82474Y-61176D02*
G75*
G03X82474Y-61176I-50J0D01*
G74*
G01*
X82763Y-61716D02*
G75*
G03X82763Y-61716I-360J0D01*
G74*
G01*
X82119Y-60830D02*
X81473Y-61720D01*
X81473Y-61720D02*
X82686Y-62602D01*
X82686Y-62602D02*
X83333Y-61712D01*
X83333Y-61712D02*
X82119Y-60830D01*
X80753Y-58605D02*
G75*
G03X80753Y-58605I-50J0D01*
G74*
G01*
X81364Y-59055D02*
G75*
G03X81364Y-59055I-360J0D01*
G74*
G01*
X80253Y-58505D02*
X80253Y-59605D01*
X80253Y-59605D02*
X81753Y-59605D01*
X81753Y-59605D02*
X81753Y-58505D01*
X81753Y-58505D02*
X80253Y-58505D01*
X78969Y-57048D02*
G75*
G03X78969Y-57048I-50J0D01*
G74*
G01*
X79800Y-56901D02*
G75*
G03X79800Y-56901I-360J0D01*
G74*
G01*
X78684Y-57445D02*
X79731Y-57785D01*
X79731Y-57785D02*
X80194Y-56358D01*
X80194Y-56358D02*
X79148Y-56018D01*
X79148Y-56018D02*
X78684Y-57445D01*
X76936Y-58264D02*
G75*
G03X76936Y-58264I-50J0D01*
G74*
G01*
X77269Y-57724D02*
G75*
G03X77269Y-57724I-360J0D01*
G74*
G01*
X77192Y-58610D02*
X77838Y-57720D01*
X77838Y-57720D02*
X76625Y-56838D01*
X76625Y-56838D02*
X75978Y-57728D01*
X75978Y-57728D02*
X77192Y-58610D01*
X77465Y-60573D02*
G75*
G03X77465Y-60573I-50J0D01*
G74*
G01*
X77269Y-60385D02*
G75*
G03X77269Y-60385I-360J0D01*
G74*
G01*
X77838Y-60389D02*
X77192Y-59500D01*
X77192Y-59500D02*
X75978Y-60381D01*
X75978Y-60381D02*
X76625Y-61271D01*
X76625Y-61271D02*
X77838Y-60389D01*
X79825Y-60783D02*
G75*
G03X79825Y-60783I-49J0D01*
G74*
G01*
X79800Y-61208D02*
G75*
G03X79800Y-61208I-360J0D01*
G74*
G01*
X79731Y-60325D02*
X78684Y-60664D01*
X78684Y-60664D02*
X79148Y-62091D01*
X79148Y-62091D02*
X80194Y-61751D01*
X80194Y-61751D02*
X79731Y-60325D01*
X78269Y-59201D02*
G75*
G03X78269Y-59201I-50J0D01*
G74*
G01*
X79100Y-59055D02*
G75*
G03X79100Y-59055I-360J0D01*
G74*
G01*
X77985Y-59598D02*
X79031Y-59938D01*
X79031Y-59938D02*
X79495Y-58511D01*
X79495Y-58511D02*
X78448Y-58171D01*
X78448Y-58171D02*
X77985Y-59598D01*
X74355Y-65924D02*
G75*
G03X74355Y-65924I-50J0D01*
G74*
G01*
X74125Y-65903D02*
G75*
G03X74125Y-65903I-360J0D01*
G74*
G01*
X74650Y-65619D02*
X73760Y-64973D01*
X73760Y-64973D02*
X72879Y-66186D01*
X72879Y-66186D02*
X73769Y-66833D01*
X73769Y-66833D02*
X74650Y-65619D01*
X86416Y-56104D02*
G75*
G03X86416Y-56104I-49J0D01*
G74*
G01*
X87151Y-56439D02*
G75*
G03X87151Y-56439I-360J0D01*
G74*
G01*
X85907Y-56148D02*
X86247Y-57194D01*
X86247Y-57194D02*
X87673Y-56730D01*
X87673Y-56730D02*
X87333Y-55684D01*
X87333Y-55684D02*
X85907Y-56148D01*
X85130Y-53892D02*
G75*
G03X85130Y-53892I-50J0D01*
G74*
G01*
X85948Y-54079D02*
G75*
G03X85948Y-54079I-360J0D01*
G74*
G01*
X84658Y-54075D02*
X85304Y-54965D01*
X85304Y-54965D02*
X86518Y-54084D01*
X86518Y-54084D02*
X85871Y-53194D01*
X85871Y-53194D02*
X84658Y-54075D01*
X83224Y-52185D02*
G75*
G03X83224Y-52185I-50J0D01*
G74*
G01*
X84075Y-52207D02*
G75*
G03X84075Y-52207I-360J0D01*
G74*
G01*
X82829Y-52490D02*
X83719Y-53137D01*
X83719Y-53137D02*
X84601Y-51923D01*
X84601Y-51923D02*
X83711Y-51277D01*
X83711Y-51277D02*
X82829Y-52490D01*
X80885Y-51150D02*
G75*
G03X80885Y-51150I-50J0D01*
G74*
G01*
X81716Y-51004D02*
G75*
G03X81716Y-51004I-360J0D01*
G74*
G01*
X80601Y-51548D02*
X81647Y-51887D01*
X81647Y-51887D02*
X82110Y-50461D01*
X82110Y-50461D02*
X81064Y-50121D01*
X81064Y-50121D02*
X80601Y-51548D01*
X78340Y-50890D02*
G75*
G03X78340Y-50890I-50J0D01*
G74*
G01*
X79100Y-50590D02*
G75*
G03X79100Y-50590I-360J0D01*
G74*
G01*
X78190Y-51340D02*
X79290Y-51340D01*
X79290Y-51340D02*
X79290Y-49840D01*
X79290Y-49840D02*
X78190Y-49840D01*
X78190Y-49840D02*
X78190Y-51340D01*
X75839Y-51429D02*
G75*
G03X75839Y-51429I-49J0D01*
G74*
G01*
X76484Y-51004D02*
G75*
G03X76484Y-51004I-360J0D01*
G74*
G01*
X75833Y-51887D02*
X76879Y-51548D01*
X76879Y-51548D02*
X76415Y-50121D01*
X76415Y-50121D02*
X75369Y-50461D01*
X75369Y-50461D02*
X75833Y-51887D01*
X73627Y-52714D02*
G75*
G03X73627Y-52714I-50J0D01*
G74*
G01*
X74125Y-52207D02*
G75*
G03X74125Y-52207I-360J0D01*
G74*
G01*
X73760Y-53137D02*
X74650Y-52490D01*
X74650Y-52490D02*
X73769Y-51277D01*
X73769Y-51277D02*
X72879Y-51923D01*
X72879Y-51923D02*
X73760Y-53137D01*
X71920Y-54620D02*
G75*
G03X71920Y-54620I-50J0D01*
G74*
G01*
X72252Y-54079D02*
G75*
G03X72252Y-54079I-360J0D01*
G74*
G01*
X72175Y-54965D02*
X72822Y-54075D01*
X72822Y-54075D02*
X71608Y-53194D01*
X71608Y-53194D02*
X70962Y-54084D01*
X70962Y-54084D02*
X72175Y-54965D01*
X70886Y-56960D02*
G75*
G03X70886Y-56960I-50J0D01*
G74*
G01*
X71050Y-56439D02*
G75*
G03X71050Y-56439I-360J0D01*
G74*
G01*
X71233Y-57194D02*
X71573Y-56148D01*
X71573Y-56148D02*
X70146Y-55684D01*
X70146Y-55684D02*
X69806Y-56730D01*
X69806Y-56730D02*
X71233Y-57194D01*
X70625Y-59505D02*
G75*
G03X70625Y-59505I-50J0D01*
G74*
G01*
X70636Y-59055D02*
G75*
G03X70636Y-59055I-360J0D01*
G74*
G01*
X71025Y-59605D02*
X71025Y-58505D01*
X71025Y-58505D02*
X69525Y-58505D01*
X69525Y-58505D02*
X69525Y-59605D01*
X69525Y-59605D02*
X71025Y-59605D01*
X71174Y-61992D02*
G75*
G03X71174Y-61992I-50J0D01*
G74*
G01*
X71050Y-61670D02*
G75*
G03X71050Y-61670I-360J0D01*
G74*
G01*
X71581Y-61934D02*
X71209Y-60899D01*
X71209Y-60899D02*
X69797Y-61407D01*
X69797Y-61407D02*
X70170Y-62442D01*
X70170Y-62442D02*
X71581Y-61934D01*
X72449Y-64218D02*
G75*
G03X72449Y-64218I-50J0D01*
G74*
G01*
X72252Y-64030D02*
G75*
G03X72252Y-64030I-360J0D01*
G74*
G01*
X72822Y-64034D02*
X72175Y-63144D01*
X72175Y-63144D02*
X70962Y-64026D01*
X70962Y-64026D02*
X71608Y-64916D01*
X71608Y-64916D02*
X72822Y-64034D01*
X86954Y-58605D02*
G75*
G03X86954Y-58605I-50J0D01*
G74*
G01*
X87565Y-59055D02*
G75*
G03X87565Y-59055I-360J0D01*
G74*
G01*
X86454Y-58505D02*
X86454Y-59605D01*
X86454Y-59605D02*
X87954Y-59605D01*
X87954Y-59605D02*
X87954Y-58505D01*
X87954Y-58505D02*
X86454Y-58505D01*
X76695Y-66959D02*
G75*
G03X76695Y-66959I-50J0D01*
G74*
G01*
X76484Y-67105D02*
G75*
G03X76484Y-67105I-360J0D01*
G74*
G01*
X76879Y-66562D02*
X75833Y-66222D01*
X75833Y-66222D02*
X75369Y-67648D01*
X75369Y-67648D02*
X76415Y-67988D01*
X76415Y-67988D02*
X76879Y-66562D01*
X79240Y-67219D02*
G75*
G03X79240Y-67219I-50J0D01*
G74*
G01*
X79100Y-67519D02*
G75*
G03X79100Y-67519I-360J0D01*
G74*
G01*
X79290Y-66769D02*
X78190Y-66769D01*
X78190Y-66769D02*
X78190Y-68269D01*
X78190Y-68269D02*
X79290Y-68269D01*
X79290Y-68269D02*
X79290Y-66769D01*
X81741Y-66681D02*
G75*
G03X81741Y-66681I-49J0D01*
G74*
G01*
X81716Y-67105D02*
G75*
G03X81716Y-67105I-360J0D01*
G74*
G01*
X81647Y-66222D02*
X80601Y-66562D01*
X80601Y-66562D02*
X81064Y-67988D01*
X81064Y-67988D02*
X82110Y-67648D01*
X82110Y-67648D02*
X81647Y-66222D01*
X83953Y-65395D02*
G75*
G03X83953Y-65395I-50J0D01*
G74*
G01*
X84075Y-65903D02*
G75*
G03X84075Y-65903I-360J0D01*
G74*
G01*
X83719Y-64973D02*
X82829Y-65619D01*
X82829Y-65619D02*
X83711Y-66833D01*
X83711Y-66833D02*
X84601Y-66186D01*
X84601Y-66186D02*
X83719Y-64973D01*
X85659Y-63489D02*
G75*
G03X85659Y-63489I-50J0D01*
G74*
G01*
X85948Y-64030D02*
G75*
G03X85948Y-64030I-360J0D01*
G74*
G01*
X85304Y-63144D02*
X84658Y-64034D01*
X84658Y-64034D02*
X85871Y-64916D01*
X85871Y-64916D02*
X86518Y-64026D01*
X86518Y-64026D02*
X85304Y-63144D01*
X86694Y-61150D02*
G75*
G03X86694Y-61150I-50J0D01*
G74*
G01*
X87151Y-61670D02*
G75*
G03X87151Y-61670I-360J0D01*
G74*
G01*
X86247Y-60916D02*
X85907Y-61962D01*
X85907Y-61962D02*
X87333Y-62425D01*
X87333Y-62425D02*
X87673Y-61379D01*
X87673Y-61379D02*
X86247Y-60916D01*
X84986Y-58605D02*
G75*
G03X84986Y-58605I-50J0D01*
G74*
G01*
X85596Y-59055D02*
G75*
G03X85596Y-59055I-360J0D01*
G74*
G01*
X84486Y-58505D02*
X84486Y-59605D01*
X84486Y-59605D02*
X85986Y-59605D01*
X85986Y-59605D02*
X85986Y-58505D01*
X85986Y-58505D02*
X84486Y-58505D01*
X84267Y-56123D02*
G75*
G03X84267Y-56123I-50J0D01*
G74*
G01*
X85035Y-56412D02*
G75*
G03X85035Y-56412I-360J0D01*
G74*
G01*
X83765Y-56215D02*
X84213Y-57220D01*
X84213Y-57220D02*
X85583Y-56610D01*
X85583Y-56610D02*
X85136Y-55605D01*
X85136Y-55605D02*
X83765Y-56215D01*
X82601Y-54149D02*
G75*
G03X82601Y-54149I-49J0D01*
G74*
G01*
X83447Y-54227D02*
G75*
G03X83447Y-54227I-360J0D01*
G74*
G01*
X82176Y-54416D02*
X82993Y-55152D01*
X82993Y-55152D02*
X83997Y-54038D01*
X83997Y-54038D02*
X83180Y-53302D01*
X83180Y-53302D02*
X82176Y-54416D01*
X80276Y-53023D02*
G75*
G03X80276Y-53023I-50J0D01*
G74*
G01*
X81108Y-52877D02*
G75*
G03X81108Y-52877I-360J0D01*
G74*
G01*
X79992Y-53420D02*
X81038Y-53760D01*
X81038Y-53760D02*
X81502Y-52333D01*
X81502Y-52333D02*
X80456Y-51993D01*
X80456Y-51993D02*
X79992Y-53420D01*
X77694Y-52939D02*
G75*
G03X77694Y-52939I-50J0D01*
G74*
G01*
X78421Y-52594D02*
G75*
G03X78421Y-52594I-360J0D01*
G74*
G01*
X77592Y-53397D02*
X78686Y-53282D01*
X78686Y-53282D02*
X78529Y-51791D01*
X78529Y-51791D02*
X77435Y-51906D01*
X77435Y-51906D02*
X77592Y-53397D01*
G54D11*
X76537Y-54859D02*
X76650Y-54822D01*
X76658Y-54849D01*
X76658Y-54867D01*
X76651Y-54881D01*
X76642Y-54890D01*
X76622Y-54902D01*
X76606Y-54907D01*
X76583Y-54909D01*
X76571Y-54907D01*
X76557Y-54900D01*
X76546Y-54886D01*
X76537Y-54859D01*
X76683Y-54924D02*
X76705Y-54994D01*
X76650Y-54970D01*
X76656Y-54986D01*
X76654Y-54998D01*
X76650Y-55006D01*
X76641Y-55014D01*
X76614Y-55023D01*
X76602Y-55021D01*
X76595Y-55018D01*
X76586Y-55009D01*
X76576Y-54977D01*
X76577Y-54964D01*
X76581Y-54957D01*
X76610Y-55084D02*
X76617Y-55105D01*
X76626Y-55114D01*
X76633Y-55117D01*
X76653Y-55123D01*
X76676Y-55121D01*
X76719Y-55107D01*
X76728Y-55099D01*
X76731Y-55092D01*
X76733Y-55079D01*
X76726Y-55058D01*
X76717Y-55049D01*
X76710Y-55045D01*
X76698Y-55043D01*
X76671Y-55052D01*
X76662Y-55061D01*
X76659Y-55068D01*
X76657Y-55080D01*
X76664Y-55102D01*
X76672Y-55111D01*
X76679Y-55114D01*
X76692Y-55116D01*
X77916Y-54248D02*
X77899Y-54195D01*
X78011Y-54158D01*
X77987Y-54267D02*
X77999Y-54304D01*
X77946Y-54339D02*
X77928Y-54286D01*
X78041Y-54249D01*
X78058Y-54303D01*
X77961Y-54387D02*
X78074Y-54351D01*
X78082Y-54378D01*
X78082Y-54395D01*
X78075Y-54410D01*
X78066Y-54418D01*
X78046Y-54431D01*
X78030Y-54436D01*
X78007Y-54437D01*
X77995Y-54436D01*
X77981Y-54428D01*
X77970Y-54414D01*
X77961Y-54387D01*
X77978Y-54476D02*
X78006Y-54562D01*
X78047Y-54649D02*
X78088Y-54595D01*
X78026Y-54585D02*
X78138Y-54549D01*
X78152Y-54592D01*
X78150Y-54604D01*
X78146Y-54611D01*
X78137Y-54620D01*
X78121Y-54625D01*
X78109Y-54623D01*
X78102Y-54620D01*
X78093Y-54611D01*
X78079Y-54568D01*
X78188Y-54722D02*
X78190Y-54709D01*
X78185Y-54693D01*
X78174Y-54679D01*
X78160Y-54672D01*
X78148Y-54670D01*
X78125Y-54671D01*
X78109Y-54677D01*
X78089Y-54689D01*
X78080Y-54698D01*
X78073Y-54712D01*
X78073Y-54730D01*
X78076Y-54740D01*
X78087Y-54755D01*
X78094Y-54758D01*
X78131Y-54746D01*
X78124Y-54725D01*
X78170Y-54828D02*
X78170Y-54846D01*
X78166Y-54853D01*
X78157Y-54862D01*
X78141Y-54867D01*
X78128Y-54865D01*
X78121Y-54862D01*
X78113Y-54853D01*
X78099Y-54810D01*
X78211Y-54773D01*
X78223Y-54811D01*
X78221Y-54823D01*
X78218Y-54830D01*
X78209Y-54839D01*
X78198Y-54843D01*
X78186Y-54841D01*
X78178Y-54837D01*
X78170Y-54828D01*
X78157Y-54791D01*
X72899Y-55798D02*
X72969Y-55702D01*
X72991Y-55719D01*
X73002Y-55733D01*
X73004Y-55749D01*
X73002Y-55761D01*
X72993Y-55783D01*
X72984Y-55796D01*
X72966Y-55811D01*
X72955Y-55817D01*
X72939Y-55820D01*
X72922Y-55814D01*
X72899Y-55798D01*
X73053Y-55777D02*
X73061Y-55776D01*
X73073Y-55778D01*
X73096Y-55795D01*
X73102Y-55806D01*
X73103Y-55814D01*
X73101Y-55826D01*
X73094Y-55835D01*
X73080Y-55846D01*
X72986Y-55860D01*
X73045Y-55903D01*
X73146Y-55831D02*
X73210Y-55877D01*
X73099Y-55943D01*
X73656Y-54493D02*
X73610Y-54460D01*
X73680Y-54365D01*
X73724Y-54466D02*
X73756Y-54489D01*
X73733Y-54549D02*
X73688Y-54516D01*
X73757Y-54421D01*
X73803Y-54454D01*
X73774Y-54579D02*
X73843Y-54484D01*
X73866Y-54500D01*
X73877Y-54515D01*
X73879Y-54530D01*
X73877Y-54543D01*
X73868Y-54564D01*
X73858Y-54578D01*
X73841Y-54593D01*
X73829Y-54599D01*
X73814Y-54601D01*
X73797Y-54596D01*
X73774Y-54579D01*
X73840Y-54641D02*
X73913Y-54694D01*
X73997Y-54741D02*
X73998Y-54673D01*
X73942Y-54701D02*
X74012Y-54606D01*
X74048Y-54632D01*
X74054Y-54644D01*
X74055Y-54651D01*
X74053Y-54664D01*
X74043Y-54677D01*
X74032Y-54683D01*
X74024Y-54684D01*
X74012Y-54682D01*
X73975Y-54656D01*
X74154Y-54716D02*
X74148Y-54705D01*
X74135Y-54695D01*
X74118Y-54690D01*
X74102Y-54692D01*
X74091Y-54698D01*
X74073Y-54713D01*
X74063Y-54727D01*
X74054Y-54748D01*
X74052Y-54761D01*
X74055Y-54776D01*
X74065Y-54791D01*
X74074Y-54797D01*
X74091Y-54803D01*
X74099Y-54801D01*
X74122Y-54770D01*
X74104Y-54756D01*
X74202Y-54813D02*
X74212Y-54828D01*
X74213Y-54836D01*
X74211Y-54848D01*
X74201Y-54862D01*
X74190Y-54868D01*
X74182Y-54869D01*
X74170Y-54867D01*
X74133Y-54840D01*
X74203Y-54745D01*
X74235Y-54768D01*
X74241Y-54779D01*
X74242Y-54787D01*
X74240Y-54799D01*
X74233Y-54808D01*
X74222Y-54814D01*
X74214Y-54815D01*
X74202Y-54813D01*
X74170Y-54790D01*
X72080Y-58454D02*
X72104Y-58339D01*
X72132Y-58345D01*
X72147Y-58354D01*
X72156Y-58367D01*
X72159Y-58379D01*
X72160Y-58402D01*
X72156Y-58419D01*
X72146Y-58440D01*
X72138Y-58450D01*
X72125Y-58458D01*
X72107Y-58460D01*
X72080Y-58454D01*
X72212Y-58373D02*
X72218Y-58369D01*
X72231Y-58366D01*
X72258Y-58372D01*
X72268Y-58379D01*
X72272Y-58386D01*
X72275Y-58398D01*
X72273Y-58409D01*
X72264Y-58425D01*
X72184Y-58477D01*
X72256Y-58492D01*
X72336Y-58440D02*
X72326Y-58432D01*
X72321Y-58425D01*
X72318Y-58413D01*
X72319Y-58408D01*
X72327Y-58398D01*
X72334Y-58393D01*
X72346Y-58390D01*
X72368Y-58395D01*
X72378Y-58403D01*
X72382Y-58409D01*
X72386Y-58422D01*
X72384Y-58427D01*
X72377Y-58437D01*
X72370Y-58441D01*
X72358Y-58444D01*
X72336Y-58440D01*
X72323Y-58443D01*
X72317Y-58447D01*
X72309Y-58457D01*
X72304Y-58479D01*
X72307Y-58491D01*
X72312Y-58498D01*
X72322Y-58506D01*
X72344Y-58511D01*
X72356Y-58507D01*
X72362Y-58503D01*
X72370Y-58493D01*
X72375Y-58471D01*
X72372Y-58459D01*
X72367Y-58452D01*
X72358Y-58444D01*
X72240Y-56955D02*
X72185Y-56943D01*
X72210Y-56828D01*
X72292Y-56903D02*
X72330Y-56911D01*
X72334Y-56975D02*
X72279Y-56963D01*
X72303Y-56848D01*
X72358Y-56859D01*
X72383Y-56985D02*
X72408Y-56870D01*
X72435Y-56876D01*
X72451Y-56885D01*
X72459Y-56898D01*
X72462Y-56910D01*
X72463Y-56933D01*
X72460Y-56950D01*
X72450Y-56971D01*
X72442Y-56981D01*
X72428Y-56989D01*
X72411Y-56991D01*
X72383Y-56985D01*
X72469Y-57015D02*
X72557Y-57034D01*
X72653Y-57043D02*
X72626Y-56980D01*
X72587Y-57029D02*
X72611Y-56913D01*
X72655Y-56923D01*
X72665Y-56930D01*
X72669Y-56937D01*
X72673Y-56949D01*
X72669Y-56966D01*
X72661Y-56976D01*
X72655Y-56980D01*
X72642Y-56983D01*
X72598Y-56974D01*
X72786Y-56956D02*
X72776Y-56948D01*
X72760Y-56945D01*
X72742Y-56947D01*
X72729Y-56955D01*
X72721Y-56965D01*
X72711Y-56986D01*
X72707Y-57003D01*
X72708Y-57026D01*
X72711Y-57038D01*
X72720Y-57051D01*
X72735Y-57060D01*
X72746Y-57063D01*
X72764Y-57061D01*
X72771Y-57056D01*
X72779Y-57018D01*
X72757Y-57013D01*
X72869Y-57025D02*
X72884Y-57034D01*
X72889Y-57041D01*
X72892Y-57053D01*
X72888Y-57070D01*
X72881Y-57080D01*
X72874Y-57084D01*
X72862Y-57087D01*
X72818Y-57078D01*
X72842Y-56962D01*
X72881Y-56970D01*
X72891Y-56978D01*
X72895Y-56985D01*
X72898Y-56997D01*
X72896Y-57008D01*
X72888Y-57018D01*
X72881Y-57022D01*
X72869Y-57025D01*
X72831Y-57017D01*
X72411Y-61216D02*
X72387Y-61100D01*
X72414Y-61094D01*
X72432Y-61096D01*
X72445Y-61105D01*
X72453Y-61115D01*
X72463Y-61136D01*
X72467Y-61152D01*
X72466Y-61175D01*
X72463Y-61187D01*
X72454Y-61201D01*
X72439Y-61210D01*
X72411Y-61216D01*
X72499Y-61088D02*
X72503Y-61081D01*
X72513Y-61073D01*
X72541Y-61067D01*
X72553Y-61070D01*
X72560Y-61075D01*
X72567Y-61085D01*
X72570Y-61096D01*
X72568Y-61113D01*
X72516Y-61193D01*
X72587Y-61178D01*
X72642Y-61166D02*
X72664Y-61162D01*
X72674Y-61154D01*
X72679Y-61147D01*
X72686Y-61128D01*
X72687Y-61105D01*
X72678Y-61061D01*
X72670Y-61051D01*
X72663Y-61047D01*
X72651Y-61044D01*
X72629Y-61049D01*
X72619Y-61056D01*
X72615Y-61063D01*
X72611Y-61075D01*
X72617Y-61103D01*
X72625Y-61113D01*
X72632Y-61117D01*
X72644Y-61120D01*
X72666Y-61115D01*
X72676Y-61108D01*
X72680Y-61101D01*
X72683Y-61089D01*
X71948Y-59781D02*
X71893Y-59792D01*
X71869Y-59677D01*
X71974Y-59712D02*
X72012Y-59704D01*
X72042Y-59761D02*
X71987Y-59772D01*
X71962Y-59657D01*
X72017Y-59645D01*
X72091Y-59750D02*
X72067Y-59635D01*
X72094Y-59629D01*
X72112Y-59631D01*
X72125Y-59639D01*
X72133Y-59649D01*
X72143Y-59670D01*
X72147Y-59687D01*
X72146Y-59710D01*
X72143Y-59722D01*
X72134Y-59735D01*
X72119Y-59744D01*
X72091Y-59750D01*
X72182Y-59742D02*
X72270Y-59724D01*
X72361Y-59693D02*
X72311Y-59646D01*
X72295Y-59707D02*
X72270Y-59591D01*
X72314Y-59582D01*
X72326Y-59585D01*
X72333Y-59589D01*
X72341Y-59599D01*
X72344Y-59616D01*
X72341Y-59628D01*
X72337Y-59635D01*
X72327Y-59642D01*
X72283Y-59652D01*
X72447Y-59559D02*
X72435Y-59556D01*
X72419Y-59560D01*
X72403Y-59569D01*
X72395Y-59582D01*
X72392Y-59594D01*
X72391Y-59617D01*
X72394Y-59634D01*
X72404Y-59655D01*
X72412Y-59665D01*
X72426Y-59673D01*
X72443Y-59675D01*
X72454Y-59673D01*
X72470Y-59664D01*
X72474Y-59657D01*
X72466Y-59619D01*
X72444Y-59623D01*
X72551Y-59589D02*
X72569Y-59591D01*
X72576Y-59595D01*
X72584Y-59605D01*
X72587Y-59622D01*
X72584Y-59634D01*
X72580Y-59641D01*
X72570Y-59648D01*
X72526Y-59658D01*
X72501Y-59542D01*
X72540Y-59534D01*
X72552Y-59537D01*
X72559Y-59542D01*
X72566Y-59551D01*
X72569Y-59562D01*
X72566Y-59575D01*
X72561Y-59581D01*
X72551Y-59589D01*
X72513Y-59597D01*
X73837Y-63602D02*
X73768Y-63507D01*
X73790Y-63490D01*
X73807Y-63485D01*
X73823Y-63488D01*
X73834Y-63493D01*
X73852Y-63508D01*
X73862Y-63522D01*
X73871Y-63543D01*
X73873Y-63556D01*
X73870Y-63571D01*
X73860Y-63586D01*
X73837Y-63602D01*
X73854Y-63444D02*
X73913Y-63401D01*
X73908Y-63461D01*
X73921Y-63451D01*
X73934Y-63449D01*
X73942Y-63450D01*
X73953Y-63456D01*
X73969Y-63478D01*
X73971Y-63491D01*
X73970Y-63499D01*
X73964Y-63510D01*
X73937Y-63530D01*
X73925Y-63532D01*
X73917Y-63531D01*
X73972Y-63358D02*
X73981Y-63352D01*
X73994Y-63349D01*
X74002Y-63351D01*
X74013Y-63357D01*
X74031Y-63371D01*
X74047Y-63394D01*
X74056Y-63416D01*
X74058Y-63428D01*
X74057Y-63436D01*
X74051Y-63447D01*
X74042Y-63454D01*
X74029Y-63456D01*
X74022Y-63455D01*
X74010Y-63449D01*
X73993Y-63434D01*
X73976Y-63411D01*
X73967Y-63390D01*
X73965Y-63377D01*
X73967Y-63369D01*
X73972Y-63358D01*
X72830Y-62480D02*
X72785Y-62513D01*
X72715Y-62417D01*
X72826Y-62407D02*
X72858Y-62384D01*
X72908Y-62424D02*
X72862Y-62457D01*
X72793Y-62361D01*
X72838Y-62328D01*
X72949Y-62394D02*
X72879Y-62298D01*
X72902Y-62282D01*
X72919Y-62276D01*
X72935Y-62279D01*
X72946Y-62285D01*
X72963Y-62300D01*
X72973Y-62313D01*
X72982Y-62335D01*
X72984Y-62347D01*
X72982Y-62363D01*
X72971Y-62377D01*
X72949Y-62394D01*
X73028Y-62350D02*
X73101Y-62297D01*
X73172Y-62232D02*
X73107Y-62210D01*
X73117Y-62272D02*
X73047Y-62176D01*
X73084Y-62150D01*
X73096Y-62148D01*
X73104Y-62149D01*
X73115Y-62155D01*
X73125Y-62168D01*
X73127Y-62181D01*
X73126Y-62188D01*
X73120Y-62200D01*
X73084Y-62226D01*
X73196Y-62075D02*
X73184Y-62077D01*
X73170Y-62087D01*
X73160Y-62101D01*
X73158Y-62117D01*
X73160Y-62129D01*
X73168Y-62151D01*
X73178Y-62165D01*
X73196Y-62179D01*
X73207Y-62185D01*
X73223Y-62188D01*
X73240Y-62182D01*
X73249Y-62176D01*
X73259Y-62161D01*
X73260Y-62153D01*
X73237Y-62122D01*
X73219Y-62135D01*
X73304Y-62060D02*
X73320Y-62054D01*
X73328Y-62055D01*
X73339Y-62061D01*
X73349Y-62075D01*
X73351Y-62087D01*
X73350Y-62095D01*
X73344Y-62106D01*
X73308Y-62133D01*
X73239Y-62037D01*
X73270Y-62014D01*
X73283Y-62012D01*
X73291Y-62013D01*
X73302Y-62019D01*
X73308Y-62028D01*
X73311Y-62041D01*
X73309Y-62048D01*
X73304Y-62060D01*
X73272Y-62083D01*
X76111Y-65203D02*
X76009Y-65144D01*
X76023Y-65120D01*
X76036Y-65108D01*
X76051Y-65104D01*
X76064Y-65105D01*
X76086Y-65111D01*
X76101Y-65120D01*
X76117Y-65136D01*
X76124Y-65146D01*
X76128Y-65162D01*
X76125Y-65179D01*
X76111Y-65203D01*
X76062Y-65052D02*
X76099Y-64988D01*
X76118Y-65045D01*
X76126Y-65030D01*
X76137Y-65023D01*
X76144Y-65021D01*
X76157Y-65022D01*
X76181Y-65036D01*
X76188Y-65047D01*
X76190Y-65054D01*
X76190Y-65067D01*
X76173Y-65096D01*
X76162Y-65103D01*
X76155Y-65105D01*
X76257Y-64950D02*
X76223Y-65008D01*
X76240Y-64979D02*
X76138Y-64920D01*
X76147Y-64938D01*
X76151Y-64954D01*
X76150Y-64966D01*
X74734Y-64587D02*
X74706Y-64636D01*
X74604Y-64577D01*
X74701Y-64522D02*
X74720Y-64488D01*
X74782Y-64504D02*
X74754Y-64553D01*
X74652Y-64494D01*
X74680Y-64445D01*
X74808Y-64461D02*
X74705Y-64402D01*
X74719Y-64377D01*
X74733Y-64365D01*
X74748Y-64361D01*
X74761Y-64362D01*
X74783Y-64368D01*
X74797Y-64377D01*
X74814Y-64393D01*
X74821Y-64403D01*
X74825Y-64419D01*
X74822Y-64436D01*
X74808Y-64461D01*
X74862Y-64388D02*
X74907Y-64310D01*
X74945Y-64222D02*
X74877Y-64228D01*
X74912Y-64280D02*
X74809Y-64221D01*
X74832Y-64182D01*
X74842Y-64175D01*
X74850Y-64173D01*
X74863Y-64174D01*
X74877Y-64183D01*
X74884Y-64193D01*
X74886Y-64201D01*
X74885Y-64213D01*
X74863Y-64252D01*
X74904Y-64068D02*
X74894Y-64075D01*
X74885Y-64090D01*
X74882Y-64107D01*
X74886Y-64123D01*
X74893Y-64133D01*
X74909Y-64149D01*
X74924Y-64158D01*
X74946Y-64164D01*
X74959Y-64165D01*
X74974Y-64161D01*
X74988Y-64149D01*
X74993Y-64139D01*
X74997Y-64122D01*
X74995Y-64114D01*
X74961Y-64094D01*
X74949Y-64114D01*
X74996Y-64011D02*
X75009Y-63999D01*
X75017Y-63997D01*
X75029Y-63998D01*
X75044Y-64006D01*
X75051Y-64017D01*
X75053Y-64024D01*
X75052Y-64037D01*
X75030Y-64076D01*
X74927Y-64017D01*
X74947Y-63983D01*
X74958Y-63976D01*
X74965Y-63974D01*
X74978Y-63974D01*
X74988Y-63980D01*
X74995Y-63991D01*
X74997Y-63998D01*
X74996Y-64011D01*
X74976Y-64045D01*
X78839Y-65741D02*
X78722Y-65729D01*
X78724Y-65701D01*
X78732Y-65685D01*
X78744Y-65675D01*
X78756Y-65670D01*
X78779Y-65667D01*
X78796Y-65669D01*
X78817Y-65677D01*
X78828Y-65684D01*
X78838Y-65696D01*
X78842Y-65713D01*
X78839Y-65741D01*
X78733Y-65623D02*
X78740Y-65550D01*
X78781Y-65594D01*
X78783Y-65577D01*
X78789Y-65566D01*
X78796Y-65561D01*
X78807Y-65557D01*
X78835Y-65560D01*
X78846Y-65567D01*
X78851Y-65573D01*
X78855Y-65585D01*
X78852Y-65618D01*
X78845Y-65629D01*
X78839Y-65634D01*
X78756Y-65506D02*
X78751Y-65500D01*
X78747Y-65488D01*
X78750Y-65460D01*
X78756Y-65450D01*
X78763Y-65445D01*
X78774Y-65440D01*
X78786Y-65442D01*
X78802Y-65449D01*
X78862Y-65523D01*
X78870Y-65450D01*
X77331Y-65738D02*
X77325Y-65794D01*
X77208Y-65782D01*
X77274Y-65693D02*
X77278Y-65654D01*
X77341Y-65643D02*
X77335Y-65699D01*
X77218Y-65687D01*
X77224Y-65631D01*
X77346Y-65593D02*
X77229Y-65581D01*
X77232Y-65553D01*
X77239Y-65536D01*
X77252Y-65526D01*
X77263Y-65522D01*
X77286Y-65519D01*
X77303Y-65520D01*
X77325Y-65528D01*
X77335Y-65535D01*
X77345Y-65548D01*
X77349Y-65565D01*
X77346Y-65593D01*
X77367Y-65505D02*
X77376Y-65415D01*
X77375Y-65319D02*
X77315Y-65352D01*
X77368Y-65386D02*
X77251Y-65374D01*
X77255Y-65329D01*
X77262Y-65318D01*
X77268Y-65313D01*
X77280Y-65309D01*
X77297Y-65311D01*
X77307Y-65317D01*
X77312Y-65324D01*
X77317Y-65335D01*
X77312Y-65380D01*
X77275Y-65195D02*
X77268Y-65206D01*
X77266Y-65223D01*
X77270Y-65240D01*
X77280Y-65252D01*
X77291Y-65259D01*
X77313Y-65267D01*
X77329Y-65269D01*
X77352Y-65266D01*
X77364Y-65261D01*
X77377Y-65251D01*
X77384Y-65235D01*
X77385Y-65224D01*
X77381Y-65206D01*
X77376Y-65200D01*
X77337Y-65196D01*
X77335Y-65218D01*
X77335Y-65105D02*
X77343Y-65089D01*
X77349Y-65084D01*
X77361Y-65080D01*
X77377Y-65082D01*
X77388Y-65088D01*
X77393Y-65094D01*
X77397Y-65106D01*
X77393Y-65151D01*
X77275Y-65139D01*
X77279Y-65099D01*
X77286Y-65089D01*
X77292Y-65084D01*
X77304Y-65079D01*
X77315Y-65081D01*
X77326Y-65087D01*
X77331Y-65094D01*
X77335Y-65105D01*
X77331Y-65145D01*
X81371Y-64879D02*
X81483Y-64843D01*
X81492Y-64869D01*
X81492Y-64887D01*
X81484Y-64901D01*
X81475Y-64910D01*
X81456Y-64923D01*
X81440Y-64928D01*
X81417Y-64929D01*
X81404Y-64927D01*
X81390Y-64920D01*
X81379Y-64906D01*
X81371Y-64879D01*
X81516Y-64944D02*
X81539Y-65014D01*
X81484Y-64990D01*
X81489Y-65006D01*
X81487Y-65019D01*
X81483Y-65026D01*
X81474Y-65035D01*
X81448Y-65043D01*
X81435Y-65042D01*
X81428Y-65038D01*
X81419Y-65029D01*
X81409Y-64997D01*
X81411Y-64984D01*
X81414Y-64977D01*
X81551Y-65051D02*
X81573Y-65121D01*
X81518Y-65097D01*
X81524Y-65113D01*
X81522Y-65126D01*
X81518Y-65133D01*
X81509Y-65142D01*
X81482Y-65150D01*
X81470Y-65149D01*
X81463Y-65145D01*
X81454Y-65136D01*
X81444Y-65104D01*
X81446Y-65091D01*
X81449Y-65084D01*
X79896Y-65196D02*
X79879Y-65142D01*
X79991Y-65106D01*
X79967Y-65214D02*
X79979Y-65251D01*
X79926Y-65287D02*
X79908Y-65233D01*
X80021Y-65197D01*
X80038Y-65250D01*
X79941Y-65335D02*
X80054Y-65298D01*
X80062Y-65325D01*
X80062Y-65343D01*
X80055Y-65357D01*
X80046Y-65366D01*
X80026Y-65378D01*
X80010Y-65383D01*
X79987Y-65385D01*
X79975Y-65383D01*
X79961Y-65376D01*
X79950Y-65361D01*
X79941Y-65335D01*
X79959Y-65424D02*
X79986Y-65509D01*
X80027Y-65597D02*
X80068Y-65542D01*
X80006Y-65533D02*
X80118Y-65496D01*
X80132Y-65539D01*
X80130Y-65551D01*
X80127Y-65558D01*
X80118Y-65567D01*
X80102Y-65572D01*
X80089Y-65571D01*
X80082Y-65567D01*
X80073Y-65558D01*
X80059Y-65515D01*
X80168Y-65669D02*
X80170Y-65657D01*
X80165Y-65641D01*
X80154Y-65626D01*
X80140Y-65619D01*
X80128Y-65617D01*
X80105Y-65619D01*
X80089Y-65624D01*
X80069Y-65636D01*
X80060Y-65645D01*
X80053Y-65659D01*
X80053Y-65677D01*
X80056Y-65688D01*
X80067Y-65702D01*
X80074Y-65706D01*
X80111Y-65693D01*
X80104Y-65672D01*
X80150Y-65776D02*
X80150Y-65793D01*
X80146Y-65800D01*
X80137Y-65809D01*
X80121Y-65814D01*
X80109Y-65813D01*
X80101Y-65809D01*
X80093Y-65800D01*
X80079Y-65757D01*
X80191Y-65721D01*
X80203Y-65758D01*
X80201Y-65771D01*
X80198Y-65778D01*
X80189Y-65787D01*
X80178Y-65790D01*
X80166Y-65788D01*
X80159Y-65785D01*
X80150Y-65776D01*
X80138Y-65738D01*
X83512Y-63306D02*
X83600Y-63227D01*
X83619Y-63248D01*
X83626Y-63264D01*
X83625Y-63280D01*
X83621Y-63291D01*
X83608Y-63311D01*
X83595Y-63322D01*
X83575Y-63333D01*
X83563Y-63336D01*
X83547Y-63335D01*
X83531Y-63327D01*
X83512Y-63306D01*
X83672Y-63306D02*
X83721Y-63360D01*
X83661Y-63361D01*
X83672Y-63374D01*
X83675Y-63386D01*
X83675Y-63394D01*
X83670Y-63406D01*
X83650Y-63424D01*
X83637Y-63428D01*
X83629Y-63427D01*
X83618Y-63423D01*
X83595Y-63398D01*
X83592Y-63386D01*
X83592Y-63378D01*
X83759Y-63462D02*
X83701Y-63515D01*
X83774Y-63411D02*
X83692Y-63447D01*
X83741Y-63501D01*
X82294Y-64194D02*
X82257Y-64153D01*
X82344Y-64074D01*
X82366Y-64182D02*
X82393Y-64212D01*
X82358Y-64266D02*
X82321Y-64224D01*
X82408Y-64145D01*
X82446Y-64187D01*
X82392Y-64303D02*
X82480Y-64224D01*
X82499Y-64245D01*
X82506Y-64261D01*
X82505Y-64277D01*
X82500Y-64289D01*
X82487Y-64308D01*
X82475Y-64319D01*
X82454Y-64330D01*
X82442Y-64334D01*
X82426Y-64333D01*
X82411Y-64324D01*
X82392Y-64303D01*
X82444Y-64378D02*
X82504Y-64444D01*
X82576Y-64508D02*
X82592Y-64441D01*
X82531Y-64458D02*
X82619Y-64379D01*
X82649Y-64412D01*
X82652Y-64424D01*
X82652Y-64432D01*
X82647Y-64444D01*
X82635Y-64455D01*
X82623Y-64459D01*
X82615Y-64458D01*
X82603Y-64454D01*
X82573Y-64420D01*
X82735Y-64516D02*
X82732Y-64504D01*
X82721Y-64492D01*
X82705Y-64483D01*
X82689Y-64482D01*
X82677Y-64485D01*
X82657Y-64496D01*
X82644Y-64508D01*
X82631Y-64527D01*
X82627Y-64538D01*
X82626Y-64554D01*
X82633Y-64571D01*
X82640Y-64579D01*
X82656Y-64588D01*
X82664Y-64588D01*
X82693Y-64562D01*
X82678Y-64545D01*
X82762Y-64621D02*
X82769Y-64638D01*
X82768Y-64645D01*
X82764Y-64657D01*
X82751Y-64668D01*
X82739Y-64672D01*
X82731Y-64671D01*
X82719Y-64667D01*
X82689Y-64633D01*
X82777Y-64554D01*
X82803Y-64584D01*
X82807Y-64596D01*
X82806Y-64604D01*
X82802Y-64615D01*
X82793Y-64623D01*
X82781Y-64626D01*
X82773Y-64626D01*
X82762Y-64621D01*
X82735Y-64592D01*
X84829Y-60997D02*
X84877Y-60889D01*
X84903Y-60900D01*
X84916Y-60912D01*
X84921Y-60927D01*
X84922Y-60940D01*
X84918Y-60963D01*
X84911Y-60978D01*
X84897Y-60996D01*
X84887Y-61004D01*
X84872Y-61010D01*
X84855Y-61008D01*
X84829Y-60997D01*
X84975Y-60932D02*
X85041Y-60962D01*
X84987Y-60987D01*
X85002Y-60994D01*
X85010Y-61004D01*
X85013Y-61011D01*
X85014Y-61024D01*
X85002Y-61050D01*
X84993Y-61058D01*
X84985Y-61060D01*
X84973Y-61061D01*
X84942Y-61047D01*
X84934Y-61038D01*
X84931Y-61030D01*
X85139Y-61006D02*
X85088Y-60983D01*
X85060Y-61032D01*
X85067Y-61029D01*
X85080Y-61028D01*
X85105Y-61040D01*
X85113Y-61050D01*
X85116Y-61057D01*
X85117Y-61070D01*
X85105Y-61095D01*
X85096Y-61103D01*
X85088Y-61106D01*
X85076Y-61107D01*
X85050Y-61095D01*
X85042Y-61086D01*
X85039Y-61078D01*
X84077Y-62304D02*
X84026Y-62281D01*
X84074Y-62174D01*
X84139Y-62264D02*
X84175Y-62280D01*
X84165Y-62343D02*
X84113Y-62320D01*
X84161Y-62212D01*
X84213Y-62235D01*
X84211Y-62364D02*
X84259Y-62256D01*
X84285Y-62267D01*
X84298Y-62279D01*
X84304Y-62294D01*
X84304Y-62307D01*
X84300Y-62330D01*
X84293Y-62345D01*
X84279Y-62363D01*
X84269Y-62371D01*
X84254Y-62377D01*
X84237Y-62375D01*
X84211Y-62364D01*
X84289Y-62411D02*
X84371Y-62447D01*
X84463Y-62476D02*
X84450Y-62409D01*
X84401Y-62448D02*
X84449Y-62341D01*
X84490Y-62359D01*
X84498Y-62369D01*
X84501Y-62376D01*
X84502Y-62389D01*
X84495Y-62404D01*
X84485Y-62412D01*
X84478Y-62415D01*
X84465Y-62415D01*
X84424Y-62397D01*
X84611Y-62419D02*
X84603Y-62409D01*
X84588Y-62402D01*
X84570Y-62401D01*
X84555Y-62406D01*
X84546Y-62414D01*
X84531Y-62433D01*
X84525Y-62448D01*
X84521Y-62471D01*
X84521Y-62483D01*
X84527Y-62498D01*
X84540Y-62510D01*
X84550Y-62515D01*
X84568Y-62517D01*
X84575Y-62514D01*
X84591Y-62478D01*
X84571Y-62469D01*
X84678Y-62504D02*
X84691Y-62516D01*
X84694Y-62523D01*
X84695Y-62536D01*
X84688Y-62551D01*
X84678Y-62559D01*
X84671Y-62562D01*
X84658Y-62563D01*
X84617Y-62545D01*
X84665Y-62437D01*
X84701Y-62453D01*
X84709Y-62462D01*
X84712Y-62470D01*
X84712Y-62482D01*
X84708Y-62493D01*
X84698Y-62501D01*
X84691Y-62503D01*
X84678Y-62504D01*
X84642Y-62488D01*
X83124Y-58352D02*
X83124Y-58234D01*
X83152Y-58234D01*
X83169Y-58240D01*
X83180Y-58251D01*
X83186Y-58262D01*
X83191Y-58285D01*
X83191Y-58302D01*
X83186Y-58324D01*
X83180Y-58336D01*
X83169Y-58347D01*
X83152Y-58352D01*
X83124Y-58352D01*
X83231Y-58234D02*
X83304Y-58234D01*
X83264Y-58279D01*
X83281Y-58279D01*
X83293Y-58285D01*
X83298Y-58291D01*
X83304Y-58302D01*
X83304Y-58330D01*
X83298Y-58341D01*
X83293Y-58347D01*
X83281Y-58352D01*
X83248Y-58352D01*
X83236Y-58347D01*
X83231Y-58341D01*
X83405Y-58234D02*
X83383Y-58234D01*
X83371Y-58240D01*
X83366Y-58246D01*
X83354Y-58262D01*
X83349Y-58285D01*
X83349Y-58330D01*
X83354Y-58341D01*
X83360Y-58347D01*
X83371Y-58352D01*
X83394Y-58352D01*
X83405Y-58347D01*
X83411Y-58341D01*
X83416Y-58330D01*
X83416Y-58302D01*
X83411Y-58291D01*
X83405Y-58285D01*
X83394Y-58279D01*
X83371Y-58279D01*
X83360Y-58285D01*
X83354Y-58291D01*
X83349Y-58302D01*
X82969Y-59852D02*
X82913Y-59852D01*
X82913Y-59734D01*
X83008Y-59791D02*
X83048Y-59791D01*
X83065Y-59852D02*
X83008Y-59852D01*
X83008Y-59734D01*
X83065Y-59734D01*
X83115Y-59852D02*
X83115Y-59734D01*
X83143Y-59734D01*
X83160Y-59740D01*
X83172Y-59751D01*
X83177Y-59762D01*
X83183Y-59785D01*
X83183Y-59802D01*
X83177Y-59824D01*
X83172Y-59836D01*
X83160Y-59847D01*
X83143Y-59852D01*
X83115Y-59852D01*
X83205Y-59864D02*
X83295Y-59864D01*
X83391Y-59852D02*
X83352Y-59796D01*
X83323Y-59852D02*
X83323Y-59734D01*
X83368Y-59734D01*
X83380Y-59740D01*
X83385Y-59746D01*
X83391Y-59757D01*
X83391Y-59774D01*
X83385Y-59785D01*
X83380Y-59791D01*
X83368Y-59796D01*
X83323Y-59796D01*
X83503Y-59740D02*
X83492Y-59734D01*
X83475Y-59734D01*
X83458Y-59740D01*
X83447Y-59751D01*
X83442Y-59762D01*
X83436Y-59785D01*
X83436Y-59802D01*
X83442Y-59824D01*
X83447Y-59836D01*
X83458Y-59847D01*
X83475Y-59852D01*
X83487Y-59852D01*
X83503Y-59847D01*
X83509Y-59841D01*
X83509Y-59802D01*
X83487Y-59802D01*
X83599Y-59791D02*
X83616Y-59796D01*
X83622Y-59802D01*
X83627Y-59813D01*
X83627Y-59830D01*
X83622Y-59841D01*
X83616Y-59847D01*
X83605Y-59852D01*
X83560Y-59852D01*
X83560Y-59734D01*
X83599Y-59734D01*
X83610Y-59740D01*
X83616Y-59746D01*
X83622Y-59757D01*
X83622Y-59768D01*
X83616Y-59779D01*
X83610Y-59785D01*
X83599Y-59791D01*
X83560Y-59791D01*
X81874Y-55909D02*
X81804Y-55814D01*
X81827Y-55797D01*
X81844Y-55792D01*
X81860Y-55794D01*
X81871Y-55800D01*
X81889Y-55815D01*
X81899Y-55829D01*
X81907Y-55850D01*
X81909Y-55863D01*
X81907Y-55878D01*
X81897Y-55893D01*
X81874Y-55909D01*
X81891Y-55751D02*
X81950Y-55708D01*
X81945Y-55768D01*
X81958Y-55758D01*
X81971Y-55756D01*
X81979Y-55757D01*
X81990Y-55763D01*
X82006Y-55785D01*
X82008Y-55798D01*
X82007Y-55806D01*
X82001Y-55817D01*
X81974Y-55837D01*
X81962Y-55839D01*
X81954Y-55838D01*
X81982Y-55685D02*
X82046Y-55639D01*
X82074Y-55764D01*
X82630Y-57214D02*
X82585Y-57247D01*
X82516Y-57151D01*
X82626Y-57141D02*
X82658Y-57118D01*
X82708Y-57158D02*
X82662Y-57191D01*
X82593Y-57095D01*
X82638Y-57062D01*
X82749Y-57128D02*
X82679Y-57032D01*
X82702Y-57016D01*
X82719Y-57010D01*
X82735Y-57013D01*
X82746Y-57019D01*
X82764Y-57034D01*
X82774Y-57047D01*
X82782Y-57069D01*
X82784Y-57081D01*
X82782Y-57097D01*
X82771Y-57111D01*
X82749Y-57128D01*
X82828Y-57084D02*
X82901Y-57031D01*
X82972Y-56966D02*
X82907Y-56944D01*
X82917Y-57006D02*
X82848Y-56910D01*
X82884Y-56884D01*
X82896Y-56882D01*
X82904Y-56883D01*
X82915Y-56889D01*
X82925Y-56902D01*
X82927Y-56915D01*
X82926Y-56922D01*
X82920Y-56934D01*
X82884Y-56960D01*
X82997Y-56809D02*
X82984Y-56811D01*
X82971Y-56821D01*
X82960Y-56835D01*
X82958Y-56851D01*
X82960Y-56863D01*
X82968Y-56885D01*
X82978Y-56899D01*
X82996Y-56913D01*
X83007Y-56919D01*
X83023Y-56922D01*
X83040Y-56916D01*
X83049Y-56910D01*
X83059Y-56895D01*
X83061Y-56887D01*
X83037Y-56856D01*
X83019Y-56869D01*
X83104Y-56794D02*
X83121Y-56788D01*
X83128Y-56789D01*
X83140Y-56795D01*
X83150Y-56809D01*
X83152Y-56821D01*
X83150Y-56829D01*
X83145Y-56840D01*
X83108Y-56867D01*
X83039Y-56771D01*
X83071Y-56748D01*
X83083Y-56746D01*
X83091Y-56747D01*
X83102Y-56753D01*
X83109Y-56762D01*
X83111Y-56775D01*
X83109Y-56782D01*
X83104Y-56794D01*
X83072Y-56817D01*
X79427Y-54668D02*
X79314Y-54632D01*
X79323Y-54605D01*
X79334Y-54591D01*
X79348Y-54583D01*
X79360Y-54581D01*
X79383Y-54583D01*
X79399Y-54588D01*
X79419Y-54601D01*
X79428Y-54609D01*
X79435Y-54624D01*
X79435Y-54641D01*
X79427Y-54668D01*
X79347Y-54530D02*
X79370Y-54460D01*
X79401Y-54512D01*
X79406Y-54496D01*
X79415Y-54487D01*
X79422Y-54483D01*
X79434Y-54481D01*
X79461Y-54490D01*
X79470Y-54499D01*
X79474Y-54506D01*
X79475Y-54518D01*
X79465Y-54550D01*
X79456Y-54559D01*
X79449Y-54563D01*
X79439Y-54412D02*
X79430Y-54421D01*
X79423Y-54424D01*
X79411Y-54426D01*
X79405Y-54425D01*
X79396Y-54416D01*
X79393Y-54409D01*
X79391Y-54396D01*
X79398Y-54375D01*
X79407Y-54366D01*
X79414Y-54362D01*
X79426Y-54360D01*
X79432Y-54362D01*
X79440Y-54371D01*
X79444Y-54378D01*
X79446Y-54391D01*
X79439Y-54412D01*
X79441Y-54424D01*
X79444Y-54431D01*
X79453Y-54440D01*
X79475Y-54447D01*
X79487Y-54445D01*
X79494Y-54442D01*
X79503Y-54433D01*
X79510Y-54411D01*
X79508Y-54399D01*
X79505Y-54392D01*
X79496Y-54383D01*
X79474Y-54376D01*
X79462Y-54378D01*
X79455Y-54382D01*
X79446Y-54391D01*
X80806Y-55279D02*
X80788Y-55332D01*
X80676Y-55296D01*
X80759Y-55222D02*
X80771Y-55185D01*
X80835Y-55188D02*
X80818Y-55241D01*
X80705Y-55205D01*
X80723Y-55151D01*
X80851Y-55140D02*
X80738Y-55103D01*
X80747Y-55076D01*
X80758Y-55062D01*
X80772Y-55055D01*
X80784Y-55053D01*
X80807Y-55055D01*
X80823Y-55060D01*
X80843Y-55072D01*
X80852Y-55081D01*
X80859Y-55095D01*
X80859Y-55113D01*
X80851Y-55140D01*
X80889Y-55058D02*
X80917Y-54972D01*
X80936Y-54878D02*
X80870Y-54898D01*
X80915Y-54942D02*
X80803Y-54905D01*
X80817Y-54862D01*
X80825Y-54854D01*
X80832Y-54850D01*
X80845Y-54848D01*
X80861Y-54853D01*
X80870Y-54862D01*
X80874Y-54869D01*
X80875Y-54882D01*
X80862Y-54924D01*
X80864Y-54736D02*
X80855Y-54745D01*
X80850Y-54761D01*
X80850Y-54779D01*
X80857Y-54793D01*
X80866Y-54802D01*
X80886Y-54814D01*
X80902Y-54819D01*
X80925Y-54821D01*
X80937Y-54819D01*
X80951Y-54812D01*
X80962Y-54797D01*
X80965Y-54787D01*
X80965Y-54769D01*
X80962Y-54762D01*
X80924Y-54750D01*
X80917Y-54771D01*
X80941Y-54661D02*
X80952Y-54646D01*
X80959Y-54643D01*
X80971Y-54641D01*
X80987Y-54646D01*
X80996Y-54655D01*
X81000Y-54662D01*
X81002Y-54674D01*
X80988Y-54717D01*
X80876Y-54681D01*
X80888Y-54643D01*
X80897Y-54634D01*
X80904Y-54631D01*
X80916Y-54629D01*
X80927Y-54632D01*
X80936Y-54641D01*
X80939Y-54648D01*
X80941Y-54661D01*
X80929Y-54698D01*
X74729Y-53704D02*
X74831Y-53645D01*
X74845Y-53669D01*
X74849Y-53686D01*
X74845Y-53702D01*
X74838Y-53712D01*
X74821Y-53728D01*
X74807Y-53737D01*
X74784Y-53743D01*
X74772Y-53744D01*
X74756Y-53740D01*
X74743Y-53728D01*
X74729Y-53704D01*
X74878Y-53748D02*
X74885Y-53750D01*
X74896Y-53757D01*
X74910Y-53781D01*
X74911Y-53794D01*
X74909Y-53801D01*
X74902Y-53812D01*
X74892Y-53817D01*
X74875Y-53821D01*
X74782Y-53796D01*
X74819Y-53860D01*
X74972Y-53888D02*
X74961Y-53869D01*
X74950Y-53862D01*
X74942Y-53860D01*
X74922Y-53858D01*
X74900Y-53865D01*
X74861Y-53887D01*
X74854Y-53898D01*
X74852Y-53905D01*
X74853Y-53918D01*
X74864Y-53938D01*
X74874Y-53944D01*
X74882Y-53947D01*
X74895Y-53946D01*
X74919Y-53932D01*
X74926Y-53921D01*
X74928Y-53914D01*
X74927Y-53901D01*
X74916Y-53881D01*
X74906Y-53875D01*
X74898Y-53872D01*
X74885Y-53873D01*
X75951Y-52820D02*
X75923Y-52771D01*
X76025Y-52712D01*
X76024Y-52823D02*
X76044Y-52857D01*
X75999Y-52903D02*
X75970Y-52854D01*
X76073Y-52795D01*
X76101Y-52844D01*
X76024Y-52946D02*
X76126Y-52887D01*
X76140Y-52912D01*
X76144Y-52929D01*
X76140Y-52945D01*
X76133Y-52955D01*
X76116Y-52971D01*
X76101Y-52980D01*
X76079Y-52986D01*
X76067Y-52987D01*
X76051Y-52983D01*
X76038Y-52971D01*
X76024Y-52946D01*
X76059Y-53030D02*
X76104Y-53108D01*
X76162Y-53185D02*
X76191Y-53123D01*
X76128Y-53127D02*
X76230Y-53068D01*
X76253Y-53107D01*
X76253Y-53119D01*
X76251Y-53127D01*
X76244Y-53137D01*
X76230Y-53146D01*
X76217Y-53146D01*
X76210Y-53144D01*
X76199Y-53137D01*
X76177Y-53099D01*
X76315Y-53226D02*
X76315Y-53214D01*
X76306Y-53199D01*
X76293Y-53187D01*
X76277Y-53183D01*
X76265Y-53184D01*
X76243Y-53190D01*
X76228Y-53199D01*
X76211Y-53215D01*
X76204Y-53225D01*
X76200Y-53241D01*
X76204Y-53258D01*
X76209Y-53268D01*
X76223Y-53280D01*
X76230Y-53282D01*
X76265Y-53262D01*
X76253Y-53243D01*
X76319Y-53334D02*
X76323Y-53352D01*
X76321Y-53359D01*
X76314Y-53370D01*
X76299Y-53378D01*
X76287Y-53379D01*
X76279Y-53377D01*
X76268Y-53370D01*
X76246Y-53331D01*
X76348Y-53272D01*
X76368Y-53306D01*
X76369Y-53319D01*
X76367Y-53326D01*
X76360Y-53337D01*
X76350Y-53343D01*
X76337Y-53343D01*
X76330Y-53341D01*
X76319Y-53334D01*
X76300Y-53300D01*
X74492Y-56954D02*
X74561Y-56859D01*
X74584Y-56875D01*
X74594Y-56890D01*
X74597Y-56905D01*
X74595Y-56918D01*
X74586Y-56939D01*
X74576Y-56953D01*
X74558Y-56968D01*
X74547Y-56974D01*
X74531Y-56976D01*
X74514Y-56971D01*
X74492Y-56954D01*
X74674Y-56990D02*
X74628Y-57054D01*
X74678Y-56937D02*
X74606Y-56989D01*
X74665Y-57032D01*
X74766Y-57008D02*
X74775Y-57014D01*
X74781Y-57025D01*
X74782Y-57033D01*
X74780Y-57046D01*
X74771Y-57067D01*
X74755Y-57090D01*
X74737Y-57105D01*
X74726Y-57111D01*
X74718Y-57112D01*
X74706Y-57110D01*
X74696Y-57103D01*
X74691Y-57092D01*
X74689Y-57084D01*
X74691Y-57072D01*
X74700Y-57050D01*
X74717Y-57027D01*
X74734Y-57013D01*
X74746Y-57007D01*
X74753Y-57005D01*
X74766Y-57008D01*
X75248Y-55650D02*
X75203Y-55617D01*
X75272Y-55521D01*
X75316Y-55623D02*
X75348Y-55646D01*
X75326Y-55706D02*
X75280Y-55673D01*
X75350Y-55577D01*
X75395Y-55611D01*
X75367Y-55736D02*
X75436Y-55640D01*
X75459Y-55657D01*
X75469Y-55671D01*
X75472Y-55687D01*
X75469Y-55699D01*
X75461Y-55721D01*
X75451Y-55735D01*
X75433Y-55749D01*
X75422Y-55755D01*
X75406Y-55758D01*
X75389Y-55752D01*
X75367Y-55736D01*
X75433Y-55798D02*
X75506Y-55851D01*
X75590Y-55898D02*
X75591Y-55829D01*
X75535Y-55858D02*
X75604Y-55763D01*
X75641Y-55789D01*
X75647Y-55800D01*
X75648Y-55808D01*
X75646Y-55820D01*
X75636Y-55834D01*
X75625Y-55840D01*
X75617Y-55841D01*
X75604Y-55839D01*
X75568Y-55813D01*
X75747Y-55873D02*
X75741Y-55862D01*
X75727Y-55852D01*
X75710Y-55847D01*
X75695Y-55849D01*
X75683Y-55855D01*
X75666Y-55870D01*
X75656Y-55883D01*
X75647Y-55905D01*
X75645Y-55917D01*
X75647Y-55933D01*
X75658Y-55947D01*
X75667Y-55954D01*
X75684Y-55959D01*
X75692Y-55958D01*
X75715Y-55926D01*
X75697Y-55913D01*
X75794Y-55970D02*
X75805Y-55985D01*
X75806Y-55992D01*
X75804Y-56005D01*
X75794Y-56018D01*
X75783Y-56024D01*
X75775Y-56026D01*
X75762Y-56023D01*
X75726Y-55997D01*
X75795Y-55901D01*
X75827Y-55925D01*
X75833Y-55936D01*
X75834Y-55944D01*
X75832Y-55956D01*
X75826Y-55965D01*
X75814Y-55971D01*
X75807Y-55972D01*
X75794Y-55970D01*
X75762Y-55947D01*
X74069Y-59852D02*
X74069Y-59734D01*
X74097Y-59734D01*
X74114Y-59740D01*
X74125Y-59751D01*
X74131Y-59762D01*
X74136Y-59785D01*
X74136Y-59802D01*
X74131Y-59824D01*
X74125Y-59836D01*
X74114Y-59847D01*
X74097Y-59852D01*
X74069Y-59852D01*
X74237Y-59774D02*
X74237Y-59852D01*
X74209Y-59729D02*
X74181Y-59813D01*
X74254Y-59813D01*
X74361Y-59852D02*
X74294Y-59852D01*
X74327Y-59852D02*
X74327Y-59734D01*
X74316Y-59751D01*
X74305Y-59762D01*
X74294Y-59768D01*
X73914Y-58352D02*
X73858Y-58352D01*
X73858Y-58234D01*
X73953Y-58291D02*
X73993Y-58291D01*
X74010Y-58352D02*
X73953Y-58352D01*
X73953Y-58234D01*
X74010Y-58234D01*
X74060Y-58352D02*
X74060Y-58234D01*
X74088Y-58234D01*
X74105Y-58240D01*
X74116Y-58251D01*
X74122Y-58262D01*
X74128Y-58285D01*
X74128Y-58302D01*
X74122Y-58324D01*
X74116Y-58336D01*
X74105Y-58347D01*
X74088Y-58352D01*
X74060Y-58352D01*
X74150Y-58364D02*
X74240Y-58364D01*
X74336Y-58352D02*
X74296Y-58296D01*
X74268Y-58352D02*
X74268Y-58234D01*
X74313Y-58234D01*
X74325Y-58240D01*
X74330Y-58246D01*
X74336Y-58257D01*
X74336Y-58274D01*
X74330Y-58285D01*
X74325Y-58291D01*
X74313Y-58296D01*
X74268Y-58296D01*
X74448Y-58240D02*
X74437Y-58234D01*
X74420Y-58234D01*
X74403Y-58240D01*
X74392Y-58251D01*
X74386Y-58262D01*
X74381Y-58285D01*
X74381Y-58302D01*
X74386Y-58324D01*
X74392Y-58336D01*
X74403Y-58347D01*
X74420Y-58352D01*
X74431Y-58352D01*
X74448Y-58347D01*
X74454Y-58341D01*
X74454Y-58302D01*
X74431Y-58302D01*
X74544Y-58291D02*
X74561Y-58296D01*
X74566Y-58302D01*
X74572Y-58313D01*
X74572Y-58330D01*
X74566Y-58341D01*
X74561Y-58347D01*
X74550Y-58352D01*
X74505Y-58352D01*
X74505Y-58234D01*
X74544Y-58234D01*
X74555Y-58240D01*
X74561Y-58246D01*
X74566Y-58257D01*
X74566Y-58268D01*
X74561Y-58279D01*
X74555Y-58285D01*
X74544Y-58291D01*
X74505Y-58291D01*
X75430Y-62446D02*
X75360Y-62350D01*
X75383Y-62334D01*
X75400Y-62328D01*
X75416Y-62331D01*
X75427Y-62337D01*
X75445Y-62352D01*
X75454Y-62365D01*
X75463Y-62387D01*
X75465Y-62399D01*
X75463Y-62415D01*
X75452Y-62429D01*
X75430Y-62446D01*
X75520Y-62283D02*
X75566Y-62347D01*
X75471Y-62263D02*
X75497Y-62348D01*
X75557Y-62305D01*
X75549Y-62227D02*
X75550Y-62219D01*
X75556Y-62208D01*
X75579Y-62192D01*
X75591Y-62189D01*
X75599Y-62191D01*
X75610Y-62197D01*
X75617Y-62206D01*
X75622Y-62223D01*
X75607Y-62317D01*
X75666Y-62274D01*
X74423Y-61323D02*
X74377Y-61356D01*
X74308Y-61261D01*
X74418Y-61250D02*
X74450Y-61227D01*
X74500Y-61267D02*
X74455Y-61300D01*
X74385Y-61204D01*
X74431Y-61171D01*
X74541Y-61237D02*
X74472Y-61142D01*
X74494Y-61125D01*
X74511Y-61120D01*
X74527Y-61122D01*
X74538Y-61128D01*
X74556Y-61143D01*
X74566Y-61157D01*
X74575Y-61178D01*
X74577Y-61190D01*
X74574Y-61206D01*
X74564Y-61221D01*
X74541Y-61237D01*
X74620Y-61193D02*
X74693Y-61141D01*
X74764Y-61075D02*
X74699Y-61053D01*
X74709Y-61115D02*
X74640Y-61019D01*
X74676Y-60993D01*
X74689Y-60991D01*
X74697Y-60992D01*
X74708Y-60998D01*
X74718Y-61012D01*
X74720Y-61024D01*
X74719Y-61032D01*
X74713Y-61043D01*
X74676Y-61069D01*
X74789Y-60918D02*
X74777Y-60920D01*
X74763Y-60930D01*
X74753Y-60945D01*
X74750Y-60960D01*
X74752Y-60973D01*
X74761Y-60994D01*
X74771Y-61008D01*
X74788Y-61023D01*
X74800Y-61029D01*
X74815Y-61031D01*
X74832Y-61026D01*
X74841Y-61019D01*
X74852Y-61005D01*
X74853Y-60997D01*
X74830Y-60965D01*
X74812Y-60978D01*
X74896Y-60903D02*
X74913Y-60897D01*
X74921Y-60899D01*
X74932Y-60905D01*
X74942Y-60918D01*
X74944Y-60931D01*
X74943Y-60938D01*
X74937Y-60950D01*
X74901Y-60976D01*
X74831Y-60880D01*
X74863Y-60857D01*
X74875Y-60855D01*
X74883Y-60857D01*
X74894Y-60862D01*
X74901Y-60871D01*
X74903Y-60884D01*
X74902Y-60892D01*
X74896Y-60903D01*
X74864Y-60926D01*
X78055Y-63743D02*
X77943Y-63707D01*
X77951Y-63680D01*
X77962Y-63666D01*
X77976Y-63659D01*
X77988Y-63657D01*
X78012Y-63658D01*
X78028Y-63664D01*
X78047Y-63676D01*
X78056Y-63685D01*
X78063Y-63699D01*
X78064Y-63717D01*
X78055Y-63743D01*
X78032Y-63559D02*
X78107Y-63583D01*
X77981Y-63571D02*
X78052Y-63624D01*
X78075Y-63555D01*
X78010Y-63498D02*
X78033Y-63429D01*
X78064Y-63480D01*
X78069Y-63464D01*
X78078Y-63455D01*
X78085Y-63452D01*
X78097Y-63450D01*
X78124Y-63458D01*
X78133Y-63467D01*
X78136Y-63474D01*
X78138Y-63487D01*
X78128Y-63519D01*
X78119Y-63528D01*
X78112Y-63531D01*
X76581Y-63427D02*
X76563Y-63481D01*
X76451Y-63444D01*
X76534Y-63370D02*
X76546Y-63333D01*
X76610Y-63336D02*
X76593Y-63390D01*
X76480Y-63353D01*
X76498Y-63300D01*
X76626Y-63288D02*
X76513Y-63251D01*
X76522Y-63225D01*
X76533Y-63210D01*
X76547Y-63203D01*
X76559Y-63201D01*
X76582Y-63203D01*
X76598Y-63208D01*
X76618Y-63220D01*
X76627Y-63229D01*
X76634Y-63243D01*
X76634Y-63261D01*
X76626Y-63288D01*
X76664Y-63206D02*
X76692Y-63120D01*
X76711Y-63026D02*
X76645Y-63046D01*
X76690Y-63090D02*
X76578Y-63054D01*
X76592Y-63011D01*
X76600Y-63002D01*
X76607Y-62998D01*
X76620Y-62996D01*
X76636Y-63002D01*
X76645Y-63010D01*
X76649Y-63017D01*
X76650Y-63030D01*
X76637Y-63073D01*
X76639Y-62884D02*
X76630Y-62893D01*
X76625Y-62909D01*
X76625Y-62927D01*
X76632Y-62941D01*
X76641Y-62950D01*
X76661Y-62962D01*
X76677Y-62967D01*
X76700Y-62969D01*
X76712Y-62967D01*
X76726Y-62960D01*
X76737Y-62946D01*
X76740Y-62935D01*
X76740Y-62917D01*
X76737Y-62910D01*
X76699Y-62898D01*
X76692Y-62919D01*
X76716Y-62809D02*
X76727Y-62795D01*
X76734Y-62791D01*
X76746Y-62789D01*
X76762Y-62794D01*
X76771Y-62803D01*
X76775Y-62810D01*
X76777Y-62823D01*
X76763Y-62865D01*
X76651Y-62829D01*
X76663Y-62791D01*
X76672Y-62782D01*
X76679Y-62779D01*
X76691Y-62777D01*
X76702Y-62780D01*
X76711Y-62789D01*
X76714Y-62796D01*
X76716Y-62809D01*
X76704Y-62846D01*
X80762Y-63007D02*
X80875Y-62971D01*
X80883Y-62997D01*
X80883Y-63015D01*
X80876Y-63029D01*
X80867Y-63038D01*
X80847Y-63050D01*
X80831Y-63056D01*
X80808Y-63057D01*
X80796Y-63055D01*
X80782Y-63048D01*
X80771Y-63034D01*
X80762Y-63007D01*
X80889Y-63143D02*
X80815Y-63168D01*
X80924Y-63103D02*
X80835Y-63102D01*
X80857Y-63171D01*
X80924Y-63250D02*
X80849Y-63275D01*
X80958Y-63210D02*
X80869Y-63209D01*
X80892Y-63278D01*
X79288Y-63324D02*
X79271Y-63270D01*
X79383Y-63234D01*
X79359Y-63342D02*
X79371Y-63379D01*
X79318Y-63414D02*
X79300Y-63361D01*
X79412Y-63325D01*
X79430Y-63378D01*
X79333Y-63463D02*
X79446Y-63426D01*
X79454Y-63453D01*
X79454Y-63471D01*
X79447Y-63485D01*
X79438Y-63494D01*
X79418Y-63506D01*
X79402Y-63511D01*
X79379Y-63513D01*
X79367Y-63511D01*
X79352Y-63504D01*
X79342Y-63489D01*
X79333Y-63463D01*
X79350Y-63552D02*
X79378Y-63637D01*
X79418Y-63725D02*
X79460Y-63670D01*
X79397Y-63661D02*
X79510Y-63624D01*
X79524Y-63667D01*
X79522Y-63679D01*
X79518Y-63686D01*
X79509Y-63695D01*
X79493Y-63700D01*
X79481Y-63699D01*
X79474Y-63695D01*
X79465Y-63686D01*
X79451Y-63643D01*
X79560Y-63797D02*
X79562Y-63785D01*
X79557Y-63768D01*
X79546Y-63754D01*
X79532Y-63747D01*
X79520Y-63745D01*
X79496Y-63747D01*
X79480Y-63752D01*
X79461Y-63764D01*
X79452Y-63773D01*
X79445Y-63787D01*
X79444Y-63805D01*
X79448Y-63816D01*
X79458Y-63830D01*
X79466Y-63834D01*
X79503Y-63821D01*
X79496Y-63800D01*
X79541Y-63904D02*
X79541Y-63921D01*
X79538Y-63928D01*
X79529Y-63937D01*
X79513Y-63942D01*
X79500Y-63941D01*
X79493Y-63937D01*
X79484Y-63928D01*
X79470Y-63885D01*
X79583Y-63849D01*
X79595Y-63886D01*
X79593Y-63899D01*
X79589Y-63906D01*
X79581Y-63915D01*
X79570Y-63918D01*
X79557Y-63916D01*
X79550Y-63912D01*
X79541Y-63904D01*
X79529Y-63866D01*
X82699Y-61064D02*
X82769Y-60968D01*
X82792Y-60985D01*
X82802Y-60999D01*
X82804Y-61015D01*
X82802Y-61027D01*
X82794Y-61049D01*
X82784Y-61062D01*
X82766Y-61077D01*
X82755Y-61083D01*
X82739Y-61086D01*
X82722Y-61080D01*
X82699Y-61064D01*
X82882Y-61099D02*
X82836Y-61163D01*
X82886Y-61046D02*
X82814Y-61098D01*
X82873Y-61141D01*
X83001Y-61137D02*
X82955Y-61104D01*
X82918Y-61146D01*
X82926Y-61145D01*
X82938Y-61147D01*
X82961Y-61163D01*
X82967Y-61174D01*
X82968Y-61182D01*
X82966Y-61195D01*
X82949Y-61217D01*
X82938Y-61223D01*
X82930Y-61224D01*
X82918Y-61222D01*
X82895Y-61206D01*
X82889Y-61195D01*
X82888Y-61187D01*
X81693Y-62186D02*
X81647Y-62153D01*
X81716Y-62058D01*
X81761Y-62159D02*
X81793Y-62182D01*
X81770Y-62242D02*
X81724Y-62209D01*
X81794Y-62114D01*
X81839Y-62147D01*
X81811Y-62272D02*
X81880Y-62177D01*
X81903Y-62193D01*
X81913Y-62208D01*
X81916Y-62223D01*
X81914Y-62236D01*
X81905Y-62257D01*
X81895Y-62271D01*
X81877Y-62286D01*
X81866Y-62292D01*
X81851Y-62294D01*
X81834Y-62289D01*
X81811Y-62272D01*
X81877Y-62334D02*
X81950Y-62387D01*
X82034Y-62434D02*
X82035Y-62366D01*
X81979Y-62395D02*
X82049Y-62299D01*
X82085Y-62325D01*
X82091Y-62337D01*
X82092Y-62344D01*
X82090Y-62357D01*
X82080Y-62371D01*
X82069Y-62376D01*
X82061Y-62378D01*
X82049Y-62375D01*
X82012Y-62349D01*
X82191Y-62409D02*
X82185Y-62398D01*
X82171Y-62388D01*
X82155Y-62383D01*
X82139Y-62385D01*
X82128Y-62391D01*
X82110Y-62406D01*
X82100Y-62420D01*
X82091Y-62441D01*
X82089Y-62454D01*
X82092Y-62469D01*
X82102Y-62484D01*
X82111Y-62490D01*
X82128Y-62496D01*
X82136Y-62495D01*
X82159Y-62463D01*
X82141Y-62449D01*
X82239Y-62506D02*
X82249Y-62521D01*
X82250Y-62529D01*
X82248Y-62541D01*
X82238Y-62555D01*
X82227Y-62561D01*
X82219Y-62562D01*
X82207Y-62560D01*
X82170Y-62533D01*
X82240Y-62438D01*
X82272Y-62461D01*
X82277Y-62472D01*
X82279Y-62480D01*
X82277Y-62492D01*
X82270Y-62501D01*
X82259Y-62507D01*
X82251Y-62509D01*
X82239Y-62506D01*
X82207Y-62483D01*
X80860Y-58352D02*
X80860Y-58234D01*
X80888Y-58234D01*
X80905Y-58240D01*
X80916Y-58251D01*
X80922Y-58262D01*
X80928Y-58285D01*
X80928Y-58302D01*
X80922Y-58324D01*
X80916Y-58336D01*
X80905Y-58347D01*
X80888Y-58352D01*
X80860Y-58352D01*
X81029Y-58274D02*
X81029Y-58352D01*
X81001Y-58229D02*
X80973Y-58313D01*
X81046Y-58313D01*
X81141Y-58234D02*
X81119Y-58234D01*
X81107Y-58240D01*
X81102Y-58246D01*
X81091Y-58262D01*
X81085Y-58285D01*
X81085Y-58330D01*
X81091Y-58341D01*
X81096Y-58347D01*
X81107Y-58352D01*
X81130Y-58352D01*
X81141Y-58347D01*
X81147Y-58341D01*
X81152Y-58330D01*
X81152Y-58302D01*
X81147Y-58291D01*
X81141Y-58285D01*
X81130Y-58279D01*
X81107Y-58279D01*
X81096Y-58285D01*
X81091Y-58291D01*
X81085Y-58302D01*
X80705Y-59852D02*
X80649Y-59852D01*
X80649Y-59734D01*
X80745Y-59791D02*
X80784Y-59791D01*
X80801Y-59852D02*
X80745Y-59852D01*
X80745Y-59734D01*
X80801Y-59734D01*
X80852Y-59852D02*
X80852Y-59734D01*
X80880Y-59734D01*
X80897Y-59740D01*
X80908Y-59751D01*
X80913Y-59762D01*
X80919Y-59785D01*
X80919Y-59802D01*
X80913Y-59824D01*
X80908Y-59836D01*
X80897Y-59847D01*
X80880Y-59852D01*
X80852Y-59852D01*
X80942Y-59864D02*
X81032Y-59864D01*
X81127Y-59852D02*
X81088Y-59796D01*
X81060Y-59852D02*
X81060Y-59734D01*
X81105Y-59734D01*
X81116Y-59740D01*
X81122Y-59746D01*
X81127Y-59757D01*
X81127Y-59774D01*
X81122Y-59785D01*
X81116Y-59791D01*
X81105Y-59796D01*
X81060Y-59796D01*
X81240Y-59740D02*
X81228Y-59734D01*
X81212Y-59734D01*
X81195Y-59740D01*
X81183Y-59751D01*
X81178Y-59762D01*
X81172Y-59785D01*
X81172Y-59802D01*
X81178Y-59824D01*
X81183Y-59836D01*
X81195Y-59847D01*
X81212Y-59852D01*
X81223Y-59852D01*
X81240Y-59847D01*
X81245Y-59841D01*
X81245Y-59802D01*
X81223Y-59802D01*
X81335Y-59791D02*
X81352Y-59796D01*
X81358Y-59802D01*
X81363Y-59813D01*
X81363Y-59830D01*
X81358Y-59841D01*
X81352Y-59847D01*
X81341Y-59852D01*
X81296Y-59852D01*
X81296Y-59734D01*
X81335Y-59734D01*
X81347Y-59740D01*
X81352Y-59746D01*
X81358Y-59757D01*
X81358Y-59768D01*
X81352Y-59779D01*
X81347Y-59785D01*
X81335Y-59791D01*
X81296Y-59791D01*
X78727Y-56821D02*
X78615Y-56784D01*
X78623Y-56758D01*
X78634Y-56743D01*
X78648Y-56736D01*
X78661Y-56734D01*
X78684Y-56736D01*
X78700Y-56741D01*
X78719Y-56753D01*
X78728Y-56762D01*
X78736Y-56776D01*
X78736Y-56794D01*
X78727Y-56821D01*
X78704Y-56636D02*
X78779Y-56660D01*
X78653Y-56649D02*
X78724Y-56702D01*
X78747Y-56632D01*
X78683Y-56576D02*
X78707Y-56501D01*
X78804Y-56586D01*
X80106Y-57432D02*
X80089Y-57485D01*
X79976Y-57448D01*
X80059Y-57375D02*
X80071Y-57337D01*
X80135Y-57341D02*
X80118Y-57394D01*
X80006Y-57358D01*
X80023Y-57304D01*
X80151Y-57292D02*
X80039Y-57256D01*
X80047Y-57229D01*
X80058Y-57215D01*
X80072Y-57208D01*
X80085Y-57206D01*
X80108Y-57207D01*
X80124Y-57213D01*
X80143Y-57225D01*
X80152Y-57234D01*
X80160Y-57248D01*
X80160Y-57266D01*
X80151Y-57292D01*
X80190Y-57210D02*
X80217Y-57125D01*
X80236Y-57030D02*
X80171Y-57050D01*
X80215Y-57095D02*
X80103Y-57058D01*
X80117Y-57015D01*
X80126Y-57006D01*
X80133Y-57003D01*
X80145Y-57001D01*
X80161Y-57006D01*
X80170Y-57015D01*
X80174Y-57022D01*
X80176Y-57034D01*
X80162Y-57077D01*
X80164Y-56889D02*
X80155Y-56898D01*
X80150Y-56914D01*
X80150Y-56931D01*
X80157Y-56946D01*
X80166Y-56954D01*
X80186Y-56967D01*
X80202Y-56972D01*
X80225Y-56973D01*
X80238Y-56972D01*
X80252Y-56964D01*
X80262Y-56950D01*
X80266Y-56939D01*
X80266Y-56922D01*
X80262Y-56915D01*
X80225Y-56902D01*
X80218Y-56924D01*
X80242Y-56813D02*
X80252Y-56799D01*
X80259Y-56795D01*
X80272Y-56794D01*
X80288Y-56799D01*
X80297Y-56808D01*
X80300Y-56815D01*
X80302Y-56827D01*
X80288Y-56870D01*
X80176Y-56833D01*
X80188Y-56796D01*
X80197Y-56787D01*
X80204Y-56783D01*
X80217Y-56781D01*
X80227Y-56785D01*
X80236Y-56794D01*
X80240Y-56801D01*
X80242Y-56813D01*
X80230Y-56851D01*
X76323Y-58285D02*
X76393Y-58189D01*
X76415Y-58206D01*
X76426Y-58220D01*
X76428Y-58236D01*
X76426Y-58249D01*
X76417Y-58270D01*
X76408Y-58284D01*
X76390Y-58299D01*
X76379Y-58304D01*
X76363Y-58307D01*
X76346Y-58302D01*
X76323Y-58285D01*
X76506Y-58321D02*
X76460Y-58384D01*
X76510Y-58268D02*
X76437Y-58319D01*
X76496Y-58362D01*
X76563Y-58376D02*
X76557Y-58365D01*
X76556Y-58357D01*
X76558Y-58344D01*
X76561Y-58340D01*
X76573Y-58334D01*
X76580Y-58333D01*
X76593Y-58335D01*
X76611Y-58348D01*
X76617Y-58359D01*
X76618Y-58367D01*
X76616Y-58380D01*
X76613Y-58384D01*
X76602Y-58390D01*
X76594Y-58391D01*
X76581Y-58389D01*
X76563Y-58376D01*
X76551Y-58374D01*
X76543Y-58375D01*
X76532Y-58381D01*
X76518Y-58399D01*
X76516Y-58411D01*
X76518Y-58419D01*
X76523Y-58431D01*
X76542Y-58444D01*
X76554Y-58446D01*
X76562Y-58445D01*
X76573Y-58439D01*
X76586Y-58421D01*
X76588Y-58408D01*
X76587Y-58400D01*
X76581Y-58389D01*
X77080Y-56981D02*
X77034Y-56948D01*
X77104Y-56852D01*
X77148Y-56954D02*
X77180Y-56977D01*
X77157Y-57037D02*
X77112Y-57004D01*
X77181Y-56908D01*
X77227Y-56941D01*
X77198Y-57067D02*
X77267Y-56971D01*
X77290Y-56988D01*
X77301Y-57002D01*
X77303Y-57018D01*
X77301Y-57030D01*
X77292Y-57052D01*
X77282Y-57065D01*
X77265Y-57080D01*
X77253Y-57086D01*
X77238Y-57088D01*
X77221Y-57083D01*
X77198Y-57067D01*
X77264Y-57129D02*
X77337Y-57181D01*
X77421Y-57229D02*
X77422Y-57160D01*
X77366Y-57189D02*
X77436Y-57093D01*
X77472Y-57120D01*
X77478Y-57131D01*
X77479Y-57139D01*
X77477Y-57151D01*
X77467Y-57165D01*
X77456Y-57171D01*
X77448Y-57172D01*
X77436Y-57170D01*
X77399Y-57143D01*
X77578Y-57204D02*
X77572Y-57193D01*
X77559Y-57183D01*
X77542Y-57177D01*
X77526Y-57180D01*
X77515Y-57186D01*
X77497Y-57200D01*
X77487Y-57214D01*
X77478Y-57236D01*
X77476Y-57248D01*
X77479Y-57264D01*
X77489Y-57278D01*
X77498Y-57285D01*
X77515Y-57290D01*
X77523Y-57289D01*
X77546Y-57257D01*
X77528Y-57244D01*
X77626Y-57301D02*
X77636Y-57315D01*
X77637Y-57323D01*
X77635Y-57336D01*
X77625Y-57349D01*
X77614Y-57355D01*
X77606Y-57356D01*
X77594Y-57354D01*
X77558Y-57328D01*
X77627Y-57232D01*
X77659Y-57255D01*
X77665Y-57266D01*
X77666Y-57274D01*
X77664Y-57287D01*
X77657Y-57296D01*
X77646Y-57302D01*
X77638Y-57303D01*
X77626Y-57301D01*
X77594Y-57278D01*
X77261Y-61115D02*
X77192Y-61020D01*
X77214Y-61003D01*
X77231Y-60998D01*
X77247Y-61000D01*
X77258Y-61006D01*
X77276Y-61021D01*
X77286Y-61034D01*
X77295Y-61056D01*
X77297Y-61068D01*
X77294Y-61084D01*
X77284Y-61099D01*
X77261Y-61115D01*
X77351Y-60952D02*
X77398Y-61016D01*
X77302Y-60932D02*
X77329Y-61017D01*
X77388Y-60974D01*
X77452Y-60976D02*
X77470Y-60963D01*
X77476Y-60952D01*
X77477Y-60944D01*
X77477Y-60924D01*
X77468Y-60902D01*
X77441Y-60866D01*
X77430Y-60860D01*
X77422Y-60859D01*
X77410Y-60861D01*
X77392Y-60874D01*
X77386Y-60885D01*
X77385Y-60893D01*
X77387Y-60905D01*
X77403Y-60928D01*
X77415Y-60934D01*
X77422Y-60935D01*
X77435Y-60933D01*
X77453Y-60920D01*
X77459Y-60909D01*
X77460Y-60901D01*
X77458Y-60889D01*
X76254Y-59992D02*
X76209Y-60026D01*
X76139Y-59930D01*
X76250Y-59919D02*
X76282Y-59896D01*
X76332Y-59936D02*
X76286Y-59969D01*
X76217Y-59874D01*
X76262Y-59841D01*
X76373Y-59906D02*
X76303Y-59811D01*
X76326Y-59794D01*
X76343Y-59789D01*
X76359Y-59792D01*
X76370Y-59797D01*
X76388Y-59812D01*
X76397Y-59826D01*
X76406Y-59847D01*
X76408Y-59860D01*
X76406Y-59876D01*
X76395Y-59890D01*
X76373Y-59906D01*
X76452Y-59863D02*
X76525Y-59810D01*
X76596Y-59745D02*
X76531Y-59722D01*
X76541Y-59784D02*
X76472Y-59689D01*
X76508Y-59662D01*
X76520Y-59660D01*
X76528Y-59661D01*
X76539Y-59667D01*
X76549Y-59681D01*
X76551Y-59693D01*
X76550Y-59701D01*
X76544Y-59712D01*
X76508Y-59739D01*
X76620Y-59587D02*
X76608Y-59589D01*
X76594Y-59599D01*
X76584Y-59614D01*
X76582Y-59630D01*
X76584Y-59642D01*
X76592Y-59663D01*
X76602Y-59677D01*
X76620Y-59692D01*
X76631Y-59698D01*
X76647Y-59700D01*
X76664Y-59695D01*
X76673Y-59688D01*
X76683Y-59674D01*
X76684Y-59666D01*
X76661Y-59634D01*
X76643Y-59647D01*
X76728Y-59572D02*
X76744Y-59567D01*
X76752Y-59568D01*
X76763Y-59574D01*
X76773Y-59587D01*
X76775Y-59600D01*
X76774Y-59608D01*
X76768Y-59619D01*
X76732Y-59645D01*
X76663Y-59550D01*
X76694Y-59527D01*
X76707Y-59525D01*
X76715Y-59526D01*
X76726Y-59532D01*
X76732Y-59541D01*
X76735Y-59553D01*
X76733Y-59561D01*
X76728Y-59572D01*
X76696Y-59595D01*
X80063Y-60854D02*
X80175Y-60818D01*
X80184Y-60845D01*
X80184Y-60862D01*
X80176Y-60877D01*
X80167Y-60885D01*
X80148Y-60898D01*
X80132Y-60903D01*
X80109Y-60905D01*
X80096Y-60903D01*
X80082Y-60895D01*
X80071Y-60881D01*
X80063Y-60854D01*
X80229Y-60984D02*
X80212Y-60930D01*
X80156Y-60942D01*
X80163Y-60946D01*
X80172Y-60955D01*
X80181Y-60982D01*
X80179Y-60994D01*
X80175Y-61001D01*
X80167Y-61010D01*
X80140Y-61019D01*
X80127Y-61017D01*
X80120Y-61013D01*
X80111Y-61004D01*
X80103Y-60977D01*
X80105Y-60965D01*
X80108Y-60958D01*
X80253Y-61059D02*
X80257Y-61069D01*
X80255Y-61082D01*
X80251Y-61089D01*
X80242Y-61098D01*
X80223Y-61110D01*
X80196Y-61119D01*
X80173Y-61120D01*
X80160Y-61118D01*
X80153Y-61115D01*
X80144Y-61106D01*
X80141Y-61095D01*
X80143Y-61083D01*
X80146Y-61076D01*
X80155Y-61067D01*
X80175Y-61054D01*
X80202Y-61046D01*
X80225Y-61044D01*
X80237Y-61046D01*
X80244Y-61050D01*
X80253Y-61059D01*
X78588Y-61171D02*
X78571Y-61117D01*
X78683Y-61081D01*
X78659Y-61189D02*
X78672Y-61227D01*
X78618Y-61262D02*
X78601Y-61208D01*
X78713Y-61172D01*
X78730Y-61225D01*
X78634Y-61310D02*
X78746Y-61273D01*
X78755Y-61300D01*
X78754Y-61318D01*
X78747Y-61332D01*
X78738Y-61341D01*
X78719Y-61353D01*
X78703Y-61358D01*
X78679Y-61360D01*
X78667Y-61358D01*
X78653Y-61351D01*
X78642Y-61337D01*
X78634Y-61310D01*
X78651Y-61399D02*
X78678Y-61485D01*
X78719Y-61572D02*
X78760Y-61517D01*
X78698Y-61508D02*
X78810Y-61471D01*
X78824Y-61514D01*
X78822Y-61527D01*
X78819Y-61534D01*
X78810Y-61542D01*
X78794Y-61548D01*
X78781Y-61546D01*
X78774Y-61542D01*
X78765Y-61533D01*
X78751Y-61490D01*
X78860Y-61644D02*
X78862Y-61632D01*
X78857Y-61616D01*
X78847Y-61601D01*
X78832Y-61594D01*
X78820Y-61592D01*
X78797Y-61594D01*
X78781Y-61599D01*
X78761Y-61611D01*
X78752Y-61620D01*
X78745Y-61634D01*
X78745Y-61652D01*
X78748Y-61663D01*
X78759Y-61677D01*
X78766Y-61681D01*
X78803Y-61669D01*
X78796Y-61647D01*
X78842Y-61751D02*
X78842Y-61769D01*
X78838Y-61776D01*
X78829Y-61784D01*
X78813Y-61790D01*
X78801Y-61788D01*
X78794Y-61784D01*
X78785Y-61775D01*
X78771Y-61732D01*
X78883Y-61696D01*
X78895Y-61733D01*
X78894Y-61746D01*
X78890Y-61753D01*
X78881Y-61762D01*
X78870Y-61765D01*
X78858Y-61763D01*
X78851Y-61760D01*
X78842Y-61751D01*
X78830Y-61713D01*
X78028Y-58974D02*
X77915Y-58938D01*
X77924Y-58911D01*
X77934Y-58896D01*
X77949Y-58889D01*
X77961Y-58887D01*
X77984Y-58889D01*
X78000Y-58894D01*
X78020Y-58906D01*
X78029Y-58915D01*
X78036Y-58929D01*
X78036Y-58947D01*
X78028Y-58974D01*
X77969Y-58772D02*
X77952Y-58825D01*
X78003Y-58848D01*
X78000Y-58841D01*
X77998Y-58828D01*
X78007Y-58802D01*
X78015Y-58793D01*
X78023Y-58789D01*
X78035Y-58787D01*
X78062Y-58796D01*
X78071Y-58805D01*
X78074Y-58812D01*
X78076Y-58824D01*
X78067Y-58851D01*
X78059Y-58860D01*
X78052Y-58864D01*
X78118Y-58696D02*
X78097Y-58760D01*
X78107Y-58728D02*
X77995Y-58691D01*
X78008Y-58707D01*
X78015Y-58722D01*
X78017Y-58734D01*
X79406Y-59585D02*
X79389Y-59638D01*
X79277Y-59602D01*
X79360Y-59528D02*
X79372Y-59491D01*
X79436Y-59494D02*
X79418Y-59547D01*
X79306Y-59511D01*
X79324Y-59457D01*
X79451Y-59446D02*
X79339Y-59409D01*
X79348Y-59382D01*
X79358Y-59368D01*
X79373Y-59361D01*
X79385Y-59359D01*
X79408Y-59361D01*
X79424Y-59366D01*
X79444Y-59378D01*
X79453Y-59387D01*
X79460Y-59401D01*
X79460Y-59419D01*
X79451Y-59446D01*
X79490Y-59363D02*
X79518Y-59278D01*
X79537Y-59183D02*
X79471Y-59204D01*
X79516Y-59248D02*
X79403Y-59211D01*
X79417Y-59168D01*
X79426Y-59159D01*
X79433Y-59156D01*
X79446Y-59154D01*
X79462Y-59159D01*
X79471Y-59168D01*
X79474Y-59175D01*
X79476Y-59187D01*
X79462Y-59230D01*
X79464Y-59042D02*
X79456Y-59051D01*
X79450Y-59067D01*
X79451Y-59085D01*
X79458Y-59099D01*
X79467Y-59108D01*
X79486Y-59120D01*
X79502Y-59125D01*
X79526Y-59127D01*
X79538Y-59125D01*
X79552Y-59118D01*
X79563Y-59103D01*
X79566Y-59093D01*
X79566Y-59075D01*
X79562Y-59068D01*
X79525Y-59056D01*
X79518Y-59077D01*
X79542Y-58966D02*
X79553Y-58952D01*
X79560Y-58949D01*
X79572Y-58947D01*
X79588Y-58952D01*
X79597Y-58961D01*
X79601Y-58968D01*
X79603Y-58980D01*
X79589Y-59023D01*
X79476Y-58987D01*
X79489Y-58949D01*
X79497Y-58940D01*
X79505Y-58936D01*
X79517Y-58935D01*
X79528Y-58938D01*
X79537Y-58947D01*
X79540Y-58954D01*
X79542Y-58966D01*
X79530Y-59004D01*
X74326Y-66488D02*
X74230Y-66418D01*
X74247Y-66395D01*
X74261Y-66385D01*
X74277Y-66383D01*
X74289Y-66385D01*
X74311Y-66393D01*
X74324Y-66403D01*
X74339Y-66421D01*
X74345Y-66432D01*
X74347Y-66448D01*
X74342Y-66465D01*
X74326Y-66488D01*
X74431Y-66342D02*
X74392Y-66397D01*
X74412Y-66369D02*
X74316Y-66300D01*
X74323Y-66319D01*
X74326Y-66335D01*
X74323Y-66347D01*
X74427Y-66214D02*
X74491Y-66260D01*
X74374Y-66210D02*
X74426Y-66282D01*
X74469Y-66223D01*
X73021Y-65731D02*
X72988Y-65777D01*
X72893Y-65707D01*
X72994Y-65663D02*
X73017Y-65631D01*
X73077Y-65654D02*
X73044Y-65699D01*
X72949Y-65630D01*
X72982Y-65584D01*
X73107Y-65613D02*
X73012Y-65543D01*
X73028Y-65521D01*
X73043Y-65510D01*
X73058Y-65508D01*
X73071Y-65510D01*
X73092Y-65518D01*
X73106Y-65528D01*
X73121Y-65546D01*
X73127Y-65557D01*
X73129Y-65573D01*
X73124Y-65590D01*
X73107Y-65613D01*
X73169Y-65547D02*
X73222Y-65474D01*
X73269Y-65390D02*
X73200Y-65389D01*
X73229Y-65444D02*
X73134Y-65375D01*
X73160Y-65339D01*
X73171Y-65333D01*
X73179Y-65332D01*
X73192Y-65334D01*
X73205Y-65344D01*
X73211Y-65355D01*
X73212Y-65363D01*
X73210Y-65375D01*
X73184Y-65411D01*
X73244Y-65233D02*
X73233Y-65238D01*
X73223Y-65252D01*
X73218Y-65269D01*
X73220Y-65285D01*
X73226Y-65296D01*
X73241Y-65314D01*
X73255Y-65324D01*
X73276Y-65332D01*
X73289Y-65334D01*
X73304Y-65332D01*
X73319Y-65322D01*
X73325Y-65312D01*
X73331Y-65295D01*
X73329Y-65288D01*
X73298Y-65265D01*
X73284Y-65283D01*
X73341Y-65185D02*
X73356Y-65175D01*
X73364Y-65173D01*
X73376Y-65176D01*
X73390Y-65185D01*
X73396Y-65197D01*
X73397Y-65204D01*
X73395Y-65217D01*
X73368Y-65253D01*
X73273Y-65184D01*
X73296Y-65152D01*
X73307Y-65146D01*
X73315Y-65145D01*
X73327Y-65147D01*
X73336Y-65154D01*
X73342Y-65165D01*
X73343Y-65173D01*
X73341Y-65185D01*
X73318Y-65217D01*
X86490Y-55798D02*
X86454Y-55686D01*
X86480Y-55677D01*
X86498Y-55677D01*
X86512Y-55684D01*
X86521Y-55693D01*
X86533Y-55713D01*
X86539Y-55729D01*
X86540Y-55752D01*
X86538Y-55765D01*
X86531Y-55779D01*
X86517Y-55789D01*
X86490Y-55798D01*
X86564Y-55662D02*
X86568Y-55655D01*
X86577Y-55646D01*
X86603Y-55637D01*
X86616Y-55639D01*
X86623Y-55642D01*
X86632Y-55651D01*
X86635Y-55662D01*
X86635Y-55680D01*
X86592Y-55765D01*
X86661Y-55742D01*
X86753Y-57290D02*
X86700Y-57307D01*
X86663Y-57195D01*
X86771Y-57219D02*
X86809Y-57207D01*
X86844Y-57260D02*
X86791Y-57278D01*
X86754Y-57165D01*
X86808Y-57148D01*
X86892Y-57245D02*
X86856Y-57132D01*
X86882Y-57124D01*
X86900Y-57124D01*
X86914Y-57131D01*
X86923Y-57140D01*
X86935Y-57160D01*
X86941Y-57176D01*
X86942Y-57199D01*
X86940Y-57211D01*
X86933Y-57225D01*
X86919Y-57236D01*
X86892Y-57245D01*
X86981Y-57227D02*
X87067Y-57200D01*
X87154Y-57159D02*
X87099Y-57118D01*
X87090Y-57180D02*
X87054Y-57068D01*
X87096Y-57054D01*
X87109Y-57056D01*
X87116Y-57059D01*
X87125Y-57068D01*
X87130Y-57085D01*
X87128Y-57097D01*
X87124Y-57104D01*
X87115Y-57113D01*
X87073Y-57127D01*
X87226Y-57018D02*
X87214Y-57016D01*
X87198Y-57021D01*
X87184Y-57032D01*
X87176Y-57046D01*
X87175Y-57058D01*
X87176Y-57081D01*
X87181Y-57097D01*
X87194Y-57117D01*
X87203Y-57126D01*
X87217Y-57133D01*
X87235Y-57133D01*
X87245Y-57130D01*
X87260Y-57119D01*
X87263Y-57112D01*
X87251Y-57075D01*
X87230Y-57082D01*
X87333Y-57036D02*
X87351Y-57036D01*
X87358Y-57040D01*
X87367Y-57049D01*
X87372Y-57065D01*
X87370Y-57077D01*
X87366Y-57085D01*
X87358Y-57093D01*
X87315Y-57107D01*
X87278Y-56995D01*
X87316Y-56983D01*
X87328Y-56985D01*
X87335Y-56988D01*
X87344Y-56997D01*
X87348Y-57008D01*
X87346Y-57020D01*
X87342Y-57027D01*
X87333Y-57036D01*
X87296Y-57048D01*
X85104Y-53563D02*
X85035Y-53467D01*
X85058Y-53450D01*
X85075Y-53445D01*
X85090Y-53448D01*
X85102Y-53453D01*
X85119Y-53468D01*
X85129Y-53482D01*
X85138Y-53503D01*
X85140Y-53516D01*
X85138Y-53532D01*
X85127Y-53546D01*
X85104Y-53563D01*
X85121Y-53404D02*
X85181Y-53361D01*
X85175Y-53421D01*
X85189Y-53411D01*
X85201Y-53409D01*
X85209Y-53410D01*
X85220Y-53416D01*
X85237Y-53439D01*
X85239Y-53451D01*
X85238Y-53459D01*
X85232Y-53470D01*
X85205Y-53490D01*
X85192Y-53492D01*
X85184Y-53491D01*
X85815Y-54900D02*
X85770Y-54933D01*
X85701Y-54838D01*
X85811Y-54827D02*
X85843Y-54804D01*
X85893Y-54844D02*
X85847Y-54877D01*
X85778Y-54781D01*
X85823Y-54748D01*
X85934Y-54814D02*
X85864Y-54719D01*
X85887Y-54702D01*
X85904Y-54697D01*
X85920Y-54699D01*
X85931Y-54705D01*
X85949Y-54720D01*
X85959Y-54733D01*
X85967Y-54755D01*
X85969Y-54767D01*
X85967Y-54783D01*
X85957Y-54798D01*
X85934Y-54814D01*
X86013Y-54770D02*
X86086Y-54717D01*
X86157Y-54652D02*
X86092Y-54630D01*
X86102Y-54692D02*
X86033Y-54596D01*
X86069Y-54570D01*
X86082Y-54568D01*
X86089Y-54569D01*
X86101Y-54575D01*
X86110Y-54588D01*
X86113Y-54601D01*
X86111Y-54609D01*
X86105Y-54620D01*
X86069Y-54646D01*
X86182Y-54495D02*
X86169Y-54497D01*
X86156Y-54507D01*
X86145Y-54521D01*
X86143Y-54537D01*
X86145Y-54550D01*
X86153Y-54571D01*
X86163Y-54585D01*
X86181Y-54600D01*
X86192Y-54605D01*
X86208Y-54608D01*
X86225Y-54603D01*
X86234Y-54596D01*
X86244Y-54581D01*
X86246Y-54574D01*
X86223Y-54542D01*
X86204Y-54555D01*
X86289Y-54480D02*
X86306Y-54474D01*
X86314Y-54476D01*
X86325Y-54481D01*
X86335Y-54495D01*
X86337Y-54507D01*
X86335Y-54515D01*
X86330Y-54527D01*
X86293Y-54553D01*
X86224Y-54457D01*
X86256Y-54434D01*
X86268Y-54432D01*
X86276Y-54433D01*
X86287Y-54439D01*
X86294Y-54448D01*
X86296Y-54461D01*
X86295Y-54469D01*
X86289Y-54480D01*
X86257Y-54503D01*
X83096Y-51864D02*
X83000Y-51795D01*
X83017Y-51772D01*
X83031Y-51762D01*
X83047Y-51759D01*
X83059Y-51761D01*
X83081Y-51770D01*
X83094Y-51780D01*
X83109Y-51798D01*
X83115Y-51809D01*
X83117Y-51825D01*
X83112Y-51842D01*
X83096Y-51864D01*
X83131Y-51682D02*
X83195Y-51728D01*
X83078Y-51678D02*
X83130Y-51750D01*
X83173Y-51691D01*
X84185Y-52917D02*
X84152Y-52962D01*
X84056Y-52893D01*
X84158Y-52848D02*
X84181Y-52817D01*
X84241Y-52839D02*
X84208Y-52885D01*
X84113Y-52815D01*
X84146Y-52770D01*
X84271Y-52798D02*
X84175Y-52729D01*
X84192Y-52706D01*
X84206Y-52696D01*
X84222Y-52693D01*
X84235Y-52695D01*
X84256Y-52704D01*
X84270Y-52714D01*
X84285Y-52732D01*
X84290Y-52743D01*
X84293Y-52759D01*
X84288Y-52776D01*
X84271Y-52798D01*
X84333Y-52732D02*
X84386Y-52659D01*
X84433Y-52575D02*
X84364Y-52574D01*
X84393Y-52630D02*
X84298Y-52561D01*
X84324Y-52524D01*
X84335Y-52518D01*
X84343Y-52517D01*
X84356Y-52519D01*
X84369Y-52529D01*
X84375Y-52540D01*
X84376Y-52548D01*
X84374Y-52561D01*
X84348Y-52597D01*
X84408Y-52418D02*
X84397Y-52424D01*
X84387Y-52438D01*
X84382Y-52455D01*
X84384Y-52470D01*
X84390Y-52482D01*
X84405Y-52499D01*
X84419Y-52509D01*
X84440Y-52518D01*
X84452Y-52520D01*
X84468Y-52518D01*
X84483Y-52507D01*
X84489Y-52498D01*
X84495Y-52481D01*
X84493Y-52473D01*
X84461Y-52450D01*
X84448Y-52468D01*
X84505Y-52371D02*
X84520Y-52360D01*
X84528Y-52359D01*
X84540Y-52361D01*
X84554Y-52371D01*
X84559Y-52382D01*
X84561Y-52390D01*
X84559Y-52403D01*
X84532Y-52439D01*
X84437Y-52369D01*
X84460Y-52338D01*
X84471Y-52332D01*
X84479Y-52331D01*
X84491Y-52333D01*
X84500Y-52339D01*
X84506Y-52350D01*
X84507Y-52358D01*
X84505Y-52371D01*
X84482Y-52403D01*
X80661Y-50870D02*
X80548Y-50834D01*
X80557Y-50807D01*
X80568Y-50793D01*
X80582Y-50785D01*
X80594Y-50783D01*
X80617Y-50785D01*
X80633Y-50790D01*
X80653Y-50803D01*
X80662Y-50811D01*
X80669Y-50826D01*
X80669Y-50843D01*
X80661Y-50870D01*
X80602Y-50668D02*
X80585Y-50721D01*
X80637Y-50744D01*
X80633Y-50737D01*
X80631Y-50725D01*
X80640Y-50698D01*
X80649Y-50689D01*
X80656Y-50685D01*
X80668Y-50683D01*
X80695Y-50692D01*
X80704Y-50701D01*
X80707Y-50708D01*
X80709Y-50720D01*
X80701Y-50747D01*
X80692Y-50756D01*
X80685Y-50760D01*
X82022Y-51534D02*
X82005Y-51588D01*
X81892Y-51551D01*
X81975Y-51478D02*
X81988Y-51440D01*
X82052Y-51443D02*
X82034Y-51497D01*
X81922Y-51460D01*
X81939Y-51407D01*
X82067Y-51395D02*
X81955Y-51359D01*
X81964Y-51332D01*
X81974Y-51318D01*
X81988Y-51310D01*
X82001Y-51309D01*
X82024Y-51310D01*
X82040Y-51315D01*
X82060Y-51328D01*
X82069Y-51336D01*
X82076Y-51351D01*
X82076Y-51368D01*
X82067Y-51395D01*
X82106Y-51313D02*
X82134Y-51227D01*
X82152Y-51133D02*
X82087Y-51153D01*
X82132Y-51197D02*
X82019Y-51161D01*
X82033Y-51118D01*
X82042Y-51109D01*
X82049Y-51105D01*
X82061Y-51104D01*
X82078Y-51109D01*
X82086Y-51118D01*
X82090Y-51125D01*
X82092Y-51137D01*
X82078Y-51180D01*
X82080Y-50991D02*
X82071Y-51000D01*
X82066Y-51016D01*
X82066Y-51034D01*
X82073Y-51048D01*
X82082Y-51057D01*
X82102Y-51069D01*
X82118Y-51075D01*
X82141Y-51076D01*
X82154Y-51074D01*
X82168Y-51067D01*
X82178Y-51053D01*
X82182Y-51042D01*
X82182Y-51024D01*
X82178Y-51017D01*
X82141Y-51005D01*
X82134Y-51027D01*
X82158Y-50916D02*
X82168Y-50902D01*
X82176Y-50898D01*
X82188Y-50896D01*
X82204Y-50901D01*
X82213Y-50910D01*
X82217Y-50917D01*
X82218Y-50930D01*
X82205Y-50973D01*
X82092Y-50936D01*
X82104Y-50899D01*
X82113Y-50890D01*
X82120Y-50886D01*
X82133Y-50884D01*
X82143Y-50888D01*
X82152Y-50897D01*
X82156Y-50904D01*
X82158Y-50916D01*
X82146Y-50953D01*
X78037Y-50677D02*
X77919Y-50677D01*
X77919Y-50649D01*
X77925Y-50632D01*
X77936Y-50621D01*
X77947Y-50615D01*
X77970Y-50610D01*
X77987Y-50610D01*
X78009Y-50615D01*
X78021Y-50621D01*
X78032Y-50632D01*
X78037Y-50649D01*
X78037Y-50677D01*
X77919Y-50508D02*
X77919Y-50531D01*
X77925Y-50542D01*
X77931Y-50548D01*
X77947Y-50559D01*
X77970Y-50565D01*
X78015Y-50565D01*
X78026Y-50559D01*
X78032Y-50553D01*
X78037Y-50542D01*
X78037Y-50520D01*
X78032Y-50508D01*
X78026Y-50503D01*
X78015Y-50497D01*
X77987Y-50497D01*
X77976Y-50503D01*
X77970Y-50508D01*
X77964Y-50520D01*
X77964Y-50542D01*
X77970Y-50553D01*
X77976Y-50559D01*
X77987Y-50565D01*
X79537Y-50888D02*
X79537Y-50944D01*
X79419Y-50944D01*
X79476Y-50849D02*
X79476Y-50809D01*
X79537Y-50793D02*
X79537Y-50849D01*
X79419Y-50849D01*
X79419Y-50793D01*
X79537Y-50742D02*
X79419Y-50742D01*
X79419Y-50714D01*
X79425Y-50697D01*
X79436Y-50686D01*
X79447Y-50680D01*
X79470Y-50674D01*
X79487Y-50674D01*
X79509Y-50680D01*
X79521Y-50686D01*
X79532Y-50697D01*
X79537Y-50714D01*
X79537Y-50742D01*
X79549Y-50652D02*
X79549Y-50562D01*
X79537Y-50466D02*
X79481Y-50506D01*
X79537Y-50534D02*
X79419Y-50534D01*
X79419Y-50489D01*
X79425Y-50478D01*
X79431Y-50472D01*
X79442Y-50466D01*
X79459Y-50466D01*
X79470Y-50472D01*
X79476Y-50478D01*
X79481Y-50489D01*
X79481Y-50534D01*
X79425Y-50354D02*
X79419Y-50365D01*
X79419Y-50382D01*
X79425Y-50399D01*
X79436Y-50410D01*
X79447Y-50416D01*
X79470Y-50421D01*
X79487Y-50421D01*
X79509Y-50416D01*
X79521Y-50410D01*
X79532Y-50399D01*
X79537Y-50382D01*
X79537Y-50371D01*
X79532Y-50354D01*
X79526Y-50348D01*
X79487Y-50348D01*
X79487Y-50371D01*
X79476Y-50258D02*
X79481Y-50241D01*
X79487Y-50236D01*
X79498Y-50230D01*
X79515Y-50230D01*
X79526Y-50236D01*
X79532Y-50241D01*
X79537Y-50253D01*
X79537Y-50298D01*
X79419Y-50298D01*
X79419Y-50258D01*
X79425Y-50247D01*
X79431Y-50241D01*
X79442Y-50236D01*
X79453Y-50236D01*
X79464Y-50241D01*
X79470Y-50247D01*
X79476Y-50258D01*
X79476Y-50298D01*
X75338Y-51168D02*
X75451Y-51131D01*
X75459Y-51158D01*
X75459Y-51176D01*
X75452Y-51190D01*
X75443Y-51199D01*
X75423Y-51211D01*
X75407Y-51216D01*
X75384Y-51218D01*
X75372Y-51216D01*
X75357Y-51209D01*
X75347Y-51195D01*
X75338Y-51168D01*
X75484Y-51233D02*
X75508Y-51308D01*
X75380Y-51296D01*
X76700Y-50504D02*
X76682Y-50450D01*
X76795Y-50414D01*
X76771Y-50522D02*
X76783Y-50560D01*
X76729Y-50595D02*
X76712Y-50541D01*
X76824Y-50505D01*
X76841Y-50558D01*
X76745Y-50643D02*
X76857Y-50606D01*
X76866Y-50633D01*
X76866Y-50651D01*
X76858Y-50665D01*
X76850Y-50674D01*
X76830Y-50686D01*
X76814Y-50691D01*
X76791Y-50693D01*
X76778Y-50691D01*
X76764Y-50684D01*
X76753Y-50670D01*
X76745Y-50643D01*
X76762Y-50732D02*
X76790Y-50817D01*
X76830Y-50905D02*
X76871Y-50850D01*
X76809Y-50841D02*
X76921Y-50804D01*
X76935Y-50847D01*
X76933Y-50859D01*
X76930Y-50867D01*
X76921Y-50875D01*
X76905Y-50881D01*
X76892Y-50879D01*
X76885Y-50875D01*
X76877Y-50866D01*
X76863Y-50823D01*
X76972Y-50977D02*
X76974Y-50965D01*
X76968Y-50949D01*
X76958Y-50934D01*
X76944Y-50927D01*
X76931Y-50925D01*
X76908Y-50927D01*
X76892Y-50932D01*
X76872Y-50944D01*
X76863Y-50953D01*
X76856Y-50967D01*
X76856Y-50985D01*
X76860Y-50996D01*
X76870Y-51010D01*
X76877Y-51014D01*
X76915Y-51002D01*
X76908Y-50980D01*
X76953Y-51084D02*
X76953Y-51101D01*
X76949Y-51109D01*
X76940Y-51117D01*
X76924Y-51123D01*
X76912Y-51121D01*
X76905Y-51117D01*
X76896Y-51108D01*
X76882Y-51065D01*
X76994Y-51029D01*
X77007Y-51066D01*
X77005Y-51079D01*
X77001Y-51086D01*
X76992Y-51095D01*
X76981Y-51098D01*
X76969Y-51096D01*
X76962Y-51093D01*
X76953Y-51084D01*
X76941Y-51046D01*
X73068Y-52605D02*
X73163Y-52536D01*
X73180Y-52558D01*
X73185Y-52575D01*
X73183Y-52591D01*
X73177Y-52602D01*
X73162Y-52620D01*
X73148Y-52630D01*
X73127Y-52639D01*
X73114Y-52641D01*
X73099Y-52638D01*
X73084Y-52628D01*
X73068Y-52605D01*
X73202Y-52675D02*
X73200Y-52662D01*
X73201Y-52654D01*
X73207Y-52643D01*
X73211Y-52640D01*
X73224Y-52638D01*
X73232Y-52639D01*
X73243Y-52645D01*
X73256Y-52663D01*
X73258Y-52675D01*
X73257Y-52683D01*
X73251Y-52694D01*
X73246Y-52698D01*
X73234Y-52700D01*
X73226Y-52699D01*
X73215Y-52693D01*
X73202Y-52675D01*
X73191Y-52669D01*
X73183Y-52667D01*
X73170Y-52670D01*
X73152Y-52683D01*
X73146Y-52694D01*
X73145Y-52702D01*
X73147Y-52714D01*
X73160Y-52732D01*
X73172Y-52738D01*
X73179Y-52739D01*
X73192Y-52737D01*
X73210Y-52724D01*
X73216Y-52713D01*
X73217Y-52705D01*
X73215Y-52693D01*
X74157Y-51553D02*
X74124Y-51507D01*
X74220Y-51438D01*
X74231Y-51548D02*
X74254Y-51580D01*
X74214Y-51630D02*
X74180Y-51585D01*
X74276Y-51515D01*
X74309Y-51561D01*
X74243Y-51671D02*
X74339Y-51602D01*
X74355Y-51624D01*
X74361Y-51641D01*
X74358Y-51657D01*
X74352Y-51668D01*
X74338Y-51686D01*
X74324Y-51696D01*
X74302Y-51705D01*
X74290Y-51707D01*
X74274Y-51704D01*
X74260Y-51694D01*
X74243Y-51671D01*
X74287Y-51750D02*
X74340Y-51823D01*
X74405Y-51894D02*
X74428Y-51829D01*
X74366Y-51839D02*
X74461Y-51770D01*
X74488Y-51806D01*
X74490Y-51819D01*
X74488Y-51827D01*
X74483Y-51838D01*
X74469Y-51848D01*
X74457Y-51850D01*
X74449Y-51848D01*
X74438Y-51843D01*
X74411Y-51806D01*
X74562Y-51919D02*
X74560Y-51906D01*
X74550Y-51893D01*
X74536Y-51882D01*
X74520Y-51880D01*
X74508Y-51882D01*
X74486Y-51891D01*
X74473Y-51901D01*
X74458Y-51918D01*
X74452Y-51930D01*
X74449Y-51945D01*
X74455Y-51962D01*
X74461Y-51971D01*
X74476Y-51982D01*
X74484Y-51983D01*
X74516Y-51960D01*
X74502Y-51942D01*
X74578Y-52026D02*
X74583Y-52043D01*
X74582Y-52051D01*
X74576Y-52062D01*
X74562Y-52072D01*
X74550Y-52074D01*
X74542Y-52073D01*
X74531Y-52067D01*
X74504Y-52030D01*
X74600Y-51961D01*
X74623Y-51993D01*
X74625Y-52005D01*
X74624Y-52013D01*
X74618Y-52024D01*
X74609Y-52031D01*
X74597Y-52033D01*
X74589Y-52032D01*
X74578Y-52026D01*
X74555Y-51994D01*
X71352Y-54674D02*
X71422Y-54578D01*
X71444Y-54595D01*
X71455Y-54609D01*
X71457Y-54625D01*
X71455Y-54637D01*
X71446Y-54659D01*
X71437Y-54672D01*
X71419Y-54687D01*
X71408Y-54693D01*
X71392Y-54696D01*
X71375Y-54690D01*
X71352Y-54674D01*
X71452Y-54746D02*
X71470Y-54760D01*
X71483Y-54762D01*
X71491Y-54760D01*
X71510Y-54753D01*
X71528Y-54738D01*
X71554Y-54702D01*
X71556Y-54690D01*
X71555Y-54682D01*
X71549Y-54671D01*
X71531Y-54657D01*
X71518Y-54655D01*
X71511Y-54657D01*
X71499Y-54662D01*
X71483Y-54685D01*
X71481Y-54698D01*
X71482Y-54705D01*
X71488Y-54717D01*
X71506Y-54730D01*
X71518Y-54732D01*
X71526Y-54731D01*
X71537Y-54725D01*
X72063Y-53336D02*
X72018Y-53303D01*
X72087Y-53208D01*
X72131Y-53309D02*
X72163Y-53332D01*
X72141Y-53392D02*
X72095Y-53359D01*
X72164Y-53264D01*
X72210Y-53297D01*
X72182Y-53422D02*
X72251Y-53327D01*
X72274Y-53343D01*
X72284Y-53358D01*
X72287Y-53373D01*
X72284Y-53386D01*
X72276Y-53407D01*
X72266Y-53421D01*
X72248Y-53436D01*
X72237Y-53441D01*
X72221Y-53444D01*
X72204Y-53439D01*
X72182Y-53422D01*
X72248Y-53484D02*
X72321Y-53537D01*
X72404Y-53584D02*
X72406Y-53515D01*
X72350Y-53544D02*
X72419Y-53449D01*
X72456Y-53475D01*
X72461Y-53486D01*
X72463Y-53494D01*
X72461Y-53507D01*
X72451Y-53520D01*
X72440Y-53526D01*
X72432Y-53527D01*
X72419Y-53525D01*
X72383Y-53499D01*
X72562Y-53559D02*
X72556Y-53548D01*
X72542Y-53538D01*
X72525Y-53533D01*
X72509Y-53535D01*
X72498Y-53541D01*
X72481Y-53556D01*
X72471Y-53570D01*
X72462Y-53591D01*
X72460Y-53603D01*
X72462Y-53619D01*
X72473Y-53634D01*
X72482Y-53640D01*
X72499Y-53646D01*
X72507Y-53644D01*
X72530Y-53613D01*
X72512Y-53599D01*
X72609Y-53656D02*
X72620Y-53671D01*
X72621Y-53679D01*
X72619Y-53691D01*
X72609Y-53705D01*
X72598Y-53711D01*
X72590Y-53712D01*
X72577Y-53710D01*
X72541Y-53683D01*
X72610Y-53588D01*
X72642Y-53611D01*
X72648Y-53622D01*
X72649Y-53630D01*
X72647Y-53642D01*
X72641Y-53651D01*
X72629Y-53657D01*
X72622Y-53658D01*
X72609Y-53656D01*
X72577Y-53633D01*
X70306Y-57153D02*
X70343Y-57041D01*
X70370Y-57050D01*
X70384Y-57060D01*
X70391Y-57074D01*
X70393Y-57087D01*
X70391Y-57110D01*
X70386Y-57126D01*
X70374Y-57146D01*
X70365Y-57155D01*
X70351Y-57162D01*
X70333Y-57162D01*
X70306Y-57153D01*
X70477Y-57209D02*
X70413Y-57188D01*
X70445Y-57198D02*
X70482Y-57086D01*
X70466Y-57099D01*
X70452Y-57106D01*
X70439Y-57108D01*
X70584Y-57119D02*
X70594Y-57123D01*
X70603Y-57131D01*
X70607Y-57139D01*
X70609Y-57151D01*
X70607Y-57174D01*
X70598Y-57201D01*
X70586Y-57221D01*
X70577Y-57230D01*
X70570Y-57233D01*
X70558Y-57235D01*
X70547Y-57232D01*
X70538Y-57223D01*
X70534Y-57216D01*
X70533Y-57203D01*
X70534Y-57180D01*
X70543Y-57153D01*
X70555Y-57134D01*
X70564Y-57125D01*
X70571Y-57121D01*
X70584Y-57119D01*
X70623Y-55679D02*
X70569Y-55662D01*
X70606Y-55549D01*
X70679Y-55632D02*
X70717Y-55644D01*
X70714Y-55708D02*
X70660Y-55691D01*
X70697Y-55579D01*
X70750Y-55596D01*
X70762Y-55724D02*
X70798Y-55612D01*
X70825Y-55620D01*
X70839Y-55631D01*
X70847Y-55645D01*
X70848Y-55658D01*
X70847Y-55681D01*
X70842Y-55697D01*
X70829Y-55716D01*
X70821Y-55725D01*
X70806Y-55733D01*
X70789Y-55733D01*
X70762Y-55724D01*
X70844Y-55763D02*
X70930Y-55790D01*
X71024Y-55809D02*
X71004Y-55744D01*
X70960Y-55788D02*
X70996Y-55676D01*
X71039Y-55690D01*
X71048Y-55699D01*
X71052Y-55706D01*
X71053Y-55718D01*
X71048Y-55734D01*
X71039Y-55743D01*
X71032Y-55747D01*
X71020Y-55749D01*
X70977Y-55735D01*
X71166Y-55737D02*
X71157Y-55728D01*
X71141Y-55723D01*
X71123Y-55723D01*
X71109Y-55730D01*
X71100Y-55739D01*
X71088Y-55759D01*
X71082Y-55775D01*
X71081Y-55798D01*
X71083Y-55811D01*
X71090Y-55825D01*
X71104Y-55835D01*
X71115Y-55839D01*
X71133Y-55839D01*
X71140Y-55835D01*
X71152Y-55798D01*
X71131Y-55791D01*
X71241Y-55815D02*
X71255Y-55825D01*
X71259Y-55832D01*
X71261Y-55845D01*
X71256Y-55861D01*
X71247Y-55870D01*
X71240Y-55873D01*
X71227Y-55875D01*
X71184Y-55861D01*
X71221Y-55749D01*
X71258Y-55761D01*
X71267Y-55770D01*
X71271Y-55777D01*
X71273Y-55790D01*
X71269Y-55800D01*
X71260Y-55809D01*
X71253Y-55813D01*
X71241Y-55815D01*
X71204Y-55803D01*
X70132Y-59852D02*
X70132Y-59734D01*
X70160Y-59734D01*
X70177Y-59740D01*
X70188Y-59751D01*
X70194Y-59762D01*
X70199Y-59785D01*
X70199Y-59802D01*
X70194Y-59824D01*
X70188Y-59836D01*
X70177Y-59847D01*
X70160Y-59852D01*
X70132Y-59852D01*
X70312Y-59852D02*
X70244Y-59852D01*
X70278Y-59852D02*
X70278Y-59734D01*
X70267Y-59751D01*
X70255Y-59762D01*
X70244Y-59768D01*
X70424Y-59852D02*
X70357Y-59852D01*
X70390Y-59852D02*
X70390Y-59734D01*
X70379Y-59751D01*
X70368Y-59762D01*
X70357Y-59768D01*
X69977Y-58352D02*
X69921Y-58352D01*
X69921Y-58234D01*
X70016Y-58291D02*
X70056Y-58291D01*
X70073Y-58352D02*
X70016Y-58352D01*
X70016Y-58234D01*
X70073Y-58234D01*
X70123Y-58352D02*
X70123Y-58234D01*
X70151Y-58234D01*
X70168Y-58240D01*
X70179Y-58251D01*
X70185Y-58262D01*
X70191Y-58285D01*
X70191Y-58302D01*
X70185Y-58324D01*
X70179Y-58336D01*
X70168Y-58347D01*
X70151Y-58352D01*
X70123Y-58352D01*
X70213Y-58364D02*
X70303Y-58364D01*
X70399Y-58352D02*
X70359Y-58296D01*
X70331Y-58352D02*
X70331Y-58234D01*
X70376Y-58234D01*
X70388Y-58240D01*
X70393Y-58246D01*
X70399Y-58257D01*
X70399Y-58274D01*
X70393Y-58285D01*
X70388Y-58291D01*
X70376Y-58296D01*
X70331Y-58296D01*
X70511Y-58240D02*
X70500Y-58234D01*
X70483Y-58234D01*
X70466Y-58240D01*
X70455Y-58251D01*
X70449Y-58262D01*
X70444Y-58285D01*
X70444Y-58302D01*
X70449Y-58324D01*
X70455Y-58336D01*
X70466Y-58347D01*
X70483Y-58352D01*
X70494Y-58352D01*
X70511Y-58347D01*
X70517Y-58341D01*
X70517Y-58302D01*
X70494Y-58302D01*
X70607Y-58291D02*
X70624Y-58296D01*
X70629Y-58302D01*
X70635Y-58313D01*
X70635Y-58330D01*
X70629Y-58341D01*
X70624Y-58347D01*
X70613Y-58352D01*
X70568Y-58352D01*
X70568Y-58234D01*
X70607Y-58234D01*
X70618Y-58240D01*
X70624Y-58246D01*
X70629Y-58257D01*
X70629Y-58268D01*
X70624Y-58279D01*
X70618Y-58285D01*
X70607Y-58291D01*
X70568Y-58291D01*
X70825Y-62470D02*
X70785Y-62358D01*
X70811Y-62349D01*
X70829Y-62349D01*
X70843Y-62355D01*
X70852Y-62364D01*
X70865Y-62383D01*
X70871Y-62399D01*
X70873Y-62422D01*
X70872Y-62435D01*
X70865Y-62449D01*
X70851Y-62460D01*
X70825Y-62470D01*
X70994Y-62409D02*
X70930Y-62431D01*
X70962Y-62420D02*
X70922Y-62309D01*
X70917Y-62329D01*
X70911Y-62343D01*
X70902Y-62352D01*
X71000Y-62293D02*
X71003Y-62286D01*
X71012Y-62277D01*
X71039Y-62267D01*
X71051Y-62268D01*
X71058Y-62272D01*
X71067Y-62281D01*
X71071Y-62291D01*
X71072Y-62309D01*
X71031Y-62395D01*
X71100Y-62371D01*
X70171Y-61111D02*
X70118Y-61130D01*
X70078Y-61019D01*
X70187Y-61039D02*
X70224Y-61026D01*
X70261Y-61078D02*
X70208Y-61097D01*
X70168Y-60986D01*
X70221Y-60967D01*
X70309Y-61061D02*
X70269Y-60950D01*
X70295Y-60940D01*
X70313Y-60940D01*
X70327Y-60947D01*
X70336Y-60955D01*
X70349Y-60975D01*
X70355Y-60991D01*
X70357Y-61014D01*
X70356Y-61026D01*
X70349Y-61041D01*
X70335Y-61052D01*
X70309Y-61061D01*
X70397Y-61041D02*
X70482Y-61011D01*
X70568Y-60968D02*
X70512Y-60928D01*
X70504Y-60991D02*
X70464Y-60880D01*
X70507Y-60864D01*
X70519Y-60866D01*
X70526Y-60869D01*
X70535Y-60878D01*
X70541Y-60894D01*
X70540Y-60906D01*
X70536Y-60913D01*
X70528Y-60922D01*
X70485Y-60938D01*
X70636Y-60824D02*
X70623Y-60822D01*
X70607Y-60828D01*
X70593Y-60839D01*
X70586Y-60853D01*
X70585Y-60866D01*
X70587Y-60889D01*
X70593Y-60905D01*
X70606Y-60924D01*
X70615Y-60933D01*
X70629Y-60940D01*
X70647Y-60939D01*
X70658Y-60935D01*
X70672Y-60924D01*
X70675Y-60917D01*
X70662Y-60880D01*
X70641Y-60888D01*
X70743Y-60839D02*
X70760Y-60839D01*
X70768Y-60842D01*
X70777Y-60851D01*
X70782Y-60867D01*
X70781Y-60879D01*
X70778Y-60886D01*
X70769Y-60895D01*
X70727Y-60911D01*
X70687Y-60799D01*
X70724Y-60786D01*
X70736Y-60788D01*
X70743Y-60791D01*
X70752Y-60800D01*
X70756Y-60810D01*
X70755Y-60823D01*
X70751Y-60830D01*
X70743Y-60839D01*
X70706Y-60852D01*
X72245Y-64760D02*
X72175Y-64664D01*
X72198Y-64647D01*
X72215Y-64642D01*
X72231Y-64645D01*
X72242Y-64650D01*
X72259Y-64665D01*
X72269Y-64679D01*
X72278Y-64700D01*
X72280Y-64713D01*
X72278Y-64729D01*
X72267Y-64743D01*
X72245Y-64760D01*
X72390Y-64654D02*
X72336Y-64693D01*
X72363Y-64674D02*
X72293Y-64578D01*
X72294Y-64598D01*
X72292Y-64614D01*
X72286Y-64625D01*
X72353Y-64535D02*
X72412Y-64492D01*
X72406Y-64552D01*
X72420Y-64542D01*
X72432Y-64540D01*
X72440Y-64541D01*
X72451Y-64547D01*
X72468Y-64569D01*
X72470Y-64582D01*
X72469Y-64590D01*
X72463Y-64601D01*
X72436Y-64621D01*
X72423Y-64623D01*
X72415Y-64622D01*
X71238Y-63637D02*
X71192Y-63670D01*
X71123Y-63574D01*
X71233Y-63564D02*
X71265Y-63541D01*
X71315Y-63581D02*
X71270Y-63614D01*
X71200Y-63518D01*
X71246Y-63485D01*
X71356Y-63551D02*
X71287Y-63455D01*
X71309Y-63439D01*
X71326Y-63434D01*
X71342Y-63436D01*
X71353Y-63442D01*
X71371Y-63457D01*
X71381Y-63470D01*
X71390Y-63492D01*
X71392Y-63504D01*
X71389Y-63520D01*
X71379Y-63534D01*
X71356Y-63551D01*
X71435Y-63507D02*
X71508Y-63454D01*
X71579Y-63389D02*
X71514Y-63367D01*
X71524Y-63429D02*
X71455Y-63333D01*
X71491Y-63307D01*
X71504Y-63305D01*
X71512Y-63306D01*
X71523Y-63312D01*
X71533Y-63325D01*
X71535Y-63338D01*
X71534Y-63346D01*
X71528Y-63357D01*
X71491Y-63383D01*
X71604Y-63232D02*
X71591Y-63234D01*
X71578Y-63244D01*
X71567Y-63258D01*
X71565Y-63274D01*
X71567Y-63286D01*
X71576Y-63308D01*
X71586Y-63322D01*
X71603Y-63336D01*
X71615Y-63342D01*
X71630Y-63345D01*
X71647Y-63339D01*
X71656Y-63333D01*
X71667Y-63318D01*
X71668Y-63310D01*
X71645Y-63279D01*
X71627Y-63292D01*
X71711Y-63217D02*
X71728Y-63211D01*
X71736Y-63213D01*
X71747Y-63218D01*
X71757Y-63232D01*
X71759Y-63244D01*
X71758Y-63252D01*
X71752Y-63263D01*
X71715Y-63290D01*
X71646Y-63194D01*
X71678Y-63171D01*
X71690Y-63169D01*
X71698Y-63170D01*
X71709Y-63176D01*
X71716Y-63185D01*
X71718Y-63198D01*
X71717Y-63205D01*
X71711Y-63217D01*
X71679Y-63240D01*
X87117Y-58352D02*
X87117Y-58234D01*
X87145Y-58234D01*
X87162Y-58240D01*
X87173Y-58251D01*
X87179Y-58262D01*
X87185Y-58285D01*
X87185Y-58302D01*
X87179Y-58324D01*
X87173Y-58336D01*
X87162Y-58347D01*
X87145Y-58352D01*
X87117Y-58352D01*
X87297Y-58352D02*
X87230Y-58352D01*
X87263Y-58352D02*
X87263Y-58234D01*
X87252Y-58251D01*
X87241Y-58262D01*
X87230Y-58268D01*
X86906Y-59852D02*
X86850Y-59852D01*
X86850Y-59734D01*
X86946Y-59791D02*
X86985Y-59791D01*
X87002Y-59852D02*
X86946Y-59852D01*
X86946Y-59734D01*
X87002Y-59734D01*
X87052Y-59852D02*
X87052Y-59734D01*
X87080Y-59734D01*
X87097Y-59740D01*
X87109Y-59751D01*
X87114Y-59762D01*
X87120Y-59785D01*
X87120Y-59802D01*
X87114Y-59824D01*
X87109Y-59836D01*
X87097Y-59847D01*
X87080Y-59852D01*
X87052Y-59852D01*
X87142Y-59864D02*
X87232Y-59864D01*
X87328Y-59852D02*
X87289Y-59796D01*
X87260Y-59852D02*
X87260Y-59734D01*
X87305Y-59734D01*
X87317Y-59740D01*
X87322Y-59746D01*
X87328Y-59757D01*
X87328Y-59774D01*
X87322Y-59785D01*
X87317Y-59791D01*
X87305Y-59796D01*
X87260Y-59796D01*
X87440Y-59740D02*
X87429Y-59734D01*
X87412Y-59734D01*
X87395Y-59740D01*
X87384Y-59751D01*
X87379Y-59762D01*
X87373Y-59785D01*
X87373Y-59802D01*
X87379Y-59824D01*
X87384Y-59836D01*
X87395Y-59847D01*
X87412Y-59852D01*
X87424Y-59852D01*
X87440Y-59847D01*
X87446Y-59841D01*
X87446Y-59802D01*
X87424Y-59802D01*
X87536Y-59791D02*
X87553Y-59796D01*
X87559Y-59802D01*
X87564Y-59813D01*
X87564Y-59830D01*
X87559Y-59841D01*
X87553Y-59847D01*
X87542Y-59852D01*
X87497Y-59852D01*
X87497Y-59734D01*
X87536Y-59734D01*
X87547Y-59740D01*
X87553Y-59746D01*
X87559Y-59757D01*
X87559Y-59768D01*
X87553Y-59779D01*
X87547Y-59785D01*
X87536Y-59791D01*
X87497Y-59791D01*
X76838Y-67488D02*
X76726Y-67451D01*
X76735Y-67425D01*
X76745Y-67410D01*
X76759Y-67403D01*
X76772Y-67401D01*
X76795Y-67403D01*
X76811Y-67408D01*
X76831Y-67420D01*
X76840Y-67429D01*
X76847Y-67443D01*
X76847Y-67461D01*
X76838Y-67488D01*
X76894Y-67317D02*
X76873Y-67381D01*
X76884Y-67349D02*
X76771Y-67312D01*
X76784Y-67328D01*
X76791Y-67342D01*
X76793Y-67355D01*
X76815Y-67179D02*
X76797Y-67232D01*
X76849Y-67255D01*
X76845Y-67248D01*
X76844Y-67235D01*
X76852Y-67209D01*
X76861Y-67200D01*
X76868Y-67196D01*
X76881Y-67194D01*
X76907Y-67203D01*
X76916Y-67212D01*
X76920Y-67219D01*
X76922Y-67231D01*
X76913Y-67258D01*
X76904Y-67267D01*
X76897Y-67271D01*
X75364Y-67172D02*
X75347Y-67225D01*
X75234Y-67189D01*
X75317Y-67115D02*
X75329Y-67078D01*
X75394Y-67081D02*
X75376Y-67134D01*
X75264Y-67098D01*
X75281Y-67044D01*
X75409Y-67032D02*
X75297Y-66996D01*
X75306Y-66969D01*
X75316Y-66955D01*
X75330Y-66948D01*
X75343Y-66946D01*
X75366Y-66947D01*
X75382Y-66953D01*
X75402Y-66965D01*
X75410Y-66974D01*
X75418Y-66988D01*
X75418Y-67006D01*
X75409Y-67032D01*
X75448Y-66950D02*
X75475Y-66865D01*
X75494Y-66770D02*
X75429Y-66790D01*
X75473Y-66835D02*
X75361Y-66798D01*
X75375Y-66755D01*
X75384Y-66746D01*
X75391Y-66743D01*
X75403Y-66741D01*
X75419Y-66746D01*
X75428Y-66755D01*
X75432Y-66762D01*
X75434Y-66774D01*
X75420Y-66817D01*
X75422Y-66629D02*
X75413Y-66638D01*
X75408Y-66654D01*
X75408Y-66671D01*
X75415Y-66686D01*
X75424Y-66694D01*
X75444Y-66707D01*
X75460Y-66712D01*
X75483Y-66714D01*
X75496Y-66712D01*
X75510Y-66704D01*
X75520Y-66690D01*
X75524Y-66679D01*
X75524Y-66662D01*
X75520Y-66655D01*
X75483Y-66642D01*
X75476Y-66664D01*
X75500Y-66553D02*
X75510Y-66539D01*
X75517Y-66535D01*
X75530Y-66534D01*
X75546Y-66539D01*
X75555Y-66548D01*
X75558Y-66555D01*
X75560Y-66567D01*
X75546Y-66610D01*
X75434Y-66573D01*
X75446Y-66536D01*
X75455Y-66527D01*
X75462Y-66523D01*
X75475Y-66521D01*
X75485Y-66525D01*
X75494Y-66534D01*
X75498Y-66541D01*
X75500Y-66553D01*
X75488Y-66591D01*
X79537Y-67663D02*
X79419Y-67663D01*
X79419Y-67634D01*
X79425Y-67618D01*
X79436Y-67606D01*
X79447Y-67601D01*
X79470Y-67595D01*
X79487Y-67595D01*
X79509Y-67601D01*
X79521Y-67606D01*
X79532Y-67618D01*
X79537Y-67634D01*
X79537Y-67663D01*
X79537Y-67483D02*
X79537Y-67550D01*
X79537Y-67516D02*
X79419Y-67516D01*
X79436Y-67528D01*
X79447Y-67539D01*
X79453Y-67550D01*
X79419Y-67381D02*
X79419Y-67404D01*
X79425Y-67415D01*
X79431Y-67421D01*
X79447Y-67432D01*
X79470Y-67438D01*
X79515Y-67438D01*
X79526Y-67432D01*
X79532Y-67426D01*
X79537Y-67415D01*
X79537Y-67393D01*
X79532Y-67381D01*
X79526Y-67376D01*
X79515Y-67370D01*
X79487Y-67370D01*
X79476Y-67376D01*
X79470Y-67381D01*
X79464Y-67393D01*
X79464Y-67415D01*
X79470Y-67426D01*
X79476Y-67432D01*
X79487Y-67438D01*
X78037Y-67817D02*
X78037Y-67874D01*
X77919Y-67874D01*
X77976Y-67778D02*
X77976Y-67739D01*
X78037Y-67722D02*
X78037Y-67778D01*
X77919Y-67778D01*
X77919Y-67722D01*
X78037Y-67671D02*
X77919Y-67671D01*
X77919Y-67643D01*
X77925Y-67626D01*
X77936Y-67615D01*
X77947Y-67609D01*
X77970Y-67604D01*
X77987Y-67604D01*
X78009Y-67609D01*
X78021Y-67615D01*
X78032Y-67626D01*
X78037Y-67643D01*
X78037Y-67671D01*
X78049Y-67581D02*
X78049Y-67491D01*
X78037Y-67395D02*
X77981Y-67435D01*
X78037Y-67463D02*
X77919Y-67463D01*
X77919Y-67418D01*
X77925Y-67407D01*
X77931Y-67401D01*
X77942Y-67395D01*
X77959Y-67395D01*
X77970Y-67401D01*
X77976Y-67407D01*
X77981Y-67418D01*
X77981Y-67463D01*
X77925Y-67283D02*
X77919Y-67294D01*
X77919Y-67311D01*
X77925Y-67328D01*
X77936Y-67339D01*
X77947Y-67345D01*
X77970Y-67350D01*
X77987Y-67350D01*
X78009Y-67345D01*
X78021Y-67339D01*
X78032Y-67328D01*
X78037Y-67311D01*
X78037Y-67300D01*
X78032Y-67283D01*
X78026Y-67277D01*
X77987Y-67277D01*
X77987Y-67300D01*
X77976Y-67187D02*
X77981Y-67170D01*
X77987Y-67165D01*
X77998Y-67159D01*
X78015Y-67159D01*
X78026Y-67165D01*
X78032Y-67170D01*
X78037Y-67182D01*
X78037Y-67227D01*
X77919Y-67227D01*
X77919Y-67187D01*
X77925Y-67176D01*
X77931Y-67170D01*
X77942Y-67165D01*
X77953Y-67165D01*
X77964Y-67170D01*
X77970Y-67176D01*
X77976Y-67187D01*
X77976Y-67227D01*
X81979Y-66752D02*
X82091Y-66715D01*
X82100Y-66742D01*
X82100Y-66760D01*
X82093Y-66774D01*
X82084Y-66783D01*
X82064Y-66795D01*
X82048Y-66800D01*
X82025Y-66802D01*
X82012Y-66800D01*
X81998Y-66793D01*
X81988Y-66778D01*
X81979Y-66752D01*
X82035Y-66923D02*
X82014Y-66859D01*
X82024Y-66891D02*
X82136Y-66854D01*
X82117Y-66849D01*
X82103Y-66841D01*
X82094Y-66833D01*
X82159Y-66924D02*
X82183Y-66999D01*
X82055Y-66987D01*
X80505Y-67068D02*
X80487Y-67015D01*
X80599Y-66978D01*
X80576Y-67086D02*
X80588Y-67124D01*
X80534Y-67159D02*
X80517Y-67105D01*
X80629Y-67069D01*
X80646Y-67122D01*
X80550Y-67207D02*
X80662Y-67171D01*
X80671Y-67197D01*
X80671Y-67215D01*
X80663Y-67229D01*
X80654Y-67238D01*
X80635Y-67250D01*
X80619Y-67256D01*
X80596Y-67257D01*
X80583Y-67255D01*
X80569Y-67248D01*
X80558Y-67234D01*
X80550Y-67207D01*
X80567Y-67296D02*
X80595Y-67382D01*
X80635Y-67469D02*
X80676Y-67414D01*
X80614Y-67405D02*
X80726Y-67369D01*
X80740Y-67411D01*
X80738Y-67424D01*
X80735Y-67431D01*
X80726Y-67440D01*
X80710Y-67445D01*
X80697Y-67443D01*
X80690Y-67439D01*
X80681Y-67430D01*
X80668Y-67388D01*
X80777Y-67541D02*
X80778Y-67529D01*
X80773Y-67513D01*
X80763Y-67499D01*
X80749Y-67491D01*
X80736Y-67490D01*
X80713Y-67491D01*
X80697Y-67496D01*
X80677Y-67509D01*
X80668Y-67518D01*
X80661Y-67532D01*
X80661Y-67549D01*
X80664Y-67560D01*
X80675Y-67574D01*
X80682Y-67578D01*
X80720Y-67566D01*
X80713Y-67545D01*
X80758Y-67648D02*
X80758Y-67666D01*
X80754Y-67673D01*
X80745Y-67682D01*
X80729Y-67687D01*
X80717Y-67685D01*
X80710Y-67681D01*
X80701Y-67672D01*
X80687Y-67630D01*
X80799Y-67593D01*
X80812Y-67631D01*
X80810Y-67643D01*
X80806Y-67650D01*
X80797Y-67659D01*
X80786Y-67662D01*
X80774Y-67661D01*
X80767Y-67657D01*
X80758Y-67648D01*
X80746Y-67611D01*
X84199Y-65374D02*
X84294Y-65304D01*
X84311Y-65327D01*
X84316Y-65344D01*
X84314Y-65360D01*
X84308Y-65371D01*
X84293Y-65389D01*
X84279Y-65399D01*
X84258Y-65407D01*
X84245Y-65409D01*
X84230Y-65407D01*
X84215Y-65397D01*
X84199Y-65374D01*
X84304Y-65519D02*
X84265Y-65465D01*
X84285Y-65492D02*
X84380Y-65423D01*
X84360Y-65424D01*
X84344Y-65421D01*
X84333Y-65415D01*
X84399Y-65534D02*
X84397Y-65522D01*
X84398Y-65514D01*
X84404Y-65503D01*
X84408Y-65500D01*
X84421Y-65498D01*
X84428Y-65499D01*
X84440Y-65505D01*
X84453Y-65523D01*
X84455Y-65535D01*
X84454Y-65543D01*
X84448Y-65554D01*
X84443Y-65558D01*
X84431Y-65560D01*
X84423Y-65558D01*
X84412Y-65553D01*
X84399Y-65534D01*
X84388Y-65529D01*
X84380Y-65527D01*
X84367Y-65529D01*
X84349Y-65543D01*
X84343Y-65554D01*
X84342Y-65562D01*
X84344Y-65574D01*
X84357Y-65592D01*
X84368Y-65598D01*
X84376Y-65599D01*
X84389Y-65597D01*
X84407Y-65584D01*
X84413Y-65573D01*
X84414Y-65565D01*
X84412Y-65553D01*
X82894Y-66130D02*
X82861Y-66085D01*
X82957Y-66016D01*
X82967Y-66126D02*
X82991Y-66158D01*
X82950Y-66208D02*
X82917Y-66162D01*
X83013Y-66093D01*
X83046Y-66138D01*
X82980Y-66249D02*
X83076Y-66179D01*
X83092Y-66202D01*
X83098Y-66219D01*
X83095Y-66235D01*
X83089Y-66246D01*
X83074Y-66264D01*
X83061Y-66274D01*
X83039Y-66282D01*
X83027Y-66284D01*
X83011Y-66282D01*
X82997Y-66271D01*
X82980Y-66249D01*
X83024Y-66328D02*
X83077Y-66401D01*
X83142Y-66472D02*
X83165Y-66407D01*
X83102Y-66417D02*
X83198Y-66348D01*
X83224Y-66384D01*
X83227Y-66396D01*
X83225Y-66404D01*
X83219Y-66415D01*
X83206Y-66425D01*
X83193Y-66427D01*
X83186Y-66426D01*
X83174Y-66420D01*
X83148Y-66384D01*
X83299Y-66497D02*
X83297Y-66484D01*
X83287Y-66471D01*
X83273Y-66460D01*
X83257Y-66458D01*
X83245Y-66460D01*
X83223Y-66468D01*
X83210Y-66478D01*
X83195Y-66496D01*
X83189Y-66507D01*
X83186Y-66523D01*
X83192Y-66540D01*
X83198Y-66549D01*
X83213Y-66559D01*
X83221Y-66561D01*
X83253Y-66537D01*
X83239Y-66519D01*
X83315Y-66604D02*
X83320Y-66621D01*
X83319Y-66628D01*
X83313Y-66640D01*
X83299Y-66650D01*
X83287Y-66652D01*
X83279Y-66650D01*
X83268Y-66645D01*
X83241Y-66608D01*
X83337Y-66539D01*
X83360Y-66571D01*
X83362Y-66583D01*
X83361Y-66591D01*
X83355Y-66602D01*
X83346Y-66609D01*
X83334Y-66611D01*
X83326Y-66609D01*
X83315Y-66604D01*
X83291Y-66572D01*
X85884Y-63377D02*
X85954Y-63282D01*
X85977Y-63298D01*
X85987Y-63313D01*
X85989Y-63329D01*
X85987Y-63341D01*
X85979Y-63362D01*
X85969Y-63376D01*
X85951Y-63391D01*
X85940Y-63397D01*
X85924Y-63399D01*
X85907Y-63394D01*
X85884Y-63377D01*
X86030Y-63483D02*
X85975Y-63444D01*
X86003Y-63463D02*
X86072Y-63368D01*
X86053Y-63375D01*
X86037Y-63377D01*
X86025Y-63375D01*
X86076Y-63516D02*
X86094Y-63529D01*
X86106Y-63532D01*
X86114Y-63530D01*
X86133Y-63523D01*
X86151Y-63508D01*
X86177Y-63472D01*
X86179Y-63460D01*
X86178Y-63452D01*
X86172Y-63441D01*
X86154Y-63427D01*
X86142Y-63425D01*
X86134Y-63427D01*
X86123Y-63432D01*
X86106Y-63455D01*
X86104Y-63467D01*
X86105Y-63475D01*
X86111Y-63486D01*
X86129Y-63500D01*
X86142Y-63502D01*
X86150Y-63501D01*
X86161Y-63495D01*
X84878Y-64500D02*
X84832Y-64467D01*
X84902Y-64371D01*
X84946Y-64473D02*
X84978Y-64496D01*
X84955Y-64556D02*
X84909Y-64523D01*
X84979Y-64428D01*
X85024Y-64461D01*
X84996Y-64586D02*
X85065Y-64490D01*
X85088Y-64507D01*
X85098Y-64521D01*
X85101Y-64537D01*
X85099Y-64550D01*
X85090Y-64571D01*
X85080Y-64585D01*
X85062Y-64600D01*
X85051Y-64605D01*
X85036Y-64608D01*
X85019Y-64603D01*
X84996Y-64586D01*
X85062Y-64648D02*
X85135Y-64701D01*
X85219Y-64748D02*
X85220Y-64679D01*
X85164Y-64708D02*
X85234Y-64613D01*
X85270Y-64639D01*
X85276Y-64650D01*
X85277Y-64658D01*
X85275Y-64671D01*
X85265Y-64684D01*
X85254Y-64690D01*
X85246Y-64691D01*
X85234Y-64689D01*
X85197Y-64663D01*
X85376Y-64723D02*
X85370Y-64712D01*
X85357Y-64702D01*
X85340Y-64697D01*
X85324Y-64699D01*
X85313Y-64705D01*
X85295Y-64720D01*
X85285Y-64733D01*
X85276Y-64755D01*
X85274Y-64767D01*
X85277Y-64783D01*
X85287Y-64798D01*
X85296Y-64804D01*
X85313Y-64810D01*
X85321Y-64808D01*
X85344Y-64776D01*
X85326Y-64763D01*
X85424Y-64820D02*
X85434Y-64835D01*
X85435Y-64843D01*
X85433Y-64855D01*
X85423Y-64869D01*
X85412Y-64874D01*
X85404Y-64876D01*
X85392Y-64874D01*
X85355Y-64847D01*
X85425Y-64752D01*
X85457Y-64775D01*
X85462Y-64786D01*
X85464Y-64794D01*
X85462Y-64806D01*
X85455Y-64815D01*
X85444Y-64821D01*
X85436Y-64822D01*
X85424Y-64820D01*
X85392Y-64797D01*
X86871Y-60958D02*
X86907Y-60846D01*
X86934Y-60855D01*
X86948Y-60865D01*
X86955Y-60879D01*
X86957Y-60892D01*
X86956Y-60915D01*
X86950Y-60931D01*
X86938Y-60951D01*
X86929Y-60960D01*
X86915Y-60967D01*
X86897Y-60967D01*
X86871Y-60958D01*
X87011Y-60891D02*
X87018Y-60888D01*
X87030Y-60886D01*
X87057Y-60895D01*
X87066Y-60903D01*
X87069Y-60910D01*
X87071Y-60923D01*
X87068Y-60934D01*
X87057Y-60948D01*
X86972Y-60991D01*
X87042Y-61014D01*
X87148Y-60924D02*
X87159Y-60928D01*
X87168Y-60936D01*
X87171Y-60943D01*
X87173Y-60956D01*
X87171Y-60979D01*
X87163Y-61006D01*
X87150Y-61025D01*
X87142Y-61034D01*
X87134Y-61038D01*
X87122Y-61040D01*
X87111Y-61036D01*
X87102Y-61028D01*
X87099Y-61021D01*
X87097Y-61008D01*
X87099Y-60985D01*
X87107Y-60958D01*
X87119Y-60939D01*
X87128Y-60930D01*
X87135Y-60926D01*
X87148Y-60924D01*
X86260Y-62337D02*
X86207Y-62320D01*
X86243Y-62207D01*
X86317Y-62290D02*
X86354Y-62303D01*
X86351Y-62367D02*
X86297Y-62349D01*
X86334Y-62237D01*
X86387Y-62254D01*
X86399Y-62382D02*
X86436Y-62270D01*
X86462Y-62279D01*
X86477Y-62289D01*
X86484Y-62303D01*
X86486Y-62316D01*
X86484Y-62339D01*
X86479Y-62355D01*
X86467Y-62375D01*
X86458Y-62384D01*
X86444Y-62391D01*
X86426Y-62391D01*
X86399Y-62382D01*
X86481Y-62421D02*
X86567Y-62449D01*
X86661Y-62467D02*
X86641Y-62402D01*
X86597Y-62447D02*
X86634Y-62334D01*
X86676Y-62348D01*
X86685Y-62357D01*
X86689Y-62364D01*
X86691Y-62376D01*
X86686Y-62392D01*
X86677Y-62401D01*
X86670Y-62405D01*
X86657Y-62407D01*
X86614Y-62393D01*
X86803Y-62395D02*
X86794Y-62386D01*
X86778Y-62381D01*
X86760Y-62381D01*
X86746Y-62388D01*
X86737Y-62397D01*
X86725Y-62417D01*
X86720Y-62433D01*
X86718Y-62456D01*
X86720Y-62469D01*
X86727Y-62483D01*
X86741Y-62493D01*
X86752Y-62497D01*
X86770Y-62497D01*
X86777Y-62493D01*
X86789Y-62456D01*
X86768Y-62449D01*
X86878Y-62473D02*
X86893Y-62483D01*
X86896Y-62490D01*
X86898Y-62503D01*
X86893Y-62519D01*
X86884Y-62528D01*
X86877Y-62532D01*
X86864Y-62533D01*
X86822Y-62520D01*
X86858Y-62407D01*
X86896Y-62419D01*
X86905Y-62428D01*
X86908Y-62435D01*
X86910Y-62448D01*
X86907Y-62458D01*
X86898Y-62467D01*
X86891Y-62471D01*
X86878Y-62473D01*
X86841Y-62461D01*
X85092Y-58352D02*
X85092Y-58234D01*
X85120Y-58234D01*
X85137Y-58240D01*
X85149Y-58251D01*
X85154Y-58262D01*
X85160Y-58285D01*
X85160Y-58302D01*
X85154Y-58324D01*
X85149Y-58336D01*
X85137Y-58347D01*
X85120Y-58352D01*
X85092Y-58352D01*
X85205Y-58246D02*
X85210Y-58240D01*
X85222Y-58234D01*
X85250Y-58234D01*
X85261Y-58240D01*
X85267Y-58246D01*
X85272Y-58257D01*
X85272Y-58268D01*
X85267Y-58285D01*
X85199Y-58352D01*
X85272Y-58352D01*
X85385Y-58352D02*
X85317Y-58352D01*
X85351Y-58352D02*
X85351Y-58234D01*
X85340Y-58251D01*
X85329Y-58262D01*
X85317Y-58268D01*
X84938Y-59852D02*
X84881Y-59852D01*
X84881Y-59734D01*
X84977Y-59791D02*
X85016Y-59791D01*
X85033Y-59852D02*
X84977Y-59852D01*
X84977Y-59734D01*
X85033Y-59734D01*
X85084Y-59852D02*
X85084Y-59734D01*
X85112Y-59734D01*
X85129Y-59740D01*
X85140Y-59751D01*
X85146Y-59762D01*
X85151Y-59785D01*
X85151Y-59802D01*
X85146Y-59824D01*
X85140Y-59836D01*
X85129Y-59847D01*
X85112Y-59852D01*
X85084Y-59852D01*
X85174Y-59864D02*
X85264Y-59864D01*
X85359Y-59852D02*
X85320Y-59796D01*
X85292Y-59852D02*
X85292Y-59734D01*
X85337Y-59734D01*
X85348Y-59740D01*
X85354Y-59746D01*
X85359Y-59757D01*
X85359Y-59774D01*
X85354Y-59785D01*
X85348Y-59791D01*
X85337Y-59796D01*
X85292Y-59796D01*
X85472Y-59740D02*
X85461Y-59734D01*
X85444Y-59734D01*
X85427Y-59740D01*
X85416Y-59751D01*
X85410Y-59762D01*
X85404Y-59785D01*
X85404Y-59802D01*
X85410Y-59824D01*
X85416Y-59836D01*
X85427Y-59847D01*
X85444Y-59852D01*
X85455Y-59852D01*
X85472Y-59847D01*
X85478Y-59841D01*
X85478Y-59802D01*
X85455Y-59802D01*
X85568Y-59791D02*
X85584Y-59796D01*
X85590Y-59802D01*
X85596Y-59813D01*
X85596Y-59830D01*
X85590Y-59841D01*
X85584Y-59847D01*
X85573Y-59852D01*
X85528Y-59852D01*
X85528Y-59734D01*
X85568Y-59734D01*
X85579Y-59740D01*
X85584Y-59746D01*
X85590Y-59757D01*
X85590Y-59768D01*
X85584Y-59779D01*
X85579Y-59785D01*
X85568Y-59791D01*
X85528Y-59791D01*
X84258Y-55829D02*
X84210Y-55721D01*
X84235Y-55710D01*
X84253Y-55708D01*
X84268Y-55714D01*
X84278Y-55722D01*
X84292Y-55740D01*
X84299Y-55756D01*
X84303Y-55778D01*
X84302Y-55791D01*
X84296Y-55806D01*
X84283Y-55818D01*
X84258Y-55829D01*
X84317Y-55686D02*
X84320Y-55679D01*
X84328Y-55669D01*
X84354Y-55657D01*
X84366Y-55658D01*
X84373Y-55661D01*
X84383Y-55669D01*
X84388Y-55679D01*
X84390Y-55697D01*
X84355Y-55786D01*
X84422Y-55756D01*
X84420Y-55640D02*
X84423Y-55633D01*
X84431Y-55623D01*
X84456Y-55612D01*
X84469Y-55612D01*
X84476Y-55615D01*
X84486Y-55623D01*
X84491Y-55633D01*
X84492Y-55651D01*
X84458Y-55740D01*
X84525Y-55710D01*
X84726Y-57263D02*
X84675Y-57285D01*
X84627Y-57178D01*
X84737Y-57190D02*
X84773Y-57174D01*
X84814Y-57224D02*
X84762Y-57247D01*
X84714Y-57139D01*
X84766Y-57116D01*
X84860Y-57203D02*
X84812Y-57095D01*
X84838Y-57084D01*
X84855Y-57082D01*
X84870Y-57088D01*
X84880Y-57096D01*
X84894Y-57114D01*
X84901Y-57129D01*
X84905Y-57152D01*
X84905Y-57165D01*
X84899Y-57180D01*
X84886Y-57192D01*
X84860Y-57203D01*
X84947Y-57177D02*
X85029Y-57140D01*
X85112Y-57091D02*
X85053Y-57056D01*
X85050Y-57118D02*
X85002Y-57011D01*
X85043Y-56992D01*
X85056Y-56993D01*
X85063Y-56996D01*
X85073Y-57004D01*
X85080Y-57019D01*
X85079Y-57032D01*
X85076Y-57039D01*
X85068Y-57049D01*
X85027Y-57067D01*
X85169Y-56942D02*
X85156Y-56942D01*
X85141Y-56949D01*
X85128Y-56961D01*
X85122Y-56976D01*
X85121Y-56988D01*
X85125Y-57011D01*
X85132Y-57026D01*
X85147Y-57045D01*
X85156Y-57053D01*
X85171Y-57058D01*
X85189Y-57057D01*
X85199Y-57052D01*
X85212Y-57040D01*
X85215Y-57033D01*
X85199Y-56997D01*
X85179Y-57006D01*
X85277Y-56950D02*
X85294Y-56948D01*
X85302Y-56951D01*
X85312Y-56959D01*
X85318Y-56974D01*
X85318Y-56987D01*
X85315Y-56994D01*
X85307Y-57004D01*
X85266Y-57022D01*
X85218Y-56914D01*
X85254Y-56898D01*
X85266Y-56899D01*
X85274Y-56902D01*
X85284Y-56910D01*
X85288Y-56920D01*
X85288Y-56933D01*
X85285Y-56940D01*
X85277Y-56950D01*
X85241Y-56966D01*
X82469Y-53864D02*
X82381Y-53785D01*
X82400Y-53764D01*
X82415Y-53755D01*
X82431Y-53754D01*
X82443Y-53758D01*
X82464Y-53768D01*
X82476Y-53780D01*
X82489Y-53799D01*
X82494Y-53811D01*
X82495Y-53827D01*
X82488Y-53843D01*
X82469Y-53864D01*
X82465Y-53709D02*
X82464Y-53701D01*
X82467Y-53689D01*
X82486Y-53668D01*
X82498Y-53663D01*
X82506Y-53663D01*
X82518Y-53666D01*
X82526Y-53674D01*
X82535Y-53689D01*
X82540Y-53784D01*
X82589Y-53730D01*
X82528Y-53622D02*
X82577Y-53567D01*
X82584Y-53627D01*
X82595Y-53614D01*
X82607Y-53610D01*
X82615Y-53609D01*
X82627Y-53613D01*
X82648Y-53631D01*
X82652Y-53643D01*
X82653Y-53651D01*
X82649Y-53663D01*
X82627Y-53688D01*
X82615Y-53693D01*
X82607Y-53693D01*
X83480Y-54982D02*
X83442Y-55024D01*
X83355Y-54945D01*
X83460Y-54912D02*
X83487Y-54883D01*
X83544Y-54911D02*
X83506Y-54953D01*
X83419Y-54874D01*
X83456Y-54832D01*
X83578Y-54874D02*
X83490Y-54795D01*
X83509Y-54774D01*
X83524Y-54765D01*
X83540Y-54764D01*
X83552Y-54768D01*
X83573Y-54778D01*
X83585Y-54790D01*
X83598Y-54809D01*
X83603Y-54821D01*
X83604Y-54837D01*
X83597Y-54853D01*
X83578Y-54874D01*
X83646Y-54814D02*
X83707Y-54748D01*
X83762Y-54669D02*
X83694Y-54661D01*
X83717Y-54719D02*
X83629Y-54640D01*
X83659Y-54607D01*
X83671Y-54602D01*
X83679Y-54602D01*
X83691Y-54605D01*
X83704Y-54616D01*
X83708Y-54628D01*
X83709Y-54636D01*
X83705Y-54648D01*
X83675Y-54681D01*
X83754Y-54510D02*
X83742Y-54515D01*
X83731Y-54527D01*
X83724Y-54544D01*
X83725Y-54559D01*
X83729Y-54571D01*
X83742Y-54590D01*
X83755Y-54602D01*
X83775Y-54613D01*
X83787Y-54616D01*
X83803Y-54615D01*
X83819Y-54606D01*
X83826Y-54598D01*
X83833Y-54582D01*
X83833Y-54574D01*
X83804Y-54547D01*
X83789Y-54564D01*
X83855Y-54473D02*
X83871Y-54464D01*
X83879Y-54464D01*
X83891Y-54467D01*
X83904Y-54478D01*
X83908Y-54490D01*
X83909Y-54498D01*
X83905Y-54510D01*
X83875Y-54544D01*
X83787Y-54465D01*
X83814Y-54435D01*
X83825Y-54431D01*
X83833Y-54430D01*
X83845Y-54434D01*
X83854Y-54441D01*
X83858Y-54453D01*
X83859Y-54461D01*
X83855Y-54473D01*
X83829Y-54502D01*
X80035Y-52796D02*
X79923Y-52760D01*
X79931Y-52733D01*
X79942Y-52719D01*
X79956Y-52711D01*
X79969Y-52709D01*
X79992Y-52711D01*
X80008Y-52716D01*
X80027Y-52729D01*
X80036Y-52737D01*
X80044Y-52752D01*
X80044Y-52769D01*
X80035Y-52796D01*
X79968Y-52656D02*
X79965Y-52649D01*
X79963Y-52637D01*
X79971Y-52610D01*
X79980Y-52601D01*
X79987Y-52597D01*
X80000Y-52595D01*
X80010Y-52599D01*
X80025Y-52609D01*
X80068Y-52694D01*
X80091Y-52625D01*
X80047Y-52504D02*
X80122Y-52529D01*
X79996Y-52517D02*
X80067Y-52570D01*
X80090Y-52500D01*
X81414Y-53407D02*
X81396Y-53460D01*
X81284Y-53424D01*
X81367Y-53350D02*
X81379Y-53313D01*
X81443Y-53316D02*
X81426Y-53369D01*
X81314Y-53333D01*
X81331Y-53279D01*
X81459Y-53268D02*
X81347Y-53231D01*
X81355Y-53204D01*
X81366Y-53190D01*
X81380Y-53183D01*
X81393Y-53181D01*
X81416Y-53183D01*
X81432Y-53188D01*
X81451Y-53200D01*
X81460Y-53209D01*
X81468Y-53223D01*
X81468Y-53241D01*
X81459Y-53268D01*
X81497Y-53186D02*
X81525Y-53100D01*
X81544Y-53006D02*
X81478Y-53026D01*
X81523Y-53070D02*
X81411Y-53033D01*
X81425Y-52990D01*
X81434Y-52981D01*
X81441Y-52978D01*
X81453Y-52976D01*
X81469Y-52981D01*
X81478Y-52990D01*
X81482Y-52997D01*
X81484Y-53010D01*
X81470Y-53052D01*
X81472Y-52864D02*
X81463Y-52873D01*
X81458Y-52889D01*
X81458Y-52907D01*
X81465Y-52921D01*
X81474Y-52930D01*
X81494Y-52942D01*
X81510Y-52947D01*
X81533Y-52949D01*
X81545Y-52947D01*
X81560Y-52940D01*
X81570Y-52925D01*
X81574Y-52915D01*
X81574Y-52897D01*
X81570Y-52890D01*
X81532Y-52878D01*
X81526Y-52899D01*
X81550Y-52788D02*
X81560Y-52774D01*
X81567Y-52771D01*
X81580Y-52769D01*
X81596Y-52774D01*
X81605Y-52783D01*
X81608Y-52790D01*
X81610Y-52802D01*
X81596Y-52845D01*
X81484Y-52809D01*
X81496Y-52771D01*
X81505Y-52762D01*
X81512Y-52759D01*
X81524Y-52757D01*
X81535Y-52760D01*
X81544Y-52769D01*
X81548Y-52776D01*
X81550Y-52788D01*
X81537Y-52826D01*
X77252Y-52535D02*
X77370Y-52522D01*
X77372Y-52550D01*
X77369Y-52568D01*
X77359Y-52580D01*
X77348Y-52587D01*
X77326Y-52595D01*
X77309Y-52597D01*
X77287Y-52593D01*
X77275Y-52589D01*
X77262Y-52579D01*
X77255Y-52563D01*
X77252Y-52535D01*
X77370Y-52635D02*
X77376Y-52640D01*
X77383Y-52651D01*
X77386Y-52679D01*
X77382Y-52691D01*
X77377Y-52697D01*
X77366Y-52704D01*
X77355Y-52705D01*
X77337Y-52701D01*
X77263Y-52641D01*
X77271Y-52714D01*
X77400Y-52808D02*
X77394Y-52752D01*
X77337Y-52752D01*
X77343Y-52757D01*
X77350Y-52768D01*
X77353Y-52796D01*
X77349Y-52807D01*
X77344Y-52814D01*
X77333Y-52820D01*
X77305Y-52823D01*
X77293Y-52819D01*
X77287Y-52814D01*
X77280Y-52803D01*
X77277Y-52775D01*
X77282Y-52763D01*
X77287Y-52757D01*
X78728Y-52224D02*
X78722Y-52168D01*
X78839Y-52156D01*
X78793Y-52257D02*
X78797Y-52296D01*
X78738Y-52319D02*
X78732Y-52263D01*
X78849Y-52251D01*
X78855Y-52307D01*
X78743Y-52370D02*
X78860Y-52357D01*
X78863Y-52385D01*
X78860Y-52403D01*
X78850Y-52415D01*
X78839Y-52422D01*
X78817Y-52430D01*
X78800Y-52431D01*
X78777Y-52428D01*
X78766Y-52424D01*
X78753Y-52414D01*
X78746Y-52398D01*
X78743Y-52370D01*
X78741Y-52460D02*
X78751Y-52550D01*
X78772Y-52644D02*
X78824Y-52599D01*
X78765Y-52577D02*
X78882Y-52564D01*
X78887Y-52609D01*
X78882Y-52621D01*
X78877Y-52627D01*
X78867Y-52634D01*
X78850Y-52635D01*
X78838Y-52631D01*
X78832Y-52626D01*
X78825Y-52615D01*
X78821Y-52571D01*
X78895Y-52744D02*
X78900Y-52732D01*
X78898Y-52715D01*
X78891Y-52699D01*
X78878Y-52689D01*
X78867Y-52685D01*
X78844Y-52681D01*
X78827Y-52683D01*
X78805Y-52691D01*
X78794Y-52698D01*
X78784Y-52710D01*
X78781Y-52728D01*
X78782Y-52739D01*
X78789Y-52755D01*
X78795Y-52760D01*
X78834Y-52756D01*
X78832Y-52733D01*
X78855Y-52844D02*
X78851Y-52862D01*
X78846Y-52868D01*
X78836Y-52874D01*
X78819Y-52876D01*
X78807Y-52872D01*
X78801Y-52867D01*
X78794Y-52856D01*
X78789Y-52811D01*
X78907Y-52799D01*
X78911Y-52838D01*
X78907Y-52850D01*
X78902Y-52856D01*
X78891Y-52863D01*
X78880Y-52864D01*
X78868Y-52860D01*
X78862Y-52855D01*
X78855Y-52844D01*
X78851Y-52805D01*
M02*
