M48
INCH,TZ
T1C0.025
T2C0.030
%
G90
G05
T1
X82650Y-63150
X84150Y-64600
T2
X71100Y-60500
X71450Y-62050
X71600Y-55750
X73200Y-61050
X75050Y-56050
X76600Y-65100
X76700Y-55600
X76800Y-62400
X77000Y-51100
X78400Y-60100
X78500Y-57700
X78700Y-51800
X78700Y-58800
X78900Y-60300
X79250Y-56650
X79900Y-54450
X80200Y-52300
X80950Y-55900
X81300Y-61900
X81750Y-60300
X81950Y-57950
X82050Y-66500
X82400Y-51200
X84050Y-61150
X86050Y-56050
T0
M30
